# Blender 4.5.3 LTS
# www.blender.org
mtllib PlayBuilding_5.mtl
o 立方体.001
v -13.113317 24.639185 -0.168858
v -12.418759 23.944630 149.163437
v 13.113317 24.639185 -0.168858
v 12.418759 23.944630 149.163437
v -13.113317 -24.639172 -0.168858
v -12.418759 -23.944616 149.163437
v 13.113317 -24.639172 -0.168858
v 12.418759 -23.944616 149.163437
v -13.113317 24.639185 38.134266
v 13.113317 24.639185 38.134266
v 13.113317 -24.639172 38.134266
v -13.113317 -24.639172 38.134266
v -13.113317 24.639185 149.163437
v 13.113317 24.639185 149.163437
v 13.113317 -24.639172 149.163437
v -13.113317 -24.639172 149.163437
v -12.418759 23.944630 149.163925
v 12.418759 23.944630 149.163925
v 12.418759 -23.944616 149.163925
v -12.418759 -23.944616 149.163925
v 2.263419 -13.581375 149.543869
v 3.451754 -14.769711 152.076843
v 9.754531 -13.581375 149.543869
v 8.566195 -14.769711 152.076843
v 2.263419 -21.072489 149.543869
v 3.451754 -19.884153 152.076843
v 9.754531 -21.072489 149.543869
v 8.566195 -19.884153 152.076843
v -10.116331 18.552069 148.431641
v -8.927997 17.363735 150.964630
v -2.625220 18.552069 148.431641
v -3.813555 17.363735 150.964630
v -10.116331 11.060959 148.431641
v -8.927997 12.249293 150.964630
v -2.625220 11.060959 148.431641
v -3.813555 12.249293 150.964630
v 2.263419 -13.581375 152.076843
v 9.754531 -13.581375 152.076843
v 9.754531 -21.072489 152.076843
v 2.263419 -21.072489 152.076843
v -10.116331 18.552069 150.964630
v -2.625220 18.552069 150.964630
v -2.625220 11.060959 150.964630
v -10.116331 11.060959 150.964630
v 3.451754 -14.769711 152.936859
v 8.566195 -14.769711 152.936859
v 8.566195 -19.884153 152.936859
v 3.451754 -19.884153 152.936859
v -8.927997 17.363735 151.824646
v -3.813555 17.363735 151.824646
v -3.813555 12.249293 151.824646
v -8.927997 12.249293 151.824646
v -2.688139 -9.297577 149.051407
v -2.688139 -9.297577 150.113449
v 12.562564 -9.297577 149.051407
v 12.562564 -9.297577 150.113449
v -2.688139 -24.085346 149.051407
v -2.688139 -24.085346 150.113449
v 12.562564 -24.085346 149.051407
v 12.562564 -24.085346 150.113449
v 8.839052 13.469147 153.180878
v 8.839052 16.591278 153.180878
v 4.316943 16.591278 153.180878
v 4.316943 13.469147 153.180878
v 8.839052 13.469147 152.682938
v 8.839052 16.591278 152.682938
v 4.316943 16.591278 152.682938
v 4.316943 13.469147 152.682938
v 9.405118 16.982096 152.682938
v 9.405118 16.982096 148.476990
v 9.405118 13.078326 152.682938
v 9.405118 13.078326 148.476990
v 3.750877 16.982096 152.682938
v 3.750877 16.982096 148.476990
v 3.750877 13.078326 152.682938
v 3.750877 13.078326 148.476990
v 3.750877 18.042635 148.476990
v 3.750877 18.042635 152.682938
v 3.750877 21.946402 148.476990
v 3.750877 21.946402 152.682938
v 9.405118 18.042635 148.476990
v 9.405118 18.042635 152.682938
v 9.405118 21.946402 148.476990
v 9.405118 21.946402 152.682938
v 4.316943 18.433455 152.682938
v 4.316943 21.555586 152.682938
v 8.839052 21.555586 152.682938
v 8.839052 18.433455 152.682938
v 4.316943 18.433455 153.180878
v 4.316943 21.555586 153.180878
v 8.839052 21.555586 153.180878
v 8.839052 18.433455 153.180878
v 8.839052 8.504838 153.180878
v 8.839052 11.626970 153.180878
v 4.316943 11.626970 153.180878
v 4.316943 8.504838 153.180878
v 8.839052 8.504838 152.682938
v 8.839052 11.626970 152.682938
v 4.316943 11.626970 152.682938
v 4.316943 8.504838 152.682938
v 9.405118 12.017787 152.682938
v 9.405118 12.017787 148.476990
v 9.405118 8.114019 152.682938
v 9.405118 8.114019 148.476990
v 3.750877 12.017787 152.682938
v 3.750877 12.017787 148.476990
v 3.750877 8.114019 152.682938
v 3.750877 8.114019 148.476990
v -4.936897 -16.006416 153.180878
v -4.936897 -12.884286 153.180878
v -9.459005 -12.884286 153.180878
v -9.459005 -16.006416 153.180878
v -4.936897 -16.006416 152.682938
v -4.936897 -12.884286 152.682938
v -9.459005 -12.884286 152.682938
v -9.459005 -16.006416 152.682938
v -4.370832 -12.493469 152.682938
v -4.370832 -12.493469 148.476990
v -4.370832 -16.397236 152.682938
v -4.370832 -16.397236 148.476990
v -10.025072 -12.493469 152.682938
v -10.025072 -12.493469 148.476990
v -10.025072 -16.397236 152.682938
v -10.025072 -16.397236 148.476990
v -10.025072 -11.432929 148.476990
v -10.025072 -11.432929 152.682938
v -10.025072 -7.529161 148.476990
v -10.025072 -7.529161 152.682938
v -4.370832 -11.432929 148.476990
v -4.370832 -11.432929 152.682938
v -4.370832 -7.529161 148.476990
v -4.370832 -7.529161 152.682938
v -9.459005 -11.042109 152.682938
v -9.459005 -7.919979 152.682938
v -4.936897 -7.919979 152.682938
v -4.936897 -11.042109 152.682938
v -9.459005 -11.042109 153.180878
v -9.459005 -7.919979 153.180878
v -4.936897 -7.919979 153.180878
v -4.936897 -11.042109 153.180878
v -4.936897 -20.970724 153.180878
v -4.936897 -17.848593 153.180878
v -9.459005 -17.848593 153.180878
v -9.459005 -20.970724 153.180878
v -4.936897 -20.970724 152.682938
v -4.936897 -17.848593 152.682938
v -9.459005 -17.848593 152.682938
v -9.459005 -20.970724 152.682938
v -4.370832 -17.457775 152.682938
v -4.370832 -17.457775 148.476990
v -4.370832 -21.361546 152.682938
v -4.370832 -21.361546 148.476990
v -10.025072 -17.457775 152.682938
v -10.025072 -17.457775 148.476990
v -10.025072 -21.361546 152.682938
v -10.025072 -21.361546 148.476990
v -12.695645 4.219423 149.051407
v -12.695645 4.219423 150.113449
v 12.703512 4.219423 149.051407
v 12.703512 4.219423 150.113449
v -12.695645 -3.162457 149.051407
v -12.695645 -3.162457 150.113449
v 12.703512 -3.162457 149.051407
v 12.703512 -3.162457 150.113449
v -13.113317 24.639185 110.812469
v 13.113317 24.639185 110.812469
v 13.113317 -24.639172 110.812469
v -13.113317 -24.639172 110.812469
vn -0.0000 1.0000 -0.0000
vn 1.0000 -0.0000 -0.0000
vn -0.0000 -1.0000 -0.0000
vn -1.0000 -0.0000 -0.0000
vn -0.0000 -0.0000 -1.0000
vn -0.0000 -0.0000 1.0000
vn -0.0000 0.0001 1.0000
vn -0.0000 -0.0001 1.0000
vt 0.646415 0.742926
vt 0.696308 0.639473
vt 0.646415 0.639473
vt 0.624489 0.742926
vt 0.718234 0.639473
vt 0.624489 0.639473
vt 0.696308 0.742926
vt 0.696308 0.639473
vt 0.718234 0.742926
vt 0.718234 0.629797
vt 0.624489 0.566986
vt 0.624489 0.629797
vt 0.081183 0.064506
vt 0.074290 0.242848
vt 0.081183 0.242848
vt 0.718234 0.536020
vt 0.624489 0.626431
vt 0.718234 0.626431
vt 0.696308 0.536020
vt 0.646415 0.626431
vt 0.696308 0.626431
vt 0.624489 0.536020
vt 0.646415 0.536020
vt 0.141510 0.128573
vt 0.140587 0.085865
vt 0.141510 0.087027
vt 0.206062 0.129734
vt 0.140587 0.129734
vt 0.205139 0.087027
vt 0.205139 0.128573
vt 0.206062 0.085865
vt 0.074290 0.064506
vt 0.081183 0.107429
vt 0.074290 0.199925
vt 0.081183 0.199925
vt 0.074290 0.107429
vt 0.401166 0.175202
vt 0.391102 0.110760
vt 0.391102 0.175202
vt 0.423066 0.175202
vt 0.413001 0.110760
vt 0.413001 0.175202
vt 0.411266 0.110760
vt 0.401202 0.175202
vt 0.401202 0.110760
vt 0.433165 0.110760
vt 0.423101 0.175202
vt 0.423101 0.110760
vt 0.413262 0.119578
vt 0.374102 0.168878
vt 0.413262 0.168878
vt 0.477506 0.131985
vt 0.482292 0.167814
vt 0.477506 0.167814
vt 0.482292 0.131985
vt 0.459211 0.165578
vt 0.367234 0.175958
vt 0.384576 0.165578
vt 0.476552 0.110522
vt 0.476552 0.175958
vt 0.384576 0.120902
vt 0.459211 0.120902
vt 0.367234 0.110522
vt 0.420638 0.110681
vt 0.369938 0.050749
vt 0.420638 0.050749
vt 0.420638 0.237622
vt 0.369938 0.177690
vt 0.420638 0.177690
vt 0.477506 0.192918
vt 0.482292 0.228747
vt 0.477506 0.228747
vt 0.482292 0.192918
vt 0.477506 0.198281
vt 0.482292 0.162452
vt 0.477506 0.162452
vt 0.482292 0.198281
vt 0.477506 0.162452
vt 0.482292 0.162452
vt 0.102439 0.133430
vt 0.102439 0.092683
vt 0.050436 0.092683
vt 0.050436 0.133430
vt 0.339062 0.143249
vt 0.290799 0.143249
vt 0.103240 0.236381
vt 0.100600 0.190921
vt 0.103240 0.185864
vt 0.349162 0.119990
vt 0.275717 0.119990
vt 0.278208 0.143249
vt 0.351653 0.143249
vt 0.275853 0.119729
vt 0.324116 0.119729
vt 0.350195 0.198923
vt 0.274340 0.249007
vt 0.274340 0.198923
vt 0.275717 0.054798
vt 0.349162 0.054798
vt 0.079511 0.190921
vt 0.076871 0.185864
vt 0.079511 0.231324
vt 0.076871 0.236381
vt 0.100600 0.231324
vt 0.324116 0.054537
vt 0.275853 0.054537
vt 0.290799 0.078057
vt 0.339062 0.078057
vt 0.351653 0.078057
vt 0.278208 0.078057
vt 0.350195 0.249007
vt 0.437902 0.243300
vt 0.431235 0.042572
vt 0.431235 0.243300
vt 0.368758 0.147133
vt 0.415098 0.138739
vt 0.368758 0.138739
vt 0.437902 0.042572
vt 0.415098 0.147133
vt 0.415098 0.243300
vt 0.368758 0.042572
vt 0.368758 0.243300
vt 0.415098 0.042572
vt 0.718234 0.700329
vt 0.624489 0.521688
vt 0.718234 0.521688
vt 0.696308 0.700329
vt 0.646415 0.521688
vt 0.696308 0.521688
vt 0.624489 0.700329
vt 0.646415 0.700329
vt 0.696308 0.521688
vt 0.718234 0.566986
vt 0.696308 0.536020
vt 0.401166 0.110760
vt 0.423066 0.110760
vt 0.411266 0.175202
vt 0.433165 0.175202
vt 0.374102 0.119578
vt 0.369938 0.110681
vt 0.369938 0.237622
vt 0.696308 0.700329
s 0
usemtl 1
f 13/1/1 166/2/1 165/3/1
f 14/4/2 167/5/2 166/6/2
f 15/7/3 168/3/3 167/8/3
f 16/9/4 165/6/4 168/5/4
f 7/10/5 1/11/5 3/12/5
f 6/13/4 17/14/4 2/15/4
f 12/16/4 1/17/4 5/18/4
f 11/19/3 5/20/3 7/21/3
f 10/22/2 7/18/2 3/17/2
f 9/23/1 3/21/1 1/20/1
f 4/24/6 13/25/6 2/26/6
f 4/24/6 15/27/6 14/28/6
f 6/29/6 15/27/6 8/30/6
f 6/29/6 13/25/6 16/31/6
f 18/24/6 20/29/6 19/30/6
f 4/15/2 19/32/2 8/13/2
f 8/33/3 20/34/3 6/35/3
f 2/35/1 18/36/1 4/33/1
f 37/37/1 23/38/1 21/39/1
f 38/40/2 27/41/2 23/42/2
f 39/43/3 25/44/3 27/45/3
f 40/46/4 21/47/4 25/48/4
f 27/49/5 21/50/5 23/51/5
f 32/52/2 51/53/2 36/54/2
f 41/37/1 31/38/1 29/39/1
f 42/40/2 35/41/2 31/42/2
f 43/43/3 33/44/3 35/45/3
f 44/46/4 29/47/4 33/48/4
f 35/49/5 29/50/5 31/51/5
f 34/54/4 49/55/4 30/52/4
f 24/56/6 37/57/6 22/58/6
f 24/56/6 39/59/6 38/60/6
f 26/61/6 39/59/6 28/62/6
f 22/58/6 40/63/6 26/61/6
f 32/56/6 41/57/6 30/58/6
f 36/62/6 42/60/6 32/56/6
f 34/61/6 43/59/6 36/62/6
f 34/61/6 41/57/6 44/63/6
f 46/64/6 48/65/6 47/66/6
f 50/67/6 52/68/6 51/69/6
f 26/70/4 45/71/4 22/72/4
f 24/72/2 47/73/2 28/70/2
f 36/74/3 52/75/3 34/76/3
f 30/76/1 50/77/1 32/74/1
f 28/78/3 48/77/3 26/74/3
f 22/74/1 46/79/1 24/78/1
f 54/80/1 55/81/1 53/80/1
f 56/81/2 59/82/2 55/81/2
f 60/82/3 57/83/3 59/82/3
f 58/83/4 53/80/4 57/83/4
f 59/82/5 53/80/5 55/81/5
f 56/81/6 58/83/6 60/82/6
f 66/84/2 61/85/2 65/85/2
f 73/86/6 66/87/6 69/88/6
f 65/89/3 64/90/3 68/90/3
f 67/91/1 62/92/1 66/92/1
f 68/93/4 63/94/4 67/94/4
f 63/95/6 61/96/6 62/97/6
f 71/89/3 76/98/3 72/99/3
f 69/88/6 65/100/6 71/101/6
f 71/101/6 68/102/6 75/103/6
f 73/86/6 68/102/6 67/104/6
f 75/93/4 74/105/4 76/106/4
f 69/84/2 72/107/2 70/108/2
f 73/91/1 70/109/1 74/110/1
f 70/97/5 76/111/5 74/95/5
f 78/93/4 79/105/4 77/106/4
f 80/91/1 83/109/1 79/110/1
f 84/84/2 81/107/2 83/108/2
f 82/89/3 77/98/3 81/99/3
f 83/97/5 77/111/5 79/95/5
f 80/86/6 85/102/6 86/104/6
f 88/89/3 89/90/3 85/90/3
f 82/101/6 85/102/6 78/103/6
f 80/86/6 87/87/6 84/88/6
f 84/88/6 88/100/6 82/101/6
f 90/95/6 92/96/6 91/97/6
f 86/91/1 91/92/1 87/92/1
f 87/84/2 92/85/2 88/85/2
f 85/93/4 90/94/4 86/94/4
f 98/84/2 93/85/2 97/85/2
f 101/88/7 99/104/7 98/87/7
f 97/89/3 96/90/3 100/90/3
f 99/91/1 94/92/1 98/92/1
f 100/93/4 95/94/4 99/94/4
f 95/95/6 93/96/6 94/97/6
f 103/89/3 108/98/3 104/99/3
f 101/88/6 97/100/6 103/101/6
f 103/101/6 100/102/6 107/103/6
f 105/86/6 100/102/6 99/104/6
f 107/93/4 106/105/4 108/106/4
f 101/84/2 104/107/2 102/108/2
f 105/91/1 102/109/1 106/110/1
f 102/97/5 108/111/5 106/95/5
f 114/84/2 109/85/2 113/85/2
f 121/86/6 114/87/6 117/88/6
f 113/89/3 112/90/3 116/90/3
f 115/91/1 110/92/1 114/92/1
f 116/93/4 111/94/4 115/94/4
f 111/95/6 109/96/6 110/97/6
f 119/89/3 124/98/3 120/99/3
f 117/88/6 113/100/6 119/101/6
f 119/101/6 116/102/6 123/103/6
f 121/86/6 116/102/6 115/104/6
f 123/93/4 122/105/4 124/106/4
f 117/84/2 120/107/2 118/108/2
f 121/91/1 118/109/1 122/110/1
f 118/97/5 124/111/5 122/95/5
f 126/93/4 127/105/4 125/106/4
f 128/91/1 131/109/1 127/110/1
f 132/84/2 129/107/2 131/108/2
f 130/89/3 125/98/3 129/99/3
f 131/97/5 125/111/5 127/95/5
f 128/86/6 133/102/6 134/104/6
f 136/89/3 137/90/3 133/90/3
f 130/101/6 133/102/6 126/103/6
f 128/86/6 135/87/6 132/88/6
f 132/88/6 136/100/6 130/101/6
f 138/95/6 140/96/6 139/97/6
f 134/91/1 139/92/1 135/92/1
f 135/84/2 140/85/2 136/85/2
f 133/93/4 138/94/4 134/94/4
f 146/84/2 141/85/2 145/85/2
f 153/86/6 146/87/6 149/88/6
f 145/89/3 144/90/3 148/90/3
f 147/91/1 142/92/1 146/92/1
f 148/93/4 143/94/4 147/94/4
f 143/95/6 141/96/6 142/97/6
f 151/89/3 156/98/3 152/99/3
f 149/88/6 145/100/6 151/101/6
f 151/101/6 148/102/6 155/103/6
f 153/86/6 148/102/6 147/104/6
f 155/93/4 154/105/4 156/106/4
f 149/84/2 152/107/2 150/108/2
f 153/91/1 150/109/1 154/110/1
f 150/97/5 156/111/5 154/95/5
f 158/112/1 159/113/1 157/114/1
f 160/115/2 163/116/2 159/117/2
f 164/118/3 161/114/3 163/113/3
f 162/119/4 157/117/4 161/116/4
f 163/120/5 157/121/5 159/122/5
f 160/122/6 162/123/6 164/120/6
f 168/124/4 9/125/4 12/126/4
f 167/127/3 12/128/3 11/129/3
f 166/130/2 11/126/2 10/125/2
f 165/131/1 10/132/1 9/128/1
f 13/1/1 14/7/1 166/2/1
f 14/4/2 15/9/2 167/5/2
f 15/7/3 16/1/3 168/3/3
f 16/9/4 13/4/4 165/6/4
f 7/10/5 5/133/5 1/11/5
f 6/13/4 20/32/4 17/14/4
f 12/16/4 9/22/4 1/17/4
f 11/19/3 12/23/3 5/20/3
f 10/22/2 11/16/2 7/18/2
f 9/23/1 10/134/1 3/21/1
f 4/24/6 14/28/6 13/25/6
f 4/24/6 8/30/6 15/27/6
f 6/29/6 16/31/6 15/27/6
f 6/29/6 2/26/6 13/25/6
f 18/24/6 17/26/6 20/29/6
f 4/15/2 18/14/2 19/32/2
f 8/33/3 19/36/3 20/34/3
f 2/35/1 17/34/1 18/36/1
f 37/37/1 38/135/1 23/38/1
f 38/40/2 39/136/2 27/41/2
f 39/43/3 40/137/3 25/44/3
f 40/46/4 37/138/4 21/47/4
f 27/49/5 25/139/5 21/50/5
f 32/52/2 50/55/2 51/53/2
f 41/37/1 42/135/1 31/38/1
f 42/40/2 43/136/2 35/41/2
f 43/43/3 44/137/3 33/44/3
f 44/46/4 41/138/4 29/47/4
f 35/49/5 33/139/5 29/50/5
f 34/54/4 52/53/4 49/55/4
f 24/56/6 38/60/6 37/57/6
f 24/56/6 28/62/6 39/59/6
f 26/61/6 40/63/6 39/59/6
f 22/58/6 37/57/6 40/63/6
f 32/56/6 42/60/6 41/57/6
f 36/62/6 43/59/6 42/60/6
f 34/61/6 44/63/6 43/59/6
f 34/61/6 30/58/6 41/57/6
f 46/64/6 45/140/6 48/65/6
f 50/67/6 49/141/6 52/68/6
f 26/70/4 48/73/4 45/71/4
f 24/72/2 46/71/2 47/73/2
f 36/74/3 51/77/3 52/75/3
f 30/76/1 49/75/1 50/77/1
f 28/78/3 47/79/3 48/77/3
f 22/74/1 45/77/1 46/79/1
f 54/80/1 56/81/1 55/81/1
f 56/81/2 60/82/2 59/82/2
f 60/82/3 58/83/3 57/83/3
f 58/83/4 54/80/4 53/80/4
f 59/82/5 57/83/5 53/80/5
f 56/81/6 54/80/6 58/83/6
f 66/84/2 62/84/2 61/85/2
f 73/86/7 67/104/7 66/87/7
f 65/89/3 61/89/3 64/90/3
f 67/91/1 63/91/1 62/92/1
f 68/93/4 64/93/4 63/94/4
f 63/95/6 64/111/6 61/96/6
f 71/89/3 75/90/3 76/98/3
f 69/88/6 66/87/6 65/100/6
f 71/101/8 65/100/8 68/102/8
f 73/86/6 75/103/6 68/102/6
f 75/93/4 73/94/4 74/105/4
f 69/84/2 71/85/2 72/107/2
f 73/91/1 69/92/1 70/109/1
f 70/97/5 72/96/5 76/111/5
f 78/93/4 80/94/4 79/105/4
f 80/91/1 84/92/1 83/109/1
f 84/84/2 82/85/2 81/107/2
f 82/89/3 78/90/3 77/98/3
f 83/97/5 81/96/5 77/111/5
f 80/86/6 78/103/6 85/102/6
f 88/89/3 92/89/3 89/90/3
f 82/101/8 88/100/8 85/102/8
f 80/86/7 86/104/7 87/87/7
f 84/88/6 87/87/6 88/100/6
f 90/95/6 89/111/6 92/96/6
f 86/91/1 90/91/1 91/92/1
f 87/84/2 91/84/2 92/85/2
f 85/93/4 89/93/4 90/94/4
f 98/84/2 94/84/2 93/85/2
f 101/88/6 105/86/6 99/104/6
f 97/89/3 93/89/3 96/90/3
f 99/91/1 95/91/1 94/92/1
f 100/93/4 96/93/4 95/94/4
f 95/95/6 96/111/6 93/96/6
f 103/89/3 107/90/3 108/98/3
f 101/88/6 98/87/6 97/100/6
f 103/101/8 97/100/8 100/102/8
f 105/86/6 107/103/6 100/102/6
f 107/93/4 105/94/4 106/105/4
f 101/84/2 103/85/2 104/107/2
f 105/91/1 101/92/1 102/109/1
f 102/97/5 104/96/5 108/111/5
f 114/84/2 110/84/2 109/85/2
f 121/86/6 115/104/6 114/87/6
f 113/89/3 109/89/3 112/90/3
f 115/91/1 111/91/1 110/92/1
f 116/93/4 112/93/4 111/94/4
f 111/95/6 112/111/6 109/96/6
f 119/89/3 123/90/3 124/98/3
f 117/88/6 114/87/6 113/100/6
f 119/101/6 113/100/6 116/102/6
f 121/86/6 123/103/6 116/102/6
f 123/93/4 121/94/4 122/105/4
f 117/84/2 119/85/2 120/107/2
f 121/91/1 117/92/1 118/109/1
f 118/97/5 120/96/5 124/111/5
f 126/93/4 128/94/4 127/105/4
f 128/91/1 132/92/1 131/109/1
f 132/84/2 130/85/2 129/107/2
f 130/89/3 126/90/3 125/98/3
f 131/97/5 129/96/5 125/111/5
f 128/86/6 126/103/6 133/102/6
f 136/89/3 140/89/3 137/90/3
f 130/101/6 136/100/6 133/102/6
f 128/86/6 134/104/6 135/87/6
f 132/88/6 135/87/6 136/100/6
f 138/95/6 137/111/6 140/96/6
f 134/91/1 138/91/1 139/92/1
f 135/84/2 139/84/2 140/85/2
f 133/93/4 137/93/4 138/94/4
f 146/84/2 142/84/2 141/85/2
f 153/86/6 147/104/6 146/87/6
f 145/89/3 141/89/3 144/90/3
f 147/91/1 143/91/1 142/92/1
f 148/93/4 144/93/4 143/94/4
f 143/95/6 144/111/6 141/96/6
f 151/89/3 155/90/3 156/98/3
f 149/88/6 146/87/6 145/100/6
f 151/101/6 145/100/6 148/102/6
f 153/86/6 155/103/6 148/102/6
f 155/93/4 153/94/4 154/105/4
f 149/84/2 151/85/2 152/107/2
f 153/91/1 149/92/1 150/109/1
f 150/97/5 152/96/5 156/111/5
f 158/112/1 160/118/1 159/113/1
f 160/115/2 164/119/2 163/116/2
f 164/118/3 162/112/3 161/114/3
f 162/119/4 158/115/4 157/117/4
f 163/120/5 161/123/5 157/121/5
f 160/122/6 158/121/6 162/123/6
f 168/124/4 165/130/4 9/125/4
f 167/127/3 168/131/3 12/128/3
f 166/130/2 167/124/2 11/126/2
f 165/131/1 166/142/1 10/132/1
