# Blender 4.5.3 LTS
# www.blender.org
mtllib PlayBuilding_3.mtl
o 立方体.018
v -12.808222 12.808225 13.510231
v -12.808222 12.808225 55.030544
v 12.808222 12.808225 13.510231
v 12.808222 12.808225 55.030544
v -12.808222 -12.808216 13.510231
v -12.808222 -12.808216 55.030544
v 12.808222 -12.808216 13.510231
v 12.808222 -12.808216 55.030544
v 12.808222 12.808225 9.909454
v -12.808222 12.808225 9.909454
v 12.808222 -12.808216 9.909454
v -12.808222 -12.808216 9.909454
v 12.808222 12.808225 -0.066325
v -12.808222 12.808225 -0.066325
v 12.808222 -12.808216 -0.066325
v -12.808222 -12.808216 -0.066325
v -12.808222 12.808225 5.138083
v -12.808222 -12.808216 5.138083
v 12.808222 -12.808216 5.138083
v 12.808222 12.808225 5.138083
v -12.808222 12.808225 62.627373
v 12.808222 12.808225 62.627373
v 12.808222 -12.808216 62.627373
v -12.808222 -12.808216 62.627373
v -12.808222 12.808225 56.572861
v 12.808222 12.808225 56.572861
v -12.808222 -12.808216 56.572861
v 12.808222 -12.808216 56.572861
v -12.808222 12.808225 61.651619
v -12.808222 -12.808216 61.651619
v 12.808222 12.808225 61.651619
v 12.808222 -12.808216 61.651619
v 12.808222 12.808225 60.548744
v 12.808222 -12.808216 60.548744
v -12.808222 12.808225 60.548744
v -12.808222 -12.808216 60.548744
v -12.808222 12.808225 54.167404
v 12.808222 12.808225 54.167404
v 12.808222 -12.808216 54.167404
v -12.808222 -12.808216 54.167404
v -13.213247 13.213250 62.627373
v 13.213247 13.213250 62.627373
v 13.213247 -13.213242 62.627373
v -13.213247 -13.213242 62.627373
v -12.592881 12.592883 64.857567
v 12.592881 12.592883 64.857567
v 12.592881 -12.592875 64.857567
v -12.592881 -12.592875 64.857567
v -13.213247 13.213250 64.857567
v 13.213247 13.213250 64.857567
v 13.213247 -13.213242 64.857567
v -13.213247 -13.213242 64.857567
v -12.592881 12.592883 64.295242
v 12.592881 12.592883 64.295242
v 12.592881 -12.592875 64.295242
v -12.592881 -12.592875 64.295242
v -10.301333 9.622853 64.199509
v -9.231671 8.553191 66.311493
v -3.558323 9.622853 64.199509
v -4.627985 8.553191 66.311493
v -10.301333 2.879842 64.199509
v -9.231671 3.949504 66.311493
v -3.558323 2.879842 64.199509
v -4.627985 3.949504 66.311493
v -10.301345 1.793512 64.199509
v -9.231683 0.723850 66.311493
v -3.558335 1.793512 64.199509
v -4.627996 0.723850 66.311493
v -10.301345 -4.949499 64.199509
v -9.231683 -3.879837 66.311493
v -3.558335 -4.949499 64.199509
v -4.627996 -3.879837 66.311493
v -10.301333 9.622853 66.311493
v -3.558323 9.622853 66.311493
v -3.558323 2.879842 66.311493
v -10.301333 2.879842 66.311493
v -10.301345 1.793512 66.311493
v -3.558335 1.793512 66.311493
v -3.558335 -4.949499 66.311493
v -10.301345 -4.949499 66.311493
v -9.231671 8.553191 67.028580
v -4.627985 8.553191 67.028580
v -4.627985 3.949504 67.028580
v -9.231671 3.949504 67.028580
v -9.231683 0.723850 67.028580
v -4.627996 0.723850 67.028580
v -4.627996 -3.879837 67.028580
v -9.231683 -3.879837 67.028580
v 1.052211 12.945665 63.928600
v 1.052211 12.945665 64.814133
v 4.160834 12.945665 63.928600
v 4.160834 12.945665 64.814133
v 1.052211 -12.927999 63.928600
v 1.052211 -12.927999 64.814133
v 4.160834 -12.927999 63.928600
v 4.160834 -12.927999 64.814133
v -5.859778 -6.815001 64.329613
v -5.859778 -6.815001 66.544640
v -3.305765 -6.815001 64.329613
v -3.305765 -6.815001 66.544640
v -5.859778 -10.701620 64.329613
v -5.859778 -10.701620 66.544640
v -3.305765 -10.701620 64.329613
v -3.305765 -10.701620 66.544640
v -5.604087 -7.204103 66.544640
v -3.561456 -7.204103 66.544640
v -3.561456 -10.312517 66.544640
v -5.604087 -10.312517 66.544640
v -5.604087 -7.204103 66.806885
v -3.561456 -7.204103 66.806885
v -3.561456 -10.312517 66.806885
v -5.604087 -10.312517 66.806885
v 5.631189 5.887281 64.329613
v 5.631189 5.887281 66.544640
v 5.631189 9.401199 64.329613
v 5.631189 9.401199 66.544640
v 9.517809 5.887281 64.329613
v 9.517809 5.887281 66.544640
v 9.517809 9.401199 64.329613
v 9.517809 9.401199 66.544640
v 6.020292 6.239072 66.544640
v 6.020292 9.049410 66.544640
v 9.128706 9.049410 66.544640
v 9.128706 6.239072 66.544640
v 6.020292 6.239072 66.806885
v 6.020292 9.049410 66.806885
v 9.128706 9.049410 66.806885
v 9.128706 6.239072 66.806885
v 4.906845 1.793512 64.199509
v 5.976506 0.723850 66.311493
v 11.649855 1.793512 64.199509
v 10.580193 0.723850 66.311493
v 4.906845 -4.949499 64.199509
v 5.976506 -3.879837 66.311493
v 11.649855 -4.949499 64.199509
v 10.580193 -3.879837 66.311493
v 4.906845 1.793512 66.311493
v 11.649855 1.793512 66.311493
v 11.649855 -4.949499 66.311493
v 4.906845 -4.949499 66.311493
v 5.976506 0.723850 67.028580
v 10.580193 0.723850 67.028580
v 10.580193 -3.879837 67.028580
v 5.976506 -3.879837 67.028580
v 5.971579 -10.035312 64.329613
v 5.971579 -10.035312 66.544640
v 5.971579 -7.481299 64.329613
v 5.971579 -7.481299 66.544640
v 9.858198 -10.035312 64.329613
v 9.858198 -10.035312 66.544640
v 9.858198 -7.481299 64.329613
v 9.858198 -7.481299 66.544640
v 6.360681 -9.779621 66.544640
v 6.360681 -7.736989 66.544640
v 9.469094 -7.736989 66.544640
v 9.469094 -9.779621 66.544640
v 6.360681 -9.779621 66.806885
v 6.360681 -7.736989 66.806885
v 9.469094 -7.736989 66.806885
v 9.469094 -9.779621 66.806885
vn -0.0000 1.0000 -0.0000
vn 1.0000 -0.0000 -0.0000
vn -0.0000 -1.0000 -0.0000
vn -1.0000 -0.0000 -0.0000
vn -0.0000 -0.0000 -1.0000
vn -0.0000 -0.0000 1.0000
vt 0.626522 0.338982
vt 0.718593 0.345504
vt 0.626522 0.345504
vt 0.718593 0.338982
vt 0.810665 0.345504
vt 0.653523 0.338982
vt 0.745594 0.345504
vt 0.653523 0.345504
vt 0.745594 0.338982
vt 0.837666 0.345504
vt 0.837666 0.498670
vt 0.745594 0.492006
vt 0.745594 0.498670
vt 0.626522 0.355432
vt 0.718593 0.360411
vt 0.718593 0.355432
vt 0.837666 0.477993
vt 0.745594 0.485783
vt 0.745594 0.477993
vt 0.810665 0.498670
vt 0.718593 0.492006
vt 0.718593 0.498670
vt 0.626522 0.492006
vt 0.626522 0.498670
vt 0.653523 0.492006
vt 0.653523 0.498670
vt 0.375000 0.500000
vt 0.125000 0.750000
vt 0.125000 0.500000
vt 0.810665 0.477993
vt 0.718593 0.485783
vt 0.718593 0.477993
vt 0.653523 0.485783
vt 0.653523 0.477993
vt 0.626522 0.485783
vt 0.626522 0.477993
vt 0.718593 0.461723
vt 0.626522 0.461723
vt 0.745594 0.461723
vt 0.653523 0.461723
vt 0.810665 0.461723
vt 0.837666 0.461723
vt 0.745594 0.360411
vt 0.837666 0.360411
vt 0.745594 0.355432
vt 0.837666 0.355432
vt 0.810665 0.360411
vt 0.810665 0.355432
vt 0.653523 0.355432
vt 0.745594 0.350452
vt 0.810665 0.350452
vt 0.810665 0.338982
vt 0.837666 0.350452
vt 0.837666 0.338982
vt 0.718593 0.350452
vt 0.653523 0.352278
vt 0.745594 0.352278
vt 0.718593 0.352278
vt 0.810665 0.352278
vt 0.837666 0.352278
vt 0.626522 0.352278
vt 0.626522 0.350452
vt 0.653523 0.350452
vt 0.626522 0.489610
vt 0.718593 0.499817
vt 0.718593 0.489610
vt 0.653523 0.360411
vt 0.626522 0.360411
vt 0.081611 0.065321
vt 0.075904 0.183485
vt 0.081611 0.183485
vt 0.745594 0.489610
vt 0.837666 0.499817
vt 0.837666 0.489610
vt 0.810665 0.499817
vt 0.810665 0.489610
vt 0.653523 0.489610
vt 0.745594 0.499817
vt 0.152809 0.188362
vt 0.152190 0.155910
vt 0.152809 0.156690
vt 0.177967 0.188362
vt 0.152190 0.189142
vt 0.177967 0.156690
vt 0.178587 0.189142
vt 0.178587 0.155910
vt 0.047122 0.139544
vt 0.106330 0.065006
vt 0.106330 0.139544
vt 0.075904 0.065321
vt 0.401166 0.175202
vt 0.391102 0.110760
vt 0.391102 0.175202
vt 0.423066 0.175202
vt 0.413001 0.110760
vt 0.413001 0.175202
vt 0.411266 0.110760
vt 0.401202 0.175202
vt 0.401202 0.110760
vt 0.433165 0.110760
vt 0.423101 0.175202
vt 0.423101 0.110760
vt 0.413262 0.119578
vt 0.374102 0.168878
vt 0.413262 0.168878
vt 0.477506 0.131985
vt 0.482292 0.167814
vt 0.477506 0.167814
vt 0.482292 0.131985
vt 0.459211 0.165578
vt 0.367234 0.175958
vt 0.384576 0.165578
vt 0.459211 0.120902
vt 0.476552 0.175958
vt 0.384576 0.120902
vt 0.476552 0.110522
vt 0.367234 0.110522
vt 0.420638 0.110681
vt 0.369938 0.050749
vt 0.420638 0.050749
vt 0.420638 0.237622
vt 0.369938 0.177690
vt 0.420638 0.177690
vt 0.477506 0.192918
vt 0.482292 0.228747
vt 0.477506 0.228747
vt 0.482292 0.192918
vt 0.477506 0.198281
vt 0.482292 0.162452
vt 0.477506 0.162452
vt 0.482292 0.198281
vt 0.477506 0.162452
vt 0.482292 0.162452
vt 0.204622 0.128110
vt 0.204622 0.087363
vt 0.152618 0.087363
vt 0.152618 0.128110
vt 0.275853 0.119729
vt 0.324116 0.054537
vt 0.275853 0.054537
vt 0.278208 0.143249
vt 0.351653 0.078057
vt 0.278208 0.078057
vt 0.339062 0.143249
vt 0.290799 0.078057
vt 0.339062 0.078057
vt 0.349162 0.119990
vt 0.275717 0.054798
vt 0.349162 0.054798
vt 0.274340 0.198923
vt 0.350195 0.249007
vt 0.350195 0.198923
vt 0.103240 0.236381
vt 0.079511 0.231324
vt 0.100600 0.231324
vt 0.275717 0.119990
vt 0.076871 0.236381
vt 0.079511 0.190921
vt 0.100600 0.190921
vt 0.103240 0.185864
vt 0.076871 0.185864
vt 0.274340 0.249007
vt 0.351653 0.143249
vt 0.290799 0.143249
vt 0.324116 0.119729
vt 0.837666 0.492006
vt 0.837666 0.485783
vt 0.810665 0.492006
vt 0.375000 0.750000
vt 0.810665 0.485783
vt 0.626522 0.499817
vt 0.653523 0.499817
vt 0.047122 0.065006
vt 0.401166 0.110760
vt 0.423066 0.110760
vt 0.411266 0.175202
vt 0.433165 0.175202
vt 0.374102 0.119578
vt 0.369938 0.110681
vt 0.369938 0.237622
s 0
usemtl 1
f 2/1/1 38/2/1 37/3/1
f 4/4/2 39/5/2 38/2/2
f 8/6/3 40/7/3 39/8/3
f 6/9/4 37/10/4 40/7/4
f 1/11/4 12/12/4 5/13/4
f 29/14/1 22/15/1 31/16/1
f 17/17/4 16/18/4 18/19/4
f 7/20/2 9/21/2 3/22/2
f 3/22/1 10/23/1 1/24/1
f 5/13/3 11/25/3 7/26/3
f 15/27/5 14/28/5 13/29/5
f 19/30/2 13/31/2 20/32/2
f 18/19/3 15/33/3 19/34/3
f 20/32/1 14/35/1 17/36/1
f 9/37/1 17/36/1 10/38/1
f 12/39/3 19/34/3 11/40/3
f 11/41/2 20/32/2 9/37/2
f 10/42/4 18/19/4 12/39/4
f 24/43/5 41/44/5 21/44/5
f 30/45/4 21/44/4 29/46/4
f 31/16/2 23/47/2 32/48/2
f 32/49/3 24/43/3 30/45/3
f 8/6/3 27/50/3 6/9/3
f 4/4/2 28/51/2 8/52/2
f 6/9/4 25/53/4 2/54/4
f 2/1/1 26/55/1 4/4/1
f 34/56/3 30/45/3 36/57/3
f 33/58/2 32/48/2 34/59/2
f 36/57/4 29/46/4 35/60/4
f 35/61/1 31/16/1 33/58/1
f 25/62/1 33/58/1 26/55/1
f 27/50/4 35/60/4 25/53/4
f 26/55/2 34/59/2 28/51/2
f 28/63/3 36/57/3 27/50/3
f 40/7/4 1/11/4 5/13/4
f 39/8/3 5/13/3 7/26/3
f 38/2/2 7/20/2 3/22/2
f 37/3/1 3/22/1 1/24/1
f 41/64/1 50/65/1 42/66/1
f 22/15/5 43/47/5 23/47/5
f 23/67/5 44/43/5 24/43/5
f 21/68/5 42/15/5 22/15/5
f 47/69/1 56/70/1 48/71/1
f 44/72/4 49/73/4 41/74/4
f 42/66/2 51/75/2 43/76/2
f 43/77/3 52/78/3 44/72/3
f 46/79/6 49/80/6 45/81/6
f 47/82/6 50/83/6 46/79/6
f 48/84/6 51/85/6 47/82/6
f 45/81/6 52/86/6 48/84/6
f 54/87/6 56/88/6 55/89/6
f 45/71/3 54/90/3 46/69/3
f 48/69/2 53/70/2 45/71/2
f 46/71/4 55/90/4 47/69/4
f 73/91/1 59/92/1 57/93/1
f 74/94/2 63/95/2 59/96/2
f 75/97/3 61/98/3 63/99/3
f 76/100/4 57/101/4 61/102/4
f 63/103/5 57/104/5 59/105/5
f 68/106/2 87/107/2 72/108/2
f 77/91/1 67/92/1 65/93/1
f 78/94/2 71/95/2 67/96/2
f 79/97/3 69/98/3 71/99/3
f 80/100/4 65/101/4 69/102/4
f 71/103/5 65/104/5 67/105/5
f 70/108/4 85/109/4 66/106/4
f 60/110/6 73/111/6 58/112/6
f 64/113/6 74/114/6 60/110/6
f 62/115/6 75/116/6 64/113/6
f 58/112/6 76/117/6 62/115/6
f 68/110/6 77/111/6 66/112/6
f 72/113/6 78/114/6 68/110/6
f 70/115/6 79/116/6 72/113/6
f 66/112/6 80/117/6 70/115/6
f 82/118/6 84/119/6 83/120/6
f 86/121/6 88/122/6 87/123/6
f 62/124/4 81/125/4 58/126/4
f 60/126/2 83/127/2 64/124/2
f 72/128/3 88/129/3 70/130/3
f 66/130/1 86/131/1 68/128/1
f 64/132/3 84/131/3 62/128/3
f 58/128/1 82/133/1 60/132/1
f 90/134/1 91/135/1 89/134/1
f 92/135/2 95/136/2 91/135/2
f 96/136/3 93/137/3 95/136/3
f 94/137/4 89/134/4 93/137/4
f 95/136/5 89/134/5 91/135/5
f 92/135/6 94/137/6 96/136/6
f 98/138/1 99/139/1 97/140/1
f 100/141/2 103/142/2 99/143/2
f 104/144/3 101/145/3 103/146/3
f 102/147/4 97/148/4 101/149/4
f 103/150/5 97/151/5 99/152/5
f 100/153/6 105/154/6 106/155/6
f 108/147/4 109/156/4 105/156/4
f 98/157/6 108/158/6 105/154/6
f 100/153/6 107/159/6 104/160/6
f 104/160/6 108/158/6 102/161/6
f 110/152/6 112/162/6 111/150/6
f 106/141/2 111/163/2 107/163/2
f 107/144/3 112/164/3 108/164/3
f 105/138/1 110/165/1 106/165/1
f 114/138/4 115/139/4 113/140/4
f 116/141/1 119/142/1 115/143/1
f 120/144/2 117/145/2 119/146/2
f 118/147/3 113/148/3 117/149/3
f 119/150/5 113/151/5 115/152/5
f 114/157/6 122/155/6 116/153/6
f 124/147/3 125/156/3 121/156/3
f 114/157/6 124/158/6 121/154/6
f 116/153/6 123/159/6 120/160/6
f 120/160/6 124/158/6 118/161/6
f 126/152/6 128/162/6 127/150/6
f 122/141/1 127/163/1 123/163/1
f 123/144/2 128/164/2 124/164/2
f 121/138/4 126/165/4 122/165/4
f 132/106/2 143/107/2 136/108/2
f 137/91/1 131/92/1 129/93/1
f 138/94/2 135/95/2 131/96/2
f 139/97/3 133/98/3 135/99/3
f 140/100/4 129/101/4 133/102/4
f 135/103/5 129/104/5 131/105/5
f 134/108/4 141/109/4 130/106/4
f 132/110/6 137/111/6 130/112/6
f 136/113/6 138/114/6 132/110/6
f 134/115/6 139/116/6 136/113/6
f 130/112/6 140/117/6 134/115/6
f 142/121/6 144/122/6 143/123/6
f 136/128/3 144/129/3 134/130/3
f 130/130/1 142/131/1 132/128/1
f 146/138/4 147/139/4 145/140/4
f 148/141/1 151/142/1 147/143/1
f 152/144/2 149/145/2 151/146/2
f 150/147/3 145/148/3 149/149/3
f 151/150/5 145/151/5 147/152/5
f 148/153/6 153/154/6 154/155/6
f 156/147/3 157/156/3 153/156/3
f 146/157/6 156/158/6 153/154/6
f 148/153/6 155/159/6 152/160/6
f 152/160/6 156/158/6 150/161/6
f 158/152/6 160/162/6 159/150/6
f 154/141/1 159/163/1 155/163/1
f 155/144/2 160/164/2 156/164/2
f 153/138/4 158/165/4 154/165/4
f 2/1/1 4/4/1 38/2/1
f 4/4/2 8/52/2 39/5/2
f 8/6/3 6/9/3 40/7/3
f 6/9/4 2/54/4 37/10/4
f 1/11/4 10/166/4 12/12/4
f 29/14/1 21/68/1 22/15/1
f 17/17/4 14/167/4 16/18/4
f 7/20/2 11/168/2 9/21/2
f 3/22/1 9/21/1 10/23/1
f 5/13/3 12/12/3 11/25/3
f 15/27/5 16/169/5 14/28/5
f 19/30/2 15/170/2 13/31/2
f 18/19/3 16/18/3 15/33/3
f 20/32/1 13/31/1 14/35/1
f 9/37/1 20/32/1 17/36/1
f 12/39/3 18/19/3 19/34/3
f 11/41/2 19/30/2 20/32/2
f 10/42/4 17/17/4 18/19/4
f 24/43/5 44/43/5 41/44/5
f 30/45/4 24/43/4 21/44/4
f 31/16/2 22/15/2 23/47/2
f 32/49/3 23/67/3 24/43/3
f 8/6/3 28/63/3 27/50/3
f 4/4/2 26/55/2 28/51/2
f 6/9/4 27/50/4 25/53/4
f 2/1/1 25/62/1 26/55/1
f 34/56/3 32/49/3 30/45/3
f 33/58/2 31/16/2 32/48/2
f 36/57/4 30/45/4 29/46/4
f 35/61/1 29/14/1 31/16/1
f 25/62/1 35/61/1 33/58/1
f 27/50/4 36/57/4 35/60/4
f 26/55/2 33/58/2 34/59/2
f 28/63/3 34/56/3 36/57/3
f 40/7/4 37/10/4 1/11/4
f 39/8/3 40/7/3 5/13/3
f 38/2/2 39/5/2 7/20/2
f 37/3/1 38/2/1 3/22/1
f 41/64/1 49/171/1 50/65/1
f 22/15/5 42/15/5 43/47/5
f 23/67/5 43/67/5 44/43/5
f 21/68/5 41/68/5 42/15/5
f 47/69/1 55/90/1 56/70/1
f 44/72/4 52/78/4 49/73/4
f 42/66/2 50/65/2 51/75/2
f 43/77/3 51/172/3 52/78/3
f 46/79/6 50/83/6 49/80/6
f 47/82/6 51/85/6 50/83/6
f 48/84/6 52/86/6 51/85/6
f 45/81/6 49/80/6 52/86/6
f 54/87/6 53/173/6 56/88/6
f 45/71/3 53/70/3 54/90/3
f 48/69/2 56/90/2 53/70/2
f 46/71/4 54/70/4 55/90/4
f 73/91/1 74/174/1 59/92/1
f 74/94/2 75/175/2 63/95/2
f 75/97/3 76/176/3 61/98/3
f 76/100/4 73/177/4 57/101/4
f 63/103/5 61/178/5 57/104/5
f 68/106/2 86/109/2 87/107/2
f 77/91/1 78/174/1 67/92/1
f 78/94/2 79/175/2 71/95/2
f 79/97/3 80/176/3 69/98/3
f 80/100/4 77/177/4 65/101/4
f 71/103/5 69/178/5 65/104/5
f 70/108/4 88/107/4 85/109/4
f 60/110/6 74/114/6 73/111/6
f 64/113/6 75/116/6 74/114/6
f 62/115/6 76/117/6 75/116/6
f 58/112/6 73/111/6 76/117/6
f 68/110/6 78/114/6 77/111/6
f 72/113/6 79/116/6 78/114/6
f 70/115/6 80/117/6 79/116/6
f 66/112/6 77/111/6 80/117/6
f 82/118/6 81/179/6 84/119/6
f 86/121/6 85/180/6 88/122/6
f 62/124/4 84/127/4 81/125/4
f 60/126/2 82/125/2 83/127/2
f 72/128/3 87/131/3 88/129/3
f 66/130/1 85/129/1 86/131/1
f 64/132/3 83/133/3 84/131/3
f 58/128/1 81/131/1 82/133/1
f 90/134/1 92/135/1 91/135/1
f 92/135/2 96/136/2 95/136/2
f 96/136/3 94/137/3 93/137/3
f 94/137/4 90/134/4 89/134/4
f 95/136/5 93/137/5 89/134/5
f 92/135/6 90/134/6 94/137/6
f 98/138/1 100/165/1 99/139/1
f 100/141/2 104/163/2 103/142/2
f 104/144/3 102/164/3 101/145/3
f 102/147/4 98/156/4 97/148/4
f 103/150/5 101/162/5 97/151/5
f 100/153/6 98/157/6 105/154/6
f 108/147/4 112/147/4 109/156/4
f 98/157/6 102/161/6 108/158/6
f 100/153/6 106/155/6 107/159/6
f 104/160/6 107/159/6 108/158/6
f 110/152/6 109/151/6 112/162/6
f 106/141/2 110/141/2 111/163/2
f 107/144/3 111/144/3 112/164/3
f 105/138/1 109/138/1 110/165/1
f 114/138/4 116/165/4 115/139/4
f 116/141/1 120/163/1 119/142/1
f 120/144/2 118/164/2 117/145/2
f 118/147/3 114/156/3 113/148/3
f 119/150/5 117/162/5 113/151/5
f 114/157/6 121/154/6 122/155/6
f 124/147/3 128/147/3 125/156/3
f 114/157/6 118/161/6 124/158/6
f 116/153/6 122/155/6 123/159/6
f 120/160/6 123/159/6 124/158/6
f 126/152/6 125/151/6 128/162/6
f 122/141/1 126/141/1 127/163/1
f 123/144/2 127/144/2 128/164/2
f 121/138/4 125/138/4 126/165/4
f 132/106/2 142/109/2 143/107/2
f 137/91/1 138/174/1 131/92/1
f 138/94/2 139/175/2 135/95/2
f 139/97/3 140/176/3 133/98/3
f 140/100/4 137/177/4 129/101/4
f 135/103/5 133/178/5 129/104/5
f 134/108/4 144/107/4 141/109/4
f 132/110/6 138/114/6 137/111/6
f 136/113/6 139/116/6 138/114/6
f 134/115/6 140/117/6 139/116/6
f 130/112/6 137/111/6 140/117/6
f 142/121/6 141/180/6 144/122/6
f 136/128/3 143/131/3 144/129/3
f 130/130/1 141/129/1 142/131/1
f 146/138/4 148/165/4 147/139/4
f 148/141/1 152/163/1 151/142/1
f 152/144/2 150/164/2 149/145/2
f 150/147/3 146/156/3 145/148/3
f 151/150/5 149/162/5 145/151/5
f 148/153/6 146/157/6 153/154/6
f 156/147/3 160/147/3 157/156/3
f 146/157/6 150/161/6 156/158/6
f 148/153/6 154/155/6 155/159/6
f 152/160/6 155/159/6 156/158/6
f 158/152/6 157/151/6 160/162/6
f 154/141/1 158/141/1 159/163/1
f 155/144/2 159/144/2 160/164/2
f 153/138/4 157/138/4 158/165/4
