# Blender 4.5.3 LTS
# www.blender.org
mtllib PlayBuilding_9.mtl
o 立方体.010
v 17.747135 -16.998793 0.000000
v 10.073789 -16.998795 140.150253
v -12.576843 -16.998802 0.000000
v -4.903498 -16.998800 140.150253
v 17.747124 16.998804 0.000000
v 10.073777 16.998802 140.150253
v -12.576855 16.998795 0.000000
v -4.903509 16.998796 140.150253
v 0.399982 -19.173967 140.150253
v 4.770318 -19.173965 140.150253
v 4.770318 -19.173965 0.000000
v 0.399982 -19.173967 0.000000
v 10.186624 -16.998795 123.789162
v 16.045704 -16.998793 16.582302
v 10.406665 -16.998795 110.495491
v 10.890897 -16.998795 95.186058
v 11.615038 -16.998795 78.628563
v 12.542774 -16.998795 61.653244
v 13.627586 -16.998795 45.111332
v 14.815079 -16.998793 29.832300
v -10.875414 -16.998802 16.582302
v -5.016333 -16.998800 123.789162
v -9.644788 -16.998802 29.832300
v -8.457295 -16.998800 45.111332
v -7.372483 -16.998800 61.653244
v -6.444747 -16.998800 78.628563
v -5.720606 -16.998800 95.186058
v -5.236374 -16.998800 110.495491
v -10.875425 16.998795 16.582302
v -5.016344 16.998796 123.789162
v -9.644799 16.998795 29.832300
v -8.457307 16.998796 45.111332
v -7.372495 16.998796 61.653244
v -6.444758 16.998796 78.628563
v -5.720618 16.998796 95.186058
v -5.236385 16.998796 110.495491
v 16.045692 16.998804 16.582302
v 10.186612 16.998802 123.789162
v 14.815067 16.998804 29.832300
v 13.627575 16.998802 45.111332
v 12.542763 16.998802 61.653244
v 11.615026 16.998802 78.628563
v 10.890885 16.998802 95.186058
v 10.406653 16.998802 110.495491
v 4.770306 19.173969 0.000000
v 0.399969 19.173967 0.000000
v 0.399969 19.173967 140.150253
v 4.770306 19.173969 140.150253
v 0.399969 19.173967 123.789162
v 4.770306 19.173969 123.789162
v 4.770306 19.173969 110.495491
v 0.399969 19.173967 110.495491
v 4.770306 19.173969 95.186058
v 0.399969 19.173967 95.186058
v 4.770306 19.173969 78.628563
v 0.399969 19.173967 78.628563
v 4.770306 19.173969 61.653244
v 0.399969 19.173967 61.653244
v 4.770306 19.173969 45.111332
v 0.399969 19.173967 45.111332
v 4.770306 19.173969 29.832300
v 0.399969 19.173967 29.832300
v 4.770306 19.173969 16.582302
v 0.399969 19.173967 16.582302
v 4.770318 -19.173965 123.789162
v 0.399982 -19.173967 123.789162
v 0.399982 -19.173967 110.495491
v 4.770318 -19.173965 110.495491
v 0.399982 -19.173967 95.186058
v 4.770318 -19.173965 95.186058
v 0.399982 -19.173967 78.628563
v 4.770318 -19.173965 78.628563
v 0.399982 -19.173967 61.653244
v 4.770318 -19.173965 61.653244
v 0.399982 -19.173967 45.111332
v 4.770318 -19.173965 45.111332
v 0.399982 -19.173967 29.832300
v 4.770318 -19.173965 29.832300
v 0.399982 -19.173967 16.582302
v 4.770318 -19.173965 16.582302
v 4.770319 -21.015791 0.000000
v 17.747137 -21.015787 0.000000
v -0.343116 -20.272694 142.883011
v -4.160399 -20.272696 142.875732
v -4.160412 20.272766 142.875732
v 17.747122 21.015873 0.000000
v 4.770305 21.015869 0.000000
v 0.399969 21.015867 0.000000
v -12.576856 21.015863 0.000000
v 5.513403 20.272770 142.883011
v 9.330679 20.272772 142.875732
v 9.330692 -20.272690 142.875732
v 10.406652 21.015871 110.495491
v 4.770305 21.015869 110.495491
v -0.343129 20.272768 142.883011
v -12.576842 -21.015797 0.000000
v 0.399982 -21.015793 0.000000
v 5.513416 -20.272692 142.883011
v -5.016345 21.015865 123.789162
v 0.399969 21.015867 123.789162
v 10.186611 21.015871 123.789162
v 10.186625 -21.015789 123.789162
v 10.406666 -21.015789 110.495491
v 10.890884 21.015871 95.186058
v 10.890898 -21.015789 95.186058
v 11.615026 21.015871 78.628563
v 11.615039 -21.015789 78.628563
v 12.542762 21.015871 61.653244
v 12.542775 -21.015789 61.653244
v 13.627574 21.015871 45.111332
v 13.627587 -21.015789 45.111332
v 14.815066 21.015873 29.832300
v 14.815080 -21.015787 29.832300
v 16.045691 21.015873 16.582302
v 16.045706 -21.015787 16.582302
v -5.236386 21.015865 110.495491
v 4.770305 21.015869 123.789162
v 0.399969 21.015867 110.495491
v -5.720619 21.015865 95.186058
v 0.399969 21.015867 95.186058
v -6.444759 21.015865 78.628563
v 0.399969 21.015867 78.628563
v -7.372496 21.015865 61.653244
v 0.399969 21.015867 61.653244
v -8.457308 21.015865 45.111332
v 0.399969 21.015867 45.111332
v -9.644800 21.015863 29.832300
v 0.399969 21.015867 29.832300
v -10.875426 21.015863 16.582302
v 0.399969 21.015867 16.582302
v -5.236373 -21.015795 110.495491
v -5.016332 -21.015795 123.789162
v -5.720605 -21.015795 95.186058
v -6.444746 -21.015795 78.628563
v -7.372482 -21.015795 61.653244
v -8.457294 -21.015795 45.111332
v -9.644787 -21.015797 29.832300
v -10.875413 -21.015797 16.582302
v 0.399982 -21.015793 123.789162
v 4.770319 -21.015791 110.495491
v 4.770319 -21.015791 95.186058
v 4.770319 -21.015791 78.628563
v 4.770319 -21.015791 61.653244
v 4.770319 -21.015791 45.111332
v 4.770319 -21.015791 29.832300
v 4.770319 -21.015791 16.582302
v 4.770305 21.015869 95.186058
v 4.770305 21.015869 78.628563
v 4.770305 21.015869 61.653244
v 4.770305 21.015869 45.111332
v 4.770305 21.015869 29.832300
v 4.770305 21.015869 16.582302
v 4.770319 -21.015791 123.789162
v 0.399982 -21.015793 110.495491
v 0.399982 -21.015793 95.186058
v 0.399982 -21.015793 78.628563
v 0.399982 -21.015793 61.653244
v 0.399982 -21.015793 45.111332
v 0.399982 -21.015793 29.832300
v 0.399982 -21.015793 16.582302
v 0.399982 -21.015793 142.884445
v -4.903497 -21.015795 142.874313
v -4.903510 21.015865 142.874313
v 4.770305 21.015869 142.884445
v 10.073776 21.015871 142.874313
v 10.073790 -21.015789 142.874313
v 0.399969 21.015867 142.884445
v 4.770319 -21.015791 142.884445
v -0.343116 -20.272694 142.881104
v -4.160399 -20.272696 142.873825
v -4.160412 20.272766 142.873825
v 5.513403 20.272770 142.881104
v 9.330679 20.272772 142.873825
v 9.330692 -20.272690 142.873825
v -0.343129 20.272768 142.881104
v 5.513416 -20.272692 142.881104
vn 0.9948 -0.0000 0.1021
vn -1.0000 -0.0000 -0.0000
vn 1.0000 -0.0000 -0.0000
vn -0.0000 -0.0000 -1.0000
vn -0.9948 -0.0000 0.1021
vn -0.9999 -0.0000 0.0166
vn -1.0000 -0.0000 0.0069
vn -0.9970 -0.0000 0.0775
vn 0.9999 -0.0000 0.0166
vn 0.9995 -0.0000 0.0316
vn 0.9990 -0.0000 0.0437
vn 0.9985 -0.0000 0.0546
vn 0.9979 -0.0000 0.0654
vn 0.9970 -0.0000 0.0775
vn 0.9957 -0.0000 0.0925
vn -0.9979 -0.0000 0.0654
vn -0.9995 -0.0000 0.0316
vn -0.9990 -0.0000 0.0437
vn -0.9985 -0.0000 0.0546
vn -0.9957 -0.0000 0.0925
vn 1.0000 -0.0000 0.0069
vn -0.0000 -1.0000 -0.0000
vn -0.0000 1.0000 -0.0000
vn -0.0000 -0.0000 1.0000
vn 0.9999 -0.0000 0.0165
vn 1.0000 -0.0040 0.0059
vn -1.0000 0.0040 0.0059
vn -0.0019 -0.0000 1.0000
vn 0.0019 -0.0000 1.0000
vn -1.0000 -0.0040 0.0059
vn 1.0000 0.0040 0.0059
vt 0.273617 0.696430
vt 0.367389 0.742261
vt 0.273617 0.742261
vt 0.273588 0.679645
vt 0.262538 0.726562
vt 0.273588 0.726562
vt 0.373230 0.747847
vt 0.262538 0.758007
vt 0.267776 0.747847
vt 0.267776 0.679645
vt 0.262538 0.633926
vt 0.267776 0.633926
vt 0.263654 0.747840
vt 0.263654 0.751509
vt 0.378468 0.702628
vt 0.373230 0.702628
vt 0.367389 0.696430
vt 0.273617 0.742261
vt 0.367389 0.742261
vt 0.367211 0.702628
vt 0.378468 0.665886
vt 0.367211 0.665886
vt 0.273617 0.747847
vt 0.367389 0.702628
vt 0.273617 0.702628
vt 0.273588 0.591697
vt 0.273588 0.633926
vt 0.367389 0.665886
vt 0.273617 0.665886
vt 0.367389 0.623573
vt 0.273617 0.623573
vt 0.367389 0.577811
vt 0.273617 0.726562
vt 0.367389 0.679645
vt 0.367389 0.726562
vt 0.273617 0.679645
vt 0.367389 0.633926
vt 0.273617 0.633926
vt 0.367389 0.591697
vt 0.367389 0.659809
vt 0.273617 0.659809
vt 0.262538 0.679645
vt 0.263654 0.747083
vt 0.263654 0.743413
vt 0.378468 0.758007
vt 0.262538 0.591697
vt 0.267776 0.591697
vt 0.262538 0.702628
vt 0.267776 0.702628
vt 0.367004 0.659809
vt 0.378468 0.696430
vt 0.367004 0.696430
vt 0.273617 0.577811
vt 0.273617 0.591697
vt 0.273617 0.659809
vt 0.367389 0.659809
vt 0.273588 0.747847
vt 0.274003 0.696430
vt 0.262538 0.659809
vt 0.274003 0.659809
vt 0.373230 0.659809
vt 0.378468 0.696430
vt 0.373230 0.696430
vt 0.373230 0.665886
vt 0.367211 0.696430
vt 0.378468 0.659809
vt 0.367211 0.659809
vt 0.367014 0.747847
vt 0.273992 0.702628
vt 0.367014 0.702628
vt 0.251612 0.639275
vt 0.244199 0.612567
vt 0.244199 0.635086
vt 0.366681 0.747847
vt 0.262940 0.757979
vt 0.274325 0.747847
vt 0.251612 0.665242
vt 0.244199 0.661053
vt 0.251612 0.693356
vt 0.244199 0.689167
vt 0.274002 0.633926
vt 0.262538 0.591697
vt 0.274002 0.591697
vt 0.251612 0.619739
vt 0.244199 0.586700
vt 0.244199 0.615550
vt 0.378468 0.623573
vt 0.373230 0.623573
vt 0.251612 0.647879
vt 0.244199 0.643690
vt 0.367004 0.591697
vt 0.378468 0.633926
vt 0.367004 0.633926
vt 0.251612 0.673898
vt 0.244199 0.669709
vt 0.273588 0.577811
vt 0.262538 0.623573
vt 0.273588 0.623573
vt 0.251612 0.696491
vt 0.244199 0.692302
vt 0.251612 0.616756
vt 0.367211 0.747847
vt 0.378468 0.577811
vt 0.373230 0.577811
vt 0.274002 0.679645
vt 0.251612 0.590889
vt 0.262538 0.665886
vt 0.273588 0.665886
vt 0.273588 0.696430
vt 0.262538 0.742261
vt 0.273588 0.742261
vt 0.244199 0.720108
vt 0.378468 0.679645
vt 0.367004 0.679645
vt 0.251612 0.724297
vt 0.274003 0.742261
vt 0.262538 0.696430
vt 0.252656 0.720108
vt 0.251612 0.588574
vt 0.244199 0.584385
vt 0.373230 0.726562
vt 0.373230 0.679645
vt 0.276848 0.751055
vt 0.287391 0.750726
vt 0.276848 0.747840
vt 0.276848 0.743868
vt 0.077534 0.127876
vt 0.075069 0.143771
vt 0.077553 0.143771
vt 0.362150 0.747840
vt 0.378085 0.749460
vt 0.362150 0.749491
vt 0.362150 0.747082
vt 0.378085 0.745462
vt 0.362150 0.745432
vt 0.351573 0.747840
vt 0.351573 0.749549
vt 0.339391 0.747840
vt 0.339391 0.749679
vt 0.326217 0.747840
vt 0.326217 0.749872
vt 0.312710 0.747840
vt 0.312710 0.750120
vt 0.299548 0.747840
vt 0.299548 0.750409
vt 0.287391 0.747840
vt 0.351573 0.747082
vt 0.351573 0.745373
vt 0.339391 0.747082
vt 0.339391 0.745244
vt 0.326217 0.747082
vt 0.326217 0.745050
vt 0.312710 0.747083
vt 0.312710 0.744803
vt 0.299548 0.747083
vt 0.299548 0.744513
vt 0.287391 0.747083
vt 0.287391 0.744196
vt 0.276848 0.747083
vt 0.077553 0.071551
vt 0.075069 0.240377
vt 0.077553 0.240377
vt 0.267776 0.726562
vt 0.367211 0.623573
vt 0.367004 0.665886
vt 0.367004 0.702628
vt 0.267776 0.623573
vt 0.262538 0.577811
vt 0.267776 0.577811
vt 0.367211 0.577811
vt 0.367211 0.742261
vt 0.378468 0.742261
vt 0.373230 0.742261
vt 0.274002 0.702628
vt 0.274002 0.665886
vt 0.267776 0.665886
vt 0.367211 0.726562
vt 0.367211 0.679645
vt 0.267777 0.742261
vt 0.262538 0.696430
vt 0.267777 0.696430
vt 0.273588 0.702628
vt 0.367004 0.623573
vt 0.367211 0.633926
vt 0.274002 0.623573
vt 0.262538 0.659809
vt 0.267777 0.659809
vt 0.378468 0.591697
vt 0.367211 0.591697
vt 0.367004 0.577811
vt 0.373230 0.591697
vt 0.373230 0.633926
vt 0.367004 0.747847
vt 0.378468 0.757979
vt 0.274002 0.577811
vt 0.274002 0.747847
vt 0.273588 0.659809
vt 0.378468 0.742261
vt 0.367004 0.742261
vt 0.378468 0.726562
vt 0.367004 0.726562
vt 0.274002 0.726562
vt 0.262538 0.757979
vt 0.099026 0.240377
vt 0.083943 0.243471
vt 0.086400 0.240377
vt 0.099026 0.071551
vt 0.101484 0.243471
vt 0.054404 0.071551
vt 0.069488 0.068457
vt 0.067030 0.071551
vt 0.054404 0.240377
vt 0.051947 0.068457
vt 0.086400 0.071551
vt 0.101484 0.068457
vt 0.067030 0.240377
vt 0.051947 0.243471
vt 0.083943 0.068457
vt 0.069488 0.243471
vt 0.077534 0.184052
vt 0.075069 0.168157
vt 0.075050 0.184052
vt 0.075050 0.127876
vt 0.075069 0.071551
vt 0.077553 0.168157
vt 0.077534 0.071551
vt 0.075050 0.240377
vt 0.077534 0.240377
vt 0.075050 0.071551
vt 0.367389 0.696430
vt 0.273617 0.696430
vt 0.367389 0.747847
vt 0.273617 0.591697
vt 0.378468 0.659809
vt 0.367389 0.591697
vt 0.273992 0.747847
vt 0.378066 0.757979
vt 0.378468 0.591697
vt 0.262538 0.742261
vt 0.378093 0.747840
vt 0.378093 0.747082
s 0
usemtl 1
f 37/1/1 1/2/1 5/3/1
f 74/4/2 142/5/2 72/6/2
f 47/7/3 161/8/3 9/9/3
f 73/10/3 158/11/3 75/12/3
f 45/13/4 1/14/4 11/13/4
f 48/7/2 117/15/2 50/16/2
f 21/17/5 7/18/5 3/19/5
f 30/20/6 116/21/6 36/22/6
f 4/23/7 30/24/7 22/25/7
f 23/26/8 136/11/8 24/27/8
f 13/25/9 44/28/9 38/24/9
f 15/29/10 43/30/10 44/28/10
f 16/31/11 42/32/11 43/30/11
f 17/33/12 41/34/12 42/35/12
f 18/36/13 40/37/13 41/34/13
f 19/38/14 39/39/14 40/37/14
f 20/40/15 37/1/15 39/41/15
f 76/27/2 143/42/2 74/4/2
f 12/43/4 96/44/4 3/44/4
f 47/7/3 100/15/3 167/45/3
f 75/12/3 159/46/3 77/47/3
f 9/9/3 139/48/3 66/49/3
f 20/50/15 115/51/15 14/52/15
f 24/27/16 135/42/16 25/4/16
f 30/24/6 28/29/6 22/25/6
f 36/28/17 27/31/17 28/29/17
f 35/30/18 26/53/18 27/31/18
f 34/35/19 25/36/19 26/33/19
f 33/34/16 24/38/16 25/36/16
f 32/37/8 23/54/8 24/38/8
f 31/55/20 21/17/20 23/56/20
f 78/26/2 144/11/2 76/27/2
f 10/57/2 153/48/2 168/8/2
f 37/58/15 112/59/15 39/60/15
f 77/61/3 160/62/3 79/63/3
f 50/16/2 94/21/2 51/64/2
f 25/4/19 134/5/19 26/6/19
f 80/65/2 145/66/2 78/67/2
f 6/68/21 13/69/21 38/70/21
f 77/71/22 80/72/22 78/73/22
f 6/74/3 166/75/3 2/76/3
f 75/77/22 78/73/22 76/78/22
f 52/64/3 100/15/3 49/16/3
f 73/79/22 76/78/22 74/80/22
f 19/81/14 113/82/14 20/83/14
f 71/84/22 74/85/22 72/86/22
f 51/64/2 147/87/2 53/88/2
f 69/89/22 72/86/22 70/90/22
f 39/91/14 110/92/14 40/93/14
f 67/94/22 70/90/22 68/95/22
f 26/96/18 133/97/18 27/98/18
f 66/99/22 68/95/22 65/100/22
f 54/88/3 118/21/3 52/64/3
f 61/73/23 64/101/23 62/71/23
f 8/102/7 99/15/7 30/20/7
f 59/78/23 62/71/23 60/77/23
f 53/88/2 148/103/2 55/104/2
f 57/80/23 60/77/23 58/79/23
f 18/105/13 111/11/13 19/81/13
f 55/86/23 58/106/23 56/84/23
f 27/98/17 131/107/17 28/108/17
f 53/90/23 56/84/23 54/89/23
f 29/109/5 89/110/5 7/111/5
f 51/95/23 54/89/23 52/94/23
f 46/43/4 89/44/4 88/43/4
f 50/100/23 52/94/23 49/99/23
f 56/104/3 120/87/3 54/88/3
f 10/112/22 66/99/22 65/100/22
f 40/93/13 108/113/13 41/114/13
f 47/115/23 50/100/23 49/99/23
f 5/116/1 114/117/1 37/58/1
f 9/115/24 48/118/24 47/115/24
f 7/44/4 12/43/4 3/44/4
f 46/119/4 11/120/4 12/119/4
f 45/13/4 86/14/4 5/14/4
f 80/72/22 12/119/22 11/120/22
f 55/121/2 149/113/2 57/122/2
f 64/101/23 45/120/23 46/119/23
f 87/13/23 114/123/23 86/14/23
f 113/124/22 146/125/22 115/123/22
f 97/43/22 138/126/22 96/44/22
f 85/127/22 175/128/22 95/129/22
f 117/130/23 165/131/23 101/132/23
f 139/133/22 162/134/22 132/135/22
f 101/132/23 94/136/23 117/130/23
f 93/137/23 147/138/23 94/136/23
f 104/139/23 148/140/23 147/138/23
f 106/141/23 149/142/23 148/140/23
f 108/143/23 150/144/23 149/142/23
f 110/145/23 151/146/23 150/144/23
f 112/124/23 152/125/23 151/146/23
f 132/135/22 154/147/22 139/133/22
f 131/148/22 155/149/22 154/147/22
f 133/150/22 156/151/22 155/149/22
f 134/152/22 157/153/22 156/151/22
f 135/154/22 158/155/22 157/153/22
f 136/156/22 159/157/22 158/155/22
f 137/158/22 160/159/22 159/157/22
f 111/145/22 145/146/22 113/124/22
f 109/143/22 144/144/22 111/145/22
f 107/141/22 143/142/22 109/143/22
f 105/139/22 142/140/22 107/141/22
f 103/137/22 141/138/22 105/139/22
f 102/132/22 140/136/22 103/137/22
f 127/158/23 130/159/23 129/126/23
f 125/156/23 128/157/23 127/158/23
f 123/154/23 126/155/23 125/156/23
f 121/152/23 124/153/23 123/154/23
f 119/150/23 122/151/23 121/152/23
f 116/148/23 120/149/23 119/150/23
f 99/135/23 118/147/23 116/148/23
f 166/131/22 153/130/22 102/132/22
f 163/134/23 100/133/23 99/135/23
f 95/160/2 169/161/2 83/162/2
f 115/123/22 81/13/22 82/14/22
f 129/126/23 88/43/23 89/44/23
f 21/65/20 137/66/20 23/67/20
f 48/7/2 168/8/2 164/45/2
f 71/163/3 157/42/3 73/10/3
f 36/22/17 119/87/17 35/164/17
f 72/96/2 141/97/2 70/98/2
f 44/165/9 101/15/9 38/166/9
f 69/167/3 156/168/3 71/169/3
f 35/164/18 121/103/18 34/170/18
f 11/171/2 146/62/2 80/65/2
f 70/98/2 140/107/2 68/108/2
f 79/63/3 97/172/3 12/173/3
f 13/174/25 103/107/25 15/175/25
f 67/176/3 155/97/3 69/167/3
f 34/177/19 123/113/19 33/178/19
f 46/179/3 130/180/3 64/181/3
f 68/108/2 153/48/2 65/182/2
f 63/181/2 87/110/2 45/179/2
f 43/183/10 93/21/10 44/165/10
f 66/49/3 154/107/3 67/176/3
f 33/178/16 125/92/16 32/184/16
f 15/175/10 105/97/10 16/185/10
f 64/181/3 128/186/3 62/187/3
f 61/187/2 152/180/2 63/181/2
f 11/13/4 82/14/4 81/13/4
f 32/184/8 127/188/8 31/189/8
f 42/190/11 104/87/11 43/183/11
f 62/191/3 126/92/3 60/192/3
f 6/193/26 101/15/26 165/194/26
f 16/185/11 107/168/11 17/195/11
f 59/192/2 151/188/2 61/191/2
f 2/196/21 102/48/21 13/174/21
f 31/197/20 129/180/20 29/109/20
f 60/192/3 124/113/3 58/122/3
f 14/52/1 82/198/1 1/199/1
f 41/114/12 106/200/12 42/201/12
f 57/122/2 150/92/2 59/192/2
f 3/171/5 138/62/5 21/65/5
f 28/108/6 132/48/6 22/182/6
f 17/202/12 109/42/12 18/105/12
f 58/122/3 122/200/3 56/121/3
f 8/102/2 162/203/2 163/194/2
f 4/57/27 132/48/27 162/203/27
f 84/204/28 161/205/28 83/206/28
f 85/207/28 162/208/28 84/204/28
f 91/209/29 164/210/29 90/211/29
f 92/212/29 165/213/29 91/209/29
f 95/214/28 163/215/28 85/207/28
f 98/216/29 166/217/29 92/212/29
f 83/206/28 167/218/28 95/214/28
f 90/211/29 168/219/29 98/216/29
f 176/216/29 173/209/29 172/211/29
f 170/204/28 175/214/28 171/207/28
f 91/220/22 172/221/22 173/222/22
f 84/127/23 169/128/23 170/223/23
f 98/162/3 172/224/3 90/160/3
f 92/220/23 176/221/23 98/225/23
f 91/226/2 174/227/2 92/228/2
f 84/228/3 171/229/3 85/226/3
f 37/1/1 14/230/1 1/2/1
f 74/4/2 143/42/2 142/5/2
f 47/7/3 167/45/3 161/8/3
f 73/10/3 157/42/3 158/11/3
f 45/13/4 5/14/4 1/14/4
f 48/7/2 164/45/2 117/15/2
f 21/17/5 29/231/5 7/18/5
f 30/20/6 99/15/6 116/21/6
f 4/23/7 8/232/7 30/24/7
f 23/26/8 137/46/8 136/11/8
f 13/25/25 15/29/25 44/28/25
f 15/29/10 16/31/10 43/30/10
f 16/31/11 17/53/11 42/32/11
f 17/33/12 18/36/12 41/34/12
f 18/36/13 19/38/13 40/37/13
f 19/38/14 20/233/14 39/39/14
f 20/40/15 14/230/15 37/1/15
f 76/27/2 144/11/2 143/42/2
f 12/43/4 97/43/4 96/44/4
f 47/7/3 49/16/3 100/15/3
f 75/12/3 158/11/3 159/46/3
f 9/9/3 161/8/3 139/48/3
f 20/50/15 113/234/15 115/51/15
f 24/27/16 136/11/16 135/42/16
f 30/24/6 36/28/6 28/29/6
f 36/28/17 35/30/17 27/31/17
f 35/30/18 34/32/18 26/53/18
f 34/35/19 33/34/19 25/36/19
f 33/34/16 32/37/16 24/38/16
f 32/37/8 31/235/8 23/54/8
f 31/55/20 29/231/20 21/17/20
f 78/26/2 145/46/2 144/11/2
f 10/57/2 65/182/2 153/48/2
f 37/58/15 114/117/15 112/59/15
f 77/61/3 159/66/3 160/62/3
f 50/16/2 117/15/2 94/21/2
f 25/4/19 135/42/19 134/5/19
f 80/65/2 146/62/2 145/66/2
f 6/68/21 2/236/21 13/69/21
f 77/71/22 79/101/22 80/72/22
f 6/74/3 165/237/3 166/75/3
f 75/77/22 77/71/22 78/73/22
f 52/64/3 118/21/3 100/15/3
f 73/79/22 75/77/22 76/78/22
f 19/81/14 111/11/14 113/82/14
f 71/84/22 73/106/22 74/85/22
f 51/64/2 94/21/2 147/87/2
f 69/89/22 71/84/22 72/86/22
f 39/91/14 112/238/14 110/92/14
f 67/94/22 69/89/22 70/90/22
f 26/96/18 134/168/18 133/97/18
f 66/99/22 67/94/22 68/95/22
f 54/88/3 120/87/3 118/21/3
f 61/73/23 63/72/23 64/101/23
f 8/102/30 163/194/30 99/15/30
f 59/78/23 61/73/23 62/71/23
f 53/88/2 147/87/2 148/103/2
f 57/80/23 59/78/23 60/77/23
f 18/105/13 109/42/13 111/11/13
f 55/86/23 57/85/23 58/106/23
f 27/98/17 133/97/17 131/107/17
f 53/90/23 55/86/23 56/84/23
f 29/109/5 129/180/5 89/110/5
f 51/95/23 53/90/23 54/89/23
f 46/43/4 7/44/4 89/44/4
f 50/100/23 51/95/23 52/94/23
f 56/104/3 122/103/3 120/87/3
f 10/112/22 9/115/22 66/99/22
f 40/93/13 110/92/13 108/113/13
f 47/115/23 48/112/23 50/100/23
f 5/116/1 86/239/1 114/117/1
f 9/115/24 10/118/24 48/118/24
f 7/44/4 46/43/4 12/43/4
f 46/119/4 45/120/4 11/120/4
f 45/13/4 87/13/4 86/14/4
f 80/72/22 79/101/22 12/119/22
f 55/121/2 148/200/2 149/113/2
f 64/101/23 63/72/23 45/120/23
f 87/13/23 152/125/23 114/123/23
f 113/124/22 145/146/22 146/125/22
f 97/43/22 160/159/22 138/126/22
f 85/127/22 171/223/22 175/128/22
f 117/130/23 164/240/23 165/131/23
f 139/133/22 161/241/22 162/134/22
f 101/132/23 93/137/23 94/136/23
f 93/137/23 104/139/23 147/138/23
f 104/139/23 106/141/23 148/140/23
f 106/141/23 108/143/23 149/142/23
f 108/143/23 110/145/23 150/144/23
f 110/145/23 112/124/23 151/146/23
f 112/124/23 114/123/23 152/125/23
f 132/135/22 131/148/22 154/147/22
f 131/148/22 133/150/22 155/149/22
f 133/150/22 134/152/22 156/151/22
f 134/152/22 135/154/22 157/153/22
f 135/154/22 136/156/22 158/155/22
f 136/156/22 137/158/22 159/157/22
f 137/158/22 138/126/22 160/159/22
f 111/145/22 144/144/22 145/146/22
f 109/143/22 143/142/22 144/144/22
f 107/141/22 142/140/22 143/142/22
f 105/139/22 141/138/22 142/140/22
f 103/137/22 140/136/22 141/138/22
f 102/132/22 153/130/22 140/136/22
f 127/158/23 128/157/23 130/159/23
f 125/156/23 126/155/23 128/157/23
f 123/154/23 124/153/23 126/155/23
f 121/152/23 122/151/23 124/153/23
f 119/150/23 120/149/23 122/151/23
f 116/148/23 118/147/23 120/149/23
f 99/135/23 100/133/23 118/147/23
f 166/131/22 168/240/22 153/130/22
f 163/134/23 167/241/23 100/133/23
f 95/160/2 175/224/2 169/161/2
f 115/123/22 146/125/22 81/13/22
f 129/126/23 130/159/23 88/43/23
f 21/65/20 138/62/20 137/66/20
f 48/7/2 10/9/2 168/8/2
f 71/163/3 156/5/3 157/42/3
f 36/22/17 116/21/17 119/87/17
f 72/96/2 142/168/2 141/97/2
f 44/165/25 93/21/25 101/15/25
f 69/167/3 155/97/3 156/168/3
f 35/164/18 119/87/18 121/103/18
f 11/171/2 81/172/2 146/62/2
f 70/98/2 141/97/2 140/107/2
f 79/63/3 160/62/3 97/172/3
f 13/174/9 102/48/9 103/107/9
f 67/176/3 154/107/3 155/97/3
f 34/177/19 121/200/19 123/113/19
f 46/179/3 88/110/3 130/180/3
f 68/108/2 140/107/2 153/48/2
f 63/181/2 152/180/2 87/110/2
f 43/183/10 104/87/10 93/21/10
f 66/49/3 139/48/3 154/107/3
f 33/178/16 123/113/16 125/92/16
f 15/175/10 103/107/10 105/97/10
f 64/181/3 130/180/3 128/186/3
f 61/187/2 151/186/2 152/180/2
f 11/13/4 1/14/4 82/14/4
f 32/184/8 125/92/8 127/188/8
f 42/190/11 106/103/11 104/87/11
f 62/191/3 128/188/3 126/92/3
f 6/193/21 38/166/21 101/15/21
f 16/185/11 105/97/11 107/168/11
f 59/192/2 150/92/2 151/188/2
f 2/196/31 166/203/31 102/48/31
f 31/197/20 127/186/20 129/180/20
f 60/192/3 126/92/3 124/113/3
f 14/52/1 115/51/1 82/198/1
f 41/114/12 108/113/12 106/200/12
f 57/122/2 149/113/2 150/92/2
f 3/171/5 96/172/5 138/62/5
f 28/108/6 131/107/6 132/48/6
f 17/202/12 107/5/12 109/42/12
f 58/122/3 124/113/3 122/200/3
f 8/102/2 4/57/2 162/203/2
f 4/57/7 22/182/7 132/48/7
f 84/204/28 162/208/28 161/205/28
f 85/207/28 163/215/28 162/208/28
f 91/209/29 165/213/29 164/210/29
f 92/212/29 166/217/29 165/213/29
f 95/214/28 167/218/28 163/215/28
f 98/216/29 168/219/29 166/217/29
f 83/206/28 161/205/28 167/218/28
f 90/211/29 164/210/29 168/219/29
f 176/216/29 174/212/29 173/209/29
f 170/204/28 169/206/28 175/214/28
f 91/220/22 90/225/22 172/221/22
f 84/127/23 83/129/23 169/128/23
f 98/162/3 176/161/3 172/224/3
f 92/220/23 174/222/23 176/221/23
f 91/226/2 173/229/2 174/227/2
f 84/228/3 170/227/3 171/229/3
