# Blender 4.5.3 LTS
# www.blender.org
mtllib PlayBuilding_8.mtl
o 立方体.014
v -10.075269 -10.075269 0.000000
v -9.445748 -9.445748 40.708973
v -10.075269 10.075269 0.000000
v -9.445748 9.445748 40.708973
v 10.075269 -10.075269 0.000000
v 9.445748 -9.445748 40.708973
v 10.075269 10.075269 0.000000
v 9.445748 9.445748 40.708973
v -17.583183 -14.637201 0.000000
v -16.953661 -14.007681 45.294167
v -17.583183 5.513338 0.000000
v -16.953661 4.883816 45.294167
v -7.333719 -14.637200 0.000000
v -7.963241 -14.007680 45.294167
v -7.333720 5.513338 0.000000
v -7.963241 4.883817 45.294167
v -6.683202 -16.142828 6.426650
v -6.683203 2.748669 6.426650
v 12.208294 -16.142828 6.426650
v 12.208293 2.748670 6.426650
v -7.312723 -16.772348 0.019912
v -7.312724 3.378190 0.019912
v 12.837814 3.378191 0.019912
v 12.837815 -16.772348 0.019912
v -10.075269 -10.075269 40.708973
v -10.075269 10.075269 40.708973
v 10.075269 10.075269 40.708973
v 10.075269 -10.075269 40.708973
v -17.583183 -14.637201 45.294167
v -17.583183 5.513338 45.294167
v -7.333720 5.513338 45.294167
v -7.333719 -14.637200 45.294167
v -7.312723 -16.772348 6.426650
v -7.312724 3.378190 6.426650
v 12.837814 3.378191 6.426650
v 12.837815 -16.772348 6.426650
v -9.445748 -9.445748 39.669384
v -9.445748 9.445748 39.669384
v 9.445748 9.445748 39.669384
v 9.445748 -9.445748 39.669384
v -16.953661 -14.007681 45.297901
v -16.953661 4.883816 45.297901
v -7.963241 4.883817 45.297901
v -7.963241 -14.007680 45.297901
v -6.683202 -16.142828 5.998890
v -6.683203 2.748669 5.998890
v 12.208293 2.748670 5.998890
v 12.208294 -16.142828 5.998890
v -17.192816 -12.255890 43.679226
v -15.724319 -11.623292 47.194279
v -17.192816 -8.268062 43.679226
v -15.724319 -8.900662 47.194279
v -7.935618 -12.255888 43.679226
v -9.404110 -11.623291 47.194279
v -7.935618 -8.268060 43.679226
v -9.404111 -8.900661 47.194279
v -17.192816 -12.255890 47.194279
v -17.192816 -8.268062 47.194279
v -7.935618 -8.268060 47.194279
v -7.935618 -12.255888 47.194279
v -15.724319 -11.623292 47.652111
v -15.724319 -8.900662 47.652111
v -9.404111 -8.900661 47.652111
v -9.404110 -11.623291 47.652111
v 0.008216 -8.411103 43.676914
v 0.008216 -8.411103 38.770386
v -5.467573 -8.411103 43.676914
v -5.467573 -8.411103 38.770386
v 0.008216 5.798229 43.676914
v 0.008216 5.798229 38.770386
v -5.467573 5.798228 43.676914
v -5.467573 5.798228 38.770386
v 4.612324 -3.568504 42.250778
v 4.612324 -1.327773 42.250778
v 2.205017 -1.327773 42.250778
v 2.205017 -3.568504 42.250778
v 4.612324 -3.568504 41.985699
v 4.612324 -1.327773 41.985699
v 2.205017 -1.327773 41.985699
v 2.205017 -3.568504 41.985699
v 4.913665 -1.047282 41.985699
v 4.913665 -1.047282 39.746700
v 4.913665 -3.848994 41.985699
v 4.913665 -3.848994 39.746700
v 1.903677 -1.047283 41.985699
v 1.903677 -1.047283 39.746700
v 1.903677 -3.848995 41.985699
v 1.903677 -3.848995 39.746700
v 1.903677 -0.286142 39.746700
v 1.903677 -0.286142 41.985699
v 1.903677 2.515566 39.746700
v 1.903677 2.515566 41.985699
v 4.913665 -0.286141 39.746700
v 4.913665 -0.286141 41.985699
v 4.913665 2.515567 39.746700
v 4.913665 2.515567 41.985699
v 2.205017 -0.005655 41.985699
v 2.205017 2.235075 41.985699
v 4.612324 2.235076 41.985699
v 4.612324 -0.005655 41.985699
v 2.205017 -0.005655 42.250778
v 2.205017 2.235075 42.250778
v 4.612324 2.235076 42.250778
v 4.612324 -0.005655 42.250778
v 4.612324 -7.131357 42.250778
v 4.612324 -4.890619 42.250778
v 2.205017 -4.890619 42.250778
v 2.205017 -7.131357 42.250778
v 4.612324 -7.131357 41.985699
v 4.612324 -4.890619 41.985699
v 2.205017 -4.890619 41.985699
v 2.205017 -7.131357 41.985699
v 4.913665 -4.610136 41.985699
v 4.913665 -4.610136 39.746700
v 4.913665 -7.411844 41.985699
v 4.913665 -7.411844 39.746700
v 1.903677 -4.610136 41.985699
v 1.903677 -4.610136 39.746700
v 1.903677 -7.411844 41.985699
v 1.903677 -7.411844 39.746700
vn -1.0000 -0.0000 -0.0000
vn -0.0000 1.0000 -0.0000
vn 1.0000 -0.0000 -0.0000
vn -0.0000 -1.0000 -0.0000
vn -0.0000 -0.0000 -1.0000
vn -0.0000 -0.0000 1.0000
vt 0.410480 0.732898
vt 0.454874 0.597404
vt 0.410480 0.597404
vt 0.454874 0.732898
vt 0.375000 0.500000
vt 0.125000 0.750000
vt 0.125000 0.500000
vt 0.171276 0.221812
vt 0.167877 0.144061
vt 0.171276 0.144061
vt 0.359347 0.953445
vt 0.399737 0.785897
vt 0.359347 0.785897
vt 0.316896 0.957427
vt 0.349672 0.770882
vt 0.316896 0.770882
vt 0.399737 0.953445
vt 0.349672 0.957427
vt 0.188046 0.246467
vt 0.188046 0.177513
vt 0.173100 0.230006
vt 0.169701 0.152254
vt 0.173100 0.152254
vt 0.625000 0.750000
vt 0.875000 0.500000
vt 0.625000 0.500000
vt 0.406880 0.572834
vt 0.447843 0.589556
vt 0.406880 0.589556
vt 0.447843 0.572834
vt 0.144538 0.177513
vt 0.189496 0.175215
vt 0.188046 0.177513
vt 0.144538 0.246467
vt 0.143089 0.175215
vt 0.188046 0.246467
vt 0.143089 0.248764
vt 0.189496 0.248764
vt 0.144538 0.179733
vt 0.188046 0.179733
vt 0.144538 0.244247
vt 0.188046 0.244247
vt 0.144538 0.177513
vt 0.144538 0.246467
vt 0.173100 0.225881
vt 0.169701 0.188879
vt 0.173100 0.188879
vt 0.171276 0.160310
vt 0.167877 0.238062
vt 0.171276 0.238062
vt 0.169701 0.230006
vt 0.167877 0.221812
vt 0.167877 0.160310
vt 0.169701 0.225881
vt 0.401166 0.175202
vt 0.391102 0.110760
vt 0.391102 0.175202
vt 0.423066 0.175202
vt 0.413001 0.110760
vt 0.413001 0.175202
vt 0.411266 0.110760
vt 0.401202 0.175202
vt 0.401202 0.110760
vt 0.433165 0.110760
vt 0.423101 0.175202
vt 0.423101 0.110760
vt 0.413262 0.119578
vt 0.374102 0.168878
vt 0.413262 0.168878
vt 0.459211 0.165578
vt 0.367234 0.175958
vt 0.384576 0.165578
vt 0.476552 0.110522
vt 0.476552 0.175958
vt 0.459211 0.120902
vt 0.367234 0.110522
vt 0.384576 0.120902
vt 0.420638 0.110681
vt 0.369938 0.050749
vt 0.420638 0.050749
vt 0.477506 0.192918
vt 0.482292 0.228747
vt 0.477506 0.228747
vt 0.482292 0.192918
vt 0.477506 0.162452
vt 0.482292 0.198281
vt 0.477506 0.198281
vt 0.482292 0.162452
vt 0.349317 0.248440
vt 0.275017 0.074839
vt 0.349317 0.074839
vt 0.275017 0.248440
vt 0.350464 0.074839
vt 0.273870 0.248440
vt 0.273869 0.074839
vt 0.347767 0.050843
vt 0.276567 0.112980
vt 0.276567 0.050843
vt 0.349045 0.248440
vt 0.275288 0.074839
vt 0.275288 0.248440
vt 0.341717 0.187429
vt 0.282617 0.135850
vt 0.282617 0.187429
vt 0.339062 0.143249
vt 0.290799 0.143249
vt 0.103240 0.236381
vt 0.100600 0.190921
vt 0.103240 0.185864
vt 0.349162 0.119990
vt 0.275717 0.119990
vt 0.278208 0.143249
vt 0.351653 0.143249
vt 0.275853 0.119729
vt 0.324116 0.119729
vt 0.350195 0.198923
vt 0.274340 0.249007
vt 0.274340 0.198923
vt 0.275717 0.054798
vt 0.349162 0.054798
vt 0.079511 0.190921
vt 0.076871 0.185864
vt 0.076871 0.236381
vt 0.079511 0.231324
vt 0.100600 0.231324
vt 0.324116 0.054537
vt 0.275853 0.054537
vt 0.290799 0.078057
vt 0.339062 0.078057
vt 0.351653 0.078057
vt 0.278208 0.078057
vt 0.350195 0.249007
vt 0.375000 0.750000
vt 0.875000 0.750000
vt 0.401166 0.110760
vt 0.423066 0.110760
vt 0.411266 0.175202
vt 0.433165 0.175202
vt 0.374102 0.119578
vt 0.369938 0.110681
vt 0.350464 0.248440
vt 0.347767 0.112980
vt 0.349045 0.074839
vt 0.341717 0.135850
s 1
usemtl 1
f 25/1/1 3/2/1 1/3/1
f 26/1/2 7/2/2 3/3/2
f 27/4/3 5/3/3 7/2/3
f 28/4/4 1/3/4 5/2/4
f 7/5/5 1/6/5 3/7/5
f 4/8/4 39/9/4 8/10/4
f 29/11/1 11/12/1 9/13/1
f 30/14/2 15/15/2 11/16/2
f 31/17/3 13/13/3 15/12/3
f 32/18/4 9/16/4 13/15/4
f 15/5/5 9/6/5 11/7/5
f 48/19/2 17/20/2 19/19/2
f 10/21/1 42/22/1 12/23/1
f 24/24/5 22/25/5 23/26/5
f 24/27/3 35/28/3 36/29/3
f 22/30/1 33/29/1 34/28/1
f 21/27/4 36/28/4 33/29/4
f 23/30/2 34/29/2 35/28/2
f 4/31/6 25/32/6 2/33/6
f 8/34/6 26/35/6 4/31/6
f 6/36/6 27/37/6 8/34/6
f 2/33/6 28/38/6 6/36/6
f 12/39/6 29/32/6 10/40/6
f 16/41/6 30/35/6 12/39/6
f 14/42/6 31/37/6 16/41/6
f 10/40/6 32/38/6 14/42/6
f 34/35/6 17/20/6 18/43/6
f 35/37/6 18/43/6 20/44/6
f 36/38/6 20/44/6 19/19/6
f 33/32/6 19/19/6 17/20/6
f 38/31/6 40/36/6 39/34/6
f 42/39/6 44/42/6 43/41/6
f 46/43/6 48/19/6 47/44/6
f 45/20/3 18/43/3 17/20/3
f 12/45/2 43/46/2 16/47/2
f 8/48/1 40/49/1 6/50/1
f 46/43/4 20/44/4 18/43/4
f 16/23/3 44/51/3 14/21/3
f 6/10/2 37/52/2 2/8/2
f 47/44/1 19/19/1 20/44/1
f 2/50/3 38/53/3 4/48/3
f 14/47/4 41/54/4 10/45/4
f 57/55/1 51/56/1 49/57/1
f 58/58/2 55/59/2 51/60/2
f 59/61/3 53/62/3 55/63/3
f 60/64/4 49/65/4 53/66/4
f 55/67/5 49/68/5 51/69/5
f 52/70/6 57/71/6 50/72/6
f 52/70/6 59/73/6 58/74/6
f 56/75/6 60/76/6 59/73/6
f 50/72/6 60/76/6 54/77/6
f 62/78/6 64/79/6 63/80/6
f 54/81/4 61/82/4 50/83/4
f 52/83/2 63/84/2 56/81/2
f 56/85/3 64/86/3 54/87/3
f 50/87/1 62/88/1 52/85/1
f 69/89/6 67/90/6 65/91/6
f 66/91/5 72/92/5 70/89/5
f 67/93/1 72/94/1 68/95/1
f 65/96/4 68/97/4 66/98/4
f 69/99/3 66/100/3 70/101/3
f 71/102/2 70/103/2 72/104/2
f 78/105/3 73/106/3 77/106/3
f 85/107/6 78/108/6 81/109/6
f 77/110/4 76/111/4 80/111/4
f 79/112/2 74/113/2 78/113/2
f 80/114/1 75/115/1 79/115/1
f 75/116/6 73/117/6 74/118/6
f 83/110/4 88/119/4 84/120/4
f 81/109/6 77/121/6 83/122/6
f 87/123/6 77/121/6 80/124/6
f 87/123/6 79/125/6 85/107/6
f 87/114/1 86/126/1 88/127/1
f 81/105/3 84/128/3 82/129/3
f 85/112/2 82/130/2 86/131/2
f 82/118/5 88/132/5 86/116/5
f 90/114/1 91/126/1 89/127/1
f 92/112/2 95/130/2 91/131/2
f 96/105/3 93/128/3 95/129/3
f 94/110/4 89/119/4 93/120/4
f 95/118/5 89/132/5 91/116/5
f 90/123/6 98/125/6 92/107/6
f 100/110/4 101/111/4 97/111/4
f 90/123/6 100/121/6 97/124/6
f 92/107/6 99/108/6 96/109/6
f 94/122/6 99/108/6 100/121/6
f 102/116/6 104/117/6 103/118/6
f 98/112/2 103/113/2 99/113/2
f 99/105/3 104/106/3 100/106/3
f 97/114/1 102/115/1 98/115/1
f 110/105/3 105/106/3 109/106/3
f 117/107/6 110/108/6 113/109/6
f 109/110/4 108/111/4 112/111/4
f 111/112/2 106/113/2 110/113/2
f 112/114/1 107/115/1 111/115/1
f 107/116/6 105/117/6 106/118/6
f 115/110/4 120/119/4 116/120/4
f 113/109/6 109/121/6 115/122/6
f 115/122/6 112/124/6 119/123/6
f 117/107/6 112/124/6 111/125/6
f 119/114/1 118/126/1 120/127/1
f 113/105/3 116/128/3 114/129/3
f 117/112/2 114/130/2 118/131/2
f 114/118/5 120/132/5 118/116/5
f 25/1/1 26/4/1 3/2/1
f 26/1/2 27/4/2 7/2/2
f 27/4/3 28/1/3 5/3/3
f 28/4/4 25/1/4 1/3/4
f 7/5/5 5/133/5 1/6/5
f 4/8/4 38/52/4 39/9/4
f 29/11/1 30/17/1 11/12/1
f 30/14/2 31/18/2 15/15/2
f 31/17/3 32/11/3 13/13/3
f 32/18/4 29/14/4 9/16/4
f 15/5/5 13/133/5 9/6/5
f 48/19/2 45/20/2 17/20/2
f 10/21/1 41/51/1 42/22/1
f 24/24/5 21/134/5 22/25/5
f 24/27/3 23/30/3 35/28/3
f 22/30/1 21/27/1 33/29/1
f 21/27/4 24/30/4 36/28/4
f 23/30/2 22/27/2 34/29/2
f 4/31/6 26/35/6 25/32/6
f 8/34/6 27/37/6 26/35/6
f 6/36/6 28/38/6 27/37/6
f 2/33/6 25/32/6 28/38/6
f 12/39/6 30/35/6 29/32/6
f 16/41/6 31/37/6 30/35/6
f 14/42/6 32/38/6 31/37/6
f 10/40/6 29/32/6 32/38/6
f 34/35/6 33/32/6 17/20/6
f 35/37/6 34/35/6 18/43/6
f 36/38/6 35/37/6 20/44/6
f 33/32/6 36/38/6 19/19/6
f 38/31/6 37/33/6 40/36/6
f 42/39/6 41/40/6 44/42/6
f 46/43/6 45/20/6 48/19/6
f 45/20/3 46/43/3 18/43/3
f 12/45/2 42/54/2 43/46/2
f 8/48/1 39/53/1 40/49/1
f 46/43/4 47/44/4 20/44/4
f 16/23/3 43/22/3 44/51/3
f 6/10/2 40/9/2 37/52/2
f 47/44/1 48/19/1 19/19/1
f 2/50/3 37/49/3 38/53/3
f 14/47/4 44/46/4 41/54/4
f 57/55/1 58/135/1 51/56/1
f 58/58/2 59/136/2 55/59/2
f 59/61/3 60/137/3 53/62/3
f 60/64/4 57/138/4 49/65/4
f 55/67/5 53/139/5 49/68/5
f 52/70/6 58/74/6 57/71/6
f 52/70/6 56/75/6 59/73/6
f 56/75/6 54/77/6 60/76/6
f 50/72/6 57/71/6 60/76/6
f 62/78/6 61/140/6 64/79/6
f 54/81/4 64/84/4 61/82/4
f 52/83/2 62/82/2 63/84/2
f 56/85/3 63/88/3 64/86/3
f 50/87/1 61/86/1 62/88/1
f 69/89/6 71/92/6 67/90/6
f 66/91/5 68/90/5 72/92/5
f 67/93/1 71/141/1 72/94/1
f 65/96/4 67/142/4 68/97/4
f 69/99/3 65/143/3 66/100/3
f 71/102/2 69/144/2 70/103/2
f 78/105/3 74/105/3 73/106/3
f 85/107/6 79/125/6 78/108/6
f 77/110/4 73/110/4 76/111/4
f 79/112/2 75/112/2 74/113/2
f 80/114/1 76/114/1 75/115/1
f 75/116/6 76/132/6 73/117/6
f 83/110/4 87/111/4 88/119/4
f 81/109/6 78/108/6 77/121/6
f 87/123/6 83/122/6 77/121/6
f 87/123/6 80/124/6 79/125/6
f 87/114/1 85/115/1 86/126/1
f 81/105/3 83/106/3 84/128/3
f 85/112/2 81/113/2 82/130/2
f 82/118/5 84/117/5 88/132/5
f 90/114/1 92/115/1 91/126/1
f 92/112/2 96/113/2 95/130/2
f 96/105/3 94/106/3 93/128/3
f 94/110/4 90/111/4 89/119/4
f 95/118/5 93/117/5 89/132/5
f 90/123/6 97/124/6 98/125/6
f 100/110/4 104/110/4 101/111/4
f 90/123/6 94/122/6 100/121/6
f 92/107/6 98/125/6 99/108/6
f 94/122/6 96/109/6 99/108/6
f 102/116/6 101/132/6 104/117/6
f 98/112/2 102/112/2 103/113/2
f 99/105/3 103/105/3 104/106/3
f 97/114/1 101/114/1 102/115/1
f 110/105/3 106/105/3 105/106/3
f 117/107/6 111/125/6 110/108/6
f 109/110/4 105/110/4 108/111/4
f 111/112/2 107/112/2 106/113/2
f 112/114/1 108/114/1 107/115/1
f 107/116/6 108/132/6 105/117/6
f 115/110/4 119/111/4 120/119/4
f 113/109/6 110/108/6 109/121/6
f 115/122/6 109/121/6 112/124/6
f 117/107/6 119/123/6 112/124/6
f 119/114/1 117/115/1 118/126/1
f 113/105/3 115/106/3 116/128/3
f 117/112/2 113/113/2 114/130/2
f 114/118/5 116/117/5 120/132/5
