# Blender 4.5.3 LTS
# www.blender.org
mtllib Antenna.mtl
o Residential_Buildings_010
v -0.071658 5.706963 -0.059610
v 0.071658 5.706963 -0.059610
v -0.071658 5.706963 0.059610
v 0.071658 5.706963 0.059610
v 0.079503 0.466911 0.065214
v 0.079503 0.466911 -0.065213
v -0.079501 0.466911 -0.065213
v -0.079501 0.466911 0.065214
v -0.254565 0.338898 -0.225632
v 0.254565 0.338898 -0.225632
v -0.254565 0.338898 0.225632
v 0.254565 0.338898 0.225633
v -0.253825 0.000000 0.224638
v 0.253825 0.000000 0.224638
v -0.253825 -0.000000 -0.224638
v 0.253825 -0.000000 -0.224637
vn 0.5770 0.5780 0.5771
vn -0.5770 0.5780 -0.5771
vn -0.5769 0.5780 0.5771
vn -1.0000 0.0015 -0.0000
vn -0.0000 0.0011 -1.0000
vn 1.0000 0.0015 -0.0000
vn -0.0000 0.0011 1.0000
vn -0.0000 0.7816 0.6237
vn 0.5903 0.8072 -0.0000
vn -0.0000 0.7816 -0.6237
vn -0.5903 0.8072 -0.0000
vn -1.0000 -0.0022 -0.0000
vn -0.0000 -0.0029 -1.0000
vn 1.0000 -0.0022 -0.0000
vn -0.0000 -0.0029 1.0000
vn 0.5769 0.5780 -0.5771
vt 0.766534 0.556300
vt 0.768859 0.559411
vt 0.766379 0.559281
vt 0.773173 0.456016
vt 0.771659 0.556317
vt 0.771500 0.455854
vt 0.769219 0.455693
vt 0.768915 0.556346
vt 0.767334 0.455838
vt 0.765129 0.455987
vt 0.767057 0.454403
vt 0.763960 0.454794
vt 0.769237 0.454139
vt 0.771636 0.454478
vt 0.773924 0.455173
vt 0.774381 0.453372
vt 0.771993 0.452759
vt 0.769309 0.452380
vt 0.766858 0.452488
vt 0.763792 0.452747
vt 0.773941 0.556297
vt 0.763792 0.556257
s 1
usemtl ground
f 4/1/1 1/2/2 3/3/3
f 8/4/4 1/5/4 7/6/4
f 1/5/5 6/7/5 7/6/5
f 2/8/6 5/9/6 6/7/6
f 4/1/7 8/10/7 5/9/7
f 12/11/8 8/10/8 11/12/8
f 6/7/9 12/11/9 10/13/9
f 7/6/10 10/13/10 9/14/10
f 11/15/11 7/6/11 9/14/11
f 13/16/12 9/14/12 15/17/12
f 9/14/13 16/18/13 15/17/13
f 10/13/14 14/19/14 16/18/14
f 12/11/15 13/20/15 14/19/15
f 4/1/1 2/8/16 1/2/2
f 8/4/4 3/21/4 1/5/4
f 1/5/5 2/8/5 6/7/5
f 2/8/6 4/1/6 5/9/6
f 4/1/7 3/22/7 8/10/7
f 12/11/8 5/9/8 8/10/8
f 6/7/9 5/9/9 12/11/9
f 7/6/10 6/7/10 10/13/10
f 11/15/11 8/4/11 7/6/11
f 13/16/12 11/15/12 9/14/12
f 9/14/13 10/13/13 16/18/13
f 10/13/14 12/11/14 14/19/14
f 12/11/15 11/12/15 13/20/15
