# Blender 4.5.3 LTS
# www.blender.org
mtllib Prop_2.mtl
o SM_SampleBuilding3.001
v -0.533350 -0.478594 0.943223
v -0.276055 -0.231641 0.943223
v -0.548643 -0.460391 0.943223
v -0.260752 -0.249922 0.943223
v 0.276055 0.231640 0.943223
v -0.499658 -0.518750 0.900358
v 0.291357 0.213359 0.943223
v 0.548652 0.460390 0.943223
v 0.563955 0.442109 0.943223
v -0.227070 -0.290000 0.900358
v 0.325039 0.173203 0.900358
v 0.597637 0.401953 0.900358
v -0.167070 -0.361562 0.438983
v -0.409570 -0.626172 0.207509
v -0.078213 -0.250937 0.575366
v -0.136973 -0.397422 0.207509
v 0.260713 0.033437 0.575366
v -0.139316 -0.394609 0.079612
v 0.385039 0.101719 0.438983
v -0.411914 -0.623359 0.079612
v 0.687734 0.294609 0.207509
v -0.461406 -0.564375 0.000000
v 0.415137 0.065859 0.207509
v 0.685381 0.297422 0.079612
v 0.412793 0.068672 0.079612
v -0.188809 -0.335625 0.000000
v -0.548643 -0.460391 0.000000
v -0.276055 -0.231641 0.000000
v 0.363301 0.127656 0.000000
v 0.635889 0.356406 0.000000
v 0.276055 0.231640 0.000000
v 0.548652 0.460390 0.000000
v -0.563945 -0.442187 0.943223
v -0.291348 -0.213437 0.943223
v -0.597627 -0.402031 0.900358
v 0.260752 0.249844 0.943223
v 0.533350 0.478594 0.943223
v 0.227070 0.290000 0.900358
v 0.499668 0.518750 0.900358
v -0.325039 -0.173281 0.900358
v -0.385029 -0.101797 0.438983
v -0.687725 -0.294609 0.207509
v -0.260703 -0.033437 0.575366
v -0.415127 -0.065937 0.207509
v 0.078223 0.250937 0.575366
v -0.412783 -0.068672 0.079612
v 0.167080 0.361484 0.438983
v -0.685381 -0.297422 0.079612
v 0.409570 0.626094 0.207509
v -0.635889 -0.356406 0.000000
v 0.136973 0.397344 0.207509
v 0.411914 0.623281 0.079612
v 0.139326 0.394609 0.079612
v -0.363291 -0.127656 0.000000
v 0.188818 0.335625 0.000000
v 0.461406 0.564297 0.000000
v -0.566982 -0.491094 0.909432
v -0.574531 -0.482109 0.909432
v -0.545293 -0.516953 0.881838
v -0.574531 -0.482109 0.204603
v -0.457236 -0.621875 0.204603
v -0.459268 -0.619453 0.093680
v -0.574531 -0.482109 0.093680
v -0.496494 -0.575078 0.033791
v -0.574531 -0.482109 0.033791
v 0.582080 0.473047 0.909432
v 0.574531 0.482109 0.909432
v 0.603770 0.447265 0.881838
v 0.574531 0.482109 0.204603
v 0.691836 0.342265 0.204603
v 0.689795 0.344687 0.093680
v 0.574531 0.482109 0.093680
v 0.652568 0.389062 0.033791
v 0.574531 0.482109 0.033791
v 0.496504 0.575078 0.033791
v 0.459268 0.619453 0.093680
v 0.457236 0.621875 0.204603
v 0.545303 0.516875 0.881838
v 0.566992 0.491094 0.909432
v -0.652559 -0.389141 0.033791
v -0.689795 -0.344766 0.093680
v -0.691826 -0.342344 0.204603
v -0.603760 -0.447266 0.881838
v -0.582080 -0.473125 0.909432
v -0.150645 -0.351641 0.092870
v 0.372432 0.087266 0.092870
v -0.148652 -0.353984 0.201829
v 0.374434 0.084922 0.201829
v 0.345332 0.119609 0.425610
v 0.230918 0.056719 0.551116
v -0.177744 -0.319297 0.425610
v -0.095977 -0.217578 0.551116
v -0.372432 -0.087344 0.092870
v 0.150654 0.351562 0.092870
v -0.374424 -0.084922 0.201829
v 0.148652 0.353984 0.201829
v 0.177754 0.319297 0.425610
v 0.095986 0.217500 0.551116
v -0.345322 -0.119609 0.425610
v -0.230918 -0.056797 0.551116
vn -0.0787 -0.4801 0.8737
vn -0.0000 -0.0000 1.0000
vn -0.2989 -0.2517 0.9205
vn 0.2195 -0.2587 0.9407
vn 0.2277 -0.8478 0.4789
vn 0.2989 0.2517 0.9205
vn 0.4876 -0.0000 0.8730
vn 0.5509 -0.6532 0.5194
vn 0.7952 -0.3701 0.4803
vn 0.8926 -0.4502 0.0238
vn 0.2987 -0.9511 0.0786
vn 0.7475 -0.6294 -0.2124
vn 0.9463 -0.3154 0.0710
vn 0.4898 -0.8453 -0.2133
vn 0.7864 -0.5741 -0.2281
vn 0.2901 -0.9567 0.0235
vn 0.2685 -0.8922 -0.3632
vn 0.8820 -0.4647 0.0788
vn -0.0472 -0.5116 -0.8579
vn 0.1499 -0.9861 0.0710
vn 0.8338 -0.4170 -0.3618
vn 0.4260 -0.8753 -0.2288
vn 0.2517 -0.2990 -0.9205
vn -0.2990 -0.2518 -0.9205
vn -0.0000 -0.0000 -1.0000
vn 0.2516 -0.2990 -0.9205
vn 0.5118 -0.0394 -0.8582
vn 0.2990 0.2518 -0.9205
vn -0.4876 -0.0000 0.8730
vn -0.2194 0.2587 0.9407
vn -0.7952 0.3701 0.4803
vn -0.2195 0.2587 0.9407
vn 0.0787 0.4801 0.8737
vn -0.5509 0.6532 0.5194
vn -0.2276 0.8479 0.4789
vn -0.2901 0.9567 0.0235
vn -0.8820 0.4646 0.0787
vn -0.4898 0.8453 -0.2133
vn -0.1499 0.9862 0.0710
vn -0.7475 0.6294 -0.2124
vn -0.4260 0.8753 -0.2289
vn -0.8926 0.4502 0.0237
vn -0.8338 0.4169 -0.3618
vn -0.2987 0.9511 0.0786
vn -0.5118 0.0394 -0.8582
vn -0.9463 0.3154 0.0710
vn -0.2685 0.8922 -0.3632
vn -0.7864 0.5740 -0.2281
vn -0.2517 0.2990 -0.9205
vn 0.0472 0.5116 -0.8579
vn -0.5916 -0.6941 0.4102
vn -0.7087 -0.5906 0.3858
vn -0.4488 -0.8660 0.2205
vn -0.7637 -0.6456 -0.0000
vn -0.4407 -0.8971 0.0315
vn -0.4317 -0.8868 -0.1649
vn -0.5766 -0.7108 -0.4028
vn -0.7087 -0.5906 -0.3859
vn 0.7860 0.4638 0.4087
vn 0.7087 0.5906 0.3858
vn 0.9306 0.2918 0.2208
vn 0.7637 0.6456 -0.0000
vn 0.9586 0.2829 0.0314
vn 0.9488 0.2688 -0.1660
vn 0.8000 0.4471 -0.4000
vn 0.7087 0.5906 -0.3859
vn 0.5766 0.7109 -0.4028
vn 0.4317 0.8869 -0.1648
vn 0.4407 0.8971 0.0315
vn 0.4488 0.8660 0.2205
vn 0.5916 0.6941 0.4102
vn -0.8001 -0.4471 -0.4000
vn -0.9488 -0.2688 -0.1660
vn -0.9586 -0.2829 0.0314
vn -0.9306 -0.2918 0.2208
vn -0.7861 -0.4637 0.4087
vn 0.8243 -0.3140 0.4711
vn 0.1652 -0.8658 0.4723
vn 0.9588 -0.2751 0.0708
vn 0.1024 -0.9922 0.0709
vn 0.0945 -0.9918 -0.0866
vn 0.3845 -0.8241 -0.4159
vn 0.9617 -0.2601 -0.0867
vn 0.7466 -0.5188 -0.4165
vn -0.1653 0.8658 0.4723
vn -0.8243 0.3140 0.4711
vn -0.1023 0.9922 0.0709
vn -0.9588 0.2751 0.0707
vn -0.9617 0.2601 -0.0867
vn -0.7466 0.5187 -0.4165
vn -0.0945 0.9918 -0.0866
vn -0.3846 0.8241 -0.4160
vt 0.351074 0.422363
vt 0.357422 0.326172
vt 0.357422 0.422363
vt 0.350830 0.326172
vt 0.357178 0.131348
vt 0.332764 0.422363
vt 0.350586 0.131348
vt 0.356934 0.035156
vt 0.350586 0.035156
vt 0.332520 0.326172
vt 0.332275 0.131348
vt 0.332275 0.035156
vt 0.205322 0.326660
vt 0.141602 0.422852
vt 0.242920 0.288574
vt 0.141479 0.326660
vt 0.242798 0.168945
vt 0.106873 0.326660
vt 0.205078 0.131348
vt 0.106995 0.422852
vt 0.141113 0.035156
vt 0.077026 0.422852
vt 0.141235 0.131836
vt 0.106506 0.035645
vt 0.106628 0.131836
vt 0.076904 0.326660
vt 0.040314 0.422852
vt 0.040192 0.326660
vt 0.076660 0.131836
vt 0.076538 0.035645
vt 0.039978 0.131836
vt 0.039856 0.035645
vt 0.502930 0.483887
vt 0.499268 0.475586
vt 0.495117 0.483887
vt 0.502930 0.475586
vt 0.477783 0.473145
vt 0.488037 0.468262
vt 0.502930 0.295898
vt 0.431641 0.296875
vt 0.442871 0.295898
vt 0.443848 0.267578
vt 0.502930 0.267578
vt 0.432861 0.264160
vt 0.462891 0.252441
vt 0.502930 0.252441
vt 0.458252 0.244141
vt 0.502930 0.244141
vt 0.426270 0.475586
vt 0.430176 0.483887
vt 0.422363 0.483887
vt 0.405029 0.473145
vt 0.430176 0.475586
vt 0.415283 0.468262
vt 0.358643 0.296875
vt 0.430176 0.295898
vt 0.369873 0.295898
vt 0.371094 0.267578
vt 0.359863 0.264160
vt 0.430176 0.267578
vt 0.390137 0.252441
vt 0.385498 0.244141
vt 0.430176 0.252441
vt 0.430176 0.244141
vt 0.358643 0.035156
vt 0.358643 0.242676
vt 0.362305 0.040527
vt 0.393799 0.035156
vt 0.362305 0.237305
vt 0.393799 0.242676
vt 0.392334 0.040527
vt 0.392334 0.237305
vt 0.453857 0.237305
vt 0.457520 0.242676
vt 0.488281 0.200195
vt 0.494873 0.202637
vt 0.453857 0.040527
vt 0.457520 0.035156
vt 0.488281 0.077637
vt 0.494873 0.075195
s 1
usemtl MI_RoadBarriers
f 1/1/1 2/2/2 3/3/3
f 1/1/1 4/4/4 2/2/2
f 4/4/4 5/5/2 2/2/2
f 6/6/5 4/4/4 1/1/1
f 4/4/4 7/7/4 5/5/2
f 7/7/4 8/8/6 5/5/2
f 7/7/4 9/9/7 8/8/6
f 6/6/5 10/10/8 4/4/4
f 11/11/8 9/9/7 7/7/4
f 4/4/4 11/11/8 7/7/4
f 11/11/8 4/4/4 10/10/8
f 11/11/8 12/12/9 9/9/7
f 6/6/5 13/13/10 10/10/8
f 6/6/5 14/14/11 13/13/10
f 10/10/8 13/13/10 15/15/12
f 15/15/12 11/11/8 10/10/8
f 16/16/13 13/13/10 14/14/11
f 11/11/8 15/15/12 17/17/14
f 14/14/11 18/18/15 16/16/13
f 11/11/8 17/17/14 19/19/16
f 12/12/9 11/11/8 19/19/16
f 18/18/15 14/14/11 20/20/17
f 12/12/9 19/19/16 21/21/18
f 18/18/15 20/20/17 22/22/19
f 21/21/18 19/19/16 23/23/20
f 23/23/20 24/24/21 21/21/18
f 24/24/21 23/23/20 25/25/22
f 18/18/15 22/22/19 26/26/23
f 25/25/22 18/18/15 26/26/23
f 27/27/24 26/26/23 22/22/19
f 27/27/24 28/28/25 26/26/23
f 24/24/21 25/25/22 29/29/26
f 25/25/22 26/26/23 29/29/26
f 28/28/25 29/29/26 26/26/23
f 24/24/21 29/29/26 30/30/27
f 28/28/25 31/31/25 29/29/26
f 31/31/25 30/30/27 29/29/26
f 31/31/25 32/32/28 30/30/27
f 2/2/2 33/1/29 3/3/3
f 33/1/29 2/2/2 34/4/30
f 5/5/2 34/4/30 2/2/2
f 33/1/29 34/4/30 35/6/31
f 34/4/30 5/5/2 36/7/32
f 5/5/2 8/8/6 36/7/32
f 37/9/33 36/7/32 8/8/6
f 36/7/32 37/9/33 38/11/34
f 34/4/30 36/7/32 38/11/34
f 39/12/35 38/11/34 37/9/33
f 40/10/34 35/6/31 34/4/30
f 34/4/30 38/11/34 40/10/34
f 41/13/36 35/6/31 40/10/34
f 42/14/37 35/6/31 41/13/36
f 40/10/34 43/15/38 41/13/36
f 38/11/34 43/15/38 40/10/34
f 44/16/39 42/14/37 41/13/36
f 43/15/38 38/11/34 45/17/40
f 46/18/41 42/14/37 44/16/39
f 38/11/34 47/19/42 45/17/40
f 38/11/34 39/12/35 47/19/42
f 42/14/37 46/18/41 48/20/43
f 39/12/35 49/21/44 47/19/42
f 46/18/41 50/22/45 48/20/43
f 49/21/44 51/23/46 47/19/42
f 52/24/47 51/23/46 49/21/44
f 51/23/46 52/24/47 53/25/48
f 50/22/45 46/18/41 54/26/49
f 46/18/41 53/25/48 54/26/49
f 54/26/49 27/27/24 50/22/45
f 27/27/24 54/26/49 28/28/25
f 53/25/48 52/24/47 55/29/49
f 55/29/49 54/26/49 53/25/48
f 55/29/49 28/28/25 54/26/49
f 56/30/50 55/29/49 52/24/47
f 28/28/25 55/29/49 31/31/25
f 56/30/50 31/31/25 55/29/49
f 31/31/25 56/30/50 32/32/28
f 3/33/3 57/34/51 1/35/1
f 57/34/51 3/33/3 58/36/52
f 57/34/51 6/37/5 1/35/1
f 58/36/52 59/38/53 57/34/51
f 6/37/5 57/34/51 59/38/53
f 60/39/54 59/38/53 58/36/52
f 59/38/53 14/40/11 6/37/5
f 59/38/53 60/39/54 61/41/55
f 14/40/11 59/38/53 61/41/55
f 60/39/54 62/42/56 61/41/55
f 61/41/55 62/42/56 14/40/11
f 62/42/56 60/39/54 63/43/54
f 14/40/11 62/42/56 20/44/17
f 62/42/56 63/43/54 64/45/57
f 64/45/57 20/44/17 62/42/56
f 64/45/57 63/43/54 65/46/58
f 22/47/19 20/44/17 64/45/57
f 64/45/57 65/46/58 27/48/24
f 27/48/24 22/47/19 64/45/57
f 66/49/59 8/50/6 9/51/7
f 66/49/59 9/51/7 12/52/9
f 8/50/6 66/49/59 67/53/60
f 68/54/61 66/49/59 12/52/9
f 68/54/61 67/53/60 66/49/59
f 12/52/9 21/55/18 68/54/61
f 67/53/60 68/54/61 69/56/62
f 68/54/61 21/55/18 70/57/63
f 69/56/62 68/54/61 70/57/63
f 21/55/18 71/58/64 70/57/63
f 70/57/63 71/58/64 69/56/62
f 71/58/64 21/55/18 24/59/21
f 69/56/62 71/58/64 72/60/62
f 24/59/21 73/61/65 71/58/64
f 72/60/62 71/58/64 73/61/65
f 73/61/65 24/59/21 30/62/27
f 72/60/62 73/61/65 74/63/66
f 30/62/27 32/64/28 73/61/65
f 74/63/66 73/61/65 32/64/28
f 75/61/67 74/63/66 32/64/28
f 32/64/28 56/62/50 75/61/67
f 74/63/66 75/61/67 72/60/62
f 52/59/47 75/61/67 56/62/50
f 76/58/68 72/60/62 75/61/67
f 75/61/67 52/59/47 76/58/68
f 69/56/62 72/60/62 76/58/68
f 49/55/44 76/58/68 52/59/47
f 77/57/69 69/56/62 76/58/68
f 76/58/68 49/55/44 77/57/69
f 69/56/62 77/57/69 78/54/70
f 78/54/70 77/57/69 49/55/44
f 49/55/44 39/52/35 78/54/70
f 78/54/70 67/53/60 69/56/62
f 37/51/33 78/54/70 39/52/35
f 67/53/60 78/54/70 79/49/71
f 78/54/70 37/51/33 79/49/71
f 8/50/6 67/53/60 79/49/71
f 8/50/6 79/49/71 37/51/33
f 80/45/72 27/48/24 65/46/58
f 27/48/24 80/45/72 50/47/45
f 63/43/54 80/45/72 65/46/58
f 48/44/43 50/47/45 80/45/72
f 80/45/72 63/43/54 81/42/73
f 48/44/43 80/45/72 81/42/73
f 60/39/54 81/42/73 63/43/54
f 42/40/37 48/44/43 81/42/73
f 82/41/74 81/42/73 60/39/54
f 42/40/37 81/42/73 82/41/74
f 60/39/54 83/38/75 82/41/74
f 83/38/75 42/40/37 82/41/74
f 42/40/37 83/38/75 35/37/31
f 83/38/75 60/39/54 58/36/52
f 83/38/75 33/35/29 35/37/31
f 83/38/75 58/36/52 84/34/76
f 83/38/75 84/34/76 33/35/29
f 3/33/3 84/34/76 58/36/52
f 84/34/76 3/33/3 33/35/29
f 18/65/15 25/66/22 85/67/77
f 85/67/77 16/68/13 18/65/15
f 85/67/77 25/66/22 86/69/78
f 23/70/20 86/69/78 25/66/22
f 16/68/13 85/67/77 87/71/79
f 86/69/78 87/71/79 85/67/77
f 86/69/78 23/70/20 88/72/80
f 87/71/79 86/69/78 88/72/80
f 23/70/20 89/73/81 88/72/80
f 89/73/81 23/70/20 19/74/16
f 90/75/82 88/72/80 89/73/81
f 19/74/16 90/75/82 89/73/81
f 90/75/82 87/71/79 88/72/80
f 90/75/82 19/74/16 17/76/14
f 91/77/83 16/68/13 87/71/79
f 13/78/10 16/68/13 91/77/83
f 92/79/84 87/71/79 90/75/82
f 87/71/79 92/79/84 91/77/83
f 17/76/14 92/79/84 90/75/82
f 92/79/84 13/78/10 91/77/83
f 92/79/84 17/76/14 15/80/12
f 15/80/12 13/78/10 92/79/84
f 53/66/48 46/65/41 93/67/85
f 44/68/39 93/67/85 46/65/41
f 53/66/48 93/67/85 94/69/86
f 51/70/46 53/66/48 94/69/86
f 93/67/85 44/68/39 95/71/87
f 95/71/87 94/69/86 93/67/85
f 94/69/86 96/72/88 51/70/46
f 94/69/86 95/71/87 96/72/88
f 97/73/89 51/70/46 96/72/88
f 51/70/46 97/73/89 47/74/42
f 96/72/88 98/75/90 97/73/89
f 98/75/90 47/74/42 97/73/89
f 95/71/87 98/75/90 96/72/88
f 47/74/42 98/75/90 45/76/40
f 44/68/39 99/77/91 95/71/87
f 99/77/91 44/68/39 41/78/36
f 98/75/90 95/71/87 100/79/92
f 100/79/92 95/71/87 99/77/91
f 100/79/92 45/76/40 98/75/90
f 100/79/92 99/77/91 41/78/36
f 45/76/40 100/79/92 43/80/38
f 100/79/92 41/78/36 43/80/38
