# Blender 4.5.3 LTS
# www.blender.org
mtllib Prop_3.mtl
o SM_SampleBuilding3.005
v -0.356731 0.310703 0.250098
v -0.354670 0.312422 1.952577
v 0.264001 0.831563 1.952577
v 0.266062 0.833282 0.250098
v 0.461169 0.811172 0.218763
v 0.462107 0.810078 0.981647
v 0.878025 0.314375 0.981647
v 0.878972 0.313282 0.218763
v 1.050779 0.241094 0.099072
v 1.050779 0.241094 0.000000
v 0.419900 0.992969 0.000000
v 0.419900 0.992969 0.099072
v -0.328713 -1.010078 0.099072
v -0.328713 -1.010078 0.000000
v 1.051834 0.148282 0.000000
v 1.051834 0.148282 0.099072
v -1.050784 -0.241093 0.099072
v -1.050784 -0.241093 0.000000
v -0.419895 -0.992968 0.000000
v -0.419895 -0.992968 0.099072
v 0.328708 1.010078 0.099072
v 0.328708 1.010078 0.000000
v -1.051828 -0.148359 0.000000
v -1.051828 -0.148359 0.099072
v -0.331868 -0.947890 0.099072
v 0.991111 0.162188 0.099072
v 0.331873 0.947891 0.099072
v -0.991106 -0.162265 0.099072
v 0.439734 0.905938 0.000000
v 0.968523 0.275703 0.000000
v -0.970012 -0.144531 0.000000
v 0.310769 0.930157 0.000000
v -0.439729 -0.905937 0.000000
v -0.968518 -0.275781 0.000000
v 0.970007 0.144532 0.000000
v -0.310774 -0.930156 0.000000
v 0.420632 0.928672 2.103603
v 0.329441 0.945860 2.103603
v 0.329441 0.945860 2.168381
v 0.420632 0.928672 2.168381
v -0.988674 -0.160234 2.103603
v -0.988674 -0.160234 2.168381
v -0.987629 -0.252968 2.103603
v -0.987629 -0.252968 2.168381
v -0.420627 -0.928750 2.103603
v -0.420627 -0.928750 2.168381
v -0.329436 -0.945859 2.103603
v -0.329436 -0.945859 2.168381
v 0.988679 0.160157 2.103603
v 0.988679 0.160157 2.168381
v 0.987624 0.252969 2.103603
v 0.987624 0.252969 2.168381
v 0.463357 0.808594 1.983913
v 0.876775 0.315860 1.983913
v 0.877722 0.314766 1.221028
v 0.462410 0.809688 1.221028
v 0.913025 0.341875 0.218763
v 0.495222 0.839766 0.218763
v 0.496169 0.838672 0.981647
v 0.912078 0.342969 0.981647
v 0.496472 0.838282 1.221028
v 0.497419 0.837188 1.983913
v 0.910837 0.344453 1.983913
v 0.911785 0.343360 1.221028
v -0.945393 -0.186484 2.168381
v 0.347781 0.898594 2.168381
v 0.945388 0.186407 2.168381
v -0.347776 -0.898672 2.168381
v -0.383909 0.347266 1.952577
v 0.234753 0.866407 1.952577
v 0.236824 0.868125 0.250098
v -0.385969 0.345547 0.250098
v -0.435452 -0.841093 2.026802
v -0.903899 -0.282812 2.026802
v -0.904953 -0.281562 1.178140
v -0.434397 -0.842343 1.178140
v -0.469895 -0.870000 2.026802
v -0.938352 -0.311718 2.026802
v -0.939407 -0.310468 1.178140
v -0.468850 -0.871250 1.178140
v -0.989895 -0.161250 1.101338
v -0.988869 -0.251484 1.101338
v -0.990110 -0.250000 0.099072
v 0.418142 0.931641 0.099072
v 0.330652 0.946875 1.101338
v 0.419382 0.930157 1.101338
v -0.419387 -0.930156 1.101338
v -0.330657 -0.946875 1.101338
v -0.418137 -0.931640 0.099072
v 0.989890 0.161172 1.101338
v 0.988874 0.251485 1.101338
v 0.990115 0.250000 0.099072
v 0.403279 0.888203 2.168381
v 0.944753 0.242891 2.168381
v -0.944748 -0.242968 2.168381
v -0.403274 -0.888203 2.168381
v -0.535139 -0.631250 2.444555
v -0.634729 -0.544687 2.444555
v -0.634729 -0.544687 2.145225
v -0.535139 -0.631250 2.145225
v -0.413674 -0.682812 2.444555
v -0.413674 -0.682812 2.145225
v -0.282219 -0.694297 2.444555
v -0.282219 -0.694297 2.145225
v -0.153645 -0.664609 2.444555
v -0.153645 -0.664609 2.145225
v -0.040540 -0.596640 2.444555
v -0.040540 -0.596640 2.145225
v 0.046033 -0.497109 2.444555
v 0.046033 -0.497109 2.145225
v 0.097585 -0.375625 2.444555
v 0.097585 -0.375625 2.145225
v 0.109089 -0.244140 2.444555
v 0.109089 -0.244140 2.145225
v 0.079402 -0.115547 2.444555
v 0.079402 -0.115547 2.145225
v 0.011443 -0.002500 2.444555
v 0.011443 -0.002500 2.145225
v -0.088147 0.084063 2.444555
v -0.088147 0.084063 2.145225
v -0.209612 0.135625 2.444555
v -0.209612 0.135625 2.145225
v -0.341057 0.147188 2.444555
v -0.341057 0.147188 2.145225
v -0.469631 0.117500 2.444555
v -0.469631 0.117500 2.145225
v -0.582747 0.049532 2.444555
v -0.582747 0.049532 2.145225
v -0.669309 -0.050078 2.444555
v -0.669309 -0.050078 2.145225
v -0.720871 -0.171562 2.444555
v -0.720871 -0.171562 2.145225
v -0.732375 -0.302968 2.444555
v -0.732375 -0.302968 2.145225
v -0.702688 -0.431562 2.444555
v -0.702688 -0.431562 2.145225
v 0.771824 0.232891 2.444555
v 0.735457 0.106094 2.444555
v 0.735457 0.106094 2.145225
v 0.771824 0.232891 2.145225
v 0.767224 0.364766 2.444555
v 0.767224 0.364766 2.145225
v 0.722087 0.488750 2.444555
v 0.722087 0.488750 2.145225
v 0.640847 0.592735 2.444555
v 0.640847 0.592735 2.145225
v 0.531453 0.666563 2.444555
v 0.531453 0.666563 2.145225
v 0.404607 0.702891 2.444555
v 0.404607 0.702891 2.145225
v 0.272732 0.698282 2.444555
v 0.272732 0.698282 2.145225
v 0.148738 0.653203 2.444555
v 0.148738 0.653203 2.145225
v 0.044753 0.571953 2.444555
v 0.044753 0.571953 2.145225
v -0.029036 0.462578 2.444555
v -0.029036 0.462578 2.145225
v -0.065403 0.335703 2.444555
v -0.065403 0.335703 2.145225
v -0.060793 0.203828 2.444555
v -0.060793 0.203828 2.145225
v -0.015667 0.079844 2.444555
v -0.015667 0.079844 2.145225
v 0.065574 -0.024140 2.444555
v 0.065574 -0.024140 2.145225
v 0.174968 -0.097968 2.444555
v 0.174968 -0.097968 2.145225
v 0.301814 -0.134297 2.444555
v 0.301814 -0.134297 2.145225
v 0.433689 -0.129687 2.444555
v 0.433689 -0.129687 2.145225
v 0.557683 -0.084609 2.444555
v 0.557683 -0.084609 2.145225
v 0.661667 -0.003359 2.444555
v 0.661667 -0.003359 2.145225
vn -0.6456 0.7637 -0.0000
vn 0.7637 0.6456 -0.0000
vn 0.6456 -0.7637 -0.0000
vn -0.7637 -0.6456 -0.0000
vn -0.0000 -0.0000 1.0000
vn -0.0000 -0.0000 -1.0000
vn 1.0000 0.0079 -0.0000
vn -0.1809 -0.9835 -0.0000
vn -0.1810 -0.9835 -0.0000
vn -1.0000 -0.0079 -0.0000
vn 0.1810 0.9835 -0.0000
vn 0.6455 -0.7637 -0.0000
vn -0.6455 0.7637 -0.0000
vn 0.1809 0.9835 -0.0000
vn -0.5328 -0.8462 -0.0000
vn -0.2444 -0.9697 -0.0000
vn -0.2443 -0.9697 -0.0000
vn 0.0629 -0.9980 -0.0000
vn 0.3700 -0.9290 -0.0000
vn 0.3701 -0.9290 -0.0000
vn 0.8498 -0.5272 -0.0000
vn 0.9715 -0.2369 -0.0000
vn 0.9969 0.0785 -0.0000
vn 0.9263 0.3768 -0.0000
vn 0.5328 0.8462 -0.0000
vn 0.2443 0.9697 -0.0000
vn -0.0629 0.9980 -0.0000
vn -0.3701 0.9290 -0.0000
vn -0.3700 0.9290 -0.0000
vn -0.8498 0.5272 -0.0000
vn -0.9715 0.2369 -0.0000
vn -0.9715 0.2370 -0.0000
vn -0.9969 -0.0785 -0.0000
vn -0.9263 -0.3768 -0.0000
vn 0.9930 -0.1182 -0.0000
vn 0.9082 -0.4186 -0.0000
vn 0.9806 0.1961 -0.0000
vn 0.8730 0.4876 -0.0000
vn 0.6832 0.7303 -0.0000
vn 0.6831 0.7303 -0.0000
vn 0.4250 0.9052 -0.0000
vn 0.1260 0.9920 -0.0000
vn -0.1886 0.9821 -0.0000
vn -0.1886 0.9820 -0.0000
vn -0.4876 0.8730 -0.0000
vn -0.7342 0.6789 -0.0000
vn -0.9082 0.4186 -0.0000
vn -0.9930 0.1182 -0.0000
vn -0.9806 -0.1961 -0.0000
vn -0.8730 -0.4877 -0.0000
vn -0.8730 -0.4876 -0.0000
vn -0.6831 -0.7303 -0.0000
vn -0.4250 -0.9052 -0.0000
vn -0.1260 -0.9920 -0.0000
vn 0.1886 -0.9821 -0.0000
vn 0.4876 -0.8730 -0.0000
vn 0.7342 -0.6789 -0.0000
vn 0.7342 -0.6790 -0.0000
vn 0.7637 0.6455 -0.0000
vt 0.650391 0.330566
vt 0.311035 0.330566
vt 0.311035 0.181152
vt 0.650391 0.181152
vt 0.310547 0.175293
vt 0.310547 0.007812
vt 0.477783 0.007812
vt 0.477783 0.175293
vt -0.153809 0.888550
vt -0.153809 0.843140
vt 0.296631 0.843140
vt 0.296631 0.888550
vt -0.120911 0.888550
vt -0.120911 0.843140
vt 0.888184 0.843140
vt 0.888184 0.888550
vt 2.431641 0.843262
vt 2.474609 0.888428
vt 0.474609 0.888428
vt 0.516113 0.843262
vt 0.558105 0.888428
vt 2.515625 0.843262
vt 1.288086 0.843262
vt 1.359375 0.888062
vt 0.474609 0.888062
vt 0.545898 0.843262
vt 2.386719 0.843262
vt 2.458984 0.888123
vt 0.476074 0.888123
vt 0.547363 0.843262
vt 0.619141 0.888123
vt 1.432617 0.843262
vt 1.361328 0.888123
vt 2.529297 0.843262
vt 0.920898 0.843140
vt 0.920898 0.888550
vt 0.547363 0.887024
vt 0.604980 0.843262
vt 0.604980 0.887024
vt 0.668457 0.843140
vt 0.718750 0.843140
vt 0.718750 0.888489
vt 0.668457 0.888489
vt 0.000281 0.843140
vt 1.470703 0.843140
vt 1.470703 0.888489
vt 0.000281 0.888489
vt 0.050568 0.843140
vt 0.050568 0.888489
vt 0.477539 0.175293
vt 0.477539 0.007812
vt 0.172363 0.888062
vt -0.366943 0.888062
vt -0.366943 0.843140
vt 0.172363 0.843140
vt 0.265869 0.843140
vt 0.265869 0.888062
vt 0.169922 0.888062
vt 0.169922 0.843140
vt 0.166748 0.888062
vt 0.166748 0.843140
vt 0.169189 0.888062
vt 0.169189 0.843140
vt -0.255127 0.843384
vt 1.709961 0.843384
vt 1.691406 0.888245
vt -0.236694 0.888245
vt -0.273926 0.888245
vt 1.672852 0.843384
vt 0.607422 0.888123
vt -0.366943 0.888123
vt 0.607422 0.843140
vt 1.317383 0.888123
vt 1.317383 0.843140
vt 0.614258 0.843140
vt 0.614258 0.888123
vt 0.310303 0.008301
vt 0.478027 0.008301
vt 0.478027 0.175293
vt 0.310303 0.175293
vt 0.237793 0.888611
vt -0.366943 0.888611
vt 0.237793 0.843140
vt 0.337158 0.888611
vt 0.337158 0.843140
vt 0.240479 0.843140
vt 0.240479 0.888611
vt 1.134766 0.793335
vt 1.134766 0.838135
vt 0.497070 0.838135
vt 0.497070 0.793335
vt -0.140381 0.838135
vt -0.140381 0.793335
vt 1.134766 0.837402
vt 0.497070 0.837402
vt -0.140381 0.837402
vt 1.387695 0.843262
vt 1.387695 0.888367
vt 1.314453 0.888367
vt 1.314453 0.843262
vt 0.589844 0.888367
vt 0.589844 0.843262
vt 0.516113 0.888367
vt 1.406250 0.843262
vt 1.406250 0.888367
vt 1.329102 0.888367
vt 1.329102 0.843262
vt 0.580078 0.888367
vt 0.580078 0.843262
vt 0.736328 0.843384
vt 0.794434 0.843384
vt 0.794434 0.888428
vt 0.736328 0.888428
vt -0.192261 0.843384
vt -0.192261 0.888428
vt -0.255127 0.888428
vt -0.194092 0.888428
vt -0.194092 0.843384
vt 0.715820 0.888428
vt 0.715820 0.843384
vt 0.773438 0.888428
vt 0.773438 0.843384
vt 0.126953 0.989822
vt 0.084534 0.989822
vt 0.084534 0.894165
vt 0.126953 0.894165
vt 0.169434 0.989822
vt 0.169434 0.894165
vt 0.211914 0.989822
vt 0.211914 0.894165
vt 0.254150 0.989822
vt 0.254150 0.894165
vt 0.296631 0.989822
vt 0.296631 0.894165
vt 0.339111 0.989822
vt 0.339111 0.894165
vt 0.381592 0.989822
vt 0.381592 0.894165
vt 0.424072 0.989822
vt 0.424072 0.894165
vt 0.466553 0.989822
vt 0.466553 0.894165
vt 0.508789 0.989822
vt 0.508789 0.894165
vt 0.551270 0.989822
vt 0.551270 0.894165
vt 0.593750 0.989822
vt 0.593750 0.894165
vt 0.636230 0.989822
vt 0.636230 0.894165
vt 0.678711 0.989822
vt 0.678711 0.894165
vt 0.721191 0.989822
vt 0.721191 0.894165
vt 0.763672 0.989822
vt 0.763672 0.894165
vt 0.806152 0.989822
vt 0.806152 0.894165
vt 0.848633 0.989822
vt 0.848633 0.894165
vt 0.891113 0.989822
vt 0.891113 0.894165
vt 0.933105 0.989822
vt 0.933105 0.894165
vt 0.655273 0.177246
vt 0.655273 0.009766
vt 0.991699 0.009766
vt 0.991699 0.177246
vt 0.991699 0.344727
vt 0.655273 0.344727
vt 0.156128 0.176270
vt 0.155762 0.009766
vt 0.303711 0.009766
vt 0.303467 0.176270
vt 0.290527 0.188965
vt 0.168945 0.188965
vt 0.290283 0.330078
vt 0.156494 0.343262
vt 0.302979 0.343262
vt 0.169189 0.330078
vt 0.224487 0.342285
vt 0.102905 0.342285
vt 0.087891 0.327637
vt 0.239502 0.327637
vt 0.239502 0.025879
vt 0.102905 0.010742
vt 0.087891 0.025879
vt 0.224487 0.010742
vt 0.303955 0.016602
vt 0.303955 0.336426
vt 0.297119 0.343262
vt 0.166382 0.343262
vt 0.159546 0.336426
vt 0.166382 0.009766
vt 0.297119 0.009766
vt 0.159546 0.016602
vt 0.576660 0.010742
vt 0.601562 0.018066
vt 0.623047 0.033203
vt 0.550293 0.011230
vt 0.525391 0.019531
vt 0.638672 0.054199
vt 0.646973 0.079102
vt 0.640137 0.129883
vt 0.647461 0.104980
vt 0.625000 0.151367
vt 0.604004 0.166992
vt 0.553223 0.176270
vt 0.579102 0.175781
vt 0.528320 0.168457
vt 0.506836 0.153320
vt 0.489746 0.056641
vt 0.504883 0.035156
vt 0.482666 0.107910
vt 0.490967 0.132812
vt 0.482178 0.081543
vt 0.303711 0.176758
vt 0.303955 0.343750
vt 0.282715 0.318359
vt 0.303467 0.009766
vt 0.143311 0.318359
vt 0.282227 0.035156
vt 0.007858 0.343750
vt 0.008408 0.009766
vt 0.143799 0.035156
vt 0.008133 0.176758
vt 0.007317 0.009766
vt 0.155151 0.009766
vt 0.135254 0.029785
vt 0.027237 0.029785
vt 0.135010 0.156738
vt 0.007637 0.176270
vt 0.154785 0.176270
vt 0.027481 0.156738
vt 0.134888 0.196289
vt 0.027557 0.196289
vt 0.134644 0.323242
vt 0.007957 0.342773
vt 0.154541 0.342773
vt 0.027802 0.323242
s 1
usemtl MI_UtilityTrim.001
f 1/1/1 2/2/1 3/3/1
f 3/3/1 4/4/1 1/1/1
f 5/5/2 6/6/2 7/7/2
f 7/7/2 8/8/2 5/5/2
f 9/9/2 10/10/2 11/11/2
f 11/11/2 12/12/2 9/9/2
f 13/13/3 14/14/3 15/15/3
f 15/15/3 16/16/3 13/13/3
f 17/9/4 18/10/4 19/11/4
f 19/11/4 20/12/4 17/9/4
f 21/13/1 22/14/1 23/15/1
f 23/15/1 24/16/1 21/13/1
f 25/17/5 13/18/5 16/19/5
f 16/19/5 26/20/5 25/17/5
f 27/21/5 21/20/5 24/22/5
f 24/22/5 28/18/5 27/21/5
f 29/23/6 11/24/6 10/25/6
f 10/25/6 30/26/6 29/23/6
f 31/27/6 23/28/6 22/29/6
f 22/29/6 32/30/6 31/27/6
f 33/31/6 19/30/6 18/32/6
f 18/32/6 34/33/6 33/31/6
f 35/31/6 15/30/6 14/34/6
f 14/34/6 36/28/6 35/31/6
f 10/35/7 9/36/7 16/16/7
f 16/16/7 15/15/7 10/35/7
f 14/14/8 13/13/9 20/9/8
f 20/9/8 19/10/9 14/14/8
f 18/35/10 17/36/10 24/16/10
f 24/16/10 23/15/10 18/35/10
f 22/14/11 21/13/11 12/9/11
f 12/9/11 11/10/11 22/14/11
f 11/37/6 29/30/6 32/38/6
f 32/38/6 22/39/6 11/37/6
f 23/38/6 31/39/6 34/37/6
f 34/37/6 18/30/6 23/38/6
f 19/38/6 33/39/6 36/37/6
f 36/37/6 14/30/6 19/38/6
f 15/38/6 35/39/6 30/37/6
f 30/37/6 10/30/6 15/38/6
f 37/40/11 38/41/11 39/42/11
f 39/42/11 40/43/11 37/40/11
f 38/44/1 41/45/1 42/46/1
f 42/46/1 39/47/1 38/44/1
f 41/44/10 43/48/10 44/49/10
f 44/49/10 42/47/10 41/44/10
f 43/48/4 45/40/4 46/43/4
f 46/43/4 44/49/4 43/48/4
f 45/40/9 47/41/9 48/42/9
f 48/42/9 46/43/9 45/40/9
f 47/44/3 49/45/3 50/46/3
f 50/46/3 48/47/3 47/44/3
f 49/44/7 51/48/7 52/49/7
f 52/49/7 50/47/7 49/44/7
f 51/48/2 37/40/2 40/43/2
f 40/43/2 52/49/2 51/48/2
f 53/50/2 54/5/2 55/6/2
f 55/6/2 56/51/2 53/50/2
f 57/52/5 58/53/5 5/54/5
f 5/54/5 8/55/5 57/52/5
f 58/54/3 59/56/3 6/57/3
f 6/57/3 5/53/3 58/54/3
f 59/58/6 60/53/6 7/54/6
f 7/54/6 6/59/6 59/58/6
f 60/57/1 57/53/1 8/54/1
f 8/54/1 7/56/1 60/57/1
f 61/54/12 62/56/3 53/57/3
f 53/57/3 56/53/3 61/54/12
f 62/60/6 63/53/6 54/54/6
f 54/54/6 53/61/6 62/60/6
f 63/57/1 64/53/1 55/54/1
f 55/54/1 54/56/1 63/57/1
f 64/62/5 61/53/5 56/54/5
f 56/54/5 55/63/5 64/62/5
f 39/64/5 42/65/5 65/66/5
f 65/66/5 66/67/5 39/64/5
f 48/66/5 50/68/5 67/64/5
f 67/64/5 68/69/5 48/66/5
f 69/70/6 70/71/6 3/54/6
f 3/54/6 2/72/6 69/70/6
f 70/73/4 71/71/4 4/54/4
f 4/54/4 3/74/4 70/73/4
f 71/54/5 72/75/5 1/76/5
f 1/76/5 4/71/5 71/54/5
f 72/54/2 69/74/2 2/73/2
f 2/73/2 1/71/2 72/54/2
f 73/77/4 74/78/4 75/79/4
f 75/79/4 76/80/4 73/77/4
f 77/81/6 78/82/6 74/54/6
f 74/54/6 73/83/6 77/81/6
f 78/84/3 79/82/3 75/54/3
f 75/54/3 74/85/3 78/84/3
f 79/54/5 80/86/5 76/87/5
f 76/87/5 75/82/5 79/54/5
f 80/54/13 77/85/1 73/84/1
f 73/84/1 76/82/1 80/54/13
f 43/88/10 41/89/10 81/90/10
f 81/90/10 82/91/10 43/88/10
f 82/91/10 81/90/10 28/92/10
f 28/92/10 83/93/10 82/91/10
f 84/88/14 27/94/14 85/95/11
f 85/95/11 86/91/11 84/88/14
f 86/91/11 85/95/11 38/96/11
f 38/96/11 37/93/11 86/91/11
f 47/88/9 45/89/9 87/90/9
f 87/90/9 88/91/9 47/88/9
f 88/91/9 87/90/9 89/92/8
f 89/92/8 25/93/8 88/91/9
f 51/92/7 49/93/7 90/91/7
f 90/91/7 91/90/7 51/92/7
f 91/90/7 90/91/7 26/88/7
f 26/88/7 92/89/7 91/90/7
f 26/97/5 16/98/5 9/99/5
f 9/99/5 92/100/5 26/97/5
f 92/100/5 9/99/5 12/101/5
f 12/101/5 84/102/5 92/100/5
f 84/102/5 12/101/5 21/103/5
f 21/103/5 27/20/5 84/102/5
f 13/104/5 25/105/5 89/106/5
f 89/106/5 20/107/5 13/104/5
f 20/107/5 89/106/5 83/108/5
f 83/108/5 17/109/5 20/107/5
f 17/109/5 83/108/5 28/103/5
f 28/103/5 24/20/5 17/109/5
f 40/110/5 39/111/5 66/112/5
f 66/112/5 93/113/5 40/110/5
f 52/114/5 40/110/5 93/113/5
f 93/113/5 94/115/5 52/114/5
f 50/64/5 52/114/5 94/115/5
f 94/115/5 67/116/5 50/64/5
f 95/117/5 65/116/5 42/64/5
f 42/64/5 44/118/5 95/117/5
f 96/119/5 95/117/5 44/118/5
f 44/118/5 46/120/5 96/119/5
f 68/121/5 96/119/5 46/120/5
f 46/120/5 48/122/5 68/121/5
f 97/123/15 98/124/4 99/125/4
f 99/125/4 100/126/15 97/123/15
f 101/127/16 97/123/15 100/126/15
f 100/126/15 102/128/17 101/127/16
f 103/129/18 101/127/16 102/128/17
f 102/128/17 104/130/18 103/129/18
f 105/131/19 103/129/18 104/130/18
f 104/130/18 106/132/20 105/131/19
f 107/133/3 105/131/19 106/132/20
f 106/132/20 108/134/3 107/133/3
f 109/135/21 107/133/3 108/134/3
f 108/134/3 110/136/21 109/135/21
f 111/137/22 109/135/21 110/136/21
f 110/136/21 112/138/22 111/137/22
f 113/139/23 111/137/22 112/138/22
f 112/138/22 114/140/23 113/139/23
f 115/141/24 113/139/23 114/140/23
f 114/140/23 116/142/24 115/141/24
f 117/143/2 115/141/24 116/142/24
f 116/142/24 118/144/2 117/143/2
f 119/145/25 117/143/2 118/144/2
f 118/144/2 120/146/25 119/145/25
f 121/147/26 119/145/25 120/146/25
f 120/146/25 122/148/26 121/147/26
f 123/149/27 121/147/26 122/148/26
f 122/148/26 124/150/27 123/149/27
f 125/151/28 123/149/27 124/150/27
f 124/150/27 126/152/29 125/151/28
f 127/153/1 125/151/28 126/152/29
f 126/152/29 128/154/1 127/153/1
f 129/155/30 127/153/1 128/154/1
f 128/154/1 130/156/30 129/155/30
f 131/157/31 129/155/30 130/156/30
f 130/156/30 132/158/32 131/157/31
f 133/159/33 131/157/31 132/158/32
f 132/158/32 134/160/33 133/159/33
f 135/161/34 133/159/33 134/160/33
f 134/160/33 136/162/34 135/161/34
f 98/163/4 135/161/34 136/162/34
f 136/162/34 99/164/4 98/163/4
f 137/123/35 138/124/36 139/125/36
f 139/125/36 140/126/35 137/123/35
f 141/127/37 137/123/35 140/126/35
f 140/126/35 142/128/37 141/127/37
f 143/129/38 141/127/37 142/128/37
f 142/128/37 144/130/38 143/129/38
f 145/131/39 143/129/38 144/130/38
f 144/130/38 146/132/40 145/131/39
f 147/133/41 145/131/39 146/132/40
f 146/132/40 148/134/41 147/133/41
f 149/135/42 147/133/41 148/134/41
f 148/134/41 150/136/42 149/135/42
f 151/137/43 149/135/42 150/136/42
f 150/136/42 152/138/44 151/137/43
f 153/139/45 151/137/43 152/138/44
f 152/138/44 154/140/45 153/139/45
f 155/141/46 153/139/45 154/140/45
f 154/140/45 156/142/46 155/141/46
f 157/143/47 155/141/46 156/142/46
f 156/142/46 158/144/47 157/143/47
f 159/145/48 157/143/47 158/144/47
f 158/144/47 160/146/48 159/145/48
f 161/147/49 159/145/48 160/146/48
f 160/146/48 162/148/49 161/147/49
f 163/149/50 161/147/49 162/148/49
f 162/148/49 164/150/51 163/149/50
f 165/151/52 163/149/50 164/150/51
f 164/150/51 166/152/52 165/151/52
f 167/153/53 165/151/52 166/152/52
f 166/152/52 168/154/53 167/153/53
f 169/155/54 167/153/53 168/154/53
f 168/154/53 170/156/54 169/155/54
f 171/157/55 169/155/54 170/156/54
f 170/156/54 172/158/55 171/157/55
f 173/159/56 171/157/55 172/158/55
f 172/158/55 174/160/56 173/159/56
f 175/161/57 173/159/56 174/160/56
f 174/160/56 176/162/58 175/161/57
f 138/163/36 175/161/57 176/162/58
f 176/162/58 139/164/36 138/163/36
f 88/165/3 25/166/3 26/167/3
f 26/167/3 90/168/3 88/165/3
f 88/165/3 90/168/3 49/169/3
f 49/169/3 47/170/3 88/165/3
f 82/171/4 83/172/4 89/173/4
f 89/173/4 87/174/4 82/171/4
f 82/171/4 87/174/4 80/175/4
f 80/175/4 79/176/4 82/171/4
f 77/177/4 80/175/4 87/174/4
f 43/178/4 82/171/4 79/176/4
f 87/174/4 45/179/4 77/177/4
f 79/176/4 78/180/4 43/178/4
f 78/180/4 77/177/4 45/179/4
f 45/179/4 43/178/4 78/180/4
f 29/181/6 30/182/6 35/183/6
f 32/184/6 29/181/6 31/185/6
f 29/181/6 35/183/6 31/185/6
f 35/183/6 33/186/6 31/185/6
f 35/183/6 36/187/6 33/186/6
f 33/186/6 34/188/6 31/185/6
f 66/189/5 65/190/5 95/191/5
f 95/191/5 96/192/5 68/193/5
f 66/189/5 95/191/5 68/193/5
f 66/189/5 68/193/5 94/194/5
f 93/195/5 66/189/5 94/194/5
f 68/193/5 67/196/5 94/194/5
f 98/197/5 97/198/5 101/199/5
f 135/200/5 98/197/5 133/201/5
f 98/197/5 101/199/5 133/201/5
f 101/199/5 103/202/5 105/203/5
f 101/199/5 105/203/5 109/204/5
f 105/203/5 107/205/5 109/204/5
f 101/199/5 109/204/5 133/201/5
f 109/204/5 111/206/5 113/207/5
f 109/204/5 113/207/5 117/208/5
f 113/207/5 115/209/5 117/208/5
f 109/204/5 117/208/5 133/201/5
f 117/208/5 119/210/5 121/211/5
f 129/212/5 131/213/5 133/201/5
f 117/208/5 121/211/5 125/214/5
f 117/208/5 125/214/5 133/201/5
f 125/214/5 129/212/5 133/201/5
f 121/211/5 123/215/5 125/214/5
f 125/214/5 127/216/5 129/212/5
f 138/197/5 137/198/5 141/199/5
f 175/200/5 138/197/5 173/201/5
f 138/197/5 141/199/5 173/201/5
f 141/199/5 143/202/5 145/203/5
f 141/199/5 145/203/5 149/204/5
f 145/203/5 147/205/5 149/204/5
f 141/199/5 149/204/5 173/201/5
f 149/204/5 151/206/5 153/207/5
f 149/204/5 153/207/5 157/208/5
f 153/207/5 155/209/5 157/208/5
f 149/204/5 157/208/5 173/201/5
f 157/208/5 159/210/5 161/211/5
f 169/212/5 171/213/5 173/201/5
f 157/208/5 161/211/5 165/214/5
f 157/208/5 165/214/5 173/201/5
f 165/214/5 169/212/5 173/201/5
f 161/211/5 163/215/5 165/214/5
f 165/214/5 167/216/5 169/212/5
f 85/217/1 27/218/1 71/219/1
f 38/220/1 85/217/1 71/219/1
f 72/221/1 71/219/1 27/218/1
f 38/220/1 71/219/1 70/222/1
f 27/218/1 28/223/1 72/221/1
f 41/224/1 38/220/1 70/222/1
f 28/223/1 69/225/1 72/221/1
f 70/222/1 69/225/1 41/224/1
f 28/223/1 81/226/1 69/225/1
f 81/226/1 41/224/1 69/225/1
f 92/227/2 84/228/2 58/229/2
f 58/229/2 57/230/2 92/227/2
f 59/231/2 58/229/2 84/228/2
f 91/232/2 92/227/2 57/230/2
f 84/228/2 86/233/2 59/231/2
f 57/230/2 60/234/2 91/232/2
f 60/234/2 59/231/2 86/233/2
f 86/233/2 91/232/2 60/234/2
f 91/232/2 86/233/2 61/235/2
f 61/235/2 64/236/2 91/232/2
f 62/237/59 61/235/2 86/233/2
f 51/238/2 91/232/2 64/236/2
f 86/233/2 37/239/2 62/237/59
f 64/236/2 63/240/2 51/238/2
f 63/240/2 62/237/59 37/239/2
f 37/239/2 51/238/2 63/240/2
