# Blender 4.5.3 LTS
# www.blender.org
mtllib Bridge_Short_Plane.mtl
o 01.001
v 0.695350 1.019511 0.011321
v 0.782429 1.019511 0.057552
v 0.695350 -1.020141 0.011321
v 0.780628 1.019511 0.055751
v 0.819965 -1.020141 0.011321
v 0.819965 -1.020141 0.036450
v 0.819965 1.019511 0.011321
v 0.819965 1.019511 0.036450
v 0.780027 1.019511 0.011321
v 0.780027 1.019511 0.036450
v 0.780027 -1.020141 0.036450
v 0.780027 -1.020141 0.011321
v 0.819965 -1.020141 0.058153
v 0.819965 1.019511 0.058153
v 0.780628 -1.020141 0.055751
v 0.782429 -1.020141 0.057552
v 0.700050 1.019511 0.036450
v 0.695350 1.019511 0.031750
v 0.695350 -1.020141 0.031750
v 0.700050 -1.020141 0.036450
v 0.784727 1.019511 0.058153
v 0.780027 1.019511 0.053453
v 0.780027 -1.020141 0.053453
v 0.784727 -1.020141 0.058153
v 0.695950 1.019511 0.034048
v 0.697751 1.019511 0.035849
v 0.697751 -1.020141 0.035849
v 0.695950 -1.020141 0.034048
v -0.695350 1.019511 0.011321
v -0.782429 1.019511 0.057552
v -0.695350 -1.020141 0.011321
v -0.780628 1.019511 0.055751
v -0.819965 -1.020141 0.011321
v -0.819965 -1.020141 0.036450
v -0.819965 1.019511 0.011321
v -0.819965 1.019511 0.036450
v -0.780027 1.019511 0.011321
v -0.780027 1.019511 0.036450
v -0.780027 -1.020141 0.036450
v -0.780027 -1.020141 0.011321
v -0.819965 -1.020141 0.058153
v -0.819965 1.019511 0.058153
v -0.780628 -1.020141 0.055751
v -0.782429 -1.020141 0.057552
v -0.700050 1.019511 0.036450
v -0.695350 1.019511 0.031750
v -0.695350 -1.020141 0.031750
v -0.700050 -1.020141 0.036450
v -0.784727 1.019511 0.058153
v -0.780027 1.019511 0.053453
v -0.780027 -1.020141 0.053453
v -0.784727 -1.020141 0.058153
v -0.695950 1.019511 0.034048
v -0.697751 1.019511 0.035849
v -0.697751 -1.020141 0.035849
v -0.695950 -1.020141 0.034048
v 0.695350 0.014113 0.011321
v 0.695350 0.014113 0.025621
v 0.695350 -0.016315 0.011321
v 0.695350 -0.016315 0.025621
v 0.000000 0.014113 0.011321
v 0.000000 0.014113 0.025621
v 0.000000 -0.016315 0.011321
v 0.000000 -0.016315 0.025621
v 0.695350 0.014113 0.035379
v 0.695350 -0.016315 0.035379
v 0.000000 0.014113 0.035379
v 0.000000 -0.016315 0.035379
v 0.695350 0.028813 0.025621
v 0.000000 0.028813 0.025621
v 0.695350 0.027229 0.034983
v 0.695350 0.028417 0.033795
v 0.695350 -0.031015 0.025621
v 0.000000 -0.031015 0.025621
v 0.000000 0.028417 0.033795
v 0.000000 0.027229 0.034983
v 0.695350 0.025713 0.035379
v 0.695350 0.028813 0.032279
v 0.000000 0.028813 0.032279
v 0.000000 0.025713 0.035379
v 0.695350 -0.031015 0.032279
v 0.695350 -0.027915 0.035379
v 0.000000 -0.027915 0.035379
v 0.000000 -0.031015 0.032279
v 0.695350 -0.029431 0.034983
v 0.695350 -0.030619 0.033795
v 0.000000 -0.030619 0.033795
v 0.000000 -0.029431 0.034983
v -0.695350 0.014113 0.011321
v -0.695350 0.014113 0.025621
v -0.695350 -0.016315 0.011321
v -0.695350 -0.016315 0.025621
v -0.695350 -0.030619 0.033795
v -0.695350 -0.029431 0.034983
v -0.695350 -0.027915 0.035379
v -0.695350 -0.031015 0.032279
v -0.695350 0.014113 0.035379
v -0.695350 -0.016315 0.035379
v -0.695350 0.028813 0.032279
v -0.695350 0.025713 0.035379
v -0.695350 0.028813 0.025621
v -0.695350 -0.031015 0.025621
v -0.695350 0.027229 0.034983
v -0.695350 0.028417 0.033795
v 0.695350 -0.947067 0.011321
v 0.000000 -1.000082 0.024983
v 0.695350 -1.002637 0.011321
v 0.000000 -1.001999 0.023067
v 0.000000 -0.947067 0.011321
v 0.695350 -1.001999 0.023066
v 0.000000 -1.002637 0.011321
v 0.695350 -1.000082 0.024983
v 0.000000 -0.975067 0.011321
v 0.695350 -0.975067 -0.000000
v 0.695350 -0.975067 0.011321
v 0.000000 -0.975067 0.000000
v 0.695350 -0.974637 0.011321
v 0.000000 -0.974637 0.011321
v 0.695350 -0.974637 -0.000000
v 0.000000 -0.974637 0.000000
v 0.695350 -0.947067 0.020621
v 0.695350 -0.952067 0.025621
v 0.695350 -0.997637 0.025621
v 0.695350 -1.002637 0.020621
v 0.000000 -0.952067 0.025621
v 0.000000 -0.947067 0.020621
v 0.000000 -1.002637 0.020621
v 0.000000 -0.997637 0.025621
v 0.695350 -0.947705 0.023066
v 0.695350 -0.949621 0.024983
v 0.000000 -0.949621 0.024983
v 0.000000 -0.947705 0.023067
v -0.695350 -0.947067 0.011321
v -0.695350 -0.949621 0.024983
v -0.695350 -1.002637 0.011321
v -0.695350 -0.947705 0.023067
v -0.695350 -1.002637 0.020621
v -0.695350 -1.001999 0.023067
v -0.695350 -0.997637 0.025621
v -0.695350 -1.000082 0.024983
v -0.695350 -0.952067 0.025621
v -0.695350 -0.975067 0.000000
v -0.695350 -0.975067 0.011321
v -0.695350 -0.947067 0.020621
v -0.695350 -0.974637 0.011321
v -0.695350 -0.974637 0.000000
v -0.349874 0.000141 0.024986
v -0.699749 0.000141 0.024986
v -0.349874 -0.989859 0.024986
v -0.699749 -0.989859 0.024986
v 0.000125 0.000141 0.024986
v -0.349749 0.000141 0.024986
v 0.000125 -0.989859 0.024986
v -0.349749 -0.989859 0.024986
v 0.350125 0.000141 0.024986
v 0.000251 0.000141 0.024986
v 0.350125 -0.989859 0.024986
v 0.000251 -0.989859 0.024986
v 0.700126 0.000141 0.024986
v 0.350251 0.000141 0.024986
v 0.700126 -0.989859 0.024986
v 0.350251 -0.989859 0.024986
v -0.349874 1.020141 0.024986
v -0.699749 1.020141 0.024986
v -0.349874 0.030141 0.024986
v -0.699749 0.030141 0.024986
v 0.000125 1.020141 0.024986
v -0.349749 1.020141 0.024986
v 0.000125 0.030141 0.024986
v -0.349749 0.030141 0.024986
v 0.350125 1.020141 0.024986
v 0.000251 1.020141 0.024986
v 0.350125 0.030141 0.024986
v 0.000251 0.030141 0.024986
v 0.700126 1.020141 0.024986
v 0.350251 1.020141 0.024986
v 0.700126 0.030141 0.024986
v 0.350251 0.030141 0.024986
vn -0.0000 -1.0000 -0.0000
vn -0.0000 1.0000 -0.0000
vn -0.0000 -0.0000 1.0000
vn 1.0000 -0.0000 -0.0000
vn -1.0000 -0.0000 -0.0000
vn -0.0000 -0.0000 -1.0000
vn -0.4973 -0.0000 0.8676
vn -0.2527 -0.0000 0.9675
vn -0.8676 -0.0000 0.4973
vn -0.9675 -0.0000 0.2527
vn 0.4973 -0.0000 0.8676
vn 0.2527 -0.0000 0.9675
vn 0.8676 -0.0000 0.4973
vn 0.9675 -0.0000 0.2527
vn -0.0000 0.2527 0.9675
vn -0.0000 0.4973 0.8676
vn -0.0000 0.8676 0.4973
vn -0.0000 -0.2527 0.9675
vn -0.0000 -0.4973 0.8676
vn -0.0000 -0.8676 0.4973
vn -0.0000 -0.9675 0.2527
vn -0.0000 0.9675 0.2527
vn -0.0000 -1.0000 0.0001
vn -0.0000 -1.0000 -0.0001
vn -0.0000 1.0000 -0.0001
vn 1.0000 -0.0001 -0.0000
vn 1.0000 0.0003 -0.0000
vn -1.0000 0.0001 -0.0000
vn -1.0000 -0.0001 -0.0000
vt 0.373827 0.709816
vt 0.374005 0.648763
vt 0.375223 0.646981
vt 0.975269 0.646981
vt 0.982019 0.647426
vt 0.982732 0.650469
vt 0.988999 0.711598
vt 0.989178 0.739452
vt 0.982732 0.709816
vt 0.367560 0.711598
vt 0.368777 0.709816
vt 0.373827 0.739452
vt 0.374083 0.393819
vt 0.373369 0.396862
vt 0.380832 0.456209
vt 0.982096 0.395156
vt 0.980879 0.393374
vt 0.974812 0.456209
vt 0.982275 0.485845
vt 0.988720 0.459697
vt 0.988007 0.456655
vt 0.373369 0.456209
vt 0.367637 0.456655
vt 0.366924 0.459697
vt 0.361081 0.654753
vt 0.361081 0.672727
vt 0.011140 0.672727
vt 0.429261 0.195840
vt 0.430420 0.197437
vt 0.423279 0.204289
vt 0.429261 0.230712
vt 0.423279 0.230946
vt 0.430420 0.222263
vt 0.939307 0.222263
vt 0.939307 0.204289
vt 0.430420 0.204289
vt 0.430130 0.196542
vt 0.428151 0.195606
vt 0.423279 0.222263
vt 0.428151 0.230946
vt 0.430130 0.230010
vt 0.381290 0.631822
vt 0.381290 0.646981
vt 0.975269 0.758098
vt 0.381290 0.739452
vt 0.975269 0.739452
vt 0.975269 0.709816
vt 0.381290 0.567059
vt 0.975269 0.626406
vt 0.381290 0.626406
vt 0.381290 0.709816
vt 0.381290 0.774203
vt 0.975269 0.800351
vt 0.381290 0.800351
vt 0.381290 0.758098
vt 0.975269 0.774203
vt 0.975269 0.567059
vt 0.381290 0.554442
vt 0.975269 0.554442
vt 0.381290 0.628169
vt 0.975269 0.628169
vt 0.975269 0.552679
vt 0.381290 0.552679
vt 0.975269 0.630059
vt 0.975269 0.631822
vt 0.381290 0.630059
vt 0.381290 0.550789
vt 0.975269 0.802114
vt 0.381290 0.802114
vt 0.380832 0.378215
vt 0.974812 0.393374
vt 0.974812 0.378215
vt 0.974812 0.504491
vt 0.380832 0.485845
vt 0.380832 0.504491
vt 0.982275 0.456209
vt 0.974812 0.485845
vt 0.380832 0.313452
vt 0.974812 0.372799
vt 0.974812 0.313452
vt 0.380832 0.520596
vt 0.974812 0.546744
vt 0.974812 0.520596
vt 0.373369 0.485845
vt 0.380832 0.393374
vt 0.380832 0.300835
vt 0.380832 0.374562
vt 0.380832 0.372799
vt 0.974812 0.299072
vt 0.974812 0.300835
vt 0.974812 0.376452
vt 0.380832 0.376452
vt 0.380832 0.297182
vt 0.974812 0.297182
vt 0.380832 0.546744
vt 0.974812 0.548507
vt 0.939307 0.294900
vt 0.430420 0.293975
vt 0.430420 0.294900
vt 0.939307 0.293975
vt 0.430420 0.292982
vt 0.011140 0.721458
vt 0.361081 0.703485
vt 0.361081 0.721458
vt 0.011140 0.729905
vt 0.361081 0.729905
vt 0.011140 0.703485
vt 0.361081 0.695038
vt 0.011140 0.738588
vt 0.361081 0.742520
vt 0.011140 0.742520
vt 0.361081 0.686355
vt 0.011140 0.682422
vt 0.361081 0.682422
vt 0.430420 0.229115
vt 0.939307 0.230040
vt 0.939307 0.229115
vt 0.361081 0.738588
vt 0.011140 0.686355
vt 0.361081 0.681497
vt 0.011140 0.681497
vt 0.011140 0.743446
vt 0.361081 0.743446
vt 0.011140 0.680504
vt 0.011140 0.679579
vt 0.361081 0.680504
vt 0.361081 0.744438
vt 0.361081 0.745364
vt 0.011140 0.744438
vt 0.430420 0.230040
vt 0.939307 0.231033
vt 0.939307 0.292057
vt 0.430420 0.292057
vt 0.430420 0.270994
vt 0.939307 0.253021
vt 0.430420 0.253021
vt 0.430420 0.279441
vt 0.939307 0.270994
vt 0.939307 0.244574
vt 0.430420 0.244574
vt 0.430420 0.288124
vt 0.939307 0.288124
vt 0.939307 0.235891
vt 0.430420 0.231958
vt 0.430420 0.235891
vt 0.939307 0.231958
vt 0.939307 0.279441
vt 0.447436 0.937138
vt 0.937723 0.936884
vt 0.937723 0.937138
vt 0.447436 0.965860
vt 0.937723 0.960366
vt 0.937723 0.965860
vt 0.937723 0.997366
vt 0.447436 0.970446
vt 0.937723 0.970446
vt 0.937723 0.913656
vt 0.447436 0.908162
vt 0.937723 0.908162
vt 0.447436 0.930196
vt 0.447436 0.936884
vt 0.447436 0.943826
vt 0.937723 0.943826
vt 0.447436 0.913656
vt 0.937723 0.930196
vt 0.937723 0.968953
vt 0.447436 0.968953
vt 0.937723 0.906669
vt 0.447436 0.906669
vt 0.447436 0.967353
vt 0.937723 0.967353
vt 0.447436 0.905069
vt 0.447436 0.997366
vt 0.937723 0.998859
vt 0.447436 0.998859
vt 0.447436 0.960366
vt 0.937723 0.905069
vt 0.443762 0.846549
vt 0.007289 1.000802
vt 0.007289 0.846549
vt 0.373827 0.650469
vt 0.374540 0.647426
vt 0.981336 0.646981
vt 0.982554 0.648763
vt 0.987782 0.709816
vt 0.988464 0.710262
vt 0.989178 0.713304
vt 0.982732 0.739452
vt 0.367381 0.739452
vt 0.367381 0.713304
vt 0.368095 0.710262
vt 0.374765 0.393374
vt 0.373548 0.395156
vt 0.982275 0.396862
vt 0.981561 0.393819
vt 0.987324 0.456209
vt 0.988720 0.485845
vt 0.988542 0.457991
vt 0.366924 0.485845
vt 0.368320 0.456209
vt 0.367102 0.457991
vt 0.011140 0.654753
vt 0.011140 0.647901
vt 0.361081 0.647901
vt 0.361081 0.679579
vt 0.423279 0.195606
vt 0.939307 0.197437
vt 0.975269 0.550789
vt 0.974812 0.374562
vt 0.380832 0.299072
vt 0.380832 0.548507
vt 0.939307 0.292982
vt 0.011140 0.695038
vt 0.011140 0.745364
vt 0.430420 0.231033
vt 0.443762 1.000802
s 1
usemtl 01
f 11/1/1 27/2/1 19/3/1
f 1/4/2 25/5/2 17/6/2
f 2/7/2 14/8/2 10/9/2
f 16/10/1 23/11/1 6/12/1
f 56/13/1 48/14/1 40/15/1
f 54/16/2 46/17/2 37/18/2
f 36/19/2 49/20/2 32/21/2
f 39/22/1 43/23/1 52/24/1
f 67/25/3 68/26/3 66/27/3
f 72/28/4 77/29/4 58/30/4
f 86/31/4 73/32/4 66/33/4
f 68/34/3 67/35/3 97/36/3
f 97/36/5 103/37/5 99/38/5
f 92/39/5 96/40/5 94/41/5
f 19/42/5 1/4/5 3/43/5
f 8/44/4 5/45/4 7/46/4
f 10/9/2 7/46/2 9/47/2
f 11/48/3 17/49/3 20/50/3
f 12/51/6 7/46/6 5/45/6
f 13/52/3 21/53/3 24/54/3
f 5/45/1 11/1/1 12/51/1
f 3/43/6 9/47/6 12/51/6
f 6/55/4 14/56/4 13/52/4
f 10/57/5 23/58/5 22/59/5
f 27/60/7 17/49/8 26/61/7
f 4/62/9 23/58/10 15/63/9
f 25/64/9 27/60/7 26/61/7
f 18/65/10 28/66/9 25/64/9
f 16/67/7 4/62/9 15/63/9
f 24/54/8 2/68/7 16/69/7
f 47/70/4 29/71/4 46/72/4
f 36/73/5 33/74/5 34/75/5
f 38/76/2 35/77/2 36/19/2
f 39/78/3 45/79/3 38/80/3
f 40/15/6 35/77/6 37/18/6
f 41/81/3 49/82/3 42/83/3
f 33/74/1 39/22/1 34/84/1
f 31/85/6 37/18/6 29/71/6
f 34/75/5 42/83/5 36/73/5
f 38/80/4 51/86/4 39/78/4
f 55/87/11 45/79/12 48/88/12
f 32/89/13 51/86/14 50/90/14
f 53/91/13 55/87/11 56/92/13
f 46/72/14 56/92/13 47/70/14
f 44/93/11 32/89/13 30/94/11
f 52/95/12 30/96/11 49/82/12
f 80/97/15 103/98/16 100/99/15
f 76/100/16 104/101/17 103/98/16
f 57/102/6 63/103/6 61/104/6
f 58/105/2 61/104/2 62/106/2
f 59/107/1 64/108/1 63/103/1
f 69/109/2 79/110/2 78/111/2
f 60/39/4 65/36/4 66/33/4
f 74/112/1 81/113/1 84/114/1
f 95/115/18 88/116/19 83/117/18
f 58/105/6 70/118/6 69/109/6
f 64/108/6 73/119/6 74/112/6
f 87/120/20 81/113/21 86/121/20
f 72/122/17 79/110/22 75/123/17
f 85/124/19 87/120/20 86/121/20
f 82/125/18 88/126/19 85/124/19
f 76/127/16 72/122/17 75/123/17
f 80/128/15 71/129/16 76/127/16
f 94/130/19 87/131/20 88/116/19
f 104/101/17 79/132/22 99/133/22
f 89/134/6 63/135/6 91/136/6
f 90/137/2 61/138/2 89/134/2
f 91/136/1 64/139/1 92/140/1
f 101/141/2 79/132/2 70/142/2
f 92/39/5 97/36/5 90/30/5
f 74/143/1 96/144/1 102/145/1
f 87/131/20 96/144/21 84/146/21
f 90/137/6 70/142/6 62/147/6
f 64/139/6 102/145/6 92/140/6
f 114/148/3 120/149/3 116/150/3
f 121/151/2 109/152/2 126/153/2
f 128/154/3 122/155/3 125/156/3
f 111/157/1 124/158/1 127/159/1
f 117/160/1 120/149/1 119/161/1
f 109/152/6 115/162/6 113/163/6
f 113/163/2 114/148/2 116/150/2
f 107/164/6 118/165/6 117/160/6
f 131/166/16 122/155/15 130/167/16
f 108/168/20 124/158/21 110/169/20
f 129/170/17 131/166/16 130/167/16
f 121/151/22 132/171/17 129/170/17
f 112/172/19 108/168/20 110/169/20
f 123/173/18 106/174/19 112/175/19
f 142/148/3 120/149/3 146/161/3
f 144/151/2 109/152/2 133/176/2
f 128/154/3 141/155/3 139/173/3
f 111/157/1 137/158/1 135/164/1
f 145/160/1 120/149/1 118/165/1
f 109/152/6 143/162/6 133/176/6
f 113/163/2 142/148/2 143/162/2
f 135/164/6 118/165/6 111/157/6
f 131/166/16 141/155/15 125/156/15
f 108/168/20 137/158/21 127/159/21
f 136/170/17 131/166/16 132/171/17
f 144/151/22 132/171/17 126/153/22
f 140/172/19 108/168/20 106/177/19
f 139/173/18 106/174/19 128/154/18
f 150/178/3 147/179/3 148/180/3
f 154/178/3 151/179/3 152/180/3
f 158/178/3 155/179/3 156/180/3
f 162/178/3 159/179/3 160/180/3
f 166/178/3 163/179/3 164/180/3
f 170/178/3 167/179/3 168/180/3
f 174/178/3 171/179/3 172/180/3
f 178/178/3 175/179/3 176/180/3
f 3/43/1 12/51/1 11/1/1
f 11/1/1 20/181/23 27/2/1
f 27/2/1 28/182/24 19/3/1
f 19/3/1 3/43/1 11/1/1
f 10/9/2 9/47/2 1/4/2
f 1/4/2 18/183/2 25/5/2
f 25/5/2 26/184/25 17/6/2
f 17/6/2 10/9/2 1/4/2
f 22/185/2 4/186/2 2/7/2
f 2/7/2 21/187/2 14/8/2
f 14/8/2 8/188/2 10/9/2
f 10/9/2 22/185/2 2/7/2
f 13/189/1 24/190/1 16/10/1
f 16/10/1 15/191/24 23/11/1
f 23/11/1 11/1/1 6/12/1
f 6/12/1 13/189/1 16/10/1
f 31/85/1 47/192/1 56/13/1
f 56/13/1 55/193/1 48/14/1
f 48/14/1 39/22/1 40/15/1
f 40/15/1 31/85/1 56/13/1
f 38/76/2 45/194/2 54/16/2
f 54/16/2 53/195/2 46/17/2
f 46/17/2 29/71/2 37/18/2
f 37/18/2 38/76/2 54/16/2
f 50/196/2 38/76/2 36/19/2
f 36/19/2 42/197/2 49/20/2
f 49/20/2 30/198/25 32/21/2
f 32/21/2 50/196/2 36/19/2
f 41/199/1 34/84/1 39/22/1
f 39/22/1 51/200/1 43/23/1
f 43/23/1 44/201/1 52/24/1
f 52/24/1 41/199/1 39/22/1
f 65/202/3 77/203/3 80/204/3
f 65/202/3 80/204/3 67/25/3
f 83/205/3 82/125/3 66/27/3
f 66/27/3 65/202/3 67/25/3
f 68/26/3 83/205/3 66/27/3
f 69/206/4 78/38/26 72/28/4
f 72/28/4 71/37/4 77/29/4
f 77/29/4 65/36/4 58/30/4
f 58/30/4 69/206/4 72/28/4
f 82/115/4 85/41/4 86/31/4
f 86/31/4 81/40/27 73/32/4
f 73/32/4 60/39/4 66/33/4
f 66/33/4 82/115/4 86/31/4
f 98/33/3 95/115/3 83/117/3
f 98/33/3 83/117/3 68/34/3
f 80/207/3 100/29/3 97/36/3
f 97/36/3 98/33/3 68/34/3
f 67/35/3 80/207/3 97/36/3
f 101/206/5 90/30/5 97/36/5
f 97/36/5 100/29/5 103/37/5
f 103/37/5 104/28/28 99/38/5
f 99/38/5 101/206/5 97/36/5
f 95/115/28 98/33/5 92/39/5
f 92/39/5 102/32/5 96/40/5
f 96/40/5 93/31/29 94/41/5
f 94/41/5 95/115/28 92/39/5
f 19/42/5 18/65/5 1/4/5
f 8/44/4 6/55/4 5/45/4
f 10/9/2 8/188/2 7/46/2
f 11/48/3 10/57/3 17/49/3
f 12/51/6 9/47/6 7/46/6
f 13/52/3 14/56/3 21/53/3
f 5/45/1 6/12/1 11/1/1
f 3/43/6 1/4/6 9/47/6
f 6/55/4 8/44/4 14/56/4
f 10/57/5 11/48/5 23/58/5
f 27/60/7 20/50/8 17/49/8
f 4/62/9 22/59/10 23/58/10
f 25/64/9 28/66/9 27/60/7
f 18/65/10 19/42/10 28/66/9
f 16/67/7 2/208/7 4/62/9
f 24/54/8 21/53/8 2/68/7
f 47/70/4 31/85/4 29/71/4
f 36/73/5 35/77/5 33/74/5
f 38/76/2 37/18/2 35/77/2
f 39/78/3 48/88/3 45/79/3
f 40/15/6 33/74/6 35/77/6
f 41/81/3 52/95/3 49/82/3
f 33/74/1 40/15/1 39/22/1
f 31/85/6 40/15/6 37/18/6
f 34/75/5 41/81/5 42/83/5
f 38/80/4 50/90/4 51/86/4
f 55/87/11 54/209/11 45/79/12
f 32/89/13 43/210/13 51/86/14
f 53/91/13 54/209/11 55/87/11
f 46/72/14 53/91/13 56/92/13
f 44/93/11 43/210/13 32/89/13
f 52/95/12 44/211/11 30/96/11
f 80/97/15 76/100/16 103/98/16
f 76/100/16 75/212/17 104/101/17
f 57/102/6 59/107/6 63/103/6
f 58/105/2 57/102/2 61/104/2
f 59/107/1 60/213/1 64/108/1
f 69/109/2 70/118/2 79/110/2
f 60/39/4 58/30/4 65/36/4
f 74/112/1 73/119/1 81/113/1
f 95/115/18 94/130/19 88/116/19
f 58/105/6 62/106/6 70/118/6
f 64/108/6 60/213/6 73/119/6
f 87/120/20 84/114/21 81/113/21
f 72/122/17 78/111/22 79/110/22
f 85/124/19 88/126/19 87/120/20
f 82/125/18 83/205/18 88/126/19
f 76/127/16 71/129/16 72/122/17
f 80/128/15 77/214/15 71/129/16
f 94/130/19 93/215/20 87/131/20
f 104/101/17 75/212/17 79/132/22
f 89/134/6 61/138/6 63/135/6
f 90/137/2 62/147/2 61/138/2
f 91/136/1 63/135/1 64/139/1
f 101/141/2 99/133/2 79/132/2
f 92/39/5 98/33/5 97/36/5
f 74/143/1 84/146/1 96/144/1
f 87/131/20 93/215/20 96/144/21
f 90/137/6 101/141/6 70/142/6
f 64/139/6 74/143/6 102/145/6
f 114/148/3 119/161/3 120/149/3
f 121/151/2 105/176/2 109/152/2
f 128/154/3 123/173/3 122/155/3
f 111/157/1 107/164/1 124/158/1
f 117/160/1 118/165/1 120/149/1
f 109/152/6 105/176/6 115/162/6
f 113/163/2 115/162/2 114/148/2
f 107/164/6 111/157/6 118/165/6
f 131/166/16 125/156/15 122/155/15
f 108/168/20 127/159/21 124/158/21
f 129/170/17 132/171/17 131/166/16
f 121/151/22 126/153/22 132/171/17
f 112/172/19 106/177/19 108/168/20
f 123/173/18 128/154/18 106/174/19
f 142/148/3 116/150/3 120/149/3
f 144/151/2 126/153/2 109/152/2
f 128/154/3 125/156/3 141/155/3
f 111/157/1 127/159/1 137/158/1
f 145/160/1 146/161/1 120/149/1
f 109/152/6 113/163/6 143/162/6
f 113/163/2 116/150/2 142/148/2
f 135/164/6 145/160/6 118/165/6
f 131/166/16 134/167/16 141/155/15
f 108/168/20 138/169/20 137/158/21
f 136/170/17 134/167/16 131/166/16
f 144/151/22 136/170/17 132/171/17
f 140/172/19 138/169/20 108/168/20
f 139/173/18 140/175/19 106/174/19
f 150/178/3 149/216/3 147/179/3
f 154/178/3 153/216/3 151/179/3
f 158/178/3 157/216/3 155/179/3
f 162/178/3 161/216/3 159/179/3
f 166/178/3 165/216/3 163/179/3
f 170/178/3 169/216/3 167/179/3
f 174/178/3 173/216/3 171/179/3
f 178/178/3 177/216/3 175/179/3
