# Blender 4.5.3 LTS
# www.blender.org
mtllib Bridge_Short_Side.mtl
o 01.002
v -0.769496 1.000141 0.639506
v -0.761996 1.000141 0.634057
v -0.752725 1.000141 0.634057
v -0.745225 1.000141 0.639506
v -0.772360 -0.999859 0.335315
v -0.769496 -0.999859 0.344132
v -0.761996 -0.999859 0.349581
v -0.752725 -0.999859 0.349581
v -0.745225 -0.999859 0.344132
v -0.742360 -0.999859 0.335315
v -0.745225 -0.999859 0.326498
v -0.752725 -0.999859 0.321049
v -0.761996 -0.999859 0.321049
v -0.769496 -0.999859 0.326498
v -0.772360 1.000141 0.335315
v -0.769496 1.000141 0.344132
v -0.761996 1.000141 0.349581
v -0.752725 1.000141 0.349581
v -0.745225 1.000141 0.344132
v -0.742360 1.000141 0.335315
v -0.745225 1.000141 0.326498
v -0.752725 1.000141 0.321049
v -0.761996 1.000141 0.321049
v -0.769496 1.000141 0.326498
v -0.757360 1.020141 0.024986
v -0.769116 1.016322 0.024986
v -0.776381 1.006322 0.024986
v -0.776381 0.993961 0.024986
v -0.769116 0.983961 0.024986
v -0.757360 0.980141 0.024986
v -0.745605 0.983961 0.024986
v -0.738339 0.993961 0.024986
v -0.738339 1.006322 0.024986
v -0.745605 1.016322 0.024986
v -0.757360 1.020141 0.826480
v -0.769116 1.016322 0.826195
v -0.776381 1.006322 0.825448
v -0.776381 0.993961 0.824525
v -0.769116 0.983961 0.823778
v -0.757360 0.980141 0.823493
v -0.745605 0.983961 0.823778
v -0.738339 0.993961 0.824525
v -0.738339 1.006322 0.825448
v -0.745605 1.016322 0.826195
v -0.757360 1.015041 0.860430
v -0.769116 1.011353 0.859272
v -0.776381 1.001696 0.856241
v -0.776381 0.989759 0.852494
v -0.769116 0.980102 0.849463
v -0.757360 0.976414 0.848306
v -0.745605 0.980102 0.849463
v -0.738339 0.989759 0.852494
v -0.738339 1.001696 0.856241
v -0.745605 1.011353 0.859272
v -0.757360 0.997994 0.894912
v -0.769116 0.994848 0.892655
v -0.776381 0.986613 0.886748
v -0.776381 0.976434 0.879446
v -0.769116 0.968199 0.873539
v -0.757360 0.965054 0.871283
v -0.745605 0.968199 0.873539
v -0.738339 0.976434 0.879446
v -0.738339 0.986613 0.886748
v -0.745605 0.994848 0.892655
v -0.757360 0.970067 0.922839
v -0.769116 0.967810 0.919693
v -0.776381 0.961903 0.911458
v -0.776381 0.954601 0.901280
v -0.769116 0.948694 0.893045
v -0.757360 0.946438 0.889899
v -0.745605 0.948694 0.893045
v -0.738339 0.954601 0.901280
v -0.738339 0.961903 0.911458
v -0.745605 0.967810 0.919693
v -0.757360 0.935584 0.939887
v -0.769116 0.934427 0.936198
v -0.776381 0.931396 0.926541
v -0.776381 0.927649 0.914604
v -0.769116 0.924618 0.904948
v -0.757360 0.923460 0.901259
v -0.745605 0.924618 0.904948
v -0.738339 0.927649 0.914604
v -0.738339 0.931396 0.926541
v -0.745605 0.934427 0.936198
v -0.757360 0.901635 0.944986
v -0.769116 0.901350 0.941167
v -0.776381 0.900603 0.931167
v -0.776381 0.899680 0.918806
v -0.769116 0.898933 0.908806
v -0.757360 0.898647 0.904986
v -0.745605 0.898933 0.908806
v -0.738339 0.899680 0.918806
v -0.738339 0.900603 0.931167
v -0.745605 0.901350 0.941167
v -0.757360 -0.901353 0.944986
v -0.769116 -0.901067 0.941167
v -0.776381 -0.900320 0.931167
v -0.776381 -0.899397 0.918806
v -0.769116 -0.898650 0.908806
v -0.757360 -0.898365 0.904986
v -0.745605 -0.898650 0.908806
v -0.738339 -0.899397 0.918806
v -0.738339 -0.900320 0.931167
v -0.745605 -0.901067 0.941167
v -0.757360 -0.935302 0.939887
v -0.769116 -0.934144 0.936198
v -0.776381 -0.931113 0.926541
v -0.776381 -0.927367 0.914604
v -0.769116 -0.924336 0.904948
v -0.757360 -0.923178 0.901259
v -0.745605 -0.924336 0.904948
v -0.738339 -0.927367 0.914604
v -0.738339 -0.931113 0.926541
v -0.745605 -0.934144 0.936198
v -0.757360 -0.969784 0.922839
v -0.769116 -0.967528 0.919693
v -0.776381 -0.961620 0.911458
v -0.776381 -0.954319 0.901280
v -0.769116 -0.948411 0.893045
v -0.757360 -0.946155 0.889899
v -0.745605 -0.948411 0.893045
v -0.738339 -0.954319 0.901280
v -0.738339 -0.961620 0.911458
v -0.745605 -0.967528 0.919693
v -0.757360 -0.997711 0.894912
v -0.769116 -0.994566 0.892655
v -0.776381 -0.986331 0.886748
v -0.776381 -0.976152 0.879446
v -0.769116 -0.967917 0.873539
v -0.757360 -0.964772 0.871283
v -0.745605 -0.967917 0.873539
v -0.738339 -0.976152 0.879446
v -0.738339 -0.986331 0.886748
v -0.745605 -0.994566 0.892655
v -0.757360 -1.014759 0.860430
v -0.769116 -1.011070 0.859272
v -0.776381 -1.001413 0.856241
v -0.776381 -0.989477 0.852494
v -0.769116 -0.979820 0.849463
v -0.757360 -0.976131 0.848306
v -0.745605 -0.979820 0.849463
v -0.738339 -0.989477 0.852494
v -0.738339 -1.001413 0.856241
v -0.745605 -1.011070 0.859272
v -0.757360 -1.019859 0.826480
v -0.769116 -1.016039 0.826195
v -0.776381 -1.006039 0.825448
v -0.776381 -0.993678 0.824525
v -0.769116 -0.983678 0.823778
v -0.757360 -0.979859 0.823493
v -0.745605 -0.983678 0.823778
v -0.738339 -0.993678 0.824525
v -0.738339 -1.006039 0.825448
v -0.745605 -1.016039 0.826195
v -0.757360 -1.019859 0.024986
v -0.769116 -1.016039 0.024986
v -0.776381 -1.006039 0.024986
v -0.776381 -0.993678 0.024986
v -0.769116 -0.983678 0.024986
v -0.757360 -0.979859 0.024986
v -0.745605 -0.983678 0.024986
v -0.738339 -0.993678 0.024986
v -0.738339 -1.006039 0.024986
v -0.745605 -1.016039 0.024986
v -0.772360 -0.999859 0.648323
v -0.769496 -0.999859 0.657140
v -0.761996 -0.999859 0.662589
v -0.752725 -0.999859 0.662589
v -0.745225 -0.999859 0.657140
v -0.742360 -0.999859 0.648323
v -0.745225 -0.999859 0.639506
v -0.752725 -0.999859 0.634057
v -0.761996 -0.999859 0.634057
v -0.769496 -0.999859 0.639506
v -0.772360 1.000141 0.648323
v -0.769496 1.000141 0.657140
v -0.761996 1.000141 0.662589
v -0.752725 1.000141 0.662589
v -0.745225 1.000141 0.657140
v -0.742360 1.000141 0.648323
vn -1.0000 -0.0000 -0.0000
vn -0.8090 -0.0000 -0.5878
vn -0.8090 -0.0000 0.5878
vn -0.3090 -0.0000 0.9511
vn 0.3090 -0.0000 0.9511
vn 0.8090 -0.0000 0.5878
vn 1.0000 -0.0000 -0.0000
vn 0.8090 -0.0000 -0.5878
vn 0.3090 -0.0000 -0.9511
vn -0.3090 -0.0000 -0.9511
vn -0.5815 0.8106 0.0692
vn -0.0000 1.0000 -0.0000
vn -0.5878 0.8090 -0.0000
vn -0.9466 0.3203 0.0377
vn -0.9511 0.3090 -0.0000
vn -0.9556 -0.2945 -0.0084
vn -0.9511 -0.3090 -0.0000
vn -0.5959 -0.8014 -0.0515
vn -0.5878 -0.8090 -0.0000
vn -0.0000 -0.9972 -0.0745
vn -0.0000 -1.0000 -0.0000
vn 0.5878 -0.8090 -0.0000
vn 0.9511 -0.3090 -0.0000
vn 0.5954 -0.8005 -0.0681
vn 0.9511 0.3090 -0.0000
vn 0.9551 -0.2941 -0.0355
vn 0.5878 0.8090 -0.0000
vn 0.9471 0.3207 0.0102
vn 0.5821 0.8115 0.0520
vn -0.5811 0.7709 0.2608
vn -0.0000 0.9972 0.0745
vn -0.9445 0.3038 0.1250
vn -0.9582 -0.2798 -0.0591
vn -0.6021 -0.7665 -0.2233
vn -0.0000 -0.9541 -0.2995
vn 0.6051 -0.7542 -0.2548
vn 0.9589 -0.2610 -0.1111
vn 0.9439 0.3225 0.0712
vn 0.5787 0.7835 0.2266
vn -0.5804 0.6504 0.4900
vn -0.0000 0.9541 0.2995
vn -0.9438 0.2501 0.2162
vn -0.9589 -0.2462 -0.1409
vn -0.6035 -0.6579 -0.4506
vn -0.0000 -0.8126 -0.5829
vn 0.6062 -0.6355 -0.4782
vn 0.9593 -0.2113 -0.1875
vn 0.9436 0.2853 0.1679
vn 0.5785 0.6739 0.4596
vn -0.5802 0.4591 0.6727
vn -0.0000 0.8126 0.5829
vn -0.9437 0.1678 0.2852
vn -0.9590 -0.1878 -0.2122
vn -0.6091 -0.4769 -0.6337
vn -0.0000 -0.5829 -0.8126
vn 0.6062 -0.4488 -0.6566
vn 0.9593 -0.1402 -0.2453
vn 0.5833 0.4878 0.6494
vn -0.0000 0.2995 0.9541
vn -0.0000 0.5829 0.8126
vn -0.5759 0.2272 0.7853
vn -0.9411 0.0737 0.3301
vn -0.9612 -0.1087 -0.2534
vn -0.6077 -0.2542 -0.7523
vn 0.5997 -0.2251 -0.7679
vn 0.9561 -0.0644 -0.2860
vn 0.9471 0.1200 0.2977
vn 0.9436 0.1678 0.2854
vn 0.5834 0.2594 0.7697
vn -0.0000 0.0745 0.9972
vn -0.5814 0.0520 0.8119
vn -0.9465 0.0102 0.3225
vn -0.9557 -0.0354 -0.2923
vn -0.0000 -0.2995 -0.9541
vn -0.5960 -0.0680 -0.8001
vn 0.5926 -0.0526 -0.8037
vn 0.9535 -0.0104 -0.3011
vn 0.9488 0.0358 0.3140
vn 0.5845 0.0684 0.8085
vn -0.5815 -0.0692 0.8106
vn -0.9465 -0.0376 0.3204
vn -0.9557 0.0084 -0.2943
vn -0.0000 0.0745 -0.9972
vn -0.0000 -0.0745 -0.9972
vn 0.5954 0.0682 -0.8006
vn 0.9551 0.0355 -0.2942
vn 0.9472 -0.0102 0.3206
vn 0.5821 -0.0520 0.8115
vn -0.0000 -0.0745 0.9972
vn -0.5811 -0.2607 0.7709
vn -0.9445 -0.1249 0.3038
vn -0.9582 0.0591 -0.2798
vn -0.6021 0.2234 -0.7665
vn -0.5960 0.0683 -0.8001
vn -0.0000 0.2995 -0.9541
vn 0.6051 0.2548 -0.7542
vn 0.9589 0.1111 -0.2610
vn 0.9439 -0.0713 0.3225
vn 0.5787 -0.2266 0.7835
vn -0.5803 -0.4900 0.6504
vn -0.0000 -0.2995 0.9541
vn -0.9438 -0.2162 0.2501
vn -0.9589 0.1409 -0.2461
vn -0.6034 0.4504 -0.6580
vn -0.0000 0.5829 -0.8126
vn 0.6062 0.4783 -0.6355
vn 0.9593 0.1874 -0.2114
vn 0.9436 -0.1679 0.2853
vn 0.5785 -0.4596 0.6739
vn -0.5802 -0.6727 0.4591
vn -0.0000 -0.5829 0.8126
vn -0.9437 -0.2852 0.1678
vn -0.9590 0.2122 -0.1878
vn -0.6036 0.6375 -0.4787
vn 0.6007 0.6587 -0.4530
vn 0.9469 -0.2448 0.2084
vn 0.5834 -0.6494 0.4878
vn -0.0000 -0.9541 0.2995
vn -0.0000 -0.8126 0.5829
vn -0.5759 -0.7853 0.2272
vn -0.9411 -0.3301 0.0737
vn -0.9612 0.2534 -0.1087
vn -0.0000 0.8126 -0.5829
vn -0.6077 0.7523 -0.2542
vn 0.5997 0.7679 -0.2251
vn 0.9561 0.2860 -0.0644
vn 0.9593 0.2113 -0.1876
vn 0.9471 -0.2977 0.1201
vn 0.5834 -0.7697 0.2593
vn -0.0000 -0.9972 0.0745
vn -0.5814 -0.8119 0.0520
vn -0.9465 -0.3225 0.0103
vn -0.9557 0.2923 -0.0354
vn -0.0000 0.9541 -0.2995
vn -0.5960 0.8001 -0.0681
vn 0.5927 0.8037 -0.0526
vn 0.9535 0.3011 -0.0104
vn 0.9488 -0.3140 0.0358
vn 0.5845 -0.8085 0.0684
vn -0.0000 0.9972 -0.0745
vt 0.937264 0.010317
vt 0.500527 0.001141
vt 0.500527 0.010317
vt 0.498245 0.033329
vt 0.040858 0.024567
vt 0.040858 0.033329
vt 0.498245 0.042091
vt 0.040858 0.042091
vt 0.498245 0.050853
vt 0.040858 0.050853
vt 0.498245 0.059615
vt 0.040858 0.059615
vt 0.498245 0.068377
vt 0.040858 0.068377
vt 0.498245 0.077138
vt 0.040858 0.077138
vt 0.498245 0.085900
vt 0.040858 0.085900
vt 0.498245 0.094662
vt 0.040858 0.094662
vt 0.498245 0.103424
vt 0.040858 0.103424
vt 0.498245 0.024567
vt 0.040858 0.015805
vt 0.072795 0.335274
vt 0.369158 0.342486
vt 0.369158 0.335274
vt 0.072795 0.328030
vt 0.369158 0.328030
vt 0.072795 0.320766
vt 0.369158 0.320766
vt 0.072795 0.313522
vt 0.369158 0.313521
vt 0.072795 0.306310
vt 0.369158 0.306310
vt 0.369158 0.371450
vt 0.072795 0.378662
vt 0.369158 0.378662
vt 0.369158 0.364206
vt 0.072795 0.371450
vt 0.369158 0.356941
vt 0.072795 0.364206
vt 0.369158 0.349697
vt 0.072795 0.356941
vt 0.072795 0.349697
vt 0.061971 0.335274
vt 0.072795 0.342486
vt 0.061971 0.328030
vt 0.061971 0.320766
vt 0.061971 0.313522
vt 0.061971 0.306310
vt 0.061971 0.378662
vt 0.061971 0.371450
vt 0.061971 0.364206
vt 0.061971 0.356941
vt 0.061971 0.349697
vt 0.050352 0.335274
vt 0.061971 0.342486
vt 0.050352 0.328030
vt 0.050352 0.320766
vt 0.050352 0.313522
vt 0.050352 0.306310
vt 0.050352 0.378662
vt 0.050352 0.371450
vt 0.050352 0.364206
vt 0.050352 0.356941
vt 0.050352 0.349697
vt 0.038421 0.335274
vt 0.050352 0.342486
vt 0.038421 0.328030
vt 0.038421 0.320766
vt 0.038421 0.313522
vt 0.038421 0.378662
vt 0.038421 0.371450
vt 0.038421 0.364206
vt 0.038421 0.349697
vt 0.026802 0.342486
vt 0.038421 0.342486
vt 0.026802 0.335274
vt 0.026802 0.328030
vt 0.026802 0.320766
vt 0.038421 0.306310
vt 0.026802 0.313522
vt 0.026802 0.371450
vt 0.026802 0.364206
vt 0.026802 0.356941
vt 0.038421 0.356941
vt 0.026802 0.349697
vt 0.015978 0.342486
vt 0.015978 0.335274
vt 0.015978 0.328030
vt 0.015978 0.320766
vt 0.026802 0.306310
vt 0.015978 0.313522
vt 0.015978 0.371450
vt 0.026802 0.378662
vt 0.015978 0.364206
vt 0.015978 0.356941
vt 0.015978 0.349697
vt 0.928931 0.863405
vt 0.448920 0.853591
vt 0.448920 0.863405
vt 0.928931 0.873239
vt 0.448920 0.873239
vt 0.448920 0.883092
vt 0.448920 0.892944
vt 0.928931 0.883092
vt 0.928931 0.902787
vt 0.448920 0.902787
vt 0.928931 0.814239
vt 0.448920 0.804396
vt 0.448920 0.814239
vt 0.928931 0.824091
vt 0.448920 0.824091
vt 0.928931 0.833944
vt 0.448920 0.833944
vt 0.928931 0.843778
vt 0.448920 0.843778
vt 0.928931 0.853591
vt 0.357078 0.409765
vt 0.367956 0.416941
vt 0.367956 0.409765
vt 0.357078 0.402556
vt 0.367956 0.402556
vt 0.357078 0.395328
vt 0.367956 0.395328
vt 0.357078 0.388119
vt 0.367956 0.388119
vt 0.357078 0.380943
vt 0.367956 0.380943
vt 0.367956 0.445763
vt 0.357078 0.452939
vt 0.367956 0.452939
vt 0.367956 0.438554
vt 0.357078 0.445763
vt 0.367956 0.431325
vt 0.357078 0.438554
vt 0.367956 0.424117
vt 0.357078 0.431325
vt 0.357078 0.424117
vt 0.345402 0.409765
vt 0.357078 0.416941
vt 0.345402 0.402556
vt 0.345402 0.395328
vt 0.345402 0.388119
vt 0.345402 0.380943
vt 0.345402 0.452939
vt 0.345402 0.445763
vt 0.345402 0.438554
vt 0.345402 0.431325
vt 0.345402 0.424117
vt 0.333411 0.409765
vt 0.345402 0.416941
vt 0.333411 0.402556
vt 0.333411 0.395328
vt 0.333411 0.388119
vt 0.333411 0.445763
vt 0.333411 0.431325
vt 0.333411 0.424117
vt 0.321735 0.416941
vt 0.333411 0.416941
vt 0.321735 0.409765
vt 0.321735 0.402556
vt 0.321735 0.395328
vt 0.333411 0.380943
vt 0.321735 0.388119
vt 0.321735 0.445763
vt 0.333411 0.452939
vt 0.321735 0.438554
vt 0.333411 0.438554
vt 0.321735 0.431325
vt 0.321735 0.424117
vt 0.310857 0.416941
vt 0.310857 0.409765
vt 0.310857 0.402556
vt 0.310857 0.395328
vt 0.321735 0.380943
vt 0.310857 0.388119
vt 0.310857 0.445763
vt 0.321735 0.452939
vt 0.310857 0.438554
vt 0.310857 0.431325
vt 0.310857 0.424117
vt 0.013028 0.416941
vt 0.013028 0.409765
vt 0.013028 0.402556
vt 0.013028 0.395328
vt 0.310857 0.380943
vt 0.013028 0.388119
vt 0.013028 0.445763
vt 0.310857 0.452939
vt 0.013028 0.438554
vt 0.013028 0.431325
vt 0.013028 0.424117
vt 0.937264 0.019493
vt 0.500527 0.019493
vt 0.937264 0.028669
vt 0.500527 0.028669
vt 0.937264 0.037845
vt 0.500527 0.037846
vt 0.937264 0.047022
vt 0.500527 0.047022
vt 0.937264 0.056198
vt 0.500527 0.056198
vt 0.937264 0.065374
vt 0.500527 0.065374
vt 0.937264 0.074550
vt 0.500527 0.074550
vt 0.937264 0.083726
vt 0.500527 0.083726
vt 0.937264 0.092903
vt 0.500527 0.092903
vt 0.937264 0.001141
vt 0.498245 0.015805
vt 0.015978 0.306310
vt 0.015978 0.378662
vt 0.928931 0.892944
vt 0.928931 0.804396
vt 0.013028 0.380943
vt 0.013028 0.452939
s 1
usemtl 01
f 175/1/1 174/2/2 165/3/1
f 16/4/3 5/5/1 6/6/3
f 17/7/4 6/6/3 7/8/4
f 18/9/5 7/8/4 8/10/5
f 19/11/6 8/10/5 9/12/6
f 20/13/7 9/12/6 10/14/7
f 21/15/8 10/14/7 11/16/8
f 22/17/9 11/16/8 12/18/9
f 23/19/10 12/18/9 13/20/10
f 24/21/2 13/20/10 14/22/2
f 15/23/1 14/24/2 5/5/1
f 36/25/11 25/26/12 26/27/13
f 37/28/14 26/27/13 27/29/15
f 38/30/16 27/29/15 28/31/17
f 39/32/18 28/31/17 29/33/19
f 40/34/20 29/33/19 30/35/21
f 31/36/22 40/37/20 30/38/21
f 32/39/23 41/40/24 31/36/22
f 33/41/25 42/42/26 32/39/23
f 34/43/27 43/44/28 33/41/25
f 25/26/12 44/45/29 34/43/27
f 46/46/30 35/47/31 36/25/11
f 47/48/32 36/25/11 37/28/14
f 48/49/33 37/28/14 38/30/16
f 49/50/34 38/30/16 39/32/18
f 50/51/35 39/32/18 40/34/20
f 41/40/24 50/52/35 40/37/20
f 42/42/26 51/53/36 41/40/24
f 43/44/28 52/54/37 42/42/26
f 44/45/29 53/55/38 43/44/28
f 35/47/31 54/56/39 44/45/29
f 56/57/40 45/58/41 46/46/30
f 57/59/42 46/46/30 47/48/32
f 58/60/43 47/48/32 48/49/33
f 59/61/44 48/49/33 49/50/34
f 60/62/45 49/50/34 50/51/35
f 51/53/36 60/63/45 50/52/35
f 52/54/37 61/64/46 51/53/36
f 53/55/38 62/65/47 52/54/37
f 54/56/39 63/66/48 53/55/38
f 45/58/41 64/67/49 54/56/39
f 66/68/50 55/69/51 56/57/40
f 67/70/52 56/57/40 57/59/42
f 68/71/53 57/59/42 58/60/43
f 59/61/44 68/71/53 58/60/43
f 60/62/45 69/72/54 59/61/44
f 61/64/46 70/73/55 60/63/45
f 62/65/47 71/74/56 61/64/46
f 63/66/48 72/75/57 62/65/47
f 74/76/58 63/66/48 64/67/49
f 55/69/51 74/76/58 64/67/49
f 66/68/50 75/77/59 65/78/60
f 67/70/52 76/79/61 66/68/50
f 68/71/53 77/80/62 67/70/52
f 69/72/54 78/81/63 68/71/53
f 70/82/55 79/83/64 69/72/54
f 81/84/65 70/73/55 71/74/56
f 82/85/66 71/74/56 72/75/57
f 83/86/67 72/75/57 73/87/68
f 84/88/69 73/87/68 74/76/58
f 75/77/59 74/76/58 65/78/60
f 76/79/61 85/89/70 75/77/59
f 77/80/62 86/90/71 76/79/61
f 78/81/63 87/91/72 77/80/62
f 79/83/64 88/92/73 78/81/63
f 80/93/74 89/94/75 79/83/64
f 91/95/76 80/96/74 81/84/65
f 92/97/77 81/84/65 82/85/66
f 93/98/78 82/85/66 83/86/67
f 94/99/79 83/86/67 84/88/69
f 85/89/70 84/88/69 75/77/59
f 96/100/80 85/101/70 86/102/71
f 97/103/81 86/102/71 87/104/72
f 88/105/73 97/103/81 87/104/72
f 89/106/75 98/107/82 88/105/73
f 100/108/83 89/106/75 90/109/84
f 101/110/85 90/111/84 91/112/76
f 102/113/86 91/112/76 92/114/77
f 103/115/87 92/114/77 93/116/78
f 104/117/88 93/116/78 94/118/79
f 95/119/89 94/118/79 85/101/70
f 106/120/90 95/121/89 96/122/80
f 107/123/91 96/122/80 97/124/81
f 108/125/92 97/124/81 98/126/82
f 109/127/93 98/126/82 99/128/94
f 110/129/95 99/128/94 100/130/83
f 101/131/85 110/132/95 100/133/83
f 102/134/86 111/135/96 101/131/85
f 103/136/87 112/137/97 102/134/86
f 104/138/88 113/139/98 103/136/87
f 95/121/89 114/140/99 104/138/88
f 116/141/100 105/142/101 106/120/90
f 117/143/102 106/120/90 107/123/91
f 118/144/103 107/123/91 108/125/92
f 119/145/104 108/125/92 109/127/93
f 120/146/105 109/127/93 110/129/95
f 111/135/96 120/147/105 110/132/95
f 112/137/97 121/148/106 111/135/96
f 113/139/98 122/149/107 112/137/97
f 114/140/99 123/150/108 113/139/98
f 105/142/101 124/151/109 114/140/99
f 126/152/110 115/153/111 116/141/100
f 127/154/112 116/141/100 117/143/102
f 128/155/113 117/143/102 118/144/103
f 129/156/114 118/144/103 119/145/104
f 120/146/105 129/156/114 119/145/104
f 131/157/115 120/147/105 121/148/106
f 122/149/107 131/157/115 121/148/106
f 133/158/116 122/149/107 123/150/108
f 134/159/117 123/150/108 124/151/109
f 115/153/111 134/159/117 124/151/109
f 126/152/110 135/160/118 125/161/119
f 127/154/112 136/162/120 126/152/110
f 128/155/113 137/163/121 127/154/112
f 129/156/114 138/164/122 128/155/113
f 130/165/123 139/166/124 129/156/114
f 141/167/125 130/168/123 131/157/115
f 142/169/126 131/157/115 132/170/127
f 143/171/128 132/170/127 133/158/116
f 144/172/129 133/158/116 134/159/117
f 135/160/118 134/159/117 125/161/119
f 136/162/120 145/173/130 135/160/118
f 137/163/121 146/174/131 136/162/120
f 138/164/122 147/175/132 137/163/121
f 139/166/124 148/176/133 138/164/122
f 140/177/134 149/178/135 139/166/124
f 151/179/136 140/180/134 141/167/125
f 152/181/137 141/167/125 142/169/126
f 153/182/138 142/169/126 143/171/128
f 154/183/139 143/171/128 144/172/129
f 145/173/130 144/172/129 135/160/118
f 146/174/131 155/184/21 145/173/130
f 147/175/132 156/185/19 146/174/131
f 148/176/133 157/186/17 147/175/132
f 149/178/135 158/187/15 148/176/133
f 150/188/140 159/189/13 149/178/135
f 161/190/27 150/191/140 151/179/136
f 162/192/25 151/179/136 152/181/137
f 163/193/23 152/181/137 153/182/138
f 164/194/22 153/182/138 154/183/139
f 155/184/21 154/183/139 145/173/130
f 176/195/3 165/3/1 166/196/3
f 177/197/4 166/196/3 167/198/4
f 178/199/5 167/198/4 168/200/5
f 179/201/6 168/200/5 169/202/6
f 180/203/7 169/202/6 170/204/7
f 4/205/8 170/204/7 171/206/8
f 3/207/9 171/206/8 172/208/9
f 2/209/10 172/208/9 173/210/10
f 1/211/2 173/210/10 174/212/2
f 175/1/1 1/213/2 174/2/2
f 16/4/3 15/23/1 5/5/1
f 17/7/4 16/4/3 6/6/3
f 18/9/5 17/7/4 7/8/4
f 19/11/6 18/9/5 8/10/5
f 20/13/7 19/11/6 9/12/6
f 21/15/8 20/13/7 10/14/7
f 22/17/9 21/15/8 11/16/8
f 23/19/10 22/17/9 12/18/9
f 24/21/2 23/19/10 13/20/10
f 15/23/1 24/214/2 14/24/2
f 36/25/11 35/47/31 25/26/12
f 37/28/14 36/25/11 26/27/13
f 38/30/16 37/28/14 27/29/15
f 39/32/18 38/30/16 28/31/17
f 40/34/20 39/32/18 29/33/19
f 31/36/22 41/40/24 40/37/20
f 32/39/23 42/42/26 41/40/24
f 33/41/25 43/44/28 42/42/26
f 34/43/27 44/45/29 43/44/28
f 25/26/12 35/47/31 44/45/29
f 46/46/30 45/58/41 35/47/31
f 47/48/32 46/46/30 36/25/11
f 48/49/33 47/48/32 37/28/14
f 49/50/34 48/49/33 38/30/16
f 50/51/35 49/50/34 39/32/18
f 41/40/24 51/53/36 50/52/35
f 42/42/26 52/54/37 51/53/36
f 43/44/28 53/55/38 52/54/37
f 44/45/29 54/56/39 53/55/38
f 35/47/31 45/58/41 54/56/39
f 56/57/40 55/69/51 45/58/41
f 57/59/42 56/57/40 46/46/30
f 58/60/43 57/59/42 47/48/32
f 59/61/44 58/60/43 48/49/33
f 60/62/45 59/61/44 49/50/34
f 51/53/36 61/64/46 60/63/45
f 52/54/37 62/65/47 61/64/46
f 53/55/38 63/66/48 62/65/47
f 54/56/39 64/67/49 63/66/48
f 45/58/41 55/69/51 64/67/49
f 66/68/50 65/78/60 55/69/51
f 67/70/52 66/68/50 56/57/40
f 68/71/53 67/70/52 57/59/42
f 59/61/44 69/72/54 68/71/53
f 60/62/45 70/82/55 69/72/54
f 61/64/46 71/74/56 70/73/55
f 62/65/47 72/75/57 71/74/56
f 63/66/48 73/87/68 72/75/57
f 74/76/58 73/87/68 63/66/48
f 55/69/51 65/78/60 74/76/58
f 66/68/50 76/79/61 75/77/59
f 67/70/52 77/80/62 76/79/61
f 68/71/53 78/81/63 77/80/62
f 69/72/54 79/83/64 78/81/63
f 70/82/55 80/93/74 79/83/64
f 81/84/65 80/96/74 70/73/55
f 82/85/66 81/84/65 71/74/56
f 83/86/67 82/85/66 72/75/57
f 84/88/69 83/86/67 73/87/68
f 75/77/59 84/88/69 74/76/58
f 76/79/61 86/90/71 85/89/70
f 77/80/62 87/91/72 86/90/71
f 78/81/63 88/92/73 87/91/72
f 79/83/64 89/94/75 88/92/73
f 80/93/74 90/215/84 89/94/75
f 91/95/76 90/216/84 80/96/74
f 92/97/77 91/95/76 81/84/65
f 93/98/78 92/97/77 82/85/66
f 94/99/79 93/98/78 83/86/67
f 85/89/70 94/99/79 84/88/69
f 96/100/80 95/119/89 85/101/70
f 97/103/81 96/100/80 86/102/71
f 88/105/73 98/107/82 97/103/81
f 89/106/75 99/217/94 98/107/82
f 100/108/83 99/217/94 89/106/75
f 101/110/85 100/218/83 90/111/84
f 102/113/86 101/110/85 91/112/76
f 103/115/87 102/113/86 92/114/77
f 104/117/88 103/115/87 93/116/78
f 95/119/89 104/117/88 94/118/79
f 106/120/90 105/142/101 95/121/89
f 107/123/91 106/120/90 96/122/80
f 108/125/92 107/123/91 97/124/81
f 109/127/93 108/125/92 98/126/82
f 110/129/95 109/127/93 99/128/94
f 101/131/85 111/135/96 110/132/95
f 102/134/86 112/137/97 111/135/96
f 103/136/87 113/139/98 112/137/97
f 104/138/88 114/140/99 113/139/98
f 95/121/89 105/142/101 114/140/99
f 116/141/100 115/153/111 105/142/101
f 117/143/102 116/141/100 106/120/90
f 118/144/103 117/143/102 107/123/91
f 119/145/104 118/144/103 108/125/92
f 120/146/105 119/145/104 109/127/93
f 111/135/96 121/148/106 120/147/105
f 112/137/97 122/149/107 121/148/106
f 113/139/98 123/150/108 122/149/107
f 114/140/99 124/151/109 123/150/108
f 105/142/101 115/153/111 124/151/109
f 126/152/110 125/161/119 115/153/111
f 127/154/112 126/152/110 116/141/100
f 128/155/113 127/154/112 117/143/102
f 129/156/114 128/155/113 118/144/103
f 120/146/105 130/165/123 129/156/114
f 131/157/115 130/168/123 120/147/105
f 122/149/107 132/170/127 131/157/115
f 133/158/116 132/170/127 122/149/107
f 134/159/117 133/158/116 123/150/108
f 115/153/111 125/161/119 134/159/117
f 126/152/110 136/162/120 135/160/118
f 127/154/112 137/163/121 136/162/120
f 128/155/113 138/164/122 137/163/121
f 129/156/114 139/166/124 138/164/122
f 130/165/123 140/177/134 139/166/124
f 141/167/125 140/180/134 130/168/123
f 142/169/126 141/167/125 131/157/115
f 143/171/128 142/169/126 132/170/127
f 144/172/129 143/171/128 133/158/116
f 135/160/118 144/172/129 134/159/117
f 136/162/120 146/174/131 145/173/130
f 137/163/121 147/175/132 146/174/131
f 138/164/122 148/176/133 147/175/132
f 139/166/124 149/178/135 148/176/133
f 140/177/134 150/188/140 149/178/135
f 151/179/136 150/191/140 140/180/134
f 152/181/137 151/179/136 141/167/125
f 153/182/138 152/181/137 142/169/126
f 154/183/139 153/182/138 143/171/128
f 145/173/130 154/183/139 144/172/129
f 146/174/131 156/185/19 155/184/21
f 147/175/132 157/186/17 156/185/19
f 148/176/133 158/187/15 157/186/17
f 149/178/135 159/189/13 158/187/15
f 150/188/140 160/219/12 159/189/13
f 161/190/27 160/220/12 150/191/140
f 162/192/25 161/190/27 151/179/136
f 163/193/23 162/192/25 152/181/137
f 164/194/22 163/193/23 153/182/138
f 155/184/21 164/194/22 154/183/139
f 176/195/3 175/1/1 165/3/1
f 177/197/4 176/195/3 166/196/3
f 178/199/5 177/197/4 167/198/4
f 179/201/6 178/199/5 168/200/5
f 180/203/7 179/201/6 169/202/6
f 4/205/8 180/203/7 170/204/7
f 3/207/9 4/205/8 171/206/8
f 2/209/10 3/207/9 172/208/9
f 1/211/2 2/209/10 173/210/10
