# Blender 4.5.3 LTS
# www.blender.org
mtllib lowpoly15.mtl
o 立方体.009
v -11.632662 24.898771 -0.000004
v -11.126676 24.392784 75.394493
v 11.527431 24.898771 -0.000004
v 11.021445 24.392784 75.394493
v 11.527431 -11.632639 -0.000004
v 11.021445 -11.126653 75.394493
v -0.964331 -11.632639 -0.000004
v -11.632662 -0.964307 -0.000004
v -11.126676 -0.754721 75.394493
v -0.754744 -11.126653 75.394493
v -11.632662 24.898771 75.394493
v 11.527431 24.898771 75.394493
v 11.527431 -11.632639 75.394493
v -0.964330 -11.632639 75.394493
v -11.632662 -0.964308 75.394493
v -11.126676 24.392784 74.116676
v 11.021445 24.392784 74.116676
v 11.021445 -11.126653 74.116676
v -0.754744 -11.126653 74.116676
v -11.126676 -0.754721 74.116676
v -3.450976 23.557840 73.201836
v -2.825288 22.932150 77.306808
v 9.693130 23.557840 73.201836
v 9.067440 22.932150 77.306808
v -3.450976 -6.311524 73.201836
v -2.825288 -5.685836 77.306808
v 9.693130 -6.311524 73.201836
v 9.067440 -5.685836 77.306808
v -3.450976 23.557840 77.306808
v 9.693130 23.557840 77.306808
v 9.693130 -6.311524 77.306808
v -3.450976 -6.311524 77.306808
v -2.825288 22.932150 76.541809
v 9.067440 22.932150 76.541809
v 9.067440 -5.685836 76.541809
v -2.825288 -5.685836 76.541809
v -11.632662 24.898771 37.697247
v 11.527431 24.898771 37.697243
v 11.527431 -11.632639 37.697243
v -11.632662 -0.964307 37.697243
v -0.964330 -11.632639 37.697247
v -8.201852 10.231575 74.030624
v -7.565718 8.754876 75.386566
v -4.191743 10.231575 74.030624
v -4.827877 8.754876 75.386566
v -8.201852 0.922665 74.030624
v -7.565718 2.399360 75.386566
v -4.191743 0.922665 74.030624
v -4.827877 2.399360 75.386566
v -1.726604 21.089170 76.324623
v -0.155379 20.368298 77.861206
v 8.178198 21.089170 76.324623
v 6.606972 20.368298 77.861206
v -1.726604 16.544868 76.324623
v -0.155379 17.265743 77.861206
v 8.178198 16.544868 76.324623
v 6.606972 17.265743 77.861206
v -8.201852 10.231575 75.386566
v -4.191743 10.231575 75.386566
v -4.191743 0.922665 75.386566
v -8.201852 0.922665 75.386566
v -1.726604 21.089170 77.861206
v 8.178198 21.089170 77.861206
v 8.178198 16.544868 77.861206
v -1.726604 16.544868 77.861206
v -7.565718 8.754876 75.846947
v -4.827877 8.754876 75.846947
v -4.827877 2.399360 75.846947
v -7.565718 2.399360 75.846947
v -0.155379 20.368298 78.382912
v 6.606972 20.368298 78.382912
v 6.606972 17.265743 78.382912
v -0.155379 17.265743 78.382912
v 3.909225 -0.389030 79.897858
v 3.909225 -0.389030 75.517944
v -1.597155 -0.389030 79.897858
v -1.597155 -0.389030 75.517944
v 3.909225 18.144060 79.897858
v 3.909225 18.144060 75.517944
v -1.597155 18.144060 79.897858
v -1.597155 18.144060 75.517944
v 7.873789 8.725000 79.017776
v 7.873789 10.978251 79.017776
v 5.453033 10.978251 79.017776
v 5.453033 8.725000 79.017776
v 7.873789 8.725000 78.751213
v 7.873789 10.978251 78.751213
v 5.453033 10.978251 78.751213
v 5.453033 8.725000 78.751213
v 8.176813 11.260305 78.751213
v 8.176813 11.260305 76.499710
v 8.176813 8.442945 78.751213
v 8.176813 8.442945 76.499710
v 5.150010 11.260305 78.751213
v 5.150010 11.260305 76.499710
v 5.150010 8.442945 78.751213
v 5.150010 8.442945 76.499710
v 5.150010 12.025700 76.499710
v 5.150010 12.025700 78.751213
v 5.150010 14.843060 76.499710
v 5.150010 14.843060 78.751213
v 8.176813 12.025700 76.499710
v 8.176813 12.025700 78.751213
v 8.176813 14.843060 76.499710
v 8.176813 14.843060 78.751213
v 5.453033 12.307755 78.751213
v 5.453033 14.561006 78.751213
v 7.873789 14.561006 78.751213
v 7.873789 12.307755 78.751213
v 5.453033 12.307755 79.017776
v 5.453033 14.561006 79.017776
v 7.873789 14.561006 79.017776
v 7.873789 12.307755 79.017776
v 7.873789 5.142246 79.017776
v 7.873789 7.395497 79.017776
v 5.453033 7.395497 79.017776
v 5.453033 5.142246 79.017776
v 7.873789 5.142246 78.751213
v 7.873789 7.395497 78.751213
v 5.453033 7.395497 78.751213
v 5.453033 5.142246 78.751213
v 8.176813 7.677551 78.751213
v 8.176813 7.677551 76.499710
v 8.176813 4.860191 78.751213
v 8.176813 4.860191 76.499710
v 5.150010 7.677551 78.751213
v 5.150010 7.677551 76.499710
v 5.150010 4.860191 78.751213
v 5.150010 4.860191 76.499710
v -3.476299 24.244875 73.785355
v -3.476299 24.244875 74.573334
v -3.476299 5.399915 73.785355
v -3.476299 5.399915 74.573334
v -8.953301 24.244875 73.785355
v -8.953301 24.244875 74.573334
v -8.953301 5.399915 73.785355
v -8.953301 5.399915 74.573334
vn -0.0000 1.0000 -0.0000
vn 1.0000 -0.0000 -0.0000
vn -1.0000 -0.0000 -0.0000
vn -0.0000 -1.0000 -0.0000
vn -0.7071 -0.7071 -0.0000
vn -0.0000 -0.0000 -1.0000
vn -0.0000 -0.0000 1.0000
vn 0.7071 0.7071 -0.0000
vt 0.215889 0.834596
vt 0.215889 0.971572
vt 0.285267 0.971572
vt 0.285267 0.834596
vt 0.174522 0.834596
vt 0.174522 0.971572
vt 0.283954 0.971572
vt 0.283954 0.834596
vt 0.206194 0.834596
vt 0.206194 0.971572
vt 0.283669 0.971572
vt 0.283669 0.834596
vt 0.400223 0.050635
vt 0.450114 0.050635
vt 0.183752 0.834596
vt 0.183752 0.971572
vt 0.146331 0.971572
vt 0.146331 0.834596
vt 0.246853 0.915582
vt 0.246853 0.768955
vt 0.278811 0.768955
vt 0.278811 0.915582
vt 0.125000 0.500000
vt 0.375000 0.500000
vt 0.375000 0.634841
vt 0.259841 0.750000
vt 0.125000 0.750000
vt 0.400223 0.105953
vt 0.399219 0.107216
vt 0.399219 0.049371
vt 0.470691 0.105953
vt 0.471695 0.107216
vt 0.470691 0.076540
vt 0.450530 0.049371
vt 0.471695 0.076017
vt 0.206099 0.971824
vt 0.206099 0.981789
vt 0.250119 0.981789
vt 0.250119 0.971824
vt 0.178092 0.971824
vt 0.178092 0.981789
vt 0.278126 0.981789
vt 0.278126 0.971824
vt 0.375000 0.750000
vt 0.142046 0.128186
vt 0.142046 0.087195
vt 0.140686 0.130342
vt 0.140686 0.085038
vt 0.204281 0.128186
vt 0.205641 0.130342
vt 0.204281 0.087195
vt 0.205641 0.085038
vt 0.246853 0.971572
vt 0.246853 0.834596
vt 0.278811 0.834596
vt 0.278811 0.971572
vt 0.183752 0.768955
vt 0.183752 0.915582
vt 0.146331 0.915582
vt 0.146331 0.768955
vt 0.206194 0.768955
vt 0.206194 0.915582
vt 0.283669 0.915582
vt 0.283669 0.768955
vt 0.174522 0.768955
vt 0.174522 0.915582
vt 0.283954 0.915582
vt 0.283954 0.768955
vt 0.215889 0.768955
vt 0.215889 0.915582
vt 0.285267 0.915582
vt 0.285267 0.768955
vt 0.391102 0.175202
vt 0.401166 0.175202
vt 0.401166 0.110760
vt 0.391102 0.110760
vt 0.413001 0.175202
vt 0.423066 0.175202
vt 0.423066 0.110760
vt 0.413001 0.110760
vt 0.401202 0.110760
vt 0.411266 0.110760
vt 0.411266 0.175202
vt 0.401202 0.175202
vt 0.423101 0.110760
vt 0.433165 0.110760
vt 0.433165 0.175202
vt 0.423101 0.175202
vt 0.413262 0.168878
vt 0.413262 0.119578
vt 0.374102 0.119578
vt 0.374102 0.168878
vt 0.477506 0.167814
vt 0.477506 0.131985
vt 0.482292 0.131985
vt 0.482292 0.167814
vt 0.384576 0.165578
vt 0.459211 0.165578
vt 0.476552 0.175958
vt 0.367234 0.175958
vt 0.459211 0.120902
vt 0.476552 0.110522
vt 0.384576 0.120902
vt 0.367234 0.110522
vt 0.420638 0.050749
vt 0.420638 0.110681
vt 0.369938 0.110681
vt 0.369938 0.050749
vt 0.420638 0.177690
vt 0.420638 0.237622
vt 0.369938 0.237622
vt 0.369938 0.177690
vt 0.477506 0.228747
vt 0.477506 0.192918
vt 0.482292 0.192918
vt 0.482292 0.228747
vt 0.477506 0.162452
vt 0.477506 0.198281
vt 0.482292 0.198281
vt 0.482292 0.162452
vt 0.477506 0.162452
vt 0.482292 0.162452
vt 0.349317 0.074839
vt 0.349317 0.248440
vt 0.275017 0.248440
vt 0.275017 0.074839
vt 0.273869 0.074839
vt 0.350464 0.074839
vt 0.350464 0.248440
vt 0.273870 0.248440
vt 0.276567 0.050843
vt 0.347767 0.050843
vt 0.347767 0.112980
vt 0.276567 0.112980
vt 0.275288 0.248440
vt 0.349045 0.248440
vt 0.349045 0.074839
vt 0.275288 0.074839
vt 0.282617 0.187429
vt 0.341717 0.187429
vt 0.341717 0.135850
vt 0.282617 0.135850
vt 0.290799 0.143249
vt 0.339062 0.143249
vt 0.103240 0.185864
vt 0.103240 0.236381
vt 0.100600 0.231324
vt 0.100600 0.190921
vt 0.275717 0.119990
vt 0.349162 0.119990
vt 0.351653 0.143249
vt 0.278208 0.143249
vt 0.324116 0.119729
vt 0.275853 0.119729
vt 0.274340 0.198923
vt 0.350195 0.198923
vt 0.350195 0.249007
vt 0.274340 0.249007
vt 0.349162 0.054798
vt 0.275717 0.054798
vt 0.076871 0.185864
vt 0.079511 0.190921
vt 0.076871 0.236381
vt 0.079511 0.231324
vt 0.275853 0.054537
vt 0.324116 0.054537
vt 0.339062 0.078057
vt 0.290799 0.078057
vt 0.278208 0.078057
vt 0.351653 0.078057
vt 0.431235 0.243300
vt 0.437902 0.243300
vt 0.437902 0.042572
vt 0.431235 0.042572
vt 0.368758 0.138739
vt 0.368758 0.147133
vt 0.415098 0.147133
vt 0.415098 0.138739
vt 0.368758 0.243300
vt 0.415098 0.243300
vt 0.415098 0.042572
vt 0.368758 0.042572
s 0
usemtl 1
f 37/1/1 11/2/1 12/3/1 38/4/1
f 38/5/2 12/6/2 13/7/2 39/8/2
f 40/9/3 15/10/3 11/11/3 37/12/3
f 2/13/2 9/14/2 20/14/2 16/13/2
f 39/15/4 13/16/4 14/17/4 41/18/4
f 40/19/5 8/20/5 7/21/5 41/22/5
f 3/23/6 5/24/6 7/25/6 8/26/6 1/27/6
f 2/13/7 4/28/7 12/29/7 11/30/7
f 4/28/7 6/31/7 13/32/7 12/29/7
f 10/33/7 9/14/7 15/34/7 14/35/7
f 6/31/7 10/33/7 14/35/7 13/32/7
f 9/14/7 2/13/7 11/30/7 15/34/7
f 18/31/7 17/28/7 16/13/7 20/14/7 19/33/7
f 9/14/8 10/33/8 19/33/8 20/14/8
f 4/28/4 2/13/4 16/13/4 17/28/4
f 10/33/1 6/31/1 18/31/1 19/33/1
f 6/31/3 4/28/3 17/28/3 18/31/3
f 21/36/1 29/37/1 30/38/1 23/39/1
f 23/40/2 30/41/2 31/42/2 27/43/2
f 27/39/4 31/38/4 32/37/4 25/36/4
f 25/43/3 32/42/3 29/41/3 21/40/3
f 23/23/6 27/24/6 25/44/6 21/27/6
f 24/45/4 22/46/4 33/46/4 34/45/4
f 22/46/7 24/45/7 30/47/7 29/48/7
f 24/45/7 28/49/7 31/50/7 30/47/7
f 28/49/7 26/51/7 32/52/7 31/50/7
f 26/51/7 22/46/7 29/48/7 32/52/7
f 35/49/7 34/45/7 33/46/7 36/51/7
f 22/46/2 26/51/2 36/51/2 33/46/2
f 28/49/3 24/45/3 34/45/3 35/49/3
f 26/51/1 28/49/1 35/49/1 36/51/1
f 15/53/5 40/54/5 41/55/5 14/56/5
f 5/57/4 39/58/4 41/59/4 7/60/4
f 8/61/3 40/62/3 37/63/3 1/64/3
f 3/65/2 38/66/2 39/67/2 5/68/2
f 1/69/1 37/70/1 38/71/1 3/72/1
f 42/73/1 58/74/1 59/75/1 44/76/1
f 44/77/2 59/78/2 60/79/2 48/80/2
f 48/81/4 60/82/4 61/83/4 46/84/4
f 46/85/3 61/86/3 58/87/3 42/88/3
f 44/89/6 48/90/6 46/91/6 42/92/6
f 57/93/2 53/94/2 71/95/2 72/96/2
f 50/73/1 62/74/1 63/75/1 52/76/1
f 52/77/2 63/78/2 64/79/2 56/80/2
f 56/81/4 64/82/4 65/83/4 54/84/4
f 54/85/3 65/86/3 62/87/3 50/88/3
f 52/89/6 56/90/6 54/91/6 50/92/6
f 51/94/3 55/93/3 73/96/3 70/95/3
f 43/97/7 45/98/7 59/99/7 58/100/7
f 45/98/7 49/101/7 60/102/7 59/99/7
f 49/101/7 47/103/7 61/104/7 60/102/7
f 47/103/7 43/97/7 58/100/7 61/104/7
f 51/97/7 53/98/7 63/99/7 62/100/7
f 53/98/7 57/101/7 64/102/7 63/99/7
f 57/101/7 55/103/7 65/104/7 64/102/7
f 55/103/7 51/97/7 62/100/7 65/104/7
f 68/105/7 67/106/7 66/107/7 69/108/7
f 72/109/7 71/110/7 70/111/7 73/112/7
f 43/113/3 47/114/3 69/115/3 66/116/3
f 49/114/2 45/113/2 67/116/2 68/115/2
f 55/117/4 57/118/4 72/119/4 73/120/4
f 53/118/1 51/117/1 70/120/1 71/119/1
f 47/118/4 49/121/4 68/122/4 69/119/4
f 45/121/1 43/118/1 66/119/1 67/122/1
f 74/123/7 78/124/7 80/125/7 76/126/7
f 79/124/6 75/123/6 77/126/6 81/125/6
f 77/127/3 76/128/3 80/129/3 81/130/3
f 75/131/4 74/132/4 76/133/4 77/134/4
f 79/135/2 78/136/2 74/137/2 75/138/2
f 81/139/1 80/140/1 78/141/1 79/142/1
f 86/143/2 87/144/2 83/144/2 82/143/2
f 90/145/7 94/146/7 88/147/7 87/148/7
f 89/149/4 86/150/4 82/150/4 85/149/4
f 87/151/1 88/152/1 84/152/1 83/151/1
f 88/153/3 89/154/3 85/154/3 84/153/3
f 83/155/7 84/156/7 85/157/7 82/158/7
f 93/159/4 92/150/4 96/149/4 97/160/4
f 92/161/7 90/145/7 87/148/7 86/162/7
f 96/163/7 92/161/7 86/162/7 89/164/7
f 94/146/7 96/163/7 89/164/7 88/147/7
f 97/165/3 96/154/3 94/153/3 95/166/3
f 91/167/2 90/144/2 92/143/2 93/168/2
f 95/169/1 94/152/1 90/151/1 91/170/1
f 95/156/6 91/155/6 93/158/6 97/157/6
f 98/165/3 99/154/3 101/153/3 100/166/3
f 100/169/1 101/152/1 105/151/1 104/170/1
f 104/167/2 105/144/2 103/143/2 102/168/2
f 102/159/4 103/150/4 99/149/4 98/160/4
f 100/156/6 104/155/6 102/158/6 98/157/6
f 101/146/7 99/163/7 106/164/7 107/147/7
f 106/149/4 109/150/4 113/150/4 110/149/4
f 99/163/7 103/161/7 109/162/7 106/164/7
f 105/145/7 101/146/7 107/147/7 108/148/7
f 103/161/7 105/145/7 108/148/7 109/162/7
f 112/155/7 111/156/7 110/157/7 113/158/7
f 108/151/1 107/152/1 111/152/1 112/151/1
f 109/143/2 108/144/2 112/144/2 113/143/2
f 107/153/3 106/154/3 110/154/3 111/153/3
f 118/143/2 119/144/2 115/144/2 114/143/2
f 122/145/7 126/146/7 120/147/7 119/148/7
f 121/149/4 118/150/4 114/150/4 117/149/4
f 119/151/1 120/152/1 116/152/1 115/151/1
f 120/153/3 121/154/3 117/154/3 116/153/3
f 115/155/7 116/156/7 117/157/7 114/158/7
f 125/159/4 124/150/4 128/149/4 129/160/4
f 124/161/7 122/145/7 119/148/7 118/162/7
f 128/163/7 124/161/7 118/162/7 121/164/7
f 126/146/7 128/163/7 121/164/7 120/147/7
f 129/165/3 128/154/3 126/153/3 127/166/3
f 123/167/2 122/144/2 124/143/2 125/168/2
f 127/169/1 126/152/1 122/151/1 123/170/1
f 127/156/6 123/155/6 125/158/6 129/157/6
f 130/171/2 131/172/2 133/173/2 132/174/2
f 132/175/4 133/176/4 137/177/4 136/178/4
f 136/174/3 137/173/3 135/172/3 134/171/3
f 134/178/1 135/177/1 131/176/1 130/175/1
f 132/179/6 136/180/6 134/181/6 130/182/6
f 137/180/7 133/179/7 131/182/7 135/181/7
