# Blender 4.5.3 LTS
# www.blender.org
mtllib lowpoly8.mtl
o 立方体.015
v -7.599641 -7.599642 0.000000
v -7.020522 -7.020523 23.622736
v -7.599642 7.599641 0.000000
v -7.020523 7.020522 23.622736
v 7.599642 -7.599641 0.000000
v 7.020523 -7.020522 23.622736
v 7.599641 7.599642 0.000000
v 7.020522 7.020523 23.622736
v -7.599641 -7.599642 23.622736
v -7.599642 7.599641 23.622736
v 7.599641 7.599642 23.622736
v 7.599642 -7.599641 23.622736
v -7.020522 -7.020523 22.435865
v -7.020523 7.020522 22.435865
v 7.020522 7.020523 22.435865
v 7.020523 -7.020522 22.435865
v 24.559120 -7.599621 14.536139
v 23.980003 -7.020502 38.158875
v 9.359837 -7.599621 14.536139
v 9.938955 -7.020503 38.158875
v 24.559120 7.599663 14.536139
v 23.980003 7.020542 38.158875
v 9.359837 7.599662 14.536139
v 9.938955 7.020542 38.158875
v 24.559120 -7.599621 38.158875
v 9.359837 -7.599621 38.158875
v 9.359837 7.599662 38.158875
v 24.559120 7.599663 38.158875
v 23.980003 -7.020502 36.972004
v 9.938955 -7.020503 36.972004
v 9.938955 7.020542 36.972004
v 23.980003 7.020542 36.972004
v 24.559120 -7.599621 -0.047424
v 9.359837 -7.599621 -0.047424
v 24.559120 7.599663 -0.047424
v 9.359837 7.599662 -0.047424
v 17.779955 4.991062 36.617920
v 18.642921 3.429540 38.457363
v 23.219994 4.991062 36.617920
v 22.357025 3.429540 38.457363
v 17.779953 -4.852560 36.617920
v 18.642921 -3.291042 38.457363
v 23.219994 -4.852560 36.617920
v 22.357025 -3.291042 38.457363
v 6.666366 5.930308 22.342583
v 5.871139 4.197023 24.037653
v 6.666365 -4.996099 22.342583
v 5.871139 -3.262814 24.037653
v 1.653352 5.930307 22.342583
v 2.448580 4.197023 24.037653
v 1.653352 -4.996100 22.342583
v 2.448580 -3.262815 24.037653
v 17.779955 4.991062 38.457363
v 23.219994 4.991062 38.457363
v 23.219994 -4.852560 38.457363
v 17.779953 -4.852560 38.457363
v 6.666366 5.930308 24.037653
v 6.666365 -4.996099 24.037653
v 1.653352 -4.996100 24.037653
v 1.653352 5.930307 24.037653
v 18.642921 3.429540 39.081909
v 22.357025 3.429540 39.081909
v 22.357025 -3.291042 39.081909
v 18.642921 -3.291042 39.081909
v 5.871139 4.197023 24.613174
v 5.871139 -3.262814 24.613174
v 2.448580 -3.262815 24.613174
v 2.448580 4.197023 24.613174
v 15.314793 -0.976750 39.615379
v 15.314793 1.147615 39.615379
v 12.030838 1.147615 39.615379
v 12.030838 -0.976750 39.615379
v 15.314793 -0.976750 39.328350
v 15.314793 1.147615 39.328350
v 12.030838 1.147615 39.328350
v 12.030838 -0.976750 39.328350
v 15.725868 1.413535 39.328350
v 15.725868 1.413535 36.903931
v 15.725868 -1.242671 39.328350
v 15.725868 -1.242671 36.903931
v 11.619761 1.413535 39.328350
v 11.619761 1.413535 36.903931
v 11.619761 -1.242671 39.328350
v 11.619761 -1.242671 36.903931
v 11.619761 2.135150 36.903931
v 11.619761 2.135150 39.328350
v 11.619761 4.791356 36.903931
v 11.619761 4.791356 39.328350
v 15.725868 2.135150 36.903931
v 15.725868 2.135150 39.328350
v 15.725868 4.791356 36.903931
v 15.725868 4.791356 39.328350
v 12.030838 2.401071 39.328350
v 12.030838 4.525436 39.328350
v 15.314793 4.525436 39.328350
v 15.314793 2.401072 39.328350
v 12.030838 2.401071 39.615379
v 12.030838 4.525436 39.615379
v 15.314793 4.525436 39.615379
v 15.314793 2.401072 39.615379
v 15.314792 -4.354572 39.615379
v 15.314792 -2.230206 39.615379
v 12.030838 -2.230206 39.615379
v 12.030838 -4.354572 39.615379
v 15.314792 -4.354572 39.328350
v 15.314792 -2.230206 39.328350
v 12.030838 -2.230206 39.328350
v 12.030838 -4.354572 39.328350
v 15.725868 -1.964285 39.328350
v 15.725868 -1.964285 36.903931
v 15.725868 -4.620493 39.328350
v 15.725868 -4.620493 36.903931
v 11.619761 -1.964286 39.328350
v 11.619761 -1.964286 36.903931
v 11.619761 -4.620493 39.328350
v 11.619761 -4.620493 36.903931
v -7.107667 7.184939 22.266020
v -7.107667 7.184939 22.873165
v 7.412474 7.184940 22.266020
v 7.412474 7.184940 22.873165
v -7.107667 2.019478 22.266020
v -7.107667 2.019478 22.873165
v 7.412475 2.019478 22.266020
v 7.412475 2.019478 22.873165
vn -1.0000 -0.0000 -0.0000
vn -0.0000 1.0000 -0.0000
vn 1.0000 -0.0000 -0.0000
vn -0.0000 -1.0000 -0.0000
vn -0.0000 -0.0000 -1.0000
vn -0.0000 -0.0000 1.0000
vt 0.017052 0.769707
vt 0.017052 0.982142
vt 0.130173 0.982142
vt 0.130173 0.769707
vt 0.125000 0.500000
vt 0.375000 0.500000
vt 0.375000 0.750000
vt 0.125000 0.750000
vt 0.090258 0.191461
vt 0.090258 0.092842
vt 0.083636 0.092842
vt 0.083636 0.191461
vt 0.186995 0.083264
vt 0.186995 0.047366
vt 0.188475 0.045886
vt 0.188475 0.084744
vt 0.151097 0.047366
vt 0.149617 0.045886
vt 0.151097 0.083264
vt 0.149617 0.084744
vt 0.130173 0.934662
vt 0.017052 0.934662
vt 0.017052 0.800167
vt 0.130173 0.800167
vt 0.391102 0.175202
vt 0.401166 0.175202
vt 0.401166 0.110760
vt 0.391102 0.110760
vt 0.413001 0.175202
vt 0.423066 0.175202
vt 0.423066 0.110760
vt 0.413001 0.110760
vt 0.401202 0.110760
vt 0.411266 0.110760
vt 0.411266 0.175202
vt 0.401202 0.175202
vt 0.423101 0.110760
vt 0.433165 0.110760
vt 0.433165 0.175202
vt 0.423101 0.175202
vt 0.413262 0.168878
vt 0.413262 0.119578
vt 0.374102 0.119578
vt 0.374102 0.168878
vt 0.477506 0.167814
vt 0.477506 0.131985
vt 0.482292 0.131985
vt 0.482292 0.167814
vt 0.384576 0.165578
vt 0.459211 0.165578
vt 0.476552 0.175958
vt 0.367234 0.175958
vt 0.459211 0.120902
vt 0.476552 0.110522
vt 0.384576 0.120902
vt 0.367234 0.110522
vt 0.420638 0.050749
vt 0.420638 0.110681
vt 0.369938 0.110681
vt 0.369938 0.050749
vt 0.420638 0.177690
vt 0.420638 0.237622
vt 0.369938 0.237622
vt 0.369938 0.177690
vt 0.477506 0.228747
vt 0.477506 0.192918
vt 0.482292 0.192918
vt 0.482292 0.228747
vt 0.477506 0.162452
vt 0.477506 0.198281
vt 0.482292 0.198281
vt 0.482292 0.162452
vt 0.477506 0.162452
vt 0.482292 0.162452
vt 0.290799 0.143249
vt 0.339062 0.143249
vt 0.103240 0.185864
vt 0.103240 0.236381
vt 0.100600 0.231324
vt 0.100600 0.190921
vt 0.275717 0.119990
vt 0.349162 0.119990
vt 0.351653 0.143249
vt 0.278208 0.143249
vt 0.324116 0.119729
vt 0.275853 0.119729
vt 0.274340 0.198923
vt 0.350195 0.198923
vt 0.350195 0.249007
vt 0.274340 0.249007
vt 0.349162 0.054798
vt 0.275717 0.054798
vt 0.076871 0.185864
vt 0.079511 0.190921
vt 0.076871 0.236381
vt 0.079511 0.231324
vt 0.275853 0.054537
vt 0.324116 0.054537
vt 0.339062 0.078057
vt 0.290799 0.078057
vt 0.278208 0.078057
vt 0.351653 0.078057
vt 0.431235 0.243300
vt 0.437902 0.243300
vt 0.437902 0.042572
vt 0.431235 0.042572
vt 0.368758 0.138739
vt 0.368758 0.147133
vt 0.415098 0.147133
vt 0.415098 0.138739
vt 0.368758 0.243300
vt 0.415098 0.243300
vt 0.415098 0.042572
vt 0.368758 0.042572
s 0
usemtl 1
f 1/1/1 9/2/1 10/3/1 3/4/1
f 3/4/2 10/3/2 11/2/2 7/1/2
f 7/1/3 11/2/3 12/3/3 5/4/3
f 5/4/4 12/3/4 9/2/4 1/1/4
f 3/5/5 7/6/5 5/7/5 1/8/5
f 6/9/1 8/10/1 15/11/1 16/12/1
f 2/13/6 4/14/6 10/15/6 9/16/6
f 4/14/6 8/17/6 11/18/6 10/15/6
f 8/17/6 6/19/6 12/20/6 11/18/6
f 6/19/6 2/13/6 9/16/6 12/20/6
f 15/17/6 14/14/6 13/13/6 16/19/6
f 4/10/3 2/9/3 13/12/3 14/11/3
f 2/9/2 6/10/2 16/11/2 13/12/2
f 8/10/4 4/9/4 14/12/4 15/11/4
f 17/1/4 25/2/4 26/3/4 19/4/4
f 19/4/1 26/3/1 27/2/1 23/1/1
f 23/1/2 27/2/2 28/3/2 21/4/2
f 21/4/3 28/3/3 25/2/3 17/1/3
f 19/21/1 23/22/1 36/23/1 34/24/1
f 22/9/4 24/10/4 31/11/4 32/12/4
f 18/13/6 20/14/6 26/15/6 25/16/6
f 20/14/6 24/17/6 27/18/6 26/15/6
f 24/17/6 22/19/6 28/20/6 27/18/6
f 22/19/6 18/13/6 25/16/6 28/20/6
f 31/17/6 30/14/6 29/13/6 32/19/6
f 20/10/2 18/9/2 29/12/2 30/11/2
f 18/9/1 22/10/1 32/11/1 29/12/1
f 24/10/3 20/9/3 30/12/3 31/11/3
f 34/5/5 36/6/5 35/7/5 33/8/5
f 17/22/4 19/21/4 34/24/4 33/23/4
f 23/22/2 21/21/2 35/24/2 36/23/2
f 21/21/3 17/22/3 33/23/3 35/24/3
f 37/25/2 53/26/2 54/27/2 39/28/2
f 39/29/3 54/30/3 55/31/3 43/32/3
f 43/33/4 55/34/4 56/35/4 41/36/4
f 41/37/1 56/38/1 53/39/1 37/40/1
f 39/41/5 43/42/5 41/43/5 37/44/5
f 52/45/4 48/46/4 66/47/4 67/48/4
f 45/25/3 57/26/3 58/27/3 47/28/3
f 47/29/4 58/30/4 59/31/4 51/32/4
f 51/33/1 59/34/1 60/35/1 49/36/1
f 49/37/2 60/38/2 57/39/2 45/40/2
f 47/41/5 51/42/5 49/43/5 45/44/5
f 46/46/2 50/45/2 68/48/2 65/47/2
f 38/49/6 40/50/6 54/51/6 53/52/6
f 40/50/6 44/53/6 55/54/6 54/51/6
f 44/53/6 42/55/6 56/56/6 55/54/6
f 42/55/6 38/49/6 53/52/6 56/56/6
f 46/49/6 48/50/6 58/51/6 57/52/6
f 48/50/6 52/53/6 59/54/6 58/51/6
f 52/53/6 50/55/6 60/56/6 59/54/6
f 50/55/6 46/49/6 57/52/6 60/56/6
f 63/57/6 62/58/6 61/59/6 64/60/6
f 67/61/6 66/62/6 65/63/6 68/64/6
f 38/65/1 42/66/1 64/67/1 61/68/1
f 44/66/3 40/65/3 62/68/3 63/67/3
f 50/69/1 52/70/1 67/71/1 68/72/1
f 48/70/3 46/69/3 65/72/3 66/71/3
f 42/70/4 44/73/4 63/74/4 64/71/4
f 40/73/2 38/70/2 61/71/2 62/74/2
f 73/75/3 74/76/3 70/76/3 69/75/3
f 77/77/6 81/78/6 75/79/6 74/80/6
f 76/81/4 73/82/4 69/82/4 72/81/4
f 74/83/2 75/84/2 71/84/2 70/83/2
f 75/85/1 76/86/1 72/86/1 71/85/1
f 70/87/6 71/88/6 72/89/6 69/90/6
f 80/91/4 79/82/4 83/81/4 84/92/4
f 79/93/6 77/77/6 74/80/6 73/94/6
f 83/95/6 79/93/6 73/94/6 76/96/6
f 81/78/6 83/95/6 76/96/6 75/79/6
f 84/97/1 83/86/1 81/85/1 82/98/1
f 78/99/3 77/76/3 79/75/3 80/100/3
f 82/101/2 81/84/2 77/83/2 78/102/2
f 82/88/5 78/87/5 80/90/5 84/89/5
f 85/97/1 86/86/1 88/85/1 87/98/1
f 87/101/2 88/84/2 92/83/2 91/102/2
f 91/99/3 92/76/3 90/75/3 89/100/3
f 89/91/4 90/82/4 86/81/4 85/92/4
f 87/88/5 91/87/5 89/90/5 85/89/5
f 88/78/6 86/95/6 93/96/6 94/79/6
f 93/81/4 96/82/4 100/82/4 97/81/4
f 86/95/6 90/93/6 96/94/6 93/96/6
f 92/77/6 88/78/6 94/79/6 95/80/6
f 90/93/6 92/77/6 95/80/6 96/94/6
f 99/87/6 98/88/6 97/89/6 100/90/6
f 95/83/2 94/84/2 98/84/2 99/83/2
f 96/75/3 95/76/3 99/76/3 100/75/3
f 94/85/1 93/86/1 97/86/1 98/85/1
f 105/75/3 106/76/3 102/76/3 101/75/3
f 109/77/6 113/78/6 107/79/6 106/80/6
f 108/81/4 105/82/4 101/82/4 104/81/4
f 106/83/2 107/84/2 103/84/2 102/83/2
f 107/85/1 108/86/1 104/86/1 103/85/1
f 102/87/6 103/88/6 104/89/6 101/90/6
f 112/91/4 111/82/4 115/81/4 116/92/4
f 111/93/6 109/77/6 106/80/6 105/94/6
f 115/95/6 111/93/6 105/94/6 108/96/6
f 113/78/6 115/95/6 108/96/6 107/79/6
f 116/97/1 115/86/1 113/85/1 114/98/1
f 110/99/3 109/76/3 111/75/3 112/100/3
f 114/101/2 113/84/2 109/83/2 110/102/2
f 114/88/5 110/87/5 112/90/5 116/89/5
f 117/103/2 118/104/2 120/105/2 119/106/2
f 119/107/3 120/108/3 124/109/3 123/110/3
f 123/106/4 124/105/4 122/104/4 121/103/4
f 121/110/1 122/109/1 118/108/1 117/107/1
f 119/111/5 123/112/5 121/113/5 117/114/5
f 124/112/6 120/111/6 118/114/6 122/113/6
