# Blender 4.5.3 LTS
# www.blender.org
mtllib lowpoly2.mtl
o 立方体.019
v 10.075272 -10.075266 0.000000
v 9.445751 -9.445745 40.708973
v -10.075266 -10.075272 0.000000
v -9.445745 -9.445751 40.708973
v 10.075266 10.075272 0.000000
v 9.445745 9.445751 40.708973
v -10.075272 10.075266 0.000000
v -9.445751 9.445745 40.708973
v 14.637206 -17.583178 0.000000
v 14.007686 -16.953657 46.337490
v -5.513333 -17.583185 0.000000
v -4.883811 -16.953663 46.337490
v 14.637203 -7.333715 0.000000
v 14.007683 -7.963236 46.337490
v -5.513336 -7.333722 0.000000
v -4.883815 -7.963243 46.337490
v 16.142830 -6.683197 6.426650
v -2.748667 -6.683204 6.426650
v 16.142824 12.208299 6.426650
v -2.748673 12.208292 6.426650
v 16.772350 -7.312719 0.019912
v -3.378188 -7.312725 0.019912
v -3.378195 12.837813 0.019912
v 16.772345 12.837820 0.019912
v 10.075272 -10.075266 40.708973
v -10.075266 -10.075272 40.708973
v -10.075272 10.075266 40.708973
v 10.075266 10.075272 40.708973
v 14.637206 -17.583178 46.337490
v -5.513333 -17.583185 46.337490
v -5.513336 -7.333722 46.337490
v 14.637203 -7.333715 46.337490
v 16.772350 -7.312719 6.426650
v -3.378188 -7.312725 6.426650
v -3.378195 12.837813 6.426650
v 16.772345 12.837820 6.426650
v 9.445751 -9.445745 39.669384
v -9.445745 -9.445751 39.669384
v -9.445751 9.445745 39.669384
v 9.445745 9.445751 39.669384
v 14.007686 -16.953657 45.297901
v -4.883811 -16.953663 45.297901
v -4.883815 -7.963243 45.297901
v 14.007683 -7.963236 45.297901
v 16.142830 -6.683197 5.998890
v -2.748667 -6.683204 5.998890
v -2.748673 12.208292 5.998890
v 16.142824 12.208299 5.998890
v -0.077126 -14.558125 43.679226
v 1.391371 -13.925528 47.194279
v -0.077127 -10.570297 43.679226
v 1.391370 -11.202898 47.194279
v 9.180073 -14.558123 43.679226
v 7.711579 -13.925525 47.194279
v 9.180072 -10.570294 43.679226
v 7.711578 -11.202895 47.194279
v -8.726974 -4.934736 39.572586
v -8.010108 -3.372240 41.100639
v -8.726978 4.915039 39.572586
v -8.010110 3.352542 41.100639
v -4.207919 -4.934735 39.572586
v -4.924791 -3.372239 41.100639
v -4.207922 4.915040 39.572586
v -4.924793 3.352543 41.100639
v -0.077126 -14.558125 47.194279
v -0.077127 -10.570297 47.194279
v 9.180072 -10.570294 47.194279
v 9.180073 -14.558123 47.194279
v -8.726974 -4.934736 41.100639
v -8.726978 4.915039 41.100639
v -4.207922 4.915040 41.100639
v -4.207919 -4.934735 41.100639
v 1.391371 -13.925528 47.652111
v 1.391370 -11.202898 47.652111
v 7.711578 -11.202895 47.652111
v 7.711579 -13.925525 47.652111
v -8.010108 -3.372240 41.619442
v -8.010110 3.352542 41.619442
v -4.924793 3.352543 41.619442
v -4.924791 -3.372239 41.619442
v 8.411103 0.669788 43.125973
v 8.411103 0.669788 38.770386
v 8.411105 -4.806001 43.125973
v 8.411105 -4.806001 38.770386
v -5.798229 0.669784 43.125973
v -5.798229 0.669784 38.770386
v -5.798227 -4.806005 43.125973
v -5.798227 -4.806005 38.770386
v 3.568502 4.612325 42.250778
v 1.327772 4.612324 42.250778
v 1.327773 2.205018 42.250778
v 3.568503 2.205018 42.250778
v 3.568502 4.612325 41.985699
v 1.327772 4.612324 41.985699
v 1.327773 2.205018 41.985699
v 3.568503 2.205018 41.985699
v 1.047281 4.913665 41.985699
v 1.047281 4.913665 39.746700
v 3.848993 4.913666 41.985699
v 3.848993 4.913666 39.746700
v 1.047282 1.903677 41.985699
v 1.047282 1.903677 39.746700
v 3.848994 1.903678 41.985699
v 3.848994 1.903678 39.746700
v 0.286141 1.903677 39.746700
v 0.286141 1.903677 41.985699
v -2.515567 1.903676 39.746700
v -2.515567 1.903676 41.985699
v 0.286140 4.913665 39.746700
v 0.286140 4.913665 41.985699
v -2.515568 4.913664 39.746700
v -2.515568 4.913664 41.985699
v 0.005654 2.205017 41.985699
v -2.235076 2.205016 41.985699
v -2.235077 4.612323 41.985699
v 0.005653 4.612324 41.985699
v 0.005654 2.205017 42.250778
v -2.235076 2.205016 42.250778
v -2.235077 4.612323 42.250778
v 0.005653 4.612324 42.250778
v 7.131355 4.612326 42.250778
v 4.890617 4.612325 42.250778
v 4.890618 2.205019 42.250778
v 7.131356 2.205019 42.250778
v 7.131355 4.612326 41.985699
v 4.890617 4.612325 41.985699
v 4.890618 2.205019 41.985699
v 7.131356 2.205019 41.985699
v 4.610134 4.913666 41.985699
v 4.610134 4.913666 39.746700
v 7.411842 4.913667 41.985699
v 7.411842 4.913667 39.746700
v 4.610135 1.903678 41.985699
v 4.610135 1.903678 39.746700
v 7.411843 1.903679 41.985699
v 7.411843 1.903679 39.746700
v -4.534267 -7.822473 45.259270
v -4.534267 -7.822473 46.042877
v 14.206001 -7.822468 45.259270
v 14.206001 -7.822468 46.042877
v -4.534265 -13.269049 45.259270
v -4.534265 -13.269049 46.042877
v 14.206003 -13.269043 45.259270
v 14.206003 -13.269043 46.042877
vn -0.0000 -1.0000 -0.0000
vn -1.0000 -0.0000 -0.0000
vn -0.0000 1.0000 -0.0000
vn 1.0000 -0.0000 -0.0000
vn -0.0000 -0.0000 -1.0000
vn -0.0000 -0.0000 1.0000
vt 0.410480 0.597404
vt 0.410480 0.732898
vt 0.454874 0.732898
vt 0.454874 0.597404
vt 0.125000 0.500000
vt 0.375000 0.500000
vt 0.375000 0.750000
vt 0.125000 0.750000
vt 0.171276 0.144061
vt 0.171276 0.221812
vt 0.167877 0.221812
vt 0.167877 0.144061
vt 0.359347 0.785897
vt 0.359347 0.953445
vt 0.399737 0.953445
vt 0.399737 0.785897
vt 0.316896 0.770882
vt 0.316896 0.957427
vt 0.349672 0.957427
vt 0.349672 0.770882
vt 0.188046 0.246467
vt 0.188046 0.177513
vt 0.173100 0.152254
vt 0.173100 0.230006
vt 0.169701 0.230006
vt 0.169701 0.152254
vt 0.625000 0.500000
vt 0.625000 0.750000
vt 0.875000 0.750000
vt 0.875000 0.500000
vt 0.406880 0.589556
vt 0.406880 0.572834
vt 0.447843 0.572834
vt 0.447843 0.589556
vt 0.188046 0.177513
vt 0.144538 0.177513
vt 0.143089 0.175215
vt 0.189496 0.175215
vt 0.144538 0.246467
vt 0.143089 0.248764
vt 0.188046 0.246467
vt 0.189496 0.248764
vt 0.188046 0.179733
vt 0.144538 0.179733
vt 0.144538 0.244247
vt 0.188046 0.244247
vt 0.144538 0.177513
vt 0.144538 0.246467
vt 0.173100 0.188879
vt 0.173100 0.225881
vt 0.169701 0.225881
vt 0.169701 0.188879
vt 0.171276 0.238062
vt 0.171276 0.160310
vt 0.167877 0.160310
vt 0.167877 0.238062
vt 0.391102 0.175202
vt 0.401166 0.175202
vt 0.401166 0.110760
vt 0.391102 0.110760
vt 0.413001 0.175202
vt 0.423066 0.175202
vt 0.423066 0.110760
vt 0.413001 0.110760
vt 0.401202 0.110760
vt 0.411266 0.110760
vt 0.411266 0.175202
vt 0.401202 0.175202
vt 0.423101 0.110760
vt 0.433165 0.110760
vt 0.433165 0.175202
vt 0.423101 0.175202
vt 0.413262 0.168878
vt 0.413262 0.119578
vt 0.374102 0.119578
vt 0.374102 0.168878
vt 0.477506 0.167814
vt 0.477506 0.131985
vt 0.482292 0.131985
vt 0.482292 0.167814
vt 0.384576 0.165578
vt 0.459211 0.165578
vt 0.476552 0.175958
vt 0.367234 0.175958
vt 0.459211 0.120902
vt 0.476552 0.110522
vt 0.384576 0.120902
vt 0.367234 0.110522
vt 0.420638 0.050749
vt 0.420638 0.110681
vt 0.369938 0.110681
vt 0.369938 0.050749
vt 0.420638 0.177690
vt 0.420638 0.237622
vt 0.369938 0.237622
vt 0.369938 0.177690
vt 0.477506 0.228747
vt 0.477506 0.192918
vt 0.482292 0.192918
vt 0.482292 0.228747
vt 0.477506 0.162452
vt 0.477506 0.198281
vt 0.482292 0.198281
vt 0.482292 0.162452
vt 0.477506 0.162452
vt 0.482292 0.162452
vt 0.349317 0.074839
vt 0.349317 0.248440
vt 0.275017 0.248440
vt 0.275017 0.074839
vt 0.273869 0.074839
vt 0.350464 0.074839
vt 0.350464 0.248440
vt 0.273870 0.248440
vt 0.276567 0.050843
vt 0.347767 0.050843
vt 0.347767 0.112980
vt 0.276567 0.112980
vt 0.275288 0.248440
vt 0.349045 0.248440
vt 0.349045 0.074839
vt 0.275288 0.074839
vt 0.282617 0.187429
vt 0.341717 0.187429
vt 0.341717 0.135850
vt 0.282617 0.135850
vt 0.290799 0.143249
vt 0.339062 0.143249
vt 0.103240 0.185864
vt 0.103240 0.236381
vt 0.100600 0.231324
vt 0.100600 0.190921
vt 0.275717 0.119990
vt 0.349162 0.119990
vt 0.351653 0.143249
vt 0.278208 0.143249
vt 0.324116 0.119729
vt 0.275853 0.119729
vt 0.274340 0.198923
vt 0.350195 0.198923
vt 0.350195 0.249007
vt 0.274340 0.249007
vt 0.349162 0.054798
vt 0.275717 0.054798
vt 0.076871 0.185864
vt 0.079511 0.190921
vt 0.076871 0.236381
vt 0.079511 0.231324
vt 0.275853 0.054537
vt 0.324116 0.054537
vt 0.339062 0.078057
vt 0.290799 0.078057
vt 0.278208 0.078057
vt 0.351653 0.078057
vt 0.431235 0.243300
vt 0.437902 0.243300
vt 0.437902 0.042572
vt 0.431235 0.042572
vt 0.368758 0.138739
vt 0.368758 0.147133
vt 0.415098 0.147133
vt 0.415098 0.138739
vt 0.368758 0.243300
vt 0.415098 0.243300
vt 0.415098 0.042572
vt 0.368758 0.042572
s 0
usemtl 1
f 1/1/1 25/2/1 26/3/1 3/4/1
f 3/1/2 26/2/2 27/3/2 7/4/2
f 7/4/3 27/3/3 28/2/3 5/1/3
f 5/4/4 28/3/4 25/2/4 1/1/4
f 3/5/5 7/6/5 5/7/5 1/8/5
f 8/9/4 4/10/4 38/11/4 39/12/4
f 9/13/1 29/14/1 30/15/1 11/16/1
f 11/17/2 30/18/2 31/19/2 15/20/2
f 15/16/3 31/15/3 32/14/3 13/13/3
f 13/20/4 32/19/4 29/18/4 9/17/4
f 11/5/5 15/6/5 13/7/5 9/8/5
f 19/21/2 48/21/2 45/22/2 17/22/2
f 12/23/3 10/24/3 41/25/3 42/26/3
f 23/27/5 24/28/5 21/29/5 22/30/5
f 36/31/3 24/32/3 23/33/3 35/34/3
f 34/34/1 22/33/1 21/32/1 33/31/1
f 33/31/4 21/32/4 24/33/4 36/34/4
f 35/34/2 23/33/2 22/32/2 34/31/2
f 2/35/6 4/36/6 26/37/6 25/38/6
f 4/36/6 8/39/6 27/40/6 26/37/6
f 8/39/6 6/41/6 28/42/6 27/40/6
f 6/41/6 2/35/6 25/38/6 28/42/6
f 10/43/6 12/44/6 30/37/6 29/38/6
f 12/44/6 16/45/6 31/40/6 30/37/6
f 16/45/6 14/46/6 32/42/6 31/40/6
f 14/46/6 10/43/6 29/38/6 32/42/6
f 18/47/6 34/37/6 33/38/6 17/22/6
f 20/48/6 35/40/6 34/37/6 18/47/6
f 19/21/6 36/42/6 35/40/6 20/48/6
f 17/22/6 33/38/6 36/42/6 19/21/6
f 39/39/6 38/36/6 37/35/6 40/41/6
f 43/45/6 42/44/6 41/43/6 44/46/6
f 47/48/6 46/47/6 45/22/6 48/21/6
f 17/22/3 45/22/3 46/47/3 18/47/3
f 16/49/4 12/50/4 42/51/4 43/52/4
f 6/53/1 8/54/1 39/55/1 40/56/1
f 18/47/4 46/47/4 47/48/4 20/48/4
f 14/24/1 16/23/1 43/26/1 44/25/1
f 2/10/2 6/9/2 40/12/2 37/11/2
f 20/48/1 47/48/1 48/21/1 19/21/1
f 4/54/3 2/53/3 37/56/3 38/55/3
f 10/50/2 14/49/2 44/52/2 41/51/2
f 49/57/2 65/58/2 66/59/2 51/60/2
f 51/61/3 66/62/3 67/63/3 55/64/3
f 55/65/4 67/66/4 68/67/4 53/68/4
f 53/69/1 68/70/1 65/71/1 49/72/1
f 51/73/5 55/74/5 53/75/5 49/76/5
f 64/77/3 60/78/3 78/79/3 79/80/3
f 57/57/2 69/58/2 70/59/2 59/60/2
f 59/61/3 70/62/3 71/63/3 63/64/3
f 63/65/4 71/66/4 72/67/4 61/68/4
f 61/69/1 72/70/1 69/71/1 57/72/1
f 59/73/5 63/74/5 61/75/5 57/76/5
f 58/78/1 62/77/1 80/80/1 77/79/1
f 50/81/6 52/82/6 66/83/6 65/84/6
f 52/82/6 56/85/6 67/86/6 66/83/6
f 56/85/6 54/87/6 68/88/6 67/86/6
f 54/87/6 50/81/6 65/84/6 68/88/6
f 58/81/6 60/82/6 70/83/6 69/84/6
f 60/82/6 64/85/6 71/86/6 70/83/6
f 64/85/6 62/87/6 72/88/6 71/86/6
f 62/87/6 58/81/6 69/84/6 72/88/6
f 75/89/6 74/90/6 73/91/6 76/92/6
f 79/93/6 78/94/6 77/95/6 80/96/6
f 50/97/1 54/98/1 76/99/1 73/100/1
f 56/98/3 52/97/3 74/100/3 75/99/3
f 62/101/4 64/102/4 79/103/4 80/104/4
f 60/102/2 58/101/2 77/104/2 78/103/2
f 54/102/4 56/105/4 75/106/4 76/103/4
f 52/105/2 50/102/2 73/103/2 74/106/2
f 81/107/6 85/108/6 87/109/6 83/110/6
f 86/108/5 82/107/5 84/110/5 88/109/5
f 84/111/1 83/112/1 87/113/1 88/114/1
f 82/115/4 81/116/4 83/117/4 84/118/4
f 86/119/3 85/120/3 81/121/3 82/122/3
f 88/123/2 87/124/2 85/125/2 86/126/2
f 93/127/3 94/128/3 90/128/3 89/127/3
f 97/129/6 101/130/6 95/131/6 94/132/6
f 96/133/4 93/134/4 89/134/4 92/133/4
f 94/135/2 95/136/2 91/136/2 90/135/2
f 95/137/1 96/138/1 92/138/1 91/137/1
f 90/139/6 91/140/6 92/141/6 89/142/6
f 100/143/4 99/134/4 103/133/4 104/144/4
f 99/145/6 97/129/6 94/132/6 93/146/6
f 103/147/6 99/145/6 93/146/6 96/148/6
f 101/130/6 103/147/6 96/148/6 95/131/6
f 104/149/1 103/138/1 101/137/1 102/150/1
f 98/151/3 97/128/3 99/127/3 100/152/3
f 102/153/2 101/136/2 97/135/2 98/154/2
f 102/140/5 98/139/5 100/142/5 104/141/5
f 105/149/1 106/138/1 108/137/1 107/150/1
f 107/153/2 108/136/2 112/135/2 111/154/2
f 111/151/3 112/128/3 110/127/3 109/152/3
f 109/143/4 110/134/4 106/133/4 105/144/4
f 107/140/5 111/139/5 109/142/5 105/141/5
f 108/130/6 106/147/6 113/148/6 114/131/6
f 113/133/4 116/134/4 120/134/4 117/133/4
f 106/147/6 110/145/6 116/146/6 113/148/6
f 112/129/6 108/130/6 114/131/6 115/132/6
f 110/145/6 112/129/6 115/132/6 116/146/6
f 119/139/6 118/140/6 117/141/6 120/142/6
f 115/135/2 114/136/2 118/136/2 119/135/2
f 116/127/3 115/128/3 119/128/3 120/127/3
f 114/137/1 113/138/1 117/138/1 118/137/1
f 125/127/3 126/128/3 122/128/3 121/127/3
f 129/129/6 133/130/6 127/131/6 126/132/6
f 128/133/4 125/134/4 121/134/4 124/133/4
f 126/135/2 127/136/2 123/136/2 122/135/2
f 127/137/1 128/138/1 124/138/1 123/137/1
f 122/139/6 123/140/6 124/141/6 121/142/6
f 132/143/4 131/134/4 135/133/4 136/144/4
f 131/145/6 129/129/6 126/132/6 125/146/6
f 135/147/6 131/145/6 125/146/6 128/148/6
f 133/130/6 135/147/6 128/148/6 127/131/6
f 136/149/1 135/138/1 133/137/1 134/150/1
f 130/151/3 129/128/3 131/127/3 132/152/3
f 134/153/2 133/136/2 129/135/2 130/154/2
f 134/140/5 130/139/5 132/142/5 136/141/5
f 137/155/3 138/156/3 140/157/3 139/158/3
f 139/159/4 140/160/4 144/161/4 143/162/4
f 143/158/1 144/157/1 142/156/1 141/155/1
f 141/162/2 142/161/2 138/160/2 137/159/2
f 139/163/5 143/164/5 141/165/5 137/166/5
f 144/164/6 140/163/6 138/166/6 142/165/6
