# Blender 4.5.3 LTS
# www.blender.org
mtllib lowpoly5.mtl
o 立方体.016
v -13.797044 -10.081999 26.030190
v -16.992855 -6.886187 26.030190
v -16.278898 -6.590456 77.030571
v -13.501313 -9.368043 77.030571
v -16.992855 6.886185 26.030190
v -13.797044 10.081997 26.030190
v -13.501313 9.368041 77.030571
v -16.278898 6.590455 77.030571
v 16.993067 -6.886185 26.030190
v 13.797255 -10.081997 26.030190
v 13.501525 -9.368041 77.030571
v 16.279110 -6.590455 77.030571
v 13.797255 10.081999 26.030190
v 16.993067 6.886187 26.030190
v 16.279110 6.590456 77.030571
v 13.501525 9.368043 77.030571
v 0.000106 -10.081998 26.030190
v 0.000106 -9.368042 77.030571
v 0.000105 10.081998 26.030190
v 0.000105 9.368042 77.030571
v -13.797044 -10.081999 71.943184
v -16.992855 -6.886187 71.943184
v -13.797044 10.081997 71.943184
v -16.992855 6.886185 71.943184
v 16.993067 6.886187 71.943184
v 13.797255 10.081999 71.943184
v 13.797255 -10.081997 71.943184
v 16.993067 -6.886185 71.943184
v 0.000106 -10.081998 71.943184
v 0.000105 10.081998 71.943184
v -13.797044 -10.081999 75.465546
v -16.992855 6.886185 75.465546
v 13.797255 10.081999 75.465546
v 16.993067 -6.886185 75.465546
v -16.992855 -6.886187 75.465546
v -13.797044 10.081997 75.465546
v 16.993067 6.886187 75.465546
v 13.797255 -10.081997 75.465546
v 0.000106 -10.081998 75.465546
v 0.000105 10.081998 75.465546
v -15.998214 -6.474192 75.465546
v -15.998214 -6.474192 71.943184
v -13.385049 9.087356 75.465546
v -13.385049 9.087356 71.943184
v 15.998425 6.474192 75.465546
v 15.998425 6.474192 71.943184
v 13.385261 -9.087356 75.465546
v 13.385261 -9.087356 71.943184
v 0.000106 -9.005405 75.465546
v 0.000106 -9.005405 71.943184
v 0.000105 9.005405 75.465546
v 0.000105 9.005405 71.943184
v 15.998425 -6.474191 71.943184
v 13.385261 9.087358 71.943184
v -15.998214 6.474191 71.943184
v -13.385049 -9.087358 71.943184
v -13.385049 -9.087358 75.465546
v -15.998214 6.474191 75.465546
v 13.385261 9.087358 75.465546
v 15.998425 -6.474191 75.465546
v -13.797044 -10.081999 77.030571
v -16.992855 -6.886187 77.030571
v -16.992855 6.886185 77.030571
v -13.797044 10.081997 77.030571
v 13.797255 10.081999 77.030571
v 16.993067 6.886187 77.030571
v 16.993067 -6.886185 77.030571
v 13.797255 -10.081997 77.030571
v 0.000106 -10.081998 77.030571
v 0.000105 10.081998 77.030571
v -13.501313 -9.368043 76.034851
v -16.278898 -6.590456 76.034851
v -16.278898 6.590455 76.034851
v -13.501313 9.368041 76.034851
v 13.501525 9.368043 76.034851
v 16.279110 6.590456 76.034851
v 16.279110 -6.590455 76.034851
v 13.501525 -9.368041 76.034851
v 0.000106 -9.368042 76.034851
v 0.000105 9.368042 76.034851
v -13.797044 -10.081999 -0.067014
v -16.992855 -6.886187 -0.067014
v -16.992855 6.886185 -0.067014
v -13.797044 10.081997 -0.067014
v 16.993067 -6.886185 -0.067014
v 13.797255 -10.081997 -0.067014
v 13.797255 10.081999 -0.067014
v 16.993067 6.886187 -0.067014
v 0.000106 -10.081998 -0.067014
v 0.000105 10.081998 -0.067014
vn -0.0000 -1.0000 -0.0000
vn 1.0000 -0.0000 -0.0000
vn -1.0000 -0.0000 -0.0000
vn -0.0000 1.0000 -0.0000
vn -0.7071 -0.7071 -0.0000
vn -0.7071 0.7071 -0.0000
vn 0.7071 0.7071 -0.0000
vn 0.7071 -0.7071 -0.0000
vn -0.0000 -0.0000 1.0000
vn -0.0000 -0.0000 -1.0000
vn 0.0061 1.0000 -0.0000
vn -0.0061 -1.0000 -0.0000
vn -0.0061 1.0000 -0.0000
vn 0.0061 -1.0000 -0.0000
vt 0.356429 0.972049
vt 0.356429 0.978376
vt 0.308220 0.978376
vt 0.308220 0.972049
vt 0.398484 0.968417
vt 0.398484 0.974744
vt 0.360372 0.974744
vt 0.360372 0.968417
vt 0.090948 0.149226
vt 0.090948 0.226391
vt 0.086427 0.226391
vt 0.086427 0.149226
vt 0.360282 0.968417
vt 0.360282 0.974744
vt 0.398574 0.974744
vt 0.398574 0.968417
vt 0.405123 0.971784
vt 0.405123 0.978111
vt 0.454145 0.978111
vt 0.454145 0.971784
vt 0.351116 0.971784
vt 0.351116 0.978111
vt 0.337395 0.978111
vt 0.337395 0.971784
vt 0.448240 0.956913
vt 0.448240 0.772739
vt 0.434520 0.772739
vt 0.434520 0.956913
vt 0.424458 0.957545
vt 0.424458 0.773371
vt 0.410737 0.773371
vt 0.410737 0.957545
vt 0.356429 0.902587
vt 0.308220 0.902587
vt 0.308220 0.792101
vt 0.356429 0.792101
vt 0.453798 0.971784
vt 0.453799 0.978111
vt 0.405590 0.978111
vt 0.405590 0.971784
vt 0.308081 0.971784
vt 0.308081 0.978111
vt 0.357102 0.978111
vt 0.357102 0.971784
vt 0.308081 0.773371
vt 0.308081 0.957545
vt 0.357102 0.957545
vt 0.357102 0.773371
vt 0.453799 0.773371
vt 0.453799 0.957545
vt 0.405590 0.957545
vt 0.405590 0.773371
vt 0.178305 0.236915
vt 0.154082 0.236915
vt 0.154807 0.234713
vt 0.177580 0.234713
vt 0.148461 0.199291
vt 0.148461 0.229839
vt 0.150211 0.228927
vt 0.150355 0.199291
vt 0.183925 0.168742
vt 0.178305 0.161666
vt 0.177580 0.163868
vt 0.182176 0.169654
vt 0.351116 0.773371
vt 0.351116 0.957545
vt 0.337395 0.957545
vt 0.337395 0.773371
vt 0.405123 0.773371
vt 0.405123 0.957545
vt 0.454145 0.957545
vt 0.454145 0.773371
vt 0.360282 0.770004
vt 0.360282 0.954177
vt 0.398574 0.954177
vt 0.398574 0.770004
vt 0.398484 0.770004
vt 0.398484 0.954177
vt 0.360372 0.954177
vt 0.360372 0.770004
vt 0.356429 0.773636
vt 0.356429 0.957810
vt 0.308220 0.957810
vt 0.308220 0.773636
vt 0.448240 0.977480
vt 0.448240 0.971153
vt 0.434520 0.971153
vt 0.434520 0.977480
vt 0.424458 0.978111
vt 0.424458 0.971784
vt 0.410737 0.971784
vt 0.410737 0.978111
vt 0.410737 0.971784
vt 0.424458 0.971784
vt 0.183925 0.199291
vt 0.182032 0.199291
vt 0.154082 0.161666
vt 0.154807 0.163868
vt 0.183925 0.229839
vt 0.182176 0.228927
vt 0.148461 0.168742
vt 0.150211 0.169654
vt 0.467471 0.069011
vt 0.458192 0.054236
vt 0.459180 0.050438
vt 0.469855 0.067438
vt 0.414164 0.054236
vt 0.404886 0.069011
vt 0.402501 0.067438
vt 0.413176 0.050438
vt 0.404886 0.212655
vt 0.414164 0.227431
vt 0.413176 0.231229
vt 0.402501 0.214228
vt 0.458192 0.227431
vt 0.467471 0.212655
vt 0.469855 0.214228
vt 0.459180 0.231229
vt 0.467471 0.140833
vt 0.469855 0.140833
vt 0.404886 0.140833
vt 0.402501 0.140833
vt 0.090948 0.111560
vt 0.090948 0.186893
vt 0.086427 0.186893
vt 0.086427 0.111560
vt 0.090948 0.242266
vt 0.086427 0.242266
vt 0.090948 0.072061
vt 0.086427 0.072061
vt 0.090948 0.056186
vt 0.086427 0.056186
vt 0.125000 0.539623
vt 0.148508 0.500000
vt 0.250000 0.500000
vt 0.351492 0.500000
vt 0.375000 0.539623
vt 0.375000 0.710377
vt 0.351492 0.750000
vt 0.250000 0.750000
vt 0.148508 0.750000
vt 0.125000 0.710377
vt 0.360282 0.906219
vt 0.398574 0.906219
vt 0.398574 0.795733
vt 0.360282 0.795733
vt 0.434520 0.903483
vt 0.448240 0.903483
vt 0.448240 0.792997
vt 0.434520 0.792997
vt 0.308081 0.902852
vt 0.357102 0.902852
vt 0.357102 0.792366
vt 0.308081 0.792366
vt 0.410737 0.902852
vt 0.424458 0.902852
vt 0.424458 0.792366
vt 0.410737 0.792366
vt 0.351116 0.902852
vt 0.337395 0.902852
vt 0.337395 0.792366
vt 0.351116 0.792366
vt 0.405123 0.902852
vt 0.454145 0.902852
vt 0.454145 0.792366
vt 0.405123 0.792366
vt 0.453799 0.902852
vt 0.405590 0.902852
vt 0.405590 0.792366
vt 0.453799 0.792366
vt 0.398484 0.906219
vt 0.360372 0.906219
vt 0.360372 0.795733
vt 0.398484 0.795733
s 0
usemtl 1
f 39/1/1 69/2/1 61/3/1 31/4/1
f 37/5/2 66/6/2 67/7/2 34/8/2
f 20/9/1 7/10/1 74/11/1 80/12/1
f 35/13/3 62/14/3 63/15/3 32/16/3
f 40/17/4 70/18/4 65/19/4 33/20/4
f 31/21/5 61/22/5 62/23/5 35/24/5
f 23/25/6 6/26/6 5/27/6 24/28/6
f 25/29/7 14/30/7 13/31/7 26/32/7
f 27/32/8 10/31/8 9/30/8 28/29/8
f 17/33/1 1/34/1 81/35/1 89/36/1
f 38/37/1 68/38/1 69/39/1 39/40/1
f 36/41/4 64/42/4 70/43/4 40/44/4
f 6/45/4 23/46/4 30/47/4 19/48/4
f 10/49/1 27/50/1 29/51/1 17/52/1
f 24/53/9 22/54/9 42/55/9 55/56/9
f 39/57/10 31/58/10 57/59/10 49/60/10
f 33/61/10 37/62/10 45/63/10 59/64/10
f 1/65/5 21/66/5 22/67/5 2/68/5
f 19/69/4 30/70/4 26/71/4 13/72/4
f 2/73/3 22/74/3 24/75/3 5/76/3
f 14/77/2 25/78/2 28/79/2 9/80/2
f 17/81/1 29/82/1 21/83/1 1/84/1
f 64/85/6 36/86/6 32/87/6 63/88/6
f 66/89/7 37/90/7 33/91/7 65/92/7
f 68/92/8 38/93/8 34/94/8 67/89/8
f 26/61/9 30/95/9 52/96/9 54/64/9
f 37/62/10 34/97/10 60/98/10 45/63/10
f 32/53/10 36/99/10 43/100/10 58/56/10
f 22/54/9 21/58/9 56/59/9 42/55/9
f 35/54/10 32/53/10 58/56/10 41/55/10
f 23/99/9 24/53/9 55/56/9 44/100/9
f 40/95/10 33/61/10 59/64/10 51/96/10
f 47/93/8 48/32/8 53/29/8 60/94/8
f 45/90/7 46/29/7 54/32/7 59/91/7
f 43/86/6 44/25/6 55/28/6 58/87/6
f 44/46/11 43/41/11 51/44/11 52/47/11
f 48/50/12 47/37/12 49/40/12 50/51/12
f 56/66/5 57/21/5 41/24/5 42/67/5
f 52/70/13 51/17/13 59/20/13 54/71/13
f 42/74/3 41/13/3 58/16/3 55/75/3
f 46/78/2 45/5/2 60/8/2 53/79/2
f 50/82/14 49/1/14 57/4/14 56/83/14
f 34/97/10 38/101/10 47/102/10 60/98/10
f 30/95/9 23/99/9 44/100/9 52/96/9
f 28/97/9 25/62/9 46/63/9 53/98/9
f 36/99/10 40/95/10 51/96/10 43/100/10
f 29/57/9 27/101/9 48/102/9 50/60/9
f 21/58/9 29/57/9 50/60/9 56/59/9
f 38/101/10 39/57/10 49/60/10 47/102/10
f 27/101/9 28/97/9 53/98/9 48/102/9
f 31/58/10 35/54/10 41/55/10 57/59/10
f 25/62/9 26/61/9 54/64/9 46/63/9
f 4/103/9 3/104/9 62/105/9 61/106/9
f 8/107/9 7/108/9 64/109/9 63/110/9
f 16/111/9 15/112/9 66/113/9 65/114/9
f 12/115/9 11/116/9 68/117/9 67/118/9
f 3/104/9 8/107/9 63/110/9 62/105/9
f 18/119/9 4/103/9 61/106/9 69/120/9
f 15/112/9 12/115/9 67/118/9 66/113/9
f 7/108/9 20/121/9 70/122/9 64/109/9
f 11/116/9 18/119/9 69/120/9 68/117/9
f 20/121/9 16/111/9 65/114/9 70/122/9
f 76/112/9 75/111/9 80/121/9 74/108/9 73/107/9 72/104/9 71/103/9 79/119/9 78/116/9 77/115/9
f 8/123/2 3/124/2 72/125/2 73/126/2
f 7/10/8 8/127/8 73/128/8 74/11/8
f 18/9/4 11/129/4 78/130/4 79/12/4
f 4/10/4 18/9/4 79/12/4 71/11/4
f 15/131/5 16/129/5 75/130/5 76/132/5
f 16/129/1 20/9/1 80/12/1 75/130/1
f 12/124/3 15/123/3 76/126/3 77/125/3
f 11/129/6 12/131/6 77/132/6 78/130/6
f 3/127/7 4/10/7 71/11/7 72/128/7
f 83/133/10 84/134/10 90/135/10 87/136/10 88/137/10 85/138/10 86/139/10 89/140/10 81/141/10 82/142/10
f 2/143/3 5/144/3 83/145/3 82/146/3
f 5/147/6 6/148/6 84/149/6 83/150/6
f 6/151/4 19/152/4 90/153/4 84/154/4
f 13/155/7 14/156/7 88/157/7 87/158/7
f 1/159/5 2/160/5 82/161/5 81/162/5
f 19/163/4 13/164/4 87/165/4 90/166/4
f 10/167/1 17/168/1 89/169/1 86/170/1
f 9/156/8 10/155/8 86/158/8 85/157/8
f 14/171/2 9/172/2 85/173/2 88/174/2
