# Blender 4.5.3 LTS
# www.blender.org
mtllib lowpoly10.mtl
o 立方体.004
v -17.220831 17.220831 37.346611
v -16.475077 16.475077 103.127808
v 17.220831 17.220831 37.346611
v 16.475077 16.475077 103.127808
v -17.220831 -17.220831 37.346611
v -16.475077 -16.475077 103.127808
v 17.220831 -17.220831 37.346611
v 16.475077 -16.475077 103.127808
v 17.220831 17.220831 -0.000002
v -17.220831 17.220831 -0.000002
v 17.220831 -17.220831 -0.000002
v -17.220831 -17.220831 -0.000002
v -11.950874 11.950869 102.485603
v 11.950874 11.950869 102.485603
v -11.950874 -11.950881 102.485603
v 11.950874 -11.950881 102.485603
v -11.205121 11.205115 108.598557
v 11.205121 11.205115 108.598557
v 11.205121 -11.205128 108.598557
v -11.205121 -11.205128 108.598557
v -17.220831 17.220831 103.127808
v 17.220831 17.220831 103.127808
v 17.220831 -17.220831 103.127808
v -17.220831 -17.220831 103.127808
v -11.950874 11.950869 108.598557
v 11.950874 11.950869 108.598557
v 11.950874 -11.950881 108.598557
v -11.950874 -11.950881 108.598557
v -16.475077 16.475077 102.707512
v 16.475077 16.475077 102.707512
v 16.475077 -16.475077 102.707512
v -16.475077 -16.475077 102.707512
v -11.205121 11.205115 108.178253
v 11.205121 11.205115 108.178253
v 11.205121 -11.205128 108.178253
v -11.205121 -11.205128 108.178253
v -3.401111 8.949350 107.893700
v -1.421031 7.761015 110.426689
v 9.081062 8.949350 107.893700
v 7.100982 7.761015 110.426689
v -3.401111 1.458239 107.893700
v -1.421031 2.646574 110.426689
v 9.081062 1.458239 107.893700
v 7.100982 2.646574 110.426689
v -3.401111 8.949350 110.426689
v 9.081062 8.949350 110.426689
v 9.081062 1.458239 110.426689
v -3.401111 1.458239 110.426689
v -1.421031 7.761015 111.286713
v 7.100982 7.761015 111.286713
v 7.100982 2.646574 111.286713
v -1.421031 2.646574 111.286713
v -8.740406 8.085472 108.049751
v -8.740406 8.085472 110.706306
v -5.903039 8.085472 108.049751
v -5.903039 8.085472 110.706306
v -8.740406 3.767653 108.049751
v -8.740406 3.767653 110.706306
v -5.903039 3.767653 108.049751
v -5.903039 3.767653 110.706306
v -8.456347 7.653201 110.706306
v -6.187097 7.653201 110.706306
v -6.187097 4.199925 110.706306
v -8.456347 4.199925 110.706306
v -8.456347 7.653201 111.020821
v -6.187097 7.653201 111.020821
v -6.187097 4.199925 111.020821
v -8.456347 4.199925 111.020821
v -8.740406 2.927790 108.049751
v -8.740406 2.927790 110.706306
v -5.903039 2.927790 108.049751
v -5.903039 2.927790 110.706306
v -8.740406 -1.390029 108.049751
v -8.740406 -1.390029 110.706306
v -5.903039 -1.390029 108.049751
v -5.903039 -1.390029 110.706306
v -8.456347 2.495518 110.706306
v -6.187097 2.495518 110.706306
v -6.187097 -0.957757 110.706306
v -8.456347 -0.957757 110.706306
v -8.456347 2.495518 111.020821
v -6.187097 2.495518 111.020821
v -6.187097 -0.957757 111.020821
v -8.456347 -0.957757 111.020821
v -8.740406 -2.229892 108.049751
v -8.740406 -2.229892 110.706306
v -5.903039 -2.229892 108.049751
v -5.903039 -2.229892 110.706306
v -8.740406 -6.547711 108.049751
v -8.740406 -6.547711 110.706306
v -5.903039 -6.547711 108.049751
v -5.903039 -6.547711 110.706306
v -8.456347 -2.662164 110.706306
v -6.187097 -2.662164 110.706306
v -6.187097 -6.115439 110.706306
v -8.456347 -6.115439 110.706306
v -8.456347 -2.662164 111.020821
v -6.187097 -2.662164 111.020821
v -6.187097 -6.115439 111.020821
v -8.456347 -6.115439 111.020821
vn -0.0000 1.0000 -0.0000
vn 1.0000 -0.0000 -0.0000
vn -0.0000 -1.0000 -0.0000
vn -1.0000 -0.0000 -0.0000
vn -0.0000 -0.0000 -1.0000
vn -0.0000 -0.0000 1.0000
vt 0.043885 0.385851
vt 0.043885 0.514595
vt 0.132668 0.514595
vt 0.132668 0.385851
vt 0.132668 0.297775
vt 0.043885 0.297775
vt 0.106262 0.170314
vt 0.106262 0.243976
vt 0.043885 0.463013
vt 0.132668 0.463013
vt 0.132668 0.351241
vt 0.043885 0.351241
vt 0.132354 0.498916
vt 0.076565 0.498916
vt 0.048334 0.243241
vt 0.048334 0.171049
vt 0.076565 0.494846
vt 0.132354 0.494846
vt 0.132354 0.514992
vt 0.076565 0.514992
vt 0.047750 0.170314
vt 0.047750 0.243976
vt 0.046425 0.245643
vt 0.046425 0.168647
vt 0.107586 0.245643
vt 0.107586 0.168647
vt 0.105678 0.243241
vt 0.105678 0.171049
vt 0.206580 0.124281
vt 0.206580 0.100181
vt 0.209419 0.100181
vt 0.209419 0.124281
vt 0.155330 0.129251
vt 0.161300 0.129251
vt 0.161300 0.085905
vt 0.155330 0.085905
vt 0.168320 0.129251
vt 0.174289 0.129251
vt 0.174289 0.085905
vt 0.168320 0.085905
vt 0.161321 0.085905
vt 0.167291 0.085905
vt 0.167291 0.129251
vt 0.161321 0.129251
vt 0.174310 0.085905
vt 0.180280 0.085905
vt 0.180280 0.129251
vt 0.174310 0.129251
vt 0.168475 0.124997
vt 0.168475 0.091836
vt 0.145247 0.091836
vt 0.145247 0.124997
vt 0.151459 0.122777
vt 0.195729 0.122777
vt 0.206014 0.129759
vt 0.141174 0.129759
vt 0.195729 0.092727
vt 0.206014 0.085744
vt 0.151459 0.092727
vt 0.141174 0.085744
vt 0.172849 0.130924
vt 0.172849 0.171236
vt 0.142777 0.171236
vt 0.142777 0.130924
vt 0.206580 0.120674
vt 0.206580 0.144774
vt 0.209419 0.144774
vt 0.209419 0.120674
vt 0.275853 0.054537
vt 0.275853 0.119729
vt 0.324116 0.119729
vt 0.324116 0.054537
vt 0.278208 0.078057
vt 0.278208 0.143249
vt 0.351653 0.143249
vt 0.351653 0.078057
vt 0.339062 0.078057
vt 0.339062 0.143249
vt 0.290799 0.143249
vt 0.290799 0.078057
vt 0.349162 0.054798
vt 0.349162 0.119990
vt 0.275717 0.119990
vt 0.275717 0.054798
vt 0.350195 0.198923
vt 0.274340 0.198923
vt 0.274340 0.249007
vt 0.350195 0.249007
vt 0.103240 0.236381
vt 0.076871 0.236381
vt 0.079511 0.231324
vt 0.100600 0.231324
vt 0.076871 0.185864
vt 0.079511 0.190921
vt 0.103240 0.185864
vt 0.100600 0.190921
s 0
usemtl 1
f 1/1/1 21/2/1 22/3/1 3/4/1
f 3/1/2 22/2/2 23/3/2 7/4/2
f 7/4/3 23/3/3 24/2/3 5/1/3
f 5/4/4 24/3/4 21/2/4 1/1/4
f 1/1/1 3/4/1 9/5/1 10/6/1
f 6/7/1 8/8/1 31/8/1 32/7/1
f 9/9/5 11/10/5 12/11/5 10/12/5
f 7/4/3 5/1/3 12/6/3 11/5/3
f 5/4/4 1/1/4 10/6/4 12/5/4
f 3/1/2 7/4/2 11/5/2 9/6/2
f 16/13/5 15/14/5 13/14/5 14/13/5
f 18/15/3 17/16/3 33/16/3 34/15/3
f 13/17/4 15/18/4 28/19/4 25/20/4
f 16/18/2 14/17/2 26/20/2 27/19/2
f 15/17/3 16/18/3 27/19/3 28/20/3
f 14/18/1 13/17/1 25/20/1 26/19/1
f 2/21/6 4/22/6 22/23/6 21/24/6
f 4/22/6 8/8/6 23/25/6 22/23/6
f 8/8/6 6/7/6 24/26/6 23/25/6
f 6/7/6 2/21/6 21/24/6 24/26/6
f 17/16/6 18/15/6 26/23/6 25/24/6
f 18/15/6 19/27/6 27/25/6 26/23/6
f 19/27/6 20/28/6 28/26/6 27/25/6
f 20/28/6 17/16/6 25/24/6 28/26/6
f 31/8/6 30/22/6 29/21/6 32/7/6
f 35/27/6 34/15/6 33/16/6 36/28/6
f 4/22/3 2/21/3 29/21/3 30/22/3
f 17/16/2 20/28/2 36/28/2 33/16/2
f 19/27/4 18/15/4 34/15/4 35/27/4
f 2/21/2 6/7/2 32/7/2 29/21/2
f 8/8/4 4/22/4 30/22/4 31/8/4
f 20/28/1 19/27/1 35/27/1 36/28/1
f 44/29/2 40/30/2 50/31/2 51/32/2
f 37/33/1 45/34/1 46/35/1 39/36/1
f 39/37/2 46/38/2 47/39/2 43/40/2
f 43/41/3 47/42/3 48/43/3 41/44/3
f 41/45/4 48/46/4 45/47/4 37/48/4
f 39/49/5 43/50/5 41/51/5 37/52/5
f 38/30/4 42/29/4 52/32/4 49/31/4
f 38/53/6 40/54/6 46/55/6 45/56/6
f 40/54/6 44/57/6 47/58/6 46/55/6
f 44/57/6 42/59/6 48/60/6 47/58/6
f 42/59/6 38/53/6 45/56/6 48/60/6
f 51/61/6 50/62/6 49/63/6 52/64/6
f 42/65/3 44/66/3 51/67/3 52/68/3
f 40/66/1 38/65/1 49/68/1 50/67/1
f 53/69/1 54/70/1 56/71/1 55/72/1
f 55/73/2 56/74/2 60/75/2 59/76/2
f 59/77/3 60/78/3 58/79/3 57/80/3
f 57/81/4 58/82/4 54/83/4 53/84/4
f 55/85/5 59/86/5 57/87/5 53/88/5
f 56/89/6 54/90/6 61/91/6 62/92/6
f 61/83/4 64/82/4 68/82/4 65/83/4
f 54/90/6 58/93/6 64/94/6 61/91/6
f 60/95/6 56/89/6 62/92/6 63/96/6
f 58/93/6 60/95/6 63/96/6 64/94/6
f 67/86/6 66/85/6 65/88/6 68/87/6
f 63/75/2 62/74/2 66/74/2 67/75/2
f 64/79/3 63/78/3 67/78/3 68/79/3
f 62/71/1 61/70/1 65/70/1 66/71/1
f 69/69/1 70/70/1 72/71/1 71/72/1
f 71/73/2 72/74/2 76/75/2 75/76/2
f 75/77/3 76/78/3 74/79/3 73/80/3
f 73/81/4 74/82/4 70/83/4 69/84/4
f 71/85/5 75/86/5 73/87/5 69/88/5
f 72/89/6 70/90/6 77/91/6 78/92/6
f 77/83/4 80/82/4 84/82/4 81/83/4
f 70/90/6 74/93/6 80/94/6 77/91/6
f 76/95/6 72/89/6 78/92/6 79/96/6
f 74/93/6 76/95/6 79/96/6 80/94/6
f 83/86/6 82/85/6 81/88/6 84/87/6
f 79/75/2 78/74/2 82/74/2 83/75/2
f 80/79/3 79/78/3 83/78/3 84/79/3
f 78/71/1 77/70/1 81/70/1 82/71/1
f 85/69/1 86/70/1 88/71/1 87/72/1
f 87/73/2 88/74/2 92/75/2 91/76/2
f 91/77/3 92/78/3 90/79/3 89/80/3
f 89/81/4 90/82/4 86/83/4 85/84/4
f 87/85/5 91/86/5 89/87/5 85/88/5
f 88/89/6 86/90/6 93/91/6 94/92/6
f 93/83/4 96/82/4 100/82/4 97/83/4
f 86/90/6 90/93/6 96/94/6 93/91/6
f 92/95/6 88/89/6 94/92/6 95/96/6
f 90/93/6 92/95/6 95/96/6 96/94/6
f 99/86/6 98/85/6 97/88/6 100/87/6
f 95/75/2 94/74/2 98/74/2 99/75/2
f 96/79/3 95/78/3 99/78/3 100/79/3
f 94/71/1 93/70/1 97/70/1 98/71/1
