# Blender 4.5.3 LTS
# www.blender.org
mtllib lowpoly11.mtl
o 立方体.003
v 20.008821 -20.008818 0.000000
v 19.239328 -19.239325 130.801666
v 6.784384 -20.008821 0.000000
v 7.553877 -19.239328 130.801666
v 20.008810 20.008808 0.000000
v 19.239317 19.239315 130.801666
v 6.784371 20.008804 0.000000
v 6.784371 20.008804 130.801666
v 6.784378 -0.000009 0.000000
v 6.784378 -0.000007 130.801666
v 20.008816 -0.000003 0.000000
v 19.239323 -0.000005 130.801666
v -14.116545 20.008799 0.000000
v -13.347052 19.239305 130.801666
v -14.116538 -0.000016 0.000000
v -13.347045 0.769480 130.801666
v -10.628242 0.287117 0.000000
v -9.309053 -1.032071 99.927391
v -10.628236 -16.952059 0.000000
v -9.309049 -15.632867 99.927391
v 6.932542 0.287123 0.000000
v 5.613355 -1.032066 99.927391
v 6.932548 -16.952053 0.000000
v 5.613359 -15.632862 99.927391
v -10.628236 -16.952057 99.927391
v -10.628242 0.287117 99.927391
v 6.932548 -16.952051 99.927391
v 6.932542 0.287123 99.927391
v -9.309049 -15.632867 99.546432
v -9.309053 -1.032071 99.546432
v 5.613359 -15.632862 99.546432
v 5.613355 -1.032066 99.546432
v 20.008821 -20.008818 130.801666
v 6.784384 -20.008821 130.801666
v 6.784371 19.239311 130.801666
v 20.008810 20.008808 130.801666
v 20.008816 -0.000004 130.801666
v 7.553871 0.769487 130.801666
v -14.116538 -0.000014 130.801666
v -14.116545 20.008799 130.801666
v 7.553871 0.769487 130.251114
v 6.784371 19.239311 130.251114
v 19.239323 -0.000005 130.251114
v 19.239328 -19.239325 130.251114
v 7.553877 -19.239328 130.251114
v 19.239317 19.239315 130.251114
v -13.347045 0.769480 130.251114
v -13.347052 19.239305 130.251114
v 7.995287 -0.244066 0.000000
v 6.630633 -0.244073 0.000000
v 7.995287 -0.244066 131.009842
v 6.630633 -0.244073 131.009842
v 6.630626 1.146901 0.000000
v 7.995280 1.146908 0.000000
v 7.995280 1.146908 131.009842
v 6.630626 1.146901 131.009842
v -12.975375 -0.244066 0.000000
v -14.340029 -0.244073 0.000000
v -12.975375 -0.244066 131.009842
v -14.340029 -0.244073 131.009842
v -14.340035 1.146901 0.000000
v -12.975382 1.146908 0.000000
v -12.975382 1.146908 131.009842
v -14.340035 1.146901 131.009842
v -12.975374 18.817459 0.000000
v -14.340029 18.817453 0.000000
v -12.975374 18.817459 131.009842
v -14.340029 18.817453 131.009842
v -14.340035 20.208427 0.000000
v -12.975382 20.208433 0.000000
v -12.975382 20.208433 131.009842
v -14.340035 20.208427 131.009842
v 20.223434 18.817459 0.000000
v 18.858780 18.817451 0.000000
v 20.223434 18.817459 131.009842
v 18.858780 18.817451 131.009842
v 18.858774 20.208426 0.000000
v 20.223427 20.208433 0.000000
v 20.223427 20.208433 131.009842
v 18.858774 20.208426 131.009842
v 20.223433 -20.155233 0.000000
v 18.858778 -20.155239 0.000000
v 20.223433 -20.155233 131.009842
v 18.858778 -20.155239 131.009842
v 18.858772 -18.764265 0.000000
v 20.223427 -18.764259 0.000000
v 20.223427 -18.764259 131.009842
v 18.858772 -18.764265 131.009842
v 8.054746 -20.155233 0.000000
v 6.690092 -20.155239 0.000000
v 8.054746 -20.155233 131.009842
v 6.690092 -20.155239 131.009842
v 6.690085 -18.764265 0.000000
v 8.054739 -18.764259 0.000000
v 8.054739 -18.764259 131.009842
v 6.690085 -18.764265 131.009842
v 20.008821 -20.008818 128.513504
v 6.784384 -20.008821 128.513504
v 6.784371 20.008804 128.513504
v 20.008810 20.008808 128.513504
v 20.008816 -0.000004 128.513504
v 6.784378 -0.000007 128.513504
v -14.116545 20.008799 128.513504
v -14.116538 -0.000014 128.513504
v 2.878209 16.736649 130.059601
v 4.066545 15.548316 132.592590
v 10.369321 16.736650 130.059601
v 9.180986 15.548314 132.592590
v 2.878209 9.245538 130.059601
v 4.066545 10.433873 132.592590
v 10.369321 9.245539 130.059601
v 9.180984 10.433873 132.592590
v 2.878209 16.736649 132.592590
v 10.369321 16.736650 132.592590
v 10.369321 9.245539 132.592590
v 2.878209 9.245538 132.592590
v 4.066545 15.548316 133.452606
v 9.180986 15.548314 133.452606
v 9.180984 10.433873 133.452606
v 4.066545 10.433873 133.452606
v -5.825672 8.258427 133.648285
v -5.825671 11.380557 133.648285
v -10.347779 11.380557 133.648285
v -10.347780 8.258426 133.648285
v -5.825672 8.258427 133.150345
v -5.825671 11.380557 133.150345
v -10.347779 11.380557 133.150345
v -10.347780 8.258426 133.150345
v -5.259605 11.771375 133.150345
v -5.259605 11.771375 128.944382
v -5.259606 7.867607 133.150345
v -5.259606 7.867607 128.944382
v -10.913846 11.771375 133.150345
v -10.913846 11.771375 128.944382
v -10.913846 7.867607 133.150345
v -10.913846 7.867607 128.944382
v -10.913846 12.831914 128.944382
v -10.913846 12.831914 133.150345
v -10.913846 16.735682 128.944382
v -10.913846 16.735682 133.150345
v -5.259606 12.831915 128.944382
v -5.259606 12.831915 133.150345
v -5.259605 16.735682 128.944382
v -5.259605 16.735682 133.150345
v -10.347780 13.222733 133.150345
v -10.347780 16.344864 133.150345
v -5.825671 16.344866 133.150345
v -5.825671 13.222733 133.150345
v -10.347780 13.222733 133.648285
v -10.347780 16.344864 133.648285
v -5.825671 16.344866 133.648285
v -5.825671 13.222733 133.648285
v -5.825671 3.294119 133.648285
v -5.825671 6.416250 133.648285
v -10.347779 6.416250 133.648285
v -10.347780 3.294119 133.648285
v -5.825671 3.294119 133.150345
v -5.825671 6.416250 133.150345
v -10.347779 6.416250 133.150345
v -10.347780 3.294119 133.150345
v -5.259606 6.807067 133.150345
v -5.259606 6.807067 128.944382
v -5.259606 2.903300 133.150345
v -5.259606 2.903300 128.944382
v -10.913845 6.807067 133.150345
v -10.913845 6.807067 128.944382
v -10.913846 2.903300 133.150345
v -10.913846 2.903300 128.944382
v 16.877140 8.553842 133.648285
v 16.877142 11.675972 133.648285
v 12.355032 11.675971 133.648285
v 12.355031 8.553841 133.648285
v 16.877140 8.553842 133.150345
v 16.877142 11.675972 133.150345
v 12.355032 11.675971 133.150345
v 12.355031 8.553841 133.150345
v 17.443205 12.066790 133.150345
v 17.443205 12.066790 128.944382
v 17.443207 8.163022 133.150345
v 17.443207 8.163022 128.944382
v 11.788965 12.066789 133.150345
v 11.788965 12.066789 128.944382
v 11.788965 8.163022 133.150345
v 11.788965 8.163022 128.944382
v 11.788965 13.127329 128.944382
v 11.788965 13.127329 133.150345
v 11.788965 17.031097 128.944382
v 11.788965 17.031097 133.150345
v 17.443205 13.127329 128.944382
v 17.443205 13.127329 133.150345
v 17.443205 17.031097 128.944382
v 17.443205 17.031097 133.150345
v 12.355031 13.518147 133.150345
v 12.355031 16.640280 133.150345
v 16.877140 16.640280 133.150345
v 16.877142 13.518148 133.150345
v 12.355031 13.518147 133.648285
v 12.355031 16.640280 133.648285
v 16.877140 16.640280 133.648285
v 16.877142 13.518148 133.648285
v 16.877140 3.589533 133.648285
v 16.877140 6.711665 133.648285
v 12.355032 6.711664 133.648285
v 12.355031 3.589534 133.648285
v 16.877140 3.589533 133.150345
v 16.877140 6.711665 133.150345
v 12.355032 6.711664 133.150345
v 12.355031 3.589534 133.150345
v 17.443207 7.102482 133.150345
v 17.443207 7.102482 128.944382
v 17.443205 3.198714 133.150345
v 17.443205 3.198714 128.944382
v 11.788966 7.102482 133.150345
v 11.788966 7.102482 128.944382
v 11.788965 3.198714 133.150345
v 11.788965 3.198714 128.944382
v 18.972017 -2.660067 129.616043
v 18.972017 -2.660067 130.483612
v 18.972017 -19.209026 129.616043
v 18.972017 -19.209026 130.483612
v 14.063942 -2.660067 129.616043
v 14.063942 -2.660067 130.483612
v 14.063943 -19.209026 129.616043
v 14.063943 -19.209026 130.483612
vn -0.0000 -1.0000 -0.0000
vn -0.0000 1.0000 -0.0000
vn 1.0000 -0.0000 -0.0000
vn -0.0000 -0.0000 -1.0000
vn -1.0000 -0.0000 -0.0000
vn -0.0000 -0.0000 1.0000
vt 0.775821 0.715061
vt 0.776470 0.719842
vt 0.791789 0.719842
vt 0.791789 0.715061
vt 0.069804 0.121366
vt 0.106042 0.121366
vt 0.785511 0.715061
vt 0.785511 0.719842
vt 0.775899 0.719842
vt 0.775899 0.715061
vt 0.787969 0.715061
vt 0.787969 0.719842
vt 0.775172 0.719842
vt 0.781047 0.602704
vt 0.812110 0.602704
vt 0.812110 0.582174
vt 0.781047 0.582174
vt 0.047385 0.121366
vt 0.068419 0.174057
vt 0.068419 0.231139
vt 0.749985 0.602704
vt 0.749985 0.582174
vt 0.800767 0.715061
vt 0.800767 0.719842
vt 0.786461 0.715061
vt 0.786461 0.719842
vt 0.802030 0.719842
vt 0.802030 0.715061
vt 0.783038 0.715061
vt 0.783038 0.719842
vt 0.811166 0.719842
vt 0.811266 0.715061
vt 0.781047 0.635151
vt 0.812110 0.635151
vt 0.783334 0.715061
vt 0.783334 0.719842
vt 0.811436 0.719842
vt 0.811436 0.715061
vt 0.774028 0.710394
vt 0.774028 0.510885
vt 0.815075 0.510885
vt 0.814928 0.710394
vt 0.825181 0.510885
vt 0.813244 0.510885
vt 0.813244 0.666016
vt 0.825181 0.666016
vt 0.757603 0.510885
vt 0.757603 0.666016
vt 0.788666 0.666016
vt 0.788666 0.510885
vt 0.824265 0.510885
vt 0.824265 0.666016
vt 0.813185 0.666016
vt 0.813185 0.510885
vt 0.804370 0.666016
vt 0.804370 0.510885
vt 0.772728 0.510885
vt 0.772728 0.666016
vt 0.788666 0.627816
vt 0.757603 0.627816
vt 0.757603 0.596174
vt 0.788666 0.596174
vt 0.470259 0.114397
vt 0.372781 0.114397
vt 0.470259 0.171199
vt 0.372780 0.171198
vt 0.367759 0.176220
vt 0.475280 0.176220
vt 0.475280 0.109376
vt 0.367759 0.109376
vt 0.047385 0.231139
vt 0.069804 0.233334
vt 0.046000 0.233334
vt 0.046000 0.119170
vt 0.069804 0.119170
vt 0.047385 0.176252
vt 0.046000 0.176252
vt 0.069804 0.176252
vt 0.106042 0.174057
vt 0.107427 0.119170
vt 0.107427 0.176252
vt 0.812343 0.510885
vt 0.815264 0.510885
vt 0.815264 0.713946
vt 0.812343 0.713946
vt 0.812509 0.713946
vt 0.812509 0.510885
vt 0.815098 0.510885
vt 0.815098 0.713946
vt 0.783354 0.719842
vt 0.783354 0.715061
vt 0.802361 0.715061
vt 0.802421 0.719842
vt 0.768743 0.510885
vt 0.768743 0.710394
vt 0.815176 0.710394
vt 0.815176 0.510885
vt 0.768026 0.510885
vt 0.768026 0.710394
vt 0.814781 0.510885
vt 0.776333 0.510885
vt 0.776333 0.710394
vt 0.814125 0.710394
vt 0.814125 0.510885
vt 0.811058 0.510885
vt 0.811058 0.710394
vt 0.779996 0.710394
vt 0.779995 0.510885
vt 0.750508 0.710394
vt 0.748933 0.510885
vt 0.750698 0.710394
vt 0.750698 0.510885
vt 0.752084 0.510885
vt 0.789267 0.710394
vt 0.789267 0.510885
vt 0.477506 0.167814
vt 0.477506 0.131985
vt 0.482292 0.131985
vt 0.482292 0.167814
vt 0.160731 0.128156
vt 0.166005 0.128156
vt 0.166005 0.087541
vt 0.160731 0.087541
vt 0.172207 0.128156
vt 0.177481 0.128156
vt 0.177481 0.087541
vt 0.172207 0.087541
vt 0.141654 0.087541
vt 0.154190 0.087541
vt 0.154190 0.128156
vt 0.141654 0.128156
vt 0.177500 0.087541
vt 0.182774 0.087541
vt 0.182774 0.128156
vt 0.177500 0.128156
vt 0.172344 0.124170
vt 0.172344 0.093098
vt 0.151822 0.093098
vt 0.151822 0.124170
vt 0.157311 0.122090
vt 0.196423 0.122090
vt 0.205511 0.128633
vt 0.148223 0.128633
vt 0.196423 0.093933
vt 0.205511 0.087390
vt 0.157311 0.093933
vt 0.148223 0.087390
vt 0.187854 0.043555
vt 0.187854 0.072387
vt 0.163464 0.072387
vt 0.163464 0.043555
vt 0.477506 0.162452
vt 0.477506 0.198281
vt 0.482292 0.198281
vt 0.482292 0.162452
vt 0.290799 0.143249
vt 0.339062 0.143249
vt 0.103240 0.185864
vt 0.103240 0.236381
vt 0.100600 0.231324
vt 0.100600 0.190921
vt 0.275717 0.119990
vt 0.349162 0.119990
vt 0.351653 0.143249
vt 0.278208 0.143249
vt 0.324116 0.119729
vt 0.275853 0.119729
vt 0.274340 0.198923
vt 0.350195 0.198923
vt 0.350195 0.249007
vt 0.274340 0.249007
vt 0.349162 0.054798
vt 0.275717 0.054798
vt 0.076871 0.185864
vt 0.079511 0.190921
vt 0.076871 0.236381
vt 0.079511 0.231324
vt 0.275853 0.054537
vt 0.324116 0.054537
vt 0.339062 0.078057
vt 0.290799 0.078057
vt 0.278208 0.078057
vt 0.351653 0.078057
vt 0.431235 0.243300
vt 0.437902 0.243300
vt 0.437902 0.042572
vt 0.431235 0.042572
vt 0.368758 0.138739
vt 0.368758 0.147133
vt 0.415098 0.147133
vt 0.415098 0.138739
vt 0.368758 0.243300
vt 0.415098 0.243300
vt 0.415098 0.042572
vt 0.368758 0.042572
s 0
usemtl 1
f 97/1/1 33/2/1 34/3/1 98/4/1
f 35/5/1 14/6/1 48/6/1 42/5/1
f 99/7/2 8/8/2 36/9/2 100/10/2
f 101/11/3 37/12/3 33/13/3 97/1/3
f 9/14/4 7/15/4 5/16/4 11/17/4
f 6/18/1 35/5/1 42/5/1 46/18/1
f 38/19/3 4/20/3 45/20/3 41/19/3
f 3/21/4 9/14/4 11/17/4 1/22/4
f 100/23/3 36/24/3 37/12/3 101/11/3
f 98/25/5 34/26/5 10/27/5 102/28/5
f 104/29/5 39/30/5 40/31/5 103/32/5
f 7/15/4 9/14/4 15/33/4 13/34/4
f 102/35/1 10/36/1 39/37/1 104/38/1
f 99/39/2 7/40/2 13/41/2 103/42/2
f 19/43/3 17/44/3 26/45/3 25/46/3
f 23/47/5 27/48/5 28/49/5 21/50/5
f 19/51/2 25/52/2 27/53/2 23/54/2
f 26/55/1 17/56/1 21/57/1 28/58/1
f 17/59/6 19/60/6 23/61/6 21/62/6
f 22/63/3 24/64/3 31/64/3 32/63/3
f 18/65/4 20/66/4 25/67/4 26/68/4
f 24/64/4 22/63/4 28/69/4 27/70/4
f 20/66/4 24/64/4 27/70/4 25/67/4
f 22/63/4 18/65/4 26/68/4 28/69/4
f 29/66/4 30/65/4 32/63/4 31/64/4
f 24/64/1 20/66/1 29/66/1 31/64/1
f 20/66/5 18/65/5 30/65/5 29/66/5
f 18/65/2 22/63/2 32/63/2 30/65/2
f 2/71/6 4/20/6 34/72/6 33/73/6
f 35/5/6 6/18/6 36/74/6 8/75/6
f 12/76/6 2/71/6 33/73/6 37/77/6
f 4/20/6 38/19/6 10/78/6 34/72/6
f 6/18/6 12/76/6 37/77/6 36/74/6
f 16/79/6 14/6/6 40/80/6 39/81/6
f 14/6/6 35/5/6 8/75/6 40/80/6
f 38/19/6 16/79/6 39/81/6 10/78/6
f 41/19/6 42/5/6 48/6/6 47/79/6
f 41/19/6 45/20/6 44/71/6 43/76/6
f 42/5/6 41/19/6 43/76/6 46/18/6
f 12/76/5 6/18/5 46/18/5 43/76/5
f 2/71/5 12/76/5 43/76/5 44/71/5
f 4/20/2 2/71/2 44/71/2 45/20/2
f 16/79/2 38/19/2 41/19/2 47/79/2
f 14/6/3 16/79/3 47/79/3 48/6/3
f 49/82/2 50/83/2 52/84/2 51/85/2
f 54/82/1 55/85/1 56/84/1 53/83/1
f 52/86/3 50/87/3 53/83/3 56/84/3
f 49/88/5 51/89/5 55/85/5 54/82/5
f 51/85/4 52/84/4 56/84/4 55/85/4
f 50/83/6 49/82/6 54/82/6 53/83/6
f 57/82/2 58/83/2 60/84/2 59/85/2
f 62/82/1 63/85/1 64/84/1 61/83/1
f 60/86/3 58/87/3 61/83/3 64/84/3
f 57/88/5 59/89/5 63/85/5 62/82/5
f 59/85/4 60/84/4 64/84/4 63/85/4
f 58/83/6 57/82/6 62/82/6 61/83/6
f 65/82/2 66/83/2 68/84/2 67/85/2
f 70/82/1 71/85/1 72/84/1 69/83/1
f 68/86/3 66/87/3 69/83/3 72/84/3
f 65/88/5 67/89/5 71/85/5 70/82/5
f 67/85/4 68/84/4 72/84/4 71/85/4
f 66/83/6 65/82/6 70/82/6 69/83/6
f 73/82/2 74/83/2 76/84/2 75/85/2
f 78/82/1 79/85/1 80/84/1 77/83/1
f 76/86/3 74/87/3 77/83/3 80/84/3
f 73/88/5 75/89/5 79/85/5 78/82/5
f 75/85/4 76/84/4 80/84/4 79/85/4
f 74/83/6 73/82/6 78/82/6 77/83/6
f 81/82/2 82/83/2 84/84/2 83/85/2
f 86/82/1 87/85/1 88/84/1 85/83/1
f 84/86/3 82/87/3 85/83/3 88/84/3
f 81/88/5 83/89/5 87/85/5 86/82/5
f 83/85/4 84/84/4 88/84/4 87/85/4
f 82/83/6 81/82/6 86/82/6 85/83/6
f 89/82/2 90/83/2 92/84/2 91/85/2
f 94/82/1 95/85/1 96/84/1 93/83/1
f 92/86/3 90/87/3 93/83/3 96/84/3
f 89/88/5 91/89/5 95/85/5 94/82/5
f 91/85/4 92/84/4 96/84/4 95/85/4
f 90/83/6 89/82/6 94/82/6 93/83/6
f 8/90/2 99/91/2 103/92/2 40/93/2
f 9/94/1 102/95/1 104/96/1 15/97/1
f 15/98/5 104/99/5 103/42/5 13/100/5
f 3/101/5 98/102/5 102/103/5 9/104/5
f 5/105/3 100/106/3 101/107/3 11/108/3
f 11/108/3 101/107/3 97/109/3 1/110/3
f 7/40/2 99/39/2 100/111/2 5/112/2
f 1/113/1 97/109/1 98/114/1 3/115/1
f 112/116/3 108/117/3 118/118/3 119/119/3
f 105/120/2 113/121/2 114/122/2 107/123/2
f 107/124/3 114/125/3 115/126/3 111/127/3
f 111/128/1 115/129/1 116/130/1 109/131/1
f 109/132/5 116/133/5 113/134/5 105/135/5
f 107/136/4 111/137/4 109/138/4 105/139/4
f 106/117/5 110/116/5 120/119/5 117/118/5
f 106/140/6 108/141/6 114/142/6 113/143/6
f 108/141/6 112/144/6 115/145/6 114/142/6
f 112/144/6 110/146/6 116/147/6 115/145/6
f 110/146/6 106/140/6 113/143/6 116/147/6
f 119/148/6 118/149/6 117/150/6 120/151/6
f 110/152/1 112/153/1 119/154/1 120/155/1
f 108/153/2 106/152/2 117/155/2 118/154/2
f 125/156/3 126/157/3 122/157/3 121/156/3
f 129/158/6 133/159/6 127/160/6 126/161/6
f 128/162/1 125/163/1 121/163/1 124/162/1
f 126/164/2 127/165/2 123/165/2 122/164/2
f 127/166/5 128/167/5 124/167/5 123/166/5
f 122/168/6 123/169/6 124/170/6 121/171/6
f 132/172/1 131/163/1 135/162/1 136/173/1
f 131/174/6 129/158/6 126/161/6 125/175/6
f 135/176/6 131/174/6 125/175/6 128/177/6
f 133/159/6 135/176/6 128/177/6 127/160/6
f 136/178/5 135/167/5 133/166/5 134/179/5
f 130/180/3 129/157/3 131/156/3 132/181/3
f 134/182/2 133/165/2 129/164/2 130/183/2
f 134/169/4 130/168/4 132/171/4 136/170/4
f 137/178/5 138/167/5 140/166/5 139/179/5
f 139/182/2 140/165/2 144/164/2 143/183/2
f 143/180/3 144/157/3 142/156/3 141/181/3
f 141/172/1 142/163/1 138/162/1 137/173/1
f 139/169/4 143/168/4 141/171/4 137/170/4
f 140/159/6 138/176/6 145/177/6 146/160/6
f 145/162/1 148/163/1 152/163/1 149/162/1
f 138/176/6 142/174/6 148/175/6 145/177/6
f 144/158/6 140/159/6 146/160/6 147/161/6
f 142/174/6 144/158/6 147/161/6 148/175/6
f 151/168/6 150/169/6 149/170/6 152/171/6
f 147/164/2 146/165/2 150/165/2 151/164/2
f 148/156/3 147/157/3 151/157/3 152/156/3
f 146/166/5 145/167/5 149/167/5 150/166/5
f 157/156/3 158/157/3 154/157/3 153/156/3
f 161/158/6 165/159/6 159/160/6 158/161/6
f 160/162/1 157/163/1 153/163/1 156/162/1
f 158/164/2 159/165/2 155/165/2 154/164/2
f 159/166/5 160/167/5 156/167/5 155/166/5
f 154/168/6 155/169/6 156/170/6 153/171/6
f 164/172/1 163/163/1 167/162/1 168/173/1
f 163/174/6 161/158/6 158/161/6 157/175/6
f 167/176/6 163/174/6 157/175/6 160/177/6
f 165/159/6 167/176/6 160/177/6 159/160/6
f 168/178/5 167/167/5 165/166/5 166/179/5
f 162/180/3 161/157/3 163/156/3 164/181/3
f 166/182/2 165/165/2 161/164/2 162/183/2
f 166/169/4 162/168/4 164/171/4 168/170/4
f 173/156/3 174/157/3 170/157/3 169/156/3
f 177/158/6 181/159/6 175/160/6 174/161/6
f 176/162/1 173/163/1 169/163/1 172/162/1
f 174/164/2 175/165/2 171/165/2 170/164/2
f 175/166/5 176/167/5 172/167/5 171/166/5
f 170/168/6 171/169/6 172/170/6 169/171/6
f 180/172/1 179/163/1 183/162/1 184/173/1
f 179/174/6 177/158/6 174/161/6 173/175/6
f 183/176/6 179/174/6 173/175/6 176/177/6
f 181/159/6 183/176/6 176/177/6 175/160/6
f 184/178/5 183/167/5 181/166/5 182/179/5
f 178/180/3 177/157/3 179/156/3 180/181/3
f 182/182/2 181/165/2 177/164/2 178/183/2
f 182/169/4 178/168/4 180/171/4 184/170/4
f 185/178/5 186/167/5 188/166/5 187/179/5
f 187/182/2 188/165/2 192/164/2 191/183/2
f 191/180/3 192/157/3 190/156/3 189/181/3
f 189/172/1 190/163/1 186/162/1 185/173/1
f 187/169/4 191/168/4 189/171/4 185/170/4
f 188/159/6 186/176/6 193/177/6 194/160/6
f 193/162/1 196/163/1 200/163/1 197/162/1
f 186/176/6 190/174/6 196/175/6 193/177/6
f 192/158/6 188/159/6 194/160/6 195/161/6
f 190/174/6 192/158/6 195/161/6 196/175/6
f 199/168/6 198/169/6 197/170/6 200/171/6
f 195/164/2 194/165/2 198/165/2 199/164/2
f 196/156/3 195/157/3 199/157/3 200/156/3
f 194/166/5 193/167/5 197/167/5 198/166/5
f 205/156/3 206/157/3 202/157/3 201/156/3
f 209/158/6 213/159/6 207/160/6 206/161/6
f 208/162/1 205/163/1 201/163/1 204/162/1
f 206/164/2 207/165/2 203/165/2 202/164/2
f 207/166/5 208/167/5 204/167/5 203/166/5
f 202/168/6 203/169/6 204/170/6 201/171/6
f 212/172/1 211/163/1 215/162/1 216/173/1
f 211/174/6 209/158/6 206/161/6 205/175/6
f 215/176/6 211/174/6 205/175/6 208/177/6
f 213/159/6 215/176/6 208/177/6 207/160/6
f 216/178/5 215/167/5 213/166/5 214/179/5
f 210/180/3 209/157/3 211/156/3 212/181/3
f 214/182/2 213/165/2 209/164/2 210/183/2
f 214/169/4 210/168/4 212/171/4 216/170/4
f 217/184/3 218/185/3 220/186/3 219/187/3
f 219/188/1 220/189/1 224/190/1 223/191/1
f 223/187/5 224/186/5 222/185/5 221/184/5
f 221/191/2 222/190/2 218/189/2 217/188/2
f 219/192/4 223/193/4 221/194/4 217/195/4
f 224/193/6 220/192/6 218/195/6 222/194/6
