# Blender 4.5.3 LTS
# www.blender.org
mtllib lowpoly3.mtl
o 立方体.012
v -3.875929 11.004066 0.000000
v -3.399526 10.527661 20.753424
v 11.087208 11.004066 0.000000
v 10.610805 10.527661 20.753424
v -3.875929 -3.959071 0.000000
v -3.399526 -3.482668 20.753424
v 11.087208 -3.959071 0.000000
v 10.610805 -3.482668 20.753424
v 6.747768 6.830911 12.215592
v 7.224172 7.307314 -0.000000
v -12.284925 6.830911 12.215592
v -12.761328 5.761654 1.453517
v -12.761328 -12.678185 1.453517
v -12.284925 -12.201782 12.215592
v 5.685614 -12.678185 1.453517
v 6.747768 -12.201782 12.215592
v -3.875929 11.004066 18.548719
v 11.087208 11.004066 18.548719
v 11.087208 -3.959071 18.548719
v -3.875929 -3.959071 18.548719
v -3.875929 11.004066 20.753424
v 11.087208 11.004066 20.753424
v 11.087208 -3.959071 20.753424
v -3.875929 -3.959071 20.753424
v -12.761328 5.742314 10.662522
v 7.224172 7.307314 12.215592
v 5.700144 -12.678185 10.662521
v -12.761328 -12.678185 10.662522
v -3.399526 10.527661 19.659880
v 10.610805 10.527661 19.659880
v 10.610805 -3.482668 19.659880
v -3.399526 -3.482668 19.659880
v -12.284925 6.830911 11.122047
v 6.747768 6.830911 11.122047
v 6.747768 -12.201782 11.122047
v -12.284925 -12.201782 11.122047
v -0.151763 -5.815218 10.314364
v 0.649654 -6.616634 11.896714
v 4.900261 -5.815218 10.314364
v 4.098845 -6.616634 11.896714
v -0.151763 -10.867241 10.314364
v 0.649654 -10.065826 11.896714
v 4.900261 -10.867241 10.314364
v 4.098845 -10.065826 11.896714
v 4.846846 8.882319 19.419081
v 5.648262 8.080904 21.001434
v 9.898869 8.882319 19.419081
v 9.097453 8.080904 21.001434
v 4.846846 0.197271 19.419081
v 5.648262 0.998688 21.001434
v 9.898869 0.197271 19.419081
v 9.097453 0.998688 21.001434
v -0.151763 -5.815218 11.896714
v 4.900261 -5.815218 11.896714
v 4.900261 -10.867241 11.896714
v -0.151763 -10.867241 11.896714
v 4.846846 8.882319 21.001434
v 9.898869 8.882319 21.001434
v 9.898869 0.197271 21.001434
v 4.846846 0.197271 21.001434
v 0.649654 -6.616634 12.433972
v 4.098845 -6.616634 12.433972
v 4.098845 -10.065826 12.433972
v 0.649654 -10.065826 12.433972
v 5.648262 8.080904 21.538691
v 9.097453 8.080904 21.538691
v 9.097453 0.998688 21.538691
v 5.648262 0.998688 21.538691
v -1.413616 -8.401988 12.671485
v -1.413616 -8.401988 11.011936
v -1.413616 -10.796389 12.671485
v -1.413616 -10.796389 11.011936
v -4.325564 -8.401988 12.671485
v -4.325564 -8.401988 11.011936
v -4.325564 -10.796389 12.671485
v -4.325564 -10.796389 11.011936
v -1.527264 1.242285 19.516560
v -1.527264 1.242285 21.176115
v 0.386262 1.242285 19.516560
v 0.386262 1.242285 21.176115
v -1.527264 -1.669662 19.516560
v -1.527264 -1.669662 21.176115
v 0.386262 -1.669662 19.516560
v 0.386262 -1.669662 21.176115
v -1.335695 0.950760 21.176115
v 0.194693 0.950760 21.176115
v 0.194693 -1.378137 21.176115
v -1.335695 -1.378137 21.176115
v -1.335695 0.950760 21.372587
v 0.194693 0.950760 21.372587
v 0.194693 -1.378137 21.372587
v -1.335695 -1.378137 21.372587
v -4.325564 -7.905192 11.011936
v -4.325564 -7.905192 12.671485
v -4.325564 -5.510792 11.011936
v -4.325564 -5.510792 12.671485
v -1.413616 -7.905192 11.011936
v -1.413616 -7.905192 12.671485
v -1.413616 -5.510792 11.011936
v -1.413616 -5.510792 12.671485
v -4.034039 -7.665481 12.671485
v -4.034039 -5.750503 12.671485
v -1.705141 -5.750503 12.671485
v -1.705141 -7.665481 12.671485
v -4.034039 -7.665481 12.867963
v -4.034039 -5.750503 12.867963
v -1.705141 -5.750503 12.867963
v -1.705141 -7.665481 12.867963
v -4.034039 -10.556675 12.671485
v -4.034039 -8.641699 12.671485
v -1.705141 -8.641699 12.671485
v -1.705141 -10.556675 12.671485
v -4.034039 -10.556675 12.867963
v -4.034039 -8.641699 12.867963
v -1.705141 -8.641699 12.867963
v -1.705141 -10.556675 12.867963
v 7.224172 7.307314 7.850168
v 7.224172 7.307314 4.203230
v -12.761328 5.676192 4.965059
v -12.761328 5.676192 7.088341
v 5.722489 -12.678185 7.088339
v 5.722489 -12.678185 4.965058
v -12.761328 -12.678185 7.088339
v -12.761328 -12.678185 4.965058
v -12.761328 5.761654 3.527475
v -12.761328 5.742314 8.563052
v 5.700144 -12.678185 8.563049
v 5.685614 -12.678185 3.527474
v -12.761328 -12.678185 4.203230
v -12.761328 -12.678185 7.850168
v -12.761328 7.307314 7.850169
v -12.761328 7.307314 12.215592
v 7.224172 -12.678185 12.215592
v -12.761328 -12.678185 12.215592
v 7.224172 -12.678185 7.850168
v -12.761328 -12.678185 8.563050
v 7.224172 -12.678185 4.203230
v 7.224172 -12.678185 -0.000000
v -12.761328 -12.678185 -0.000000
v -12.761328 7.307314 -0.000000
v -12.761328 7.307314 4.203230
v -12.761328 -12.678185 3.527474
v -12.475451 -12.392308 3.527474
v -12.475451 -12.392308 1.453517
v -12.475451 -12.392308 10.662522
v -12.475451 -12.392308 8.563050
v -12.475451 -12.392308 7.088339
v -12.475451 -12.392308 4.965058
v -12.357037 5.676192 4.965059
v -12.357037 5.676192 7.088341
v 5.722489 -12.273894 7.088339
v 5.722489 -12.273894 4.965058
v -12.357037 5.742314 8.563052
v -12.357037 5.742314 10.662522
v 5.700144 -12.273894 10.662521
v 5.700144 -12.273894 8.563049
v 5.685614 -12.273894 3.527474
v 5.685614 -12.273894 1.453517
v -12.357037 5.761654 1.453517
v -12.357037 5.761654 3.527475
vn -0.0000 1.0000 -0.0000
vn 1.0000 -0.0000 -0.0000
vn -0.0000 -1.0000 -0.0000
vn -1.0000 -0.0000 -0.0000
vn -0.0000 -0.0000 -1.0000
vn -0.0000 -0.0000 1.0000
vn 0.0065 -1.0000 -0.0000
vn -1.0000 0.0065 -0.0000
vn -1.0000 0.0066 -0.0000
vt 0.162239 0.549586
vt 0.162239 0.562596
vt 0.252629 0.562596
vt 0.252629 0.549586
vt 0.162239 0.549586
vt 0.125000 0.500000
vt 0.375000 0.500000
vt 0.375000 0.750000
vt 0.125000 0.750000
vt 0.204181 0.086595
vt 0.204181 0.129334
vt 0.017363 0.940170
vt 0.017363 0.980632
vt 0.129774 0.980632
vt 0.129774 0.940599
vt 0.017363 0.939762
vt 0.017363 0.981264
vt 0.129774 0.981264
vt 0.129774 0.939762
vt 0.025810 0.847354
vt 0.025810 0.866935
vt 0.025935 0.880535
vt 0.025935 0.899897
vt 0.142208 0.129334
vt 0.142208 0.086595
vt 0.269405 0.329990
vt 0.269405 0.454755
vt 0.180355 0.454755
vt 0.180355 0.329990
vt 0.183449 0.215250
vt 0.183449 0.178887
vt 0.184685 0.177651
vt 0.184685 0.216486
vt 0.147086 0.178887
vt 0.145850 0.177651
vt 0.147086 0.215250
vt 0.145850 0.216486
vt 0.205732 0.085525
vt 0.205732 0.130403
vt 0.140657 0.085525
vt 0.140657 0.130403
vt 0.391102 0.175202
vt 0.401166 0.175202
vt 0.401166 0.110760
vt 0.391102 0.110760
vt 0.413001 0.175202
vt 0.423066 0.175202
vt 0.423066 0.110760
vt 0.413001 0.110760
vt 0.401202 0.110760
vt 0.411266 0.110760
vt 0.411266 0.175202
vt 0.401202 0.175202
vt 0.423101 0.110760
vt 0.433165 0.110760
vt 0.433165 0.175202
vt 0.423101 0.175202
vt 0.413262 0.168878
vt 0.413262 0.119578
vt 0.374102 0.119578
vt 0.374102 0.168878
vt 0.477506 0.167814
vt 0.477506 0.131985
vt 0.482292 0.131985
vt 0.482292 0.167814
vt 0.384576 0.165578
vt 0.459211 0.165578
vt 0.476552 0.175958
vt 0.367234 0.175958
vt 0.459211 0.120902
vt 0.476552 0.110522
vt 0.384576 0.120902
vt 0.367234 0.110522
vt 0.420638 0.050749
vt 0.420638 0.110681
vt 0.369938 0.110681
vt 0.369938 0.050749
vt 0.420638 0.177690
vt 0.420638 0.237622
vt 0.369938 0.237622
vt 0.369938 0.177690
vt 0.477506 0.228747
vt 0.477506 0.192918
vt 0.482292 0.192918
vt 0.482292 0.228747
vt 0.477506 0.162452
vt 0.477506 0.198281
vt 0.482292 0.198281
vt 0.482292 0.162452
vt 0.477506 0.162452
vt 0.482292 0.162452
vt 0.103240 0.236381
vt 0.076871 0.236381
vt 0.079511 0.231324
vt 0.100600 0.231324
vt 0.350195 0.198923
vt 0.274340 0.198923
vt 0.274340 0.249007
vt 0.350195 0.249007
vt 0.349162 0.054798
vt 0.349162 0.119990
vt 0.275717 0.119990
vt 0.275717 0.054798
vt 0.339062 0.078057
vt 0.339062 0.143249
vt 0.290799 0.143249
vt 0.290799 0.078057
vt 0.278208 0.078057
vt 0.278208 0.143249
vt 0.351653 0.143249
vt 0.351653 0.078057
vt 0.275853 0.054537
vt 0.275853 0.119729
vt 0.324116 0.119729
vt 0.324116 0.054537
vt 0.076871 0.185864
vt 0.079511 0.190921
vt 0.103240 0.185864
vt 0.100600 0.190921
vt 0.026538 0.933127
vt 0.026538 0.913597
vt 0.026017 0.834096
vt 0.129774 0.834096
vt 0.129774 0.965677
vt 0.026166 0.965817
vt 0.129774 0.899876
vt 0.026057 0.900283
vt 0.017363 0.865131
vt 0.017363 0.905091
vt 0.129774 0.905091
vt 0.129774 0.865131
vt 0.017363 0.868610
vt 0.017363 0.906631
vt 0.129774 0.907155
vt 0.129774 0.868610
vt 0.017363 0.840328
vt 0.017363 0.873961
vt 0.129774 0.913133
vt 0.129774 0.906108
vt 0.129774 0.932715
vt 0.129774 0.939740
vt 0.129774 0.847354
vt 0.129774 0.840328
vt 0.129774 0.866935
vt 0.129774 0.873961
vt 0.026166 0.946647
vt 0.017363 0.979999
vt 0.129774 0.899897
vt 0.017363 0.914220
vt 0.129774 0.914220
vt 0.129774 0.979999
vt 0.129774 0.946315
vt 0.129774 0.880535
vt 0.026017 0.814970
vt 0.017363 0.801565
vt 0.129774 0.814970
vt 0.129774 0.801565
vt 0.129774 0.880749
vt 0.026057 0.880916
vt 0.017363 0.867345
vt 0.129774 0.867345
s 0
usemtl 1
f 17/1/1 21/2/1 22/3/1 18/4/1
f 18/1/2 22/2/2 23/3/2 19/4/2
f 19/4/3 23/3/3 24/2/3 20/5/3
f 20/4/4 24/3/4 21/2/4 17/1/4
f 3/6/5 7/7/5 5/8/5 1/9/5
f 9/10/3 11/11/3 33/11/3 34/10/3
f 131/12/1 132/13/1 26/14/1 117/15/1
f 117/16/2 26/17/2 133/18/2 135/19/2
f 122/20/4 121/21/4 151/21/4 152/20/4
f 127/22/4 27/23/4 155/23/4 156/22/4
f 10/6/5 138/7/5 139/8/5 140/9/5
f 14/24/1 16/25/1 35/25/1 36/24/1
f 5/26/4 20/27/4 17/28/4 1/29/4
f 7/26/3 19/27/3 20/28/3 5/29/3
f 3/29/2 18/28/2 19/27/2 7/26/2
f 1/29/1 17/28/1 18/27/1 3/26/1
f 2/30/6 4/31/6 22/32/6 21/33/6
f 4/31/6 8/34/6 23/35/6 22/32/6
f 8/34/6 6/36/6 24/37/6 23/35/6
f 6/36/6 2/30/6 21/33/6 24/37/6
f 11/11/6 9/10/6 26/38/6 132/39/6
f 9/10/6 16/25/6 133/40/6 26/38/6
f 16/25/6 14/24/6 134/41/6 133/40/6
f 14/24/6 11/11/6 132/39/6 134/41/6
f 31/34/6 30/31/6 29/30/6 32/36/6
f 35/25/6 34/10/6 33/11/6 36/24/6
f 6/36/1 8/34/1 31/34/1 32/36/1
f 4/31/3 2/30/3 29/30/3 30/31/3
f 11/11/2 14/24/2 36/24/2 33/11/2
f 16/25/4 9/10/4 34/10/4 35/25/4
f 2/30/2 6/36/2 32/36/2 29/30/2
f 8/34/4 4/31/4 30/31/4 31/34/4
f 37/42/1 53/43/1 54/44/1 39/45/1
f 39/46/2 54/47/2 55/48/2 43/49/2
f 43/50/3 55/51/3 56/52/3 41/53/3
f 41/54/4 56/55/4 53/56/4 37/57/4
f 39/58/5 43/59/5 41/60/5 37/61/5
f 52/62/2 48/63/2 66/64/2 67/65/2
f 45/42/1 57/43/1 58/44/1 47/45/1
f 47/46/2 58/47/2 59/48/2 51/49/2
f 51/50/3 59/51/3 60/52/3 49/53/3
f 49/54/4 60/55/4 57/56/4 45/57/4
f 47/58/5 51/59/5 49/60/5 45/61/5
f 46/63/4 50/62/4 68/65/4 65/64/4
f 38/66/6 40/67/6 54/68/6 53/69/6
f 40/67/6 44/70/6 55/71/6 54/68/6
f 44/70/6 42/72/6 56/73/6 55/71/6
f 42/72/6 38/66/6 53/69/6 56/73/6
f 46/66/6 48/67/6 58/68/6 57/69/6
f 48/67/6 52/70/6 59/71/6 58/68/6
f 52/70/6 50/72/6 60/73/6 59/71/6
f 50/72/6 46/66/6 57/69/6 60/73/6
f 63/74/6 62/75/6 61/76/6 64/77/6
f 67/78/6 66/79/6 65/80/6 68/81/6
f 38/82/4 42/83/4 64/84/4 61/85/4
f 44/83/2 40/82/2 62/85/2 63/84/2
f 50/86/3 52/87/3 67/88/3 68/89/3
f 48/87/1 46/86/1 65/89/1 66/88/1
f 42/87/3 44/90/3 63/91/3 64/88/3
f 40/90/1 38/87/1 61/88/1 62/91/1
f 73/92/6 75/93/6 109/94/6 110/95/6
f 74/96/5 70/97/5 72/98/5 76/99/5
f 72/100/3 71/101/3 75/102/3 76/103/3
f 70/104/2 69/105/2 71/106/2 72/107/2
f 74/108/1 73/109/1 69/110/1 70/111/1
f 76/112/4 75/113/4 73/114/4 74/115/4
f 77/112/1 78/113/1 80/114/1 79/115/1
f 79/108/2 80/109/2 84/110/2 83/111/2
f 83/104/3 84/105/3 82/106/3 81/107/3
f 81/100/4 82/101/4 78/102/4 77/103/4
f 79/96/5 83/97/5 81/98/5 77/99/5
f 80/92/6 78/93/6 85/94/6 86/95/6
f 85/102/4 88/101/4 92/101/4 89/102/4
f 78/93/6 82/116/6 88/117/6 85/94/6
f 84/118/6 80/92/6 86/95/6 87/119/6
f 82/116/6 84/118/6 87/119/6 88/117/6
f 91/97/6 90/96/6 89/99/6 92/98/6
f 87/110/2 86/109/2 90/109/2 91/110/2
f 88/106/3 87/105/3 91/105/3 92/106/3
f 86/114/1 85/113/1 89/113/1 90/114/1
f 93/112/4 94/113/4 96/114/4 95/115/4
f 95/108/1 96/109/1 100/110/1 99/111/1
f 99/104/2 100/105/2 98/106/2 97/107/2
f 97/100/3 98/101/3 94/102/3 93/103/3
f 95/96/5 99/97/5 97/98/5 93/99/5
f 96/92/6 94/93/6 101/94/6 102/95/6
f 101/102/3 104/101/3 108/101/3 105/102/3
f 94/93/6 98/116/6 104/117/6 101/94/6
f 100/118/6 96/92/6 102/95/6 103/119/6
f 98/116/6 100/118/6 103/119/6 104/117/6
f 107/97/6 106/96/6 105/99/6 108/98/6
f 103/110/1 102/109/1 106/109/1 107/110/1
f 104/106/2 103/105/2 107/105/2 108/106/2
f 102/114/4 101/113/4 105/113/4 106/114/4
f 109/102/3 112/101/3 116/101/3 113/102/3
f 75/93/6 71/116/6 112/117/6 109/94/6
f 69/118/6 73/92/6 110/95/6 111/119/6
f 71/116/6 69/118/6 111/119/6 112/117/6
f 115/97/6 114/96/6 113/99/6 116/98/6
f 111/110/1 110/109/1 114/109/1 115/110/1
f 112/106/2 111/105/2 115/105/2 116/106/2
f 110/114/4 109/113/4 113/113/4 114/114/4
f 120/120/3 119/121/3 149/121/3 150/120/3
f 128/122/5 142/123/5 143/123/5 157/122/5
f 28/124/5 25/125/5 154/125/5 145/124/5
f 142/126/5 125/127/5 160/127/5 143/126/5
f 10/128/2 118/129/2 137/130/2 138/131/2
f 118/129/2 117/16/2 135/19/2 137/130/2
f 140/132/1 141/133/1 118/134/1 10/135/1
f 141/133/1 131/12/1 117/15/1 118/134/1
f 119/121/4 120/120/4 131/12/4 141/133/4
f 121/21/3 122/20/3 137/136/3 135/137/3
f 124/138/4 119/121/4 141/133/4 129/139/4
f 120/120/4 123/140/4 130/141/4 131/12/4
f 122/20/3 124/142/3 129/143/3 137/136/3
f 123/144/3 121/21/3 135/137/3 130/145/3
f 126/146/4 25/125/4 132/147/4 131/12/4
f 28/148/3 27/23/3 133/149/3 134/150/3
f 25/125/4 28/124/4 134/151/4 132/147/4
f 27/23/3 127/22/3 135/137/3 133/149/3
f 136/152/4 126/146/4 131/12/4 130/141/4
f 127/22/3 136/153/3 130/145/3 135/137/3
f 128/122/3 15/154/3 138/155/3 137/136/3
f 15/154/3 13/156/3 139/157/3 138/155/3
f 13/158/4 12/159/4 140/160/4 139/161/4
f 12/159/4 125/127/4 141/133/4 140/160/4
f 125/127/4 142/126/4 129/139/4 141/133/4
f 142/123/3 128/122/3 137/136/3 129/143/3
f 156/22/7 155/23/7 145/148/7 146/153/7
f 146/152/8 145/124/8 154/125/8 153/146/8
f 144/158/8 143/126/8 160/127/8 159/159/8
f 148/138/9 147/140/9 150/120/9 149/121/9
f 158/154/7 157/122/7 143/123/7 144/156/7
f 152/20/7 151/21/7 147/144/7 148/142/7
f 126/146/6 136/152/6 146/152/6 153/146/6
f 15/154/4 128/122/4 157/122/4 158/154/4
f 119/121/6 124/138/6 148/138/6 149/121/6
f 136/153/6 127/22/6 156/22/6 146/153/6
f 13/156/6 15/154/6 158/154/6 144/156/6
f 123/140/5 120/120/5 150/120/5 147/140/5
f 12/159/6 13/158/6 144/158/6 159/159/6
f 124/142/6 122/20/6 152/20/6 148/142/6
f 25/125/3 126/146/3 153/146/3 154/125/3
f 125/127/3 12/159/3 159/159/3 160/127/3
f 121/21/5 123/144/5 147/144/5 151/21/5
f 27/23/5 28/148/5 145/148/5 155/23/5
