# Blender 4.5.3 LTS
# www.blender.org
mtllib lowpoly13.mtl
o 立方体.011
v 11.984020 19.652334 104.713921
v 19.783169 11.853186 104.713921
v 19.783169 11.853186 55.817516
v 11.984020 19.652334 55.817516
v -19.649336 11.853186 104.713921
v -11.850186 19.652334 104.713921
v -11.850186 19.652334 55.817516
v -19.649336 11.853186 55.817516
v -19.649336 11.853186 0.000000
v -11.850186 19.652334 0.000000
v -11.850186 19.652334 48.896400
v -19.649336 11.853186 48.896400
v 11.984020 19.652334 0.000000
v 19.783169 11.853186 0.000000
v 19.783169 11.853186 48.896400
v 11.984020 19.652334 48.896400
v -11.850186 -19.780169 0.000000
v -19.649336 -11.981020 0.000000
v -19.649336 -11.981020 48.896400
v -11.850186 -19.780169 48.896400
v 19.783169 -11.981020 0.000000
v 11.984020 -19.780169 0.000000
v 11.984020 -19.780169 48.896400
v 19.783169 -11.981020 48.896400
v -11.850186 -19.780169 55.817516
v -19.649336 -11.981020 55.817516
v -19.649336 -11.981020 104.713921
v -11.850186 -19.780169 104.713921
v 19.783169 -11.981020 55.817516
v 11.984020 -19.780169 55.817516
v 11.984020 -19.780169 104.713921
v 19.783169 -11.981020 104.713921
v 11.984020 19.652334 160.531433
v 19.783169 11.853186 160.531433
v 19.783169 11.853186 111.635048
v 11.984020 19.652334 111.635048
v -19.649336 11.853186 160.531433
v -11.850186 19.652334 160.531433
v -11.850186 19.652334 111.635048
v -19.649336 11.853186 111.635048
v -11.850186 -19.780169 111.635048
v -19.649336 -11.981020 111.635048
v -19.649336 -11.981020 160.531433
v -11.850186 -19.780169 160.531433
v 19.783169 -11.981020 111.635048
v 11.984020 -19.780169 111.635048
v 11.984020 -19.780169 160.531433
v 19.783169 -11.981020 160.531433
v 8.957606 12.345927 180.888412
v 12.476761 8.826773 180.888412
v 19.783169 11.853186 167.452576
v 11.984020 19.652334 167.452576
v -12.342928 8.826773 180.888412
v -8.823773 12.345927 180.888412
v -11.850186 19.652334 167.452576
v -19.649336 11.853186 167.452576
v -11.850186 -19.780169 167.452576
v -19.649336 -11.981020 167.452576
v -12.342928 -8.954607 180.888412
v -8.823773 -12.473762 180.888412
v 19.783169 -11.981020 167.452576
v 11.984020 -19.780169 167.452576
v 8.957606 -12.473762 180.888412
v 12.476761 -8.954607 180.888412
v 8.422153 13.759406 170.100143
v 13.890240 8.291319 170.100143
v 13.890240 8.291319 24.390842
v 8.422153 13.759406 24.390842
v -13.756405 8.291319 170.100143
v -8.288321 13.759406 170.100143
v -8.288321 13.759406 24.390842
v -13.756405 8.291319 24.390842
v -8.288321 -13.887240 24.390842
v -13.756405 -8.419154 24.390842
v -13.756405 -8.419154 170.100143
v -8.288321 -13.887240 170.100143
v 13.890240 -8.419154 24.390842
v 8.422153 -13.887240 24.390842
v 8.422153 -13.887240 170.100143
v 13.890240 -8.419154 170.100143
v 19.783169 -11.981020 180.888412
v 11.984020 -19.780169 180.888412
v 11.984020 19.652334 180.888412
v 19.783169 11.853186 180.888412
v -19.649336 11.853186 180.888412
v -11.850186 19.652334 180.888412
v -11.850186 -19.780169 180.888412
v -19.649336 -11.981020 180.888412
v -11.246087 -8.500281 189.007370
v -8.369447 -11.376921 189.007370
v -8.369447 11.249086 189.007370
v -11.246087 8.372446 189.007370
v 11.379920 8.372446 189.007370
v 8.503280 11.249086 189.007370
v 8.503280 -11.376921 189.007370
v 11.379920 -8.500281 189.007370
v 17.562555 11.806710 0.506489
v 17.562555 11.806710 187.016220
v 18.826660 11.806710 0.506489
v 18.826660 11.806710 187.016220
v 17.562555 10.542608 0.506489
v 17.562555 10.542608 187.016220
v 18.826660 10.542608 0.506489
v 18.826660 10.542608 187.016220
v 17.562555 -10.270411 0.506489
v 17.562555 -10.270411 187.016220
v 18.826660 -10.270411 0.506489
v 18.826660 -10.270411 187.016220
v 17.562555 -11.534513 0.506489
v 17.562555 -11.534513 187.016220
v 18.826660 -11.534513 0.506489
v 18.826660 -11.534513 187.016220
v -18.570015 11.806710 0.506489
v -18.570015 11.806710 187.016220
v -17.305910 11.806710 0.506489
v -17.305910 11.806710 187.016220
v -18.570015 10.542608 0.506489
v -18.570015 10.542608 187.016220
v -17.305910 10.542608 0.506489
v -17.305910 10.542608 187.016220
v -18.570015 -10.270411 0.506489
v -18.570015 -10.270411 187.016220
v -17.305910 -10.270411 0.506489
v -17.305910 -10.270411 187.016220
v -18.570015 -11.534513 0.506489
v -18.570015 -11.534513 187.016220
v -17.305910 -11.534513 0.506489
v -17.305910 -11.534513 187.016220
v 11.798979 -17.298168 0.506493
v 11.798979 -17.298168 187.016205
v 11.798979 -18.562273 0.506493
v 11.798979 -18.562273 187.016205
v 10.534877 -17.298168 0.506493
v 10.534877 -17.298168 187.016205
v 10.534877 -18.562273 0.506493
v 10.534877 -18.562273 187.016205
v -10.278142 -17.298168 0.506493
v -10.278142 -17.298168 187.016205
v -10.278142 -18.562273 0.506493
v -10.278142 -18.562273 187.016205
v -11.542244 -17.298168 0.506493
v -11.542244 -17.298168 187.016205
v -11.542244 -18.562273 0.506493
v -11.542244 -18.562273 187.016205
v 11.798980 18.834404 0.506493
v 11.798980 18.834404 187.016205
v 11.798980 17.570299 0.506493
v 11.798980 17.570299 187.016205
v 10.534878 18.834404 0.506493
v 10.534878 18.834404 187.016205
v 10.534878 17.570299 0.506493
v 10.534878 17.570299 187.016205
v -10.278141 18.834404 0.506493
v -10.278141 18.834404 187.016205
v -10.278141 17.570299 0.506493
v -10.278141 17.570299 187.016205
v -11.542243 18.834404 0.506493
v -11.542243 18.834404 187.016205
v -11.542243 17.570299 0.506493
v -11.542243 17.570299 187.016205
v 12.385554 -11.291568 0.506493
v 12.385554 -11.291568 187.016205
v 13.378090 -12.284105 0.506493
v 13.378090 -12.284105 187.016205
v 11.393020 -12.284102 0.506493
v 11.393020 -12.284102 187.016205
v 12.385556 -13.276638 0.506493
v 12.385556 -13.276638 187.016205
v -12.128825 -11.291564 0.506493
v -12.128825 -11.291564 187.016205
v -11.136289 -12.284101 0.506493
v -11.136289 -12.284101 187.016205
v -13.121359 -12.284099 0.506493
v -13.121359 -12.284099 187.016205
v -12.128822 -13.276635 0.506493
v -12.128822 -13.276635 187.016205
v 12.385555 13.175287 0.506493
v 12.385555 13.175287 187.016205
v 13.378092 12.182751 0.506493
v 13.378092 12.182751 187.016205
v 11.393021 12.182753 0.506493
v 11.393021 12.182753 187.016205
v 12.385557 11.190216 0.506493
v 12.385557 11.190216 187.016205
v -12.128824 13.175293 0.506493
v -12.128824 13.175293 187.016205
v -11.136288 12.182757 0.506493
v -11.136288 12.182757 187.016205
v -13.121359 12.182759 0.506493
v -13.121359 12.182759 187.016205
v -12.128821 11.190223 0.506493
v -12.128821 11.190223 187.016205
v 0.633983 -17.298168 0.506493
v 0.633983 -17.298168 187.016205
v 0.633983 -18.562273 0.506493
v 0.633983 -18.562273 187.016205
v -0.630119 -17.298168 0.506493
v -0.630119 -17.298168 187.016205
v -0.630119 -18.562273 0.506493
v -0.630119 -18.562273 187.016205
v 0.633984 18.834404 0.506493
v 0.633984 18.834404 187.016205
v 0.633984 17.570299 0.506493
v 0.633984 17.570299 187.016205
v -0.630118 18.834404 0.506493
v -0.630118 18.834404 187.016205
v -0.630118 17.570299 0.506493
v -0.630118 17.570299 187.016205
v -17.432245 -0.496040 0.506499
v -17.432245 -0.496040 187.016205
v -18.696350 -0.496040 0.506499
v -18.696350 -0.496040 187.016205
v -17.432245 0.768062 0.506499
v -17.432245 0.768062 187.016205
v -18.696350 0.768062 0.506499
v -18.696350 0.768062 187.016205
v 18.700327 -0.496043 0.506499
v 18.700327 -0.496043 187.016205
v 17.436222 -0.496043 0.506499
v 17.436222 -0.496043 187.016205
v 18.700327 0.768059 0.506499
v 18.700327 0.768059 187.016205
v 17.436222 0.768059 0.506499
v 17.436222 0.768059 187.016205
v 18.232159 11.210736 180.470154
v 11.341571 18.101326 180.470154
v -11.207737 18.101326 180.470154
v -18.098326 11.210736 180.470154
v -11.207737 -18.229160 180.470154
v -18.098326 -11.338571 180.470154
v 18.232159 -11.338571 180.470154
v 11.341571 -18.229160 180.470154
v 18.232159 -11.338571 186.072556
v 11.341571 -18.229160 186.072556
v 11.341571 18.101326 186.072556
v 18.232159 11.210736 186.072556
v -18.098326 11.210736 186.072556
v -11.207737 18.101326 186.072556
v -11.207737 -18.229160 186.072556
v -18.098326 -11.338571 186.072556
v 16.436264 -10.594687 180.470154
v 16.436264 -10.594687 186.072556
v 10.597687 -16.433266 180.470154
v 10.597687 -16.433266 186.072556
v 16.436264 10.466852 180.470154
v 10.597687 16.305431 180.470154
v 16.436264 10.466852 186.072556
v 10.597687 16.305431 186.072556
v -10.463854 16.305431 180.470154
v -16.302431 10.466852 180.470154
v -10.463854 16.305431 186.072556
v -16.302431 10.466852 186.072556
v -10.463854 -16.433266 186.072556
v -16.302431 -10.594687 186.072556
v -16.302431 -10.594687 180.470154
v -10.463854 -16.433266 180.470154
v 12.476761 -8.954607 189.007370
v 8.957606 -12.473762 189.007370
v 12.476761 8.826773 189.007370
v -8.823773 12.345927 189.007370
v 8.957606 12.345927 189.007370
v -12.342928 8.826773 189.007370
v -8.823773 -12.473762 189.007370
v -12.342928 -8.954607 189.007370
v 11.379920 -8.500281 187.612686
v 8.503280 -11.376921 187.612686
v 11.379920 8.372446 187.612686
v -8.369447 11.249086 187.612686
v 8.503280 11.249086 187.612686
v -11.246087 8.372446 187.612686
v -8.369447 -11.376921 187.612686
v -11.246087 -8.500281 187.612686
v -12.342928 8.826773 187.816681
v -8.823773 12.345927 187.816681
v 12.476761 -8.954607 187.816681
v 8.957606 -12.473762 187.816681
v 12.476761 8.826773 187.816681
v -12.342928 -8.954607 187.816681
v -8.823773 -12.473762 187.816681
v 8.957606 12.345927 187.816681
vn -1.0000 -0.0000 -0.0000
vn -0.0000 -1.0000 -0.0000
vn -0.0000 -0.0000 1.0000
vn -0.0000 1.0000 -0.0000
vn 1.0000 -0.0000 -0.0000
vn -0.7071 0.7071 -0.0000
vn 0.7071 0.7071 -0.0000
vn 0.7071 -0.7071 -0.0000
vn -0.7071 -0.7071 -0.0000
vn -0.0000 -0.0000 -1.0000
vt 0.981505 0.365776
vt 0.981505 0.567848
vt 0.856944 0.567848
vt 0.856944 0.365776
vt 0.856944 0.532902
vt 0.856944 0.330830
vt 0.981505 0.330830
vt 0.981505 0.532902
vt 0.981505 0.280542
vt 0.981505 0.482614
vt 0.856944 0.482614
vt 0.856944 0.280542
vt 0.056874 0.166631
vt 0.044569 0.147131
vt 0.044569 0.087537
vt 0.056874 0.068036
vt 0.094475 0.068036
vt 0.106779 0.087537
vt 0.106779 0.147131
vt 0.094475 0.166631
vt 0.864843 0.365776
vt 0.864843 0.567848
vt 0.855679 0.567848
vt 0.855679 0.365776
vt 0.982082 0.567848
vt 0.982082 0.365776
vt 0.973593 0.365776
vt 0.973593 0.567848
vt 0.125000 0.549446
vt 0.174446 0.500000
vt 0.325554 0.500000
vt 0.375000 0.549446
vt 0.375000 0.700554
vt 0.325554 0.750000
vt 0.174446 0.750000
vt 0.125000 0.700554
vt 0.856944 0.320602
vt 0.856944 0.522674
vt 0.981505 0.522674
vt 0.981505 0.320602
vt 0.056874 0.165443
vt 0.044569 0.145943
vt 0.044569 0.086349
vt 0.056874 0.066848
vt 0.094475 0.066848
vt 0.106779 0.086349
vt 0.106779 0.145943
vt 0.094475 0.165443
vt 0.981505 0.474354
vt 0.981505 0.529880
vt 0.856944 0.529880
vt 0.856944 0.474354
vt 0.954651 0.889758
vt 0.954651 0.883602
vt 0.956617 0.883602
vt 0.956617 0.889758
vt 0.864843 0.474354
vt 0.864843 0.529880
vt 0.855679 0.529880
vt 0.855679 0.474354
vt 0.982082 0.529880
vt 0.982082 0.474354
vt 0.973593 0.474354
vt 0.973593 0.529880
vt 0.957740 0.807760
vt 0.957740 0.965094
vt 0.944191 0.965094
vt 0.944191 0.807760
vt 0.625000 0.549446
vt 0.674446 0.500000
vt 0.825554 0.500000
vt 0.875000 0.549446
vt 0.875000 0.700554
vt 0.825554 0.750000
vt 0.674446 0.750000
vt 0.625000 0.700554
vt 0.939757 0.965094
vt 0.939757 0.807760
vt 0.962173 0.965094
vt 0.962173 0.807760
vt 0.206506 0.145130
vt 0.199348 0.152288
vt 0.184488 0.146133
vt 0.200351 0.130270
vt 0.249828 0.152288
vt 0.242670 0.145130
vt 0.248826 0.130270
vt 0.264688 0.146133
vt 0.242670 0.195610
vt 0.249828 0.188452
vt 0.264688 0.194607
vt 0.248826 0.210470
vt 0.199349 0.188452
vt 0.206506 0.195610
vt 0.200351 0.210470
vt 0.184488 0.194607
vt 0.057683 0.122005
vt 0.057683 0.087688
vt 0.954651 0.846341
vt 0.954651 0.852498
vt 0.956617 0.852498
vt 0.956617 0.846341
vt 0.981436 0.278771
vt 0.981436 0.560405
vt 0.976490 0.560405
vt 0.976490 0.278771
vt 0.981436 0.420542
vt 0.976490 0.420542
vt 0.976490 0.418633
vt 0.981436 0.418633
vt 0.942252 0.819310
vt 0.957689 0.819310
vt 0.957689 0.912762
vt 0.942252 0.912762
vt 0.957689 0.941319
vt 0.942252 0.941319
vt 0.957689 0.790753
vt 0.942252 0.790753
vt 0.942252 0.822393
vt 0.942252 0.909679
vt 0.957689 0.909679
vt 0.957689 0.822393
vt 0.942252 0.933876
vt 0.957689 0.933876
vt 0.957689 0.798196
vt 0.942252 0.798196
vt 0.458364 0.092028
vt 0.456885 0.097396
vt 0.415030 0.097396
vt 0.413551 0.092028
vt 0.472057 0.180024
vt 0.468488 0.177800
vt 0.468488 0.114847
vt 0.472057 0.112624
vt 0.458364 0.200620
vt 0.456885 0.195252
vt 0.415030 0.195252
vt 0.413551 0.200620
vt 0.399858 0.180024
vt 0.403427 0.177800
vt 0.403427 0.114847
vt 0.399858 0.112624
vt 0.063534 0.081838
vt 0.055452 0.086764
vt 0.062610 0.079607
vt 0.097850 0.081838
vt 0.098774 0.079607
vt 0.103701 0.122005
vt 0.103701 0.087688
vt 0.105931 0.086764
vt 0.105931 0.122929
vt 0.097850 0.127855
vt 0.098774 0.130086
vt 0.055452 0.122929
vt 0.063534 0.127855
vt 0.062610 0.130086
vt 0.247314 0.170307
vt 0.222606 0.170307
vt 0.222606 0.184709
vt 0.247314 0.184709
vt 0.217717 0.170307
vt 0.217717 0.184709
vt 0.252204 0.170307
vt 0.252204 0.184709
vt 0.247314 0.184709
s 0
usemtl 1
f 18/1/1 19/2/1 12/3/1 9/4/1
f 22/5/2 23/6/2 20/7/2 17/8/2
f 26/9/1 27/10/1 5/11/1 8/12/1
f 23/13/3 24/14/3 15/15/3 16/16/3 11/17/3 12/18/3 19/19/3 20/20/3
f 10/4/4 11/3/4 16/2/4 13/1/4
f 14/12/5 15/11/5 24/10/5 21/9/5
f 9/21/6 12/22/6 11/23/6 10/24/6
f 15/22/7 14/21/7 13/24/7 16/23/7
f 23/25/8 22/26/8 21/27/8 24/28/8
f 19/28/9 18/27/9 17/26/9 20/25/9
f 13/29/10 14/30/10 21/31/10 22/32/10 17/33/10 18/34/10 9/35/10 10/36/10
f 30/37/2 31/38/2 28/39/2 25/40/2
f 31/13/3 32/14/3 2/15/3 1/16/3 6/17/3 5/18/3 27/19/3 28/20/3
f 7/40/4 6/39/4 1/38/4 4/37/4
f 3/4/5 2/3/5 32/2/5 29/1/5
f 8/21/6 5/22/6 6/23/6 7/24/6
f 2/22/7 3/21/7 4/24/7 1/23/7
f 31/25/8 30/26/8 29/27/8 32/28/8
f 27/28/9 26/27/9 25/26/9 28/25/9
f 4/41/10 3/42/10 29/43/10 30/44/10 25/45/10 26/46/10 8/47/10 7/48/10
f 42/5/1 43/6/1 37/7/1 40/8/1
f 46/9/2 47/10/2 44/11/2 41/12/2
f 47/13/3 48/14/3 34/15/3 33/16/3 38/17/3 37/18/3 43/19/3 44/20/3
f 39/4/4 38/3/4 33/2/4 36/1/4
f 35/4/5 34/3/5 48/2/5 45/1/5
f 40/21/6 37/22/6 38/23/6 39/24/6
f 34/22/7 35/21/7 36/24/7 33/23/7
f 47/25/8 46/26/8 45/27/8 48/28/8
f 43/28/9 42/27/9 41/26/9 44/25/9
f 36/41/10 35/42/10 45/43/10 46/44/10 41/45/10 42/46/10 40/47/10 39/48/10
f 58/49/1 88/50/1 85/51/1 56/52/1
f 62/49/2 82/50/2 87/51/2 57/52/2
f 274/53/6 273/54/6 262/55/6 260/56/6
f 55/52/4 86/51/4 83/50/4 52/49/4
f 51/52/5 84/51/5 81/50/5 61/49/5
f 56/57/6 85/58/6 86/59/6 55/60/6
f 84/58/7 51/57/7 52/60/7 83/59/7
f 82/61/8 62/62/8 61/63/8 81/64/8
f 88/64/9 58/63/9 57/62/9 87/61/9
f 52/41/10 51/42/10 61/43/10 62/44/10 57/45/10 58/46/10 56/47/10 55/48/10
f 74/65/1 75/66/1 69/67/1 72/68/1
f 78/65/2 79/66/2 76/67/2 73/68/2
f 79/69/3 80/70/3 66/71/3 65/72/3 70/73/3 69/74/3 75/75/3 76/76/3
f 71/68/4 70/67/4 65/66/4 68/65/4
f 67/68/5 66/67/5 80/66/5 77/65/5
f 72/68/6 69/67/6 70/77/6 71/78/6
f 66/79/7 67/80/7 68/65/7 65/66/7
f 79/66/8 78/65/8 77/80/8 80/79/8
f 75/66/9 74/65/9 73/80/9 76/79/9
f 68/29/10 67/30/10 77/31/10 78/32/10 73/33/10 74/34/10 72/35/10 71/36/10
f 64/81/3 63/82/3 82/83/3 81/84/3
f 49/85/3 50/86/3 84/87/3 83/88/3
f 53/89/3 54/90/3 86/91/3 85/92/3
f 60/93/3 59/94/3 88/95/3 87/96/3
f 54/90/3 49/85/3 83/88/3 86/91/3
f 59/94/3 53/89/3 85/92/3 88/95/3
f 63/82/3 60/93/3 87/96/3 82/83/3
f 50/86/3 64/81/3 81/84/3 84/87/3
f 90/97/4 95/98/4 266/98/4 271/97/4
f 276/99/8 275/100/8 257/101/8 258/102/8
f 275/100/5 277/54/5 259/55/5 257/101/5
f 273/54/1 278/100/1 264/101/1 262/55/1
f 278/100/9 279/99/9 263/102/9 264/101/9
f 277/54/7 280/53/7 261/56/7 259/55/7
f 279/54/2 276/100/2 258/101/2 263/55/2
f 280/100/4 274/54/4 260/55/4 261/101/4
f 151/103/1 152/104/1 150/105/1 149/106/1
f 125/103/1 126/104/1 122/105/1 121/106/1
f 146/105/5 148/104/5 147/103/5 145/106/5
f 103/103/2 104/104/2 102/105/2 101/106/2
f 141/103/4 142/104/4 138/105/4 137/106/4
f 136/107/3 132/108/3 130/109/3 134/110/3
f 120/107/3 116/108/3 114/109/3 118/110/3
f 144/107/3 140/108/3 138/109/3 142/110/3
f 117/103/1 118/104/1 114/105/1 113/106/1
f 123/108/10 127/107/10 125/110/10 121/109/10
f 224/107/3 220/108/3 218/109/3 222/110/3
f 107/108/10 111/107/10 109/110/10 105/109/10
f 123/106/5 124/105/5 128/104/5 127/103/5
f 180/104/7 179/103/7 177/106/7 178/105/7
f 182/105/9 181/106/9 183/103/9 184/104/9
f 179/108/10 183/107/10 181/110/10 177/109/10
f 115/108/10 119/107/10 117/110/10 113/109/10
f 171/106/8 172/105/8 176/104/8 175/103/8
f 131/106/2 132/105/2 136/104/2 135/103/2
f 135/107/10 133/110/10 129/109/10 131/108/10
f 108/104/4 107/103/4 105/106/4 106/105/4
f 118/105/2 117/106/2 119/103/2 120/104/2
f 139/106/2 140/105/2 144/104/2 143/103/2
f 99/106/5 100/105/5 104/104/5 103/103/5
f 138/105/5 140/104/5 139/103/5 137/106/5
f 109/103/1 110/104/1 106/105/1 105/106/1
f 207/103/1 208/104/1 206/105/1 205/106/1
f 151/107/10 149/110/10 145/109/10 147/108/10
f 112/107/3 108/108/3 106/109/3 110/110/3
f 208/107/3 204/108/3 202/109/3 206/110/3
f 111/103/2 112/104/2 110/105/2 109/106/2
f 156/104/5 155/103/5 153/106/5 154/105/5
f 159/103/1 160/104/1 158/105/1 157/106/1
f 168/107/3 164/108/3 162/109/3 166/110/3
f 104/107/3 100/108/3 98/109/3 102/110/3
f 217/106/2 218/105/2 220/104/2 219/103/2
f 163/108/10 167/107/10 165/110/10 161/109/10
f 124/104/4 123/103/4 121/106/4 122/105/4
f 99/108/10 103/107/10 101/110/10 97/109/10
f 163/106/8 164/105/8 168/104/8 167/103/8
f 167/103/9 168/104/9 166/105/9 165/106/9
f 184/107/3 180/108/3 178/109/3 182/110/3
f 162/105/7 164/104/7 163/103/7 161/106/7
f 176/107/3 172/108/3 170/109/3 174/110/3
f 174/105/9 173/106/9 175/103/9 176/104/9
f 130/105/4 129/106/4 133/103/4 134/104/4
f 171/108/10 175/107/10 173/110/10 169/109/10
f 135/103/1 136/104/1 134/105/1 133/106/1
f 173/103/6 174/104/6 170/105/6 169/106/6
f 170/105/7 172/104/7 171/103/7 169/106/7
f 222/105/4 221/106/4 223/103/4 224/104/4
f 181/103/6 182/104/6 178/105/6 177/106/6
f 129/106/5 130/105/5 132/104/5 131/103/5
f 186/105/7 188/104/7 187/103/7 185/106/7
f 179/106/8 180/105/8 184/104/8 183/103/8
f 198/105/1 197/106/1 199/103/1 200/104/1
f 189/103/6 190/104/6 186/105/6 185/106/6
f 209/106/2 210/105/2 212/104/2 211/103/2
f 187/108/10 191/107/10 189/110/10 185/109/10
f 139/108/10 143/107/10 141/110/10 137/109/10
f 191/103/9 192/104/9 190/105/9 189/106/9
f 143/103/1 144/104/1 142/105/1 141/106/1
f 165/103/6 166/104/6 162/105/6 161/106/6
f 187/106/8 188/105/8 192/104/8 191/103/8
f 195/106/2 196/105/2 200/104/2 199/103/2
f 200/107/3 196/108/3 194/109/3 198/110/3
f 114/105/4 116/104/4 115/103/4 113/106/4
f 199/107/10 197/110/10 193/109/10 195/108/10
f 197/103/4 198/104/4 194/105/4 193/106/4
f 152/107/3 148/108/3 146/109/3 150/110/3
f 193/106/5 194/105/5 196/104/5 195/103/5
f 203/108/10 207/107/10 205/110/10 201/109/10
f 205/103/4 206/104/4 202/105/4 201/106/4
f 98/105/4 100/104/4 99/103/4 97/106/4
f 101/103/1 102/104/1 98/105/1 97/106/1
f 203/106/2 204/105/2 208/104/2 207/103/2
f 149/103/4 150/104/4 146/105/4 145/106/4
f 147/106/2 148/105/2 152/104/2 151/103/2
f 218/105/5 217/106/5 221/103/5 222/104/5
f 216/107/3 212/108/3 210/109/3 214/110/3
f 214/105/4 213/106/4 215/103/4 216/104/4
f 215/107/10 213/110/10 209/109/10 211/108/10
f 128/107/3 124/108/3 122/109/3 126/110/3
f 202/105/5 204/104/5 203/103/5 201/106/5
f 155/106/2 156/105/2 160/104/2 159/103/2
f 115/106/5 116/105/5 120/104/5 119/103/5
f 107/106/5 108/105/5 112/104/5 111/103/5
f 160/107/3 156/108/3 154/109/3 158/110/3
f 192/107/3 188/108/3 186/109/3 190/110/3
f 223/107/10 221/110/10 217/109/10 219/108/10
f 155/108/10 159/107/10 157/110/10 153/109/10
f 127/103/2 128/104/2 126/105/2 125/106/2
f 219/106/1 220/105/1 224/104/1 223/103/1
f 211/106/1 212/105/1 216/104/1 215/103/1
f 210/105/5 209/106/5 213/103/5 214/104/5
f 157/103/4 158/104/4 154/105/4 153/106/4
f 230/111/1 240/112/1 237/113/1 228/114/1
f 232/111/2 234/112/2 239/113/2 229/114/2
f 227/114/4 238/113/4 235/112/4 226/111/4
f 225/114/5 236/113/5 233/112/5 231/111/5
f 228/114/6 237/113/6 238/115/6 227/116/6
f 236/113/7 225/114/7 226/116/7 235/115/7
f 234/117/8 232/118/8 231/111/8 233/112/8
f 240/112/9 230/111/9 229/118/9 239/117/9
f 255/119/5 250/120/5 252/121/5 254/122/5
f 243/119/4 256/120/4 253/121/4 244/122/4
f 249/120/2 246/119/2 248/122/2 251/121/2
f 245/120/1 241/119/1 242/122/1 247/121/1
f 250/120/8 249/123/8 251/124/8 252/121/8
f 247/121/9 248/124/9 246/123/9 245/120/9
f 244/125/6 242/122/6 241/119/6 243/126/6
f 254/122/7 253/125/7 256/126/7 255/119/7
f 234/127/3 244/128/3 253/129/3 239/130/3
f 236/131/3 247/132/3 242/133/3 233/134/3
f 232/127/10 243/128/10 241/133/10 231/134/10
f 226/135/10 246/136/10 249/137/10 227/138/10
f 237/139/3 252/140/3 251/137/3 238/138/3
f 233/134/3 242/133/3 244/128/3 234/127/3
f 231/134/10 241/133/10 245/132/10 225/131/10
f 225/131/10 245/132/10 246/136/10 226/135/10
f 229/130/10 256/129/10 243/128/10 232/127/10
f 228/139/10 250/140/10 255/141/10 230/142/10
f 239/130/3 253/129/3 254/141/3 240/142/3
f 235/135/3 248/136/3 247/132/3 236/131/3
f 238/138/3 251/137/3 248/136/3 235/135/3
f 227/138/10 249/137/10 250/140/10 228/139/10
f 240/142/3 254/141/3 252/140/3 237/139/3
f 230/142/10 255/141/10 256/129/10 229/130/10
f 96/143/3 95/98/3 258/144/3 257/145/3
f 93/146/3 96/143/3 257/145/3 259/147/3
f 91/148/3 94/149/3 261/150/3 260/151/3
f 92/152/3 91/148/3 260/151/3 262/153/3
f 95/98/3 90/97/3 263/154/3 258/144/3
f 90/97/3 89/155/3 264/156/3 263/154/3
f 94/149/3 93/146/3 259/147/3 261/150/3
f 89/155/3 92/152/3 262/153/3 264/156/3
f 266/98/3 265/143/3 267/146/3 269/149/3 268/148/3 270/152/3 272/155/3 271/97/3
f 94/149/2 91/148/2 268/148/2 269/149/2
f 95/98/6 96/143/6 265/143/6 266/98/6
f 92/152/5 89/155/5 272/155/5 270/152/5
f 89/155/7 90/97/7 271/97/7 272/155/7
f 91/148/8 92/152/8 270/152/8 268/148/8
f 96/143/1 93/146/1 267/146/1 265/143/1
f 93/146/9 94/149/9 269/149/9 267/146/9
f 49/157/4 54/158/4 274/159/4 280/160/4
f 60/158/2 63/157/2 276/160/2 279/159/2
f 50/158/7 49/161/7 280/162/7 277/159/7
f 59/157/9 60/163/9 279/164/9 278/160/9
f 53/158/1 59/157/1 278/160/1 273/159/1
f 64/157/5 50/158/5 277/159/5 275/165/5
f 63/163/8 64/157/8 275/165/8 276/164/8
f 54/161/6 53/158/6 273/159/6 274/162/6
