# Blender 4.5.3 LTS
# www.blender.org
mtllib lowpoly18.mtl
o 立方体.002
v 7.183114 18.265768 0.000000
v 6.618722 17.701378 136.453613
v -7.183107 -18.265768 0.000000
v -6.618716 -17.701378 136.453613
v 0.865812 25.058826 0.000000
v 1.430203 24.494436 172.978363
v 15.232033 -11.472710 0.000000
v 14.667643 -10.908319 172.978363
v -9.853754 27.369114 16.816086
v 15.152198 27.369114 16.816086
v -9.853754 10.127170 16.816086
v 15.152198 10.127170 16.816086
v -9.853754 27.369114 0.044995
v 15.152198 27.369114 0.044995
v 15.152198 10.127170 0.044995
v -9.853754 10.127170 0.044995
v 7.183114 18.265768 40.748482
v -7.183107 -18.265768 40.748482
v 0.865812 25.058826 53.887608
v 15.232033 -11.472710 53.887608
v 8.978326 25.058826 0.000000
v 15.232033 18.805119 0.000000
v 14.667643 18.571341 172.978363
v 8.744547 24.494436 172.978363
v 7.119520 -11.472710 0.000000
v 0.865812 -5.219001 0.000000
v 1.430203 -4.985222 172.978363
v 7.353298 -10.908319 172.978363
v 8.978326 25.058826 53.887608
v 15.232033 18.805119 53.887608
v 7.119520 -11.472710 53.887608
v 0.865812 -5.219001 53.887608
v -7.183107 11.509469 0.000000
v -0.426807 18.265768 0.000000
v -0.193029 17.701378 136.453613
v -6.618716 11.275690 136.453613
v 7.183114 -11.509469 0.000000
v 0.426814 -18.265768 0.000000
v 0.193035 -17.701378 136.453613
v 6.618722 -11.275690 136.453613
v -0.426807 18.265768 40.748482
v -7.183107 11.509469 40.748482
v 7.183114 -11.509469 40.748482
v 0.426814 -18.265768 40.748482
v 7.183114 18.265768 133.248489
v -7.183107 -18.265768 133.248489
v -7.183107 11.509469 133.248489
v -0.426807 18.265768 133.248489
v 0.426814 -18.265768 133.248489
v 7.183114 -11.509469 133.248489
v 0.865812 25.058826 167.892776
v 15.232033 -11.472710 167.892776
v 15.232033 18.805119 167.892776
v 8.978326 25.058826 167.892776
v 0.865812 -5.219001 167.892776
v 7.119520 -11.472710 167.892776
v 8.978326 25.058826 172.978363
v 15.232033 18.805119 172.978363
v 7.119520 -11.472710 172.978363
v 0.865812 -5.219001 172.978363
v 15.232033 -11.472710 172.978363
v 0.865812 25.058826 172.978363
v -7.183107 11.509469 136.453613
v -0.426807 18.265768 136.453613
v 7.183114 -11.509469 136.453613
v 0.426814 -18.265768 136.453613
v -7.183107 -18.265768 136.453613
v 7.183114 18.265768 136.453613
v 8.744547 24.494436 172.140640
v 14.667643 18.571341 172.140640
v 7.353298 -10.908319 172.140640
v 1.430203 -4.985222 172.140640
v 14.667643 -10.908319 172.140640
v 1.430203 24.494436 172.140640
v -6.618716 11.275690 135.615891
v -0.193029 17.701378 135.615891
v 6.618722 -11.275690 135.615891
v 0.193035 -17.701378 135.615891
v -6.618716 -17.701378 135.615891
v 6.618722 17.701378 135.615891
v 8.725522 0.492879 172.264221
v 9.461794 -0.243395 173.833618
v 13.366887 0.492879 172.264221
v 12.630614 -0.243395 173.833618
v 8.725522 -4.148485 172.264221
v 9.461794 -3.412215 173.833618
v 13.366887 -4.148485 172.264221
v 12.630614 -3.412215 173.833618
v 1.414404 24.199081 171.575104
v 2.150676 23.462809 173.144501
v 6.055768 24.199081 171.575104
v 5.319496 23.462809 173.144501
v 1.414404 19.557714 171.575104
v 2.150676 20.293987 173.144501
v 6.055768 19.557714 171.575104
v 5.319496 20.293987 173.144501
v 8.725522 0.492879 173.833618
v 13.366887 0.492879 173.833618
v 13.366887 -4.148485 173.833618
v 8.725522 -4.148485 173.833618
v 1.414404 24.199081 173.144501
v 6.055768 24.199081 173.144501
v 6.055768 19.557714 173.144501
v 1.414404 19.557714 173.144501
v 9.461794 -0.243395 174.366455
v 12.630614 -0.243395 174.366455
v 12.630614 -3.412215 174.366455
v 9.461794 -3.412215 174.366455
v 2.150676 23.462809 173.677353
v 5.319496 23.462809 173.677353
v 5.319496 20.293987 173.677353
v 2.150676 20.293987 173.677353
v 1.373321 -2.163431 171.959091
v 1.373321 -2.163431 172.617126
v 10.822394 -2.163431 171.959091
v 10.822394 -2.163431 172.617126
v 10.822394 -11.325680 171.959091
v 10.822394 -11.325680 172.617126
v 7.521887 10.629108 174.517639
v 9.456304 10.629108 174.517639
v 9.456304 13.430927 174.517639
v 7.521887 13.430927 174.517639
v 7.521887 10.629108 174.209137
v 9.456304 10.629108 174.209137
v 9.456304 13.430927 174.209137
v 7.521887 13.430927 174.209137
v 9.698448 10.278381 174.209137
v 9.698448 10.278381 171.603195
v 7.279742 10.278381 174.209137
v 7.279742 10.278381 171.603195
v 9.698448 13.781651 174.209137
v 9.698448 13.781651 171.603195
v 7.279742 13.781651 174.209137
v 7.279742 13.781651 171.603195
v 10.355542 13.781651 171.603195
v 10.355542 13.781651 174.209137
v 12.774248 13.781651 171.603195
v 12.774248 13.781651 174.209137
v 10.355542 10.278381 171.603195
v 10.355542 10.278381 174.209137
v 12.774248 10.278381 171.603195
v 12.774248 10.278381 174.209137
v 10.597686 13.430927 174.209137
v 12.532104 13.430927 174.209137
v 12.532104 10.629106 174.209137
v 10.597686 10.629108 174.209137
v 10.597686 13.430927 174.517639
v 12.532104 13.430927 174.517639
v 12.532104 10.629106 174.517639
v 10.597686 10.629108 174.517639
v 4.446085 10.629108 174.517639
v 6.380505 10.629108 174.517639
v 6.380505 13.430927 174.517639
v 4.446085 13.430927 174.517639
v 4.446085 10.629108 174.209137
v 6.380505 10.629108 174.209137
v 6.380505 13.430927 174.209137
v 4.446085 13.430927 174.209137
v 6.622647 10.278381 174.209137
v 6.622647 10.278381 171.603195
v 4.203940 10.278381 174.209137
v 4.203940 10.278381 171.603195
v 6.622647 13.781651 174.209137
v 6.622647 13.781651 171.603195
v 4.203940 13.781653 174.209137
v 4.203940 13.781653 171.603195
v 7.397068 14.931458 174.517639
v 9.331484 14.931458 174.517639
v 9.331484 17.733278 174.517639
v 7.397068 17.733278 174.517639
v 7.397068 14.931458 174.209137
v 9.331484 14.931458 174.209137
v 9.331484 17.733278 174.209137
v 7.397068 17.733278 174.209137
v 9.573628 14.580732 174.209137
v 9.573628 14.580732 171.603195
v 7.154922 14.580732 174.209137
v 7.154922 14.580732 171.603195
v 9.573628 18.084002 174.209137
v 9.573628 18.084002 171.603195
v 7.154923 18.084002 174.209137
v 7.154923 18.084002 171.603195
v 10.230724 18.084002 171.603195
v 10.230724 18.084002 174.209137
v 12.649430 18.084002 171.603195
v 12.649430 18.084002 174.209137
v 10.230724 14.580732 171.603195
v 10.230724 14.580732 174.209137
v 12.649430 14.580732 171.603195
v 12.649430 14.580732 174.209137
v 10.472868 17.733278 174.209137
v 12.407285 17.733276 174.209137
v 12.407285 14.931458 174.209137
v 10.472870 14.931458 174.209137
v 10.472868 17.733278 174.517639
v 12.407285 17.733276 174.517639
v 12.407285 14.931458 174.517639
v 10.472870 14.931458 174.517639
v 4.321266 14.931458 174.517639
v 6.255687 14.931458 174.517639
v 6.255687 17.733278 174.517639
v 4.321266 17.733278 174.517639
v 4.321266 14.931458 174.209137
v 6.255687 14.931458 174.209137
v 6.255687 17.733278 174.209137
v 4.321266 17.733278 174.209137
v 6.497828 14.580732 174.209137
v 6.497828 14.580732 171.603195
v 4.079121 14.580732 174.209137
v 4.079121 14.580732 171.603195
v 6.497828 18.084002 174.209137
v 6.497828 18.084002 171.603195
v 4.079121 18.084002 174.209137
v 4.079121 18.084002 171.603195
v 1.260739 8.315349 171.988602
v 1.260739 8.315349 172.587631
v 14.673154 8.315349 171.988602
v 14.673154 8.315349 172.587631
v 1.260739 4.151706 171.988602
v 1.260739 4.151706 172.587631
v 14.673154 4.151706 171.988602
v 14.673154 4.151706 172.587631
v 7.544885 -11.325680 171.959091
v 1.373321 -5.154119 171.959091
v 1.373321 -5.154119 172.617126
v 7.544885 -11.325680 172.617126
v 15.232033 -11.472710 110.890190
v 15.232033 18.805119 110.890190
v 0.865812 -5.219001 110.890190
v 0.865812 25.058826 110.890190
v 8.978326 25.058826 110.890190
v 7.119520 -11.472710 110.890190
v 7.183114 18.265768 89.003235
v -7.183107 -18.265768 89.003235
v -0.426807 18.265768 89.003235
v 0.426814 -18.265768 89.003235
v -7.183107 11.509469 89.003235
v 7.183114 -11.509469 89.003235
vn -0.0000 -1.0000 -0.0000
vn -0.0000 1.0000 -0.0000
vn -1.0000 -0.0000 -0.0000
vn 1.0000 -0.0000 -0.0000
vn -0.0000 -0.0000 -1.0000
vn -0.0000 -0.0000 1.0000
vn 0.7071 0.7071 -0.0000
vn -0.7071 -0.7071 -0.0000
vn -0.7071 0.7071 -0.0000
vn 0.7071 -0.7071 -0.0000
vn -0.0000 -0.0001 1.0000
vn -0.0000 0.0001 1.0000
vt 0.371024 0.160542
vt 0.371024 0.135732
vt 0.839611 0.903029
vt 0.848884 0.903029
vt 0.848884 0.930747
vt 0.839611 0.930747
vt 0.839611 0.906138
vt 0.848884 0.906138
vt 0.848884 0.878421
vt 0.839611 0.878421
vt 0.600200 0.396438
vt 0.600200 0.544857
vt 0.514054 0.544857
vt 0.514054 0.396438
vt 0.494507 0.396438
vt 0.494507 0.544857
vt 0.580653 0.544857
vt 0.580653 0.396438
vt 0.528082 0.342663
vt 0.528082 0.538939
vt 0.504611 0.538939
vt 0.504611 0.342663
vt 0.859749 0.878846
vt 0.873085 0.878846
vt 0.873085 0.849298
vt 0.859749 0.849298
vt 0.859749 0.923465
vt 0.873085 0.923465
vt 0.873085 0.813183
vt 0.859749 0.813183
vt 0.471901 0.147858
vt 0.471901 0.174500
vt 0.873085 0.813183
vt 0.859749 0.813183
vt 0.350064 0.110144
vt 0.350064 0.250444
vt 0.273221 0.250444
vt 0.273221 0.110144
vt 0.625000 0.500000
vt 0.875000 0.500000
vt 0.875000 0.750000
vt 0.625000 0.750000
vt 0.067169 0.756306
vt 0.159479 0.756306
vt 0.159479 0.643270
vt 0.067169 0.643270
vt 0.046386 0.756306
vt 0.180262 0.756306
vt 0.180262 0.643270
vt 0.046386 0.643270
vt 0.839611 0.811024
vt 0.848884 0.811024
vt 0.848884 0.919475
vt 0.839611 0.919475
vt 0.839611 0.944084
vt 0.848884 0.944084
vt 0.848884 0.835633
vt 0.839611 0.835633
vt 0.527118 0.396438
vt 0.527118 0.544857
vt 0.505101 0.544857
vt 0.505101 0.396438
vt 0.493322 0.428685
vt 0.579468 0.428685
vt 0.599015 0.404076
vt 0.599015 0.376358
vt 0.512869 0.376358
vt 0.493322 0.400967
vt 0.859749 0.889676
vt 0.873085 0.889676
vt 0.873085 0.919225
vt 0.859749 0.919225
vt 0.501243 0.342663
vt 0.501243 0.538939
vt 0.588843 0.538939
vt 0.588843 0.342663
vt 0.473668 0.435224
vt 0.491761 0.458002
vt 0.579362 0.458002
vt 0.579362 0.428453
vt 0.561268 0.405675
vt 0.473668 0.405675
vt 0.501243 0.342663
vt 0.501243 0.538939
vt 0.588843 0.538939
vt 0.588843 0.342663
vt 0.483149 0.342663
vt 0.483149 0.538939
vt 0.483149 0.342663
vt 0.483149 0.538939
vt 0.578249 0.543526
vt 0.578249 0.340666
vt 0.560156 0.340666
vt 0.560156 0.543526
vt 0.486517 0.543526
vt 0.486517 0.340666
vt 0.504611 0.340666
vt 0.504611 0.543526
vt 0.536684 0.342663
vt 0.536684 0.538939
vt 0.560156 0.538939
vt 0.560156 0.342663
vt 0.546665 0.396438
vt 0.546665 0.544857
vt 0.527118 0.517783
vt 0.527118 0.369016
vt 0.546665 0.369016
vt 0.546665 0.517783
vt 0.524648 0.396438
vt 0.524648 0.544857
vt 0.514054 0.370646
vt 0.514054 0.519413
vt 0.494507 0.519413
vt 0.494507 0.370646
vt 0.580653 0.519413
vt 0.580653 0.370646
vt 0.600200 0.370646
vt 0.600200 0.519413
vt 0.524648 0.370646
vt 0.524648 0.519413
vt 0.546665 0.519413
vt 0.546665 0.370646
vt 0.527118 0.370646
vt 0.527118 0.519413
vt 0.505101 0.519413
vt 0.505101 0.370646
vt 0.873085 0.942003
vt 0.859749 0.942003
vt 0.873085 0.826520
vt 0.859749 0.826520
vt 0.528082 0.339717
vt 0.528082 0.542576
vt 0.504611 0.542576
vt 0.504611 0.339717
vt 0.501243 0.339717
vt 0.501243 0.542576
vt 0.588843 0.542576
vt 0.588843 0.339717
vt 0.501243 0.339717
vt 0.501243 0.542576
vt 0.588843 0.542576
vt 0.588843 0.339717
vt 0.536684 0.339717
vt 0.536684 0.542576
vt 0.560156 0.542576
vt 0.560156 0.339717
vt 0.369473 0.152926
vt 0.386610 0.174499
vt 0.385933 0.176555
vt 0.367840 0.153777
vt 0.454764 0.126284
vt 0.455440 0.124229
vt 0.473534 0.147007
vt 0.473534 0.176555
vt 0.369473 0.126285
vt 0.367840 0.124229
vt 0.389614 0.112327
vt 0.369391 0.134880
vt 0.388938 0.110272
vt 0.454861 0.160542
vt 0.473452 0.137138
vt 0.475084 0.137989
vt 0.455537 0.162598
vt 0.473451 0.112327
vt 0.475084 0.110272
vt 0.369391 0.162598
vt 0.203935 0.112691
vt 0.222526 0.136096
vt 0.222525 0.241639
vt 0.202818 0.241639
vt 0.184227 0.218235
vt 0.184227 0.112691
vt 0.391102 0.175202
vt 0.401166 0.175202
vt 0.401166 0.110760
vt 0.391102 0.110760
vt 0.413001 0.175202
vt 0.423066 0.175202
vt 0.423066 0.110760
vt 0.413001 0.110760
vt 0.401202 0.110760
vt 0.411266 0.110760
vt 0.411266 0.175202
vt 0.401202 0.175202
vt 0.423101 0.110760
vt 0.433165 0.110760
vt 0.433165 0.175202
vt 0.423101 0.175202
vt 0.413262 0.168878
vt 0.413262 0.119578
vt 0.374102 0.119578
vt 0.374102 0.168878
vt 0.477506 0.167814
vt 0.477506 0.131985
vt 0.482292 0.131985
vt 0.482292 0.167814
vt 0.384576 0.165578
vt 0.459211 0.165578
vt 0.476552 0.175958
vt 0.367234 0.175958
vt 0.459211 0.120902
vt 0.476552 0.110522
vt 0.384576 0.120902
vt 0.367234 0.110522
vt 0.420638 0.050749
vt 0.420638 0.110681
vt 0.369938 0.110681
vt 0.369938 0.050749
vt 0.420638 0.177690
vt 0.420638 0.237622
vt 0.369938 0.237622
vt 0.369938 0.177690
vt 0.477506 0.228747
vt 0.477506 0.192918
vt 0.482292 0.192918
vt 0.482292 0.228747
vt 0.477506 0.162452
vt 0.477506 0.198281
vt 0.482292 0.198281
vt 0.482292 0.162452
vt 0.477506 0.162452
vt 0.482292 0.162452
vt 0.102439 0.133430
vt 0.102439 0.092683
vt 0.050436 0.092683
vt 0.085464 0.133430
vt 0.050436 0.106816
vt 0.290799 0.143249
vt 0.339062 0.143249
vt 0.103240 0.185864
vt 0.103240 0.236381
vt 0.100600 0.231324
vt 0.100600 0.190921
vt 0.275717 0.119990
vt 0.349162 0.119990
vt 0.351653 0.143249
vt 0.278208 0.143249
vt 0.324116 0.119729
vt 0.275853 0.119729
vt 0.274340 0.198923
vt 0.350195 0.198923
vt 0.350195 0.249007
vt 0.274340 0.249007
vt 0.349162 0.054798
vt 0.275717 0.054798
vt 0.076871 0.185864
vt 0.079511 0.190921
vt 0.076871 0.236381
vt 0.079511 0.231324
vt 0.275853 0.054537
vt 0.324116 0.054537
vt 0.339062 0.078057
vt 0.290799 0.078057
vt 0.278208 0.078057
vt 0.351653 0.078057
vt 0.431235 0.243300
vt 0.437902 0.243300
vt 0.437902 0.042572
vt 0.431235 0.042572
vt 0.368758 0.138739
vt 0.368758 0.147133
vt 0.415098 0.147133
vt 0.415098 0.138739
vt 0.368758 0.243300
vt 0.415098 0.243300
vt 0.415098 0.042572
vt 0.368758 0.042572
vt 0.536684 0.340666
vt 0.536684 0.543526
vt 0.501243 0.340666
vt 0.501243 0.543526
vt 0.588843 0.543526
vt 0.588843 0.340666
vt 0.501243 0.340666
vt 0.501243 0.543526
vt 0.588843 0.543526
vt 0.588843 0.340666
vt 0.528082 0.340666
vt 0.528082 0.543526
vt 0.486517 0.542576
vt 0.486517 0.339717
vt 0.578249 0.542576
vt 0.578249 0.339717
vt 0.505101 0.517783
vt 0.505101 0.369016
vt 0.524648 0.369016
vt 0.524648 0.517783
vt 0.600200 0.369016
vt 0.600200 0.517783
vt 0.514054 0.517783
vt 0.514054 0.369016
vt 0.494507 0.369016
vt 0.494507 0.517783
vt 0.580653 0.517783
vt 0.580653 0.369016
s 0
usemtl 1
f 2/1/1 35/2/1 76/2/1 80/1/1
f 49/3/1 66/4/1 67/5/1 46/6/1
f 48/7/2 64/8/2 68/9/2 45/10/2
f 3/11/3 18/12/3 42/13/3 33/14/3
f 1/15/4 17/16/4 43/17/4 37/18/4
f 7/19/1 20/20/1 31/21/1 25/22/1
f 51/23/2 62/24/2 57/25/2 54/26/2
f 55/27/3 60/28/3 62/29/3 51/30/3
f 28/31/2 8/32/2 73/32/2 71/31/2
f 53/27/4 58/28/4 61/33/4 52/34/4
f 12/35/5 11/36/5 9/37/5 10/38/5
f 15/39/6 14/40/6 13/41/6 16/42/6
f 9/43/4 11/44/4 16/45/4 13/46/4
f 12/44/3 10/43/3 14/46/3 15/45/3
f 11/47/2 12/48/2 15/49/2 16/50/2
f 10/48/1 9/47/1 13/50/1 14/49/1
f 46/51/3 67/52/3 63/53/3 47/54/3
f 45/55/4 68/56/4 65/57/4 50/58/4
f 38/59/1 44/60/1 18/61/1 3/62/1
f 1/63/5 37/64/5 38/65/5 3/66/5 33/67/5 34/68/5
f 52/69/1 61/70/1 59/71/1 56/72/1
f 26/73/3 32/74/3 19/75/3 5/76/3
f 21/77/5 22/78/5 7/79/5 25/80/5 26/81/5 5/82/5
f 22/83/4 30/84/4 20/85/4 7/86/4
f 30/84/7 22/83/7 21/87/7 29/88/7
f 32/74/8 26/73/8 25/89/8 31/90/8
f 228/91/7 30/92/7 29/93/7 231/94/7
f 229/95/8 32/96/8 31/97/8 232/98/8
f 5/99/2 19/100/2 29/101/2 21/102/2
f 47/54/9 63/53/9 64/56/9 48/55/9
f 44/60/10 38/59/10 37/103/10 43/104/10
f 33/14/9 42/13/9 41/16/9 34/15/9
f 236/105/10 44/106/10 43/107/10 238/108/10
f 34/109/2 41/110/2 17/104/2 1/103/2
f 66/4/10 49/3/10 50/10/10 65/9/10
f 237/111/9 47/112/9 48/113/9 235/114/9
f 233/114/4 45/113/4 50/115/4 238/116/4
f 234/117/3 46/118/3 47/112/3 237/111/3
f 235/119/2 48/120/2 45/121/2 233/122/2
f 236/123/1 49/124/1 46/125/1 234/126/1
f 60/127/8 55/128/8 56/72/8 59/71/8
f 58/129/7 53/130/7 54/26/7 57/25/7
f 227/131/1 52/132/1 56/133/1 232/134/1
f 228/135/4 53/136/4 52/137/4 227/138/4
f 229/139/3 55/140/3 51/141/3 230/142/3
f 230/143/2 51/144/2 54/145/2 231/146/2
f 24/147/6 23/148/6 58/149/6 57/150/6
f 28/31/6 27/151/6 60/152/6 59/153/6
f 8/32/6 28/31/6 59/153/6 61/154/6
f 23/148/6 8/32/6 61/154/6 58/149/6
f 6/155/6 24/147/6 57/150/6 62/156/6
f 27/151/6 6/155/6 62/156/6 60/152/6
f 36/157/6 35/2/6 64/158/6 63/159/6
f 40/160/6 39/161/6 66/162/6 65/163/6
f 4/164/6 36/157/6 63/159/6 67/165/6
f 35/2/6 2/1/6 68/166/6 64/158/6
f 39/161/6 4/164/6 67/165/6 66/162/6
f 2/1/6 40/160/6 65/163/6 68/166/6
f 78/167/6 77/168/6 80/169/6 76/170/6 75/171/6 79/172/6
f 73/32/6 70/148/6 69/147/6 74/155/6 72/151/6 71/31/6
f 35/2/10 36/157/10 75/157/10 76/2/10
f 8/32/3 23/148/3 70/148/3 73/32/3
f 4/164/2 39/161/2 78/161/2 79/164/2
f 23/148/8 24/147/8 69/147/8 70/148/8
f 39/161/9 40/160/9 77/160/9 78/161/9
f 24/147/1 6/155/1 74/155/1 69/147/1
f 40/160/3 2/1/3 80/1/3 77/160/3
f 27/151/7 28/31/7 71/31/7 72/151/7
f 36/157/4 4/164/4 79/164/4 75/157/4
f 6/155/4 27/151/4 72/151/4 74/155/4
f 81/173/2 97/174/2 98/175/2 83/176/2
f 83/177/4 98/178/4 99/179/4 87/180/4
f 87/181/1 99/182/1 100/183/1 85/184/1
f 85/185/3 100/186/3 97/187/3 81/188/3
f 83/189/5 87/190/5 85/191/5 81/192/5
f 96/193/4 92/194/4 110/195/4 111/196/4
f 89/173/2 101/174/2 102/175/2 91/176/2
f 91/177/4 102/178/4 103/179/4 95/180/4
f 95/181/1 103/182/1 104/183/1 93/184/1
f 93/185/3 104/186/3 101/187/3 89/188/3
f 91/189/5 95/190/5 93/191/5 89/192/5
f 90/194/3 94/193/3 112/196/3 109/195/3
f 82/197/6 84/198/6 98/199/6 97/200/6
f 84/198/6 88/201/6 99/202/6 98/199/6
f 88/201/6 86/203/6 100/204/6 99/202/6
f 86/203/6 82/197/6 97/200/6 100/204/6
f 90/197/6 92/198/6 102/199/6 101/200/6
f 92/198/6 96/201/6 103/202/6 102/199/6
f 96/201/6 94/203/6 104/204/6 103/202/6
f 94/203/6 90/197/6 101/200/6 104/204/6
f 107/205/6 106/206/6 105/207/6 108/208/6
f 111/209/6 110/210/6 109/211/6 112/212/6
f 82/213/3 86/214/3 108/215/3 105/216/3
f 88/214/4 84/213/4 106/216/4 107/215/4
f 94/217/1 96/218/1 111/219/1 112/220/1
f 92/218/2 90/217/2 109/220/2 110/219/2
f 86/218/1 88/221/1 107/222/1 108/219/1
f 84/221/2 82/218/2 105/219/2 106/222/2
f 113/223/2 114/223/2 116/224/2 115/224/2
f 115/224/4 116/224/4 118/225/4 117/225/4
f 224/226/3 225/226/3 114/223/3 113/223/3
f 118/225/6 116/224/6 114/223/6 225/226/6 226/227/6
f 117/225/1 118/225/1 226/227/1 223/227/1
f 123/228/1 124/229/1 120/229/1 119/228/1
f 127/230/6 131/231/6 125/232/6 124/233/6
f 126/234/3 123/235/3 119/235/3 122/234/3
f 124/236/4 125/237/4 121/237/4 120/236/4
f 125/238/2 126/239/2 122/239/2 121/238/2
f 120/240/6 121/241/6 122/242/6 119/243/6
f 130/244/3 129/235/3 133/234/3 134/245/3
f 129/246/6 127/230/6 124/233/6 123/247/6
f 133/248/6 129/246/6 123/247/6 126/249/6
f 131/231/6 133/248/6 126/249/6 125/232/6
f 134/250/2 133/239/2 131/238/2 132/251/2
f 128/252/1 127/229/1 129/228/1 130/253/1
f 132/254/4 131/237/4 127/236/4 128/255/4
f 132/241/5 128/240/5 130/243/5 134/242/5
f 135/250/2 136/239/2 138/238/2 137/251/2
f 137/254/4 138/237/4 142/236/4 141/255/4
f 141/252/1 142/229/1 140/228/1 139/253/1
f 139/244/3 140/235/3 136/234/3 135/245/3
f 137/241/5 141/240/5 139/243/5 135/242/5
f 138/231/6 136/248/6 143/249/6 144/232/6
f 143/234/3 146/235/3 150/235/3 147/234/3
f 136/248/6 140/246/6 146/247/6 143/249/6
f 142/230/6 138/231/6 144/232/6 145/233/6
f 140/246/6 142/230/6 145/233/6 146/247/6
f 149/240/6 148/241/6 147/242/6 150/243/6
f 145/236/4 144/237/4 148/237/4 149/236/4
f 146/228/1 145/229/1 149/229/1 150/228/1
f 144/238/2 143/239/2 147/239/2 148/238/2
f 155/228/1 156/229/1 152/229/1 151/228/1
f 159/230/6 163/231/6 157/232/6 156/233/6
f 158/234/3 155/235/3 151/235/3 154/234/3
f 156/236/4 157/237/4 153/237/4 152/236/4
f 157/238/2 158/239/2 154/239/2 153/238/2
f 152/240/6 153/241/6 154/242/6 151/243/6
f 162/244/3 161/235/3 165/234/3 166/245/3
f 161/246/11 159/230/11 156/233/11 155/247/11
f 165/248/6 161/246/6 155/247/6 158/249/6
f 163/231/6 165/248/6 158/249/6 157/232/6
f 166/250/2 165/239/2 163/238/2 164/251/2
f 160/252/1 159/229/1 161/228/1 162/253/1
f 164/254/4 163/237/4 159/236/4 160/255/4
f 164/241/5 160/240/5 162/243/5 166/242/5
f 171/228/1 172/229/1 168/229/1 167/228/1
f 175/230/6 179/231/6 173/232/6 172/233/6
f 174/234/3 171/235/3 167/235/3 170/234/3
f 172/236/4 173/237/4 169/237/4 168/236/4
f 173/238/2 174/239/2 170/239/2 169/238/2
f 168/240/6 169/241/6 170/242/6 167/243/6
f 178/244/3 177/235/3 181/234/3 182/245/3
f 177/246/11 175/230/11 172/233/11 171/247/11
f 181/248/6 177/246/6 171/247/6 174/249/6
f 179/231/6 181/248/6 174/249/6 173/232/6
f 182/250/2 181/239/2 179/238/2 180/251/2
f 176/252/1 175/229/1 177/228/1 178/253/1
f 180/254/4 179/237/4 175/236/4 176/255/4
f 180/241/5 176/240/5 178/243/5 182/242/5
f 183/250/2 184/239/2 186/238/2 185/251/2
f 185/254/4 186/237/4 190/236/4 189/255/4
f 189/252/1 190/229/1 188/228/1 187/253/1
f 187/244/3 188/235/3 184/234/3 183/245/3
f 185/241/5 189/240/5 187/243/5 183/242/5
f 186/231/12 184/248/12 191/249/12 192/232/12
f 191/234/3 194/235/3 198/235/3 195/234/3
f 184/248/6 188/246/6 194/247/6 191/249/6
f 190/230/6 186/231/6 192/232/6 193/233/6
f 188/246/6 190/230/6 193/233/6 194/247/6
f 197/240/6 196/241/6 195/242/6 198/243/6
f 193/236/4 192/237/4 196/237/4 197/236/4
f 194/228/1 193/229/1 197/229/1 198/228/1
f 192/238/2 191/239/2 195/239/2 196/238/2
f 203/228/1 204/229/1 200/229/1 199/228/1
f 207/230/6 211/231/6 205/232/6 204/233/6
f 206/234/3 203/235/3 199/235/3 202/234/3
f 204/236/4 205/237/4 201/237/4 200/236/4
f 205/238/2 206/239/2 202/239/2 201/238/2
f 200/240/6 201/241/6 202/242/6 199/243/6
f 210/244/3 209/235/3 213/234/3 214/245/3
f 209/246/6 207/230/6 204/233/6 203/247/6
f 213/248/6 209/246/6 203/247/6 206/249/6
f 211/231/6 213/248/6 206/249/6 205/232/6
f 214/250/2 213/239/2 211/238/2 212/251/2
f 208/252/1 207/229/1 209/228/1 210/253/1
f 212/254/4 211/237/4 207/236/4 208/255/4
f 212/241/5 208/240/5 210/243/5 214/242/5
f 215/256/2 216/257/2 218/258/2 217/259/2
f 217/260/4 218/261/4 222/262/4 221/263/4
f 221/259/1 222/258/1 220/257/1 219/256/1
f 219/263/3 220/262/3 216/261/3 215/260/3
f 217/264/5 221/265/5 219/266/5 215/267/5
f 222/265/6 218/264/6 216/267/6 220/266/6
f 225/226/8 224/226/8 223/227/8 226/227/8
f 115/224/5 117/225/5 223/227/5 224/226/5 113/223/5
f 19/268/2 230/269/2 231/94/2 29/93/2
f 32/270/3 229/271/3 230/272/3 19/273/3
f 30/274/4 228/275/4 227/276/4 20/277/4
f 20/278/1 227/279/1 232/98/1 31/97/1
f 55/280/8 229/281/8 232/134/8 56/133/8
f 53/282/7 228/283/7 231/146/7 54/145/7
f 44/106/1 236/105/1 234/284/1 18/285/1
f 41/286/2 235/287/2 233/108/2 17/107/2
f 18/288/3 234/289/3 237/290/3 42/291/3
f 17/292/4 233/293/4 238/294/4 43/295/4
f 42/291/9 237/290/9 235/293/9 41/292/9
f 49/124/10 236/123/10 238/122/10 50/121/10
