# Blender 4.5.3 LTS
# www.blender.org
mtllib lowpoly14.mtl
o 立方体.010
v 17.747135 -16.998793 0.000000
v 10.073789 -16.998795 140.150253
v -12.576843 -16.998802 0.000000
v -4.903498 -16.998800 140.150253
v 17.747124 16.998804 0.000000
v 10.073777 16.998802 140.150253
v -12.576855 16.998795 0.000000
v -4.903509 16.998796 140.150253
v 0.399982 -19.173967 140.150253
v 4.770318 -19.173965 140.150253
v 4.770318 -19.173965 0.000000
v 0.399982 -19.173967 0.000000
v 10.186624 -16.998795 123.789162
v 16.045704 -16.998793 16.582302
v 10.406665 -16.998795 110.495491
v 10.890897 -16.998795 95.186058
v 11.615038 -16.998795 78.628563
v 12.542774 -16.998795 61.653244
v 13.627586 -16.998795 45.111332
v 14.815079 -16.998793 29.832300
v -10.875414 -16.998802 16.582302
v -5.016333 -16.998800 123.789162
v -9.644788 -16.998802 29.832300
v -8.457295 -16.998800 45.111332
v -7.372483 -16.998800 61.653244
v -6.444747 -16.998800 78.628563
v -5.720606 -16.998800 95.186058
v -5.236374 -16.998800 110.495491
v -10.875425 16.998795 16.582302
v -5.016344 16.998796 123.789162
v -9.644799 16.998795 29.832300
v -8.457307 16.998796 45.111332
v -7.372495 16.998796 61.653244
v -6.444758 16.998796 78.628563
v -5.720618 16.998796 95.186058
v -5.236385 16.998796 110.495491
v 16.045692 16.998804 16.582302
v 10.186612 16.998802 123.789162
v 14.815067 16.998804 29.832300
v 13.627575 16.998802 45.111332
v 12.542763 16.998802 61.653244
v 11.615026 16.998802 78.628563
v 10.890885 16.998802 95.186058
v 10.406653 16.998802 110.495491
v 4.770306 19.173969 0.000000
v 0.399969 19.173967 0.000000
v 0.399969 19.173967 140.150253
v 4.770306 19.173969 140.150253
v 0.399969 19.173967 123.789162
v 4.770306 19.173969 123.789162
v 4.770306 19.173969 110.495491
v 0.399969 19.173967 110.495491
v 4.770306 19.173969 95.186058
v 0.399969 19.173967 95.186058
v 4.770306 19.173969 78.628563
v 0.399969 19.173967 78.628563
v 4.770306 19.173969 61.653244
v 0.399969 19.173967 61.653244
v 4.770306 19.173969 45.111332
v 0.399969 19.173967 45.111332
v 4.770306 19.173969 29.832300
v 0.399969 19.173967 29.832300
v 4.770306 19.173969 16.582302
v 0.399969 19.173967 16.582302
v 4.770318 -19.173965 123.789162
v 0.399982 -19.173967 123.789162
v 0.399982 -19.173967 110.495491
v 4.770318 -19.173965 110.495491
v 0.399982 -19.173967 95.186058
v 4.770318 -19.173965 95.186058
v 0.399982 -19.173967 78.628563
v 4.770318 -19.173965 78.628563
v 0.399982 -19.173967 61.653244
v 4.770318 -19.173965 61.653244
v 0.399982 -19.173967 45.111332
v 4.770318 -19.173965 45.111332
v 0.399982 -19.173967 29.832300
v 4.770318 -19.173965 29.832300
v 0.399982 -19.173967 16.582302
v 4.770318 -19.173965 16.582302
v 4.770319 -21.015791 0.000000
v 17.747137 -21.015787 0.000000
v -0.343116 -20.272694 143.824646
v -4.160399 -20.272696 143.817368
v -4.160412 20.272766 143.817368
v 17.747122 21.015873 0.000000
v 4.770305 21.015869 0.000000
v 0.399969 21.015867 0.000000
v -12.576856 21.015863 0.000000
v 5.513403 20.272770 143.824646
v 9.330679 20.272772 143.817368
v 9.330692 -20.272690 143.817368
v 10.406652 21.015871 110.495491
v 4.770305 21.015869 110.495491
v -0.343129 20.272768 143.824646
v -12.576842 -21.015797 0.000000
v 0.399982 -21.015793 0.000000
v 5.513416 -20.272692 143.824646
v -5.016345 21.015865 123.789162
v 0.399969 21.015867 123.789162
v 10.186611 21.015871 123.789162
v 10.186625 -21.015789 123.789162
v 10.406666 -21.015789 110.495491
v 10.890884 21.015871 95.186058
v 10.890898 -21.015789 95.186058
v 11.615026 21.015871 78.628563
v 11.615039 -21.015789 78.628563
v 12.542762 21.015871 61.653244
v 12.542775 -21.015789 61.653244
v 13.627574 21.015871 45.111332
v 13.627587 -21.015789 45.111332
v 14.815066 21.015873 29.832300
v 14.815080 -21.015787 29.832300
v 16.045691 21.015873 16.582302
v 16.045706 -21.015787 16.582302
v -5.236386 21.015865 110.495491
v 4.770305 21.015869 123.789162
v 0.399969 21.015867 110.495491
v -5.720619 21.015865 95.186058
v 0.399969 21.015867 95.186058
v -6.444759 21.015865 78.628563
v 0.399969 21.015867 78.628563
v -7.372496 21.015865 61.653244
v 0.399969 21.015867 61.653244
v -8.457308 21.015865 45.111332
v 0.399969 21.015867 45.111332
v -9.644800 21.015863 29.832300
v 0.399969 21.015867 29.832300
v -10.875426 21.015863 16.582302
v 0.399969 21.015867 16.582302
v -5.236373 -21.015795 110.495491
v -5.016332 -21.015795 123.789162
v -5.720605 -21.015795 95.186058
v -6.444746 -21.015795 78.628563
v -7.372482 -21.015795 61.653244
v -8.457294 -21.015795 45.111332
v -9.644787 -21.015797 29.832300
v -10.875413 -21.015797 16.582302
v 0.399982 -21.015793 123.789162
v 4.770319 -21.015791 110.495491
v 4.770319 -21.015791 95.186058
v 4.770319 -21.015791 78.628563
v 4.770319 -21.015791 61.653244
v 4.770319 -21.015791 45.111332
v 4.770319 -21.015791 29.832300
v 4.770319 -21.015791 16.582302
v 4.770305 21.015869 95.186058
v 4.770305 21.015869 78.628563
v 4.770305 21.015869 61.653244
v 4.770305 21.015869 45.111332
v 4.770305 21.015869 29.832300
v 4.770305 21.015869 16.582302
v 4.770319 -21.015791 123.789162
v 0.399982 -21.015793 110.495491
v 0.399982 -21.015793 95.186058
v 0.399982 -21.015793 78.628563
v 0.399982 -21.015793 61.653244
v 0.399982 -21.015793 45.111332
v 0.399982 -21.015793 29.832300
v 0.399982 -21.015793 16.582302
v 0.399982 -21.015793 143.826065
v -4.903497 -21.015795 143.815948
v -4.903510 21.015865 143.815948
v 4.770305 21.015869 143.826065
v 10.073776 21.015871 143.815948
v 10.073790 -21.015789 143.815948
v 0.399969 21.015867 143.826065
v 4.770319 -21.015791 143.826065
v -0.343116 -20.272694 142.881104
v -4.160399 -20.272696 142.873825
v -4.160412 20.272766 142.873825
v 5.513403 20.272770 142.881104
v 9.330679 20.272772 142.873825
v 9.330692 -20.272690 142.873825
v -0.343129 20.272768 142.881104
v 5.513416 -20.272692 142.881104
v -0.859313 -19.804029 142.051422
v -0.859313 -19.804029 149.476273
v -0.583367 -19.804029 142.051422
v -0.583367 -19.804029 149.476273
v -0.859313 -20.079975 142.051422
v -0.859313 -20.079975 149.476273
v -0.583367 -20.079975 142.051422
v -0.583367 -20.079975 149.476273
v -3.962897 -19.804031 142.051422
v -3.962897 -19.804031 149.476273
v -3.686951 -19.804031 142.051422
v -3.686951 -19.804031 149.476273
v -3.962897 -20.079977 142.051422
v -3.962897 -20.079977 149.476273
v -3.686952 -20.079977 142.051422
v -3.686952 -20.079977 149.476273
v -0.859313 20.002832 142.051422
v -0.859313 20.002832 149.476273
v -0.583367 20.002832 142.051422
v -0.583367 20.002832 149.476273
v -0.859313 19.726887 142.051422
v -0.859313 19.726887 149.476273
v -0.583367 19.726887 142.051422
v -0.583367 19.726887 149.476273
v -3.962897 20.002831 142.051422
v -3.962897 20.002831 149.476273
v -3.686951 20.002831 142.051422
v -3.686951 20.002831 149.476273
v -3.962897 19.726885 142.051422
v -3.962897 19.726885 149.476273
v -3.686952 19.726885 142.051422
v -3.686952 19.726885 149.476273
v 8.829271 -19.804028 142.051422
v 8.829271 -19.804028 149.476273
v 9.105217 -19.804028 142.051422
v 9.105217 -19.804028 149.476273
v 8.829271 -20.079973 142.051422
v 8.829271 -20.079973 149.476273
v 9.105217 -20.079973 142.051422
v 9.105217 -20.079973 149.476273
v 5.725687 -19.804029 142.051422
v 5.725687 -19.804029 149.476273
v 6.001633 -19.804029 142.051422
v 6.001633 -19.804029 149.476273
v 5.725687 -20.079975 142.051422
v 5.725687 -20.079975 149.476273
v 6.001632 -20.079975 142.051422
v 6.001632 -20.079975 149.476273
v 8.829270 20.002834 142.051422
v 8.829270 20.002834 149.476273
v 9.105216 20.002834 142.051422
v 9.105216 20.002834 149.476273
v 8.829270 19.726889 142.051422
v 8.829270 19.726889 149.476273
v 9.105216 19.726889 142.051422
v 9.105216 19.726889 149.476273
v 5.725686 20.002832 142.051422
v 5.725686 20.002832 149.476273
v 6.001632 20.002832 142.051422
v 6.001632 20.002832 149.476273
v 5.725687 19.726887 142.051422
v 5.725687 19.726887 149.476273
v 6.001633 19.726887 142.051422
v 6.001633 19.726887 149.476273
vn 0.9948 -0.0000 0.1021
vn -1.0000 -0.0000 -0.0000
vn 1.0000 -0.0000 -0.0000
vn -0.0000 -0.0000 -1.0000
vn -0.9948 -0.0000 0.1021
vn -0.9999 -0.0000 0.0166
vn -1.0000 -0.0000 0.0069
vn -0.9970 -0.0000 0.0775
vn 0.9999 -0.0000 0.0166
vn 0.9995 -0.0000 0.0316
vn 0.9990 -0.0000 0.0437
vn 0.9985 -0.0000 0.0546
vn 0.9979 -0.0000 0.0654
vn 0.9970 -0.0000 0.0775
vn 0.9957 -0.0000 0.0925
vn -0.9979 -0.0000 0.0654
vn -0.9995 -0.0000 0.0316
vn -0.9990 -0.0000 0.0437
vn -0.9985 -0.0000 0.0546
vn -0.9957 -0.0000 0.0925
vn 1.0000 -0.0000 0.0069
vn -0.0000 -1.0000 -0.0000
vn -0.0000 1.0000 -0.0000
vn -1.0000 -0.0028 0.0062
vn -0.0000 -0.0000 1.0000
vn 1.0000 -0.0028 0.0062
vn 1.0000 0.0028 0.0062
vn -1.0000 0.0028 0.0062
vn -0.0019 -0.0000 1.0000
vn 0.0019 -0.0000 1.0000
vt 0.273617 0.742261
vt 0.273617 0.696430
vt 0.367389 0.696430
vt 0.367389 0.742261
vt 0.273588 0.726562
vt 0.273588 0.679645
vt 0.262538 0.679645
vt 0.262538 0.726562
vt 0.267776 0.747847
vt 0.373230 0.747847
vt 0.378468 0.758007
vt 0.262538 0.758007
vt 0.267776 0.633926
vt 0.267776 0.679645
vt 0.262538 0.633926
vt 0.263654 0.747840
vt 0.263654 0.751509
vt 0.373230 0.702628
vt 0.378468 0.702628
vt 0.367389 0.742261
vt 0.367389 0.696430
vt 0.273617 0.696430
vt 0.273617 0.742261
vt 0.367211 0.665886
vt 0.367211 0.702628
vt 0.378468 0.665886
vt 0.273617 0.702628
vt 0.273617 0.747847
vt 0.367389 0.747847
vt 0.367389 0.702628
vt 0.273588 0.633926
vt 0.273588 0.591697
vt 0.262538 0.591697
vt 0.273617 0.665886
vt 0.367389 0.665886
vt 0.273617 0.623573
vt 0.367389 0.623573
vt 0.273617 0.577811
vt 0.367389 0.577811
vt 0.367389 0.726562
vt 0.273617 0.726562
vt 0.273617 0.679645
vt 0.367389 0.679645
vt 0.273617 0.633926
vt 0.367389 0.633926
vt 0.273617 0.591697
vt 0.367389 0.591697
vt 0.273617 0.659809
vt 0.367389 0.659809
vt 0.263654 0.743413
vt 0.263654 0.747083
vt 0.267776 0.591697
vt 0.267776 0.702628
vt 0.262538 0.702628
vt 0.367004 0.696430
vt 0.367004 0.659809
vt 0.378468 0.659809
vt 0.378468 0.696430
vt 0.367389 0.591697
vt 0.273617 0.591697
vt 0.367389 0.659809
vt 0.273617 0.659809
vt 0.273588 0.747847
vt 0.273588 0.702628
vt 0.274003 0.659809
vt 0.274003 0.696430
vt 0.262538 0.696430
vt 0.262538 0.659809
vt 0.373230 0.696430
vt 0.373230 0.659809
vt 0.378468 0.659809
vt 0.378468 0.696430
vt 0.373230 0.665886
vt 0.367211 0.659809
vt 0.367211 0.696430
vt 0.367014 0.702628
vt 0.367014 0.747847
vt 0.273992 0.747847
vt 0.273992 0.702628
vt 0.244199 0.635086
vt 0.251612 0.639275
vt 0.251612 0.616756
vt 0.244199 0.612567
vt 0.274325 0.747847
vt 0.366681 0.747847
vt 0.378066 0.757979
vt 0.262940 0.757979
vt 0.244199 0.661053
vt 0.251612 0.665242
vt 0.244199 0.689167
vt 0.251612 0.693356
vt 0.274002 0.591697
vt 0.274002 0.633926
vt 0.262538 0.591697
vt 0.244199 0.615550
vt 0.251612 0.619739
vt 0.251612 0.590889
vt 0.244199 0.586700
vt 0.373230 0.623573
vt 0.378468 0.623573
vt 0.244199 0.643690
vt 0.251612 0.647879
vt 0.367004 0.633926
vt 0.367004 0.591697
vt 0.378468 0.591697
vt 0.378468 0.633926
vt 0.244199 0.669709
vt 0.251612 0.673898
vt 0.273588 0.623573
vt 0.273588 0.577811
vt 0.262538 0.577811
vt 0.262538 0.623573
vt 0.244199 0.692302
vt 0.251612 0.696491
vt 0.367211 0.747847
vt 0.378468 0.757979
vt 0.373230 0.577811
vt 0.378468 0.577811
vt 0.274002 0.679645
vt 0.273588 0.665886
vt 0.262538 0.665886
vt 0.273588 0.742261
vt 0.273588 0.696430
vt 0.262538 0.696430
vt 0.262538 0.742261
vt 0.244199 0.720108
vt 0.251612 0.724297
vt 0.367004 0.679645
vt 0.378468 0.679645
vt 0.274003 0.742261
vt 0.262538 0.742261
vt 0.252656 0.720108
vt 0.251612 0.588574
vt 0.244199 0.584385
vt 0.373230 0.679645
vt 0.373230 0.726562
vt 0.378468 0.726562
vt 0.276848 0.747840
vt 0.276848 0.751055
vt 0.287391 0.750726
vt 0.287391 0.747840
vt 0.276848 0.747083
vt 0.276848 0.743868
vt 0.077553 0.143771
vt 0.077534 0.127876
vt 0.075050 0.127876
vt 0.075069 0.143771
vt 0.362150 0.747840
vt 0.378093 0.747840
vt 0.378085 0.749460
vt 0.362150 0.749491
vt 0.362150 0.747082
vt 0.378093 0.747082
vt 0.378085 0.745462
vt 0.362150 0.745432
vt 0.351573 0.749549
vt 0.351573 0.747840
vt 0.339391 0.749679
vt 0.339391 0.747840
vt 0.326217 0.749872
vt 0.326217 0.747840
vt 0.312710 0.750120
vt 0.312710 0.747840
vt 0.299548 0.750409
vt 0.299548 0.747840
vt 0.351573 0.745373
vt 0.351573 0.747082
vt 0.339391 0.745244
vt 0.339391 0.747082
vt 0.326217 0.745050
vt 0.326217 0.747082
vt 0.312710 0.744803
vt 0.312710 0.747083
vt 0.299548 0.744513
vt 0.299548 0.747083
vt 0.287391 0.744196
vt 0.287391 0.747083
vt 0.077553 0.240377
vt 0.077553 0.071551
vt 0.075069 0.071551
vt 0.075069 0.240377
vt 0.267776 0.726562
vt 0.367211 0.623573
vt 0.367004 0.702628
vt 0.367004 0.665886
vt 0.267776 0.577811
vt 0.267776 0.623573
vt 0.367211 0.577811
vt 0.367211 0.742261
vt 0.378468 0.742261
vt 0.373230 0.742261
vt 0.274002 0.665886
vt 0.274002 0.702628
vt 0.267776 0.665886
vt 0.367211 0.679645
vt 0.367211 0.726562
vt 0.267777 0.696430
vt 0.267777 0.742261
vt 0.367004 0.623573
vt 0.367211 0.633926
vt 0.274002 0.623573
vt 0.267777 0.659809
vt 0.262538 0.659809
vt 0.367211 0.591697
vt 0.378468 0.591697
vt 0.367004 0.577811
vt 0.373230 0.633926
vt 0.373230 0.591697
vt 0.367004 0.747847
vt 0.274002 0.577811
vt 0.274002 0.747847
vt 0.262538 0.757979
vt 0.273588 0.659809
vt 0.367004 0.742261
vt 0.378468 0.742261
vt 0.367004 0.726562
vt 0.274002 0.726562
vt 0.086400 0.240377
vt 0.099026 0.240377
vt 0.101484 0.243471
vt 0.083943 0.243471
vt 0.099026 0.071551
vt 0.101484 0.068457
vt 0.067030 0.071551
vt 0.054404 0.071551
vt 0.051947 0.068457
vt 0.069488 0.068457
vt 0.054404 0.240377
vt 0.051947 0.243471
vt 0.086400 0.071551
vt 0.083943 0.068457
vt 0.067030 0.240377
vt 0.069488 0.243471
vt 0.077534 0.184052
vt 0.077553 0.168157
vt 0.075069 0.168157
vt 0.075050 0.184052
vt 0.077534 0.240377
vt 0.077534 0.071551
vt 0.075050 0.071551
vt 0.075050 0.240377
vt 0.050644 0.685660
vt 0.050644 0.635412
vt 0.051928 0.635412
vt 0.051928 0.685660
vt 0.051187 0.635412
vt 0.051187 0.685660
vt 0.049902 0.635412
vt 0.049902 0.685660
vt 0.036195 0.685660
vt 0.036195 0.635412
vt 0.037480 0.635412
vt 0.037480 0.685660
vt 0.036738 0.635412
vt 0.036738 0.685660
vt 0.035453 0.635412
vt 0.035453 0.685660
vt 0.157638 0.685660
vt 0.157638 0.635412
vt 0.158923 0.635412
vt 0.158923 0.685660
vt 0.158181 0.635412
vt 0.158181 0.685660
vt 0.156897 0.635412
vt 0.156897 0.685660
vt 0.143190 0.685660
vt 0.143190 0.635412
vt 0.144474 0.635412
vt 0.144474 0.685660
vt 0.143733 0.635412
vt 0.143733 0.685660
vt 0.142448 0.635412
vt 0.142448 0.685660
vt 0.095749 0.685660
vt 0.095749 0.635412
vt 0.097033 0.635412
vt 0.097033 0.685660
vt 0.096292 0.635412
vt 0.096292 0.685660
vt 0.095007 0.635412
vt 0.095007 0.685660
vt 0.081300 0.685660
vt 0.081300 0.635412
vt 0.082585 0.635412
vt 0.082585 0.685660
vt 0.081843 0.635412
vt 0.081843 0.685660
vt 0.080559 0.635412
vt 0.080559 0.685660
vt 0.202743 0.685660
vt 0.202743 0.635412
vt 0.204028 0.635412
vt 0.204028 0.685660
vt 0.203286 0.635412
vt 0.203286 0.685660
vt 0.202002 0.635412
vt 0.202002 0.685660
vt 0.188295 0.685660
vt 0.188295 0.635412
vt 0.189579 0.635412
vt 0.189579 0.685660
vt 0.188838 0.635412
vt 0.188838 0.685660
vt 0.187553 0.635412
vt 0.187553 0.685660
s 0
usemtl 1
f 5/1/1 37/2/1 14/3/1 1/4/1
f 72/5/2 74/6/2 143/7/2 142/8/2
f 9/9/3 47/10/3 167/11/3 161/12/3
f 75/13/3 73/14/3 157/7/3 158/15/3
f 11/16/4 45/16/4 5/17/4 1/17/4
f 50/18/2 48/10/2 164/11/2 117/19/2
f 3/20/5 21/21/5 29/22/5 7/23/5
f 36/24/6 30/25/6 99/19/6 116/26/6
f 22/27/7 4/28/7 8/29/7 30/30/7
f 24/31/8 23/32/8 137/33/8 136/15/8
f 38/30/9 13/27/9 15/34/9 44/35/9
f 44/35/10 15/34/10 16/36/10 43/37/10
f 43/37/11 16/36/11 17/38/11 42/39/11
f 42/40/12 17/41/12 18/42/12 41/43/12
f 41/43/13 18/42/13 19/44/13 40/45/13
f 40/45/14 19/44/14 20/46/14 39/47/14
f 39/48/15 20/49/15 14/3/15 37/2/15
f 74/6/2 76/31/2 144/15/2 143/7/2
f 3/50/4 12/51/4 97/51/4 96/50/4
f 47/10/3 49/18/3 100/19/3 167/11/3
f 77/52/3 75/13/3 158/15/3 159/33/3
f 66/53/3 9/9/3 161/12/3 139/54/3
f 14/55/15 20/56/15 113/57/15 115/58/15
f 25/6/16 24/31/16 136/15/16 135/7/16
f 22/27/6 30/30/6 36/35/6 28/34/6
f 28/34/17 36/35/17 35/37/17 27/36/17
f 27/36/18 35/37/18 34/39/18 26/38/18
f 26/41/19 34/40/19 33/43/19 25/42/19
f 25/42/16 33/43/16 32/45/16 24/44/16
f 24/44/8 32/45/8 31/59/8 23/60/8
f 23/61/20 31/62/20 29/22/20 21/21/20
f 76/31/2 78/32/2 145/33/2 144/15/2
f 10/63/2 65/64/2 153/54/2 168/12/2
f 39/65/15 37/66/15 114/67/15 112/68/15
f 79/69/3 77/70/3 159/71/3 160/72/3
f 51/73/2 50/18/2 117/19/2 94/26/2
f 26/5/19 25/6/19 135/7/19 134/8/19
f 78/74/2 80/75/2 146/72/2 145/71/2
f 38/76/21 6/77/21 2/78/21 13/79/21
f 78/80/22 77/81/22 79/82/22 80/83/22
f 2/84/3 6/85/3 165/86/3 166/87/3
f 76/88/22 75/89/22 77/81/22 78/80/22
f 49/18/3 52/73/3 118/26/3 100/19/3
f 74/90/22 73/91/22 75/89/22 76/88/22
f 20/92/14 19/93/14 111/15/14 113/94/14
f 72/95/22 71/96/22 73/97/22 74/98/22
f 53/99/2 51/73/2 94/26/2 147/100/2
f 70/101/22 69/102/22 71/96/22 72/95/22
f 40/103/14 39/104/14 112/105/14 110/106/14
f 68/107/22 67/108/22 69/102/22 70/101/22
f 27/109/18 26/110/18 134/111/18 133/112/18
f 65/113/22 66/114/22 67/108/22 68/107/22
f 52/73/3 54/99/3 120/100/3 118/26/3
f 62/81/23 61/80/23 63/83/23 64/82/23
f 30/25/24 8/115/24 163/116/24 99/19/24
f 60/89/23 59/88/23 61/80/23 62/81/23
f 55/117/2 53/99/2 147/100/2 148/118/2
f 58/91/23 57/90/23 59/88/23 60/89/23
f 19/93/13 18/119/13 109/7/13 111/15/13
f 56/96/23 55/95/23 57/98/23 58/97/23
f 28/120/17 27/109/17 133/112/17 131/121/17
f 54/102/23 53/101/23 55/95/23 56/96/23
f 7/122/5 29/123/5 129/124/5 89/125/5
f 52/108/23 51/107/23 53/101/23 54/102/23
f 46/51/4 7/50/4 89/50/4 88/51/4
f 49/114/23 50/113/23 51/107/23 52/108/23
f 54/99/3 56/117/3 122/118/3 120/100/3
f 65/113/22 10/126/22 9/127/22 66/114/22
f 41/128/13 40/103/13 110/106/13 108/129/13
f 49/114/23 47/127/23 48/126/23 50/113/23
f 37/66/1 5/130/1 86/131/1 114/67/1
f 47/127/25 9/127/25 10/132/25 48/132/25
f 3/50/4 7/50/4 46/51/4 12/51/4
f 12/133/4 46/133/4 45/134/4 11/134/4
f 5/17/4 45/16/4 87/16/4 86/17/4
f 11/134/22 80/83/22 79/82/22 12/133/22
f 57/135/2 55/136/2 148/137/2 149/129/2
f 46/133/23 64/82/23 63/83/23 45/134/23
f 87/16/23 152/138/23 114/139/23 86/17/23
f 113/140/22 145/141/22 146/138/22 115/139/22
f 97/51/22 160/142/22 138/143/22 96/50/22
f 95/144/22 85/145/22 171/146/22 175/147/22
f 117/148/23 164/149/23 165/150/23 101/151/23
f 139/152/22 161/153/22 162/154/22 132/155/22
f 117/148/23 101/151/23 93/156/23 94/157/23
f 94/157/23 93/156/23 104/158/23 147/159/23
f 147/159/23 104/158/23 106/160/23 148/161/23
f 148/161/23 106/160/23 108/162/23 149/163/23
f 149/163/23 108/162/23 110/164/23 150/165/23
f 150/165/23 110/164/23 112/140/23 151/141/23
f 151/141/23 112/140/23 114/139/23 152/138/23
f 139/152/22 132/155/22 131/166/22 154/167/22
f 154/167/22 131/166/22 133/168/22 155/169/22
f 155/169/22 133/168/22 134/170/22 156/171/22
f 156/171/22 134/170/22 135/172/22 157/173/22
f 157/173/22 135/172/22 136/174/22 158/175/22
f 158/175/22 136/174/22 137/176/22 159/177/22
f 159/177/22 137/176/22 138/143/22 160/142/22
f 111/164/22 144/165/22 145/141/22 113/140/22
f 109/162/22 143/163/22 144/165/22 111/164/22
f 107/160/22 142/161/22 143/163/22 109/162/22
f 105/158/22 141/159/22 142/161/22 107/160/22
f 103/156/22 140/157/22 141/159/22 105/158/22
f 102/151/22 153/148/22 140/157/22 103/156/22
f 127/176/23 128/177/23 130/142/23 129/143/23
f 125/174/23 126/175/23 128/177/23 127/176/23
f 123/172/23 124/173/23 126/175/23 125/174/23
f 121/170/23 122/171/23 124/173/23 123/172/23
f 119/168/23 120/169/23 122/171/23 121/170/23
f 116/166/23 118/167/23 120/169/23 119/168/23
f 99/155/23 100/152/23 118/167/23 116/166/23
f 102/151/22 166/150/22 168/149/22 153/148/22
f 99/155/23 163/154/23 167/153/23 100/152/23
f 83/178/2 95/179/2 175/180/2 169/181/2
f 82/17/22 115/139/22 146/138/22 81/16/22
f 89/50/23 129/143/23 130/142/23 88/51/23
f 23/74/20 21/75/20 138/72/20 137/71/20
f 48/10/2 10/9/2 168/12/2 164/11/2
f 73/14/3 71/182/3 156/8/3 157/7/3
f 35/183/17 36/24/17 116/26/17 119/100/17
f 70/109/2 72/110/2 142/111/2 141/112/2
f 38/184/9 44/185/9 93/26/9 101/19/9
f 71/186/3 69/187/3 155/112/3 156/111/3
f 34/188/18 35/183/18 119/100/18 121/118/18
f 80/75/2 11/189/2 81/190/2 146/72/2
f 68/120/2 70/109/2 141/112/2 140/121/2
f 12/191/3 79/69/3 160/72/3 97/190/3
f 15/192/9 13/193/9 102/54/9 103/121/9
f 69/187/3 67/194/3 154/121/3 155/112/3
f 33/195/19 34/196/19 121/137/19 123/129/19
f 64/197/3 46/198/3 88/125/3 130/124/3
f 65/64/2 68/120/2 140/121/2 153/54/2
f 45/198/2 63/197/2 152/124/2 87/125/2
f 44/185/10 43/199/10 104/100/10 93/26/10
f 67/194/3 66/53/3 139/54/3 154/121/3
f 32/200/16 33/195/16 123/129/16 125/106/16
f 16/201/10 15/192/10 103/121/10 105/112/10
f 62/202/3 64/197/3 130/124/3 128/203/3
f 63/197/2 61/202/2 151/203/2 152/124/2
f 11/16/4 1/17/4 82/17/4 81/16/4
f 31/204/8 32/200/8 125/106/8 127/205/8
f 43/199/11 42/206/11 106/118/11 104/100/11
f 60/207/3 62/208/3 128/205/3 126/106/3
f 6/209/26 38/184/26 101/19/26 165/116/26
f 17/210/11 16/201/11 105/112/11 107/111/11
f 61/208/2 59/207/2 150/106/2 151/205/2
f 13/193/27 2/211/27 166/212/27 102/54/27
f 29/123/20 31/213/20 127/203/20 129/124/20
f 58/135/3 60/207/3 126/106/3 124/129/3
f 1/214/1 14/55/1 115/58/1 82/215/1
f 42/216/12 41/128/12 108/129/12 106/137/12
f 59/207/2 57/135/2 149/129/2 150/106/2
f 21/75/5 3/189/5 96/190/5 138/72/5
f 22/64/6 28/120/6 131/121/6 132/54/6
f 18/119/12 17/217/12 107/8/12 109/7/12
f 56/136/3 58/135/3 124/129/3 122/137/3
f 8/115/2 4/63/2 162/212/2 163/116/2
f 4/63/28 22/64/28 132/54/28 162/212/28
f 83/218/29 84/219/29 162/220/29 161/221/29
f 84/219/29 85/222/29 163/223/29 162/220/29
f 90/224/30 91/225/30 165/226/30 164/227/30
f 91/225/30 92/228/30 166/229/30 165/226/30
f 85/222/29 95/230/29 167/231/29 163/223/29
f 92/228/30 98/232/30 168/233/30 166/229/30
f 95/230/29 83/218/29 161/221/29 167/231/29
f 98/232/30 90/224/30 164/227/30 168/233/30
f 172/224/30 176/232/30 174/228/30 173/225/30
f 171/222/29 170/219/29 169/218/29 175/230/29
f 91/234/22 90/235/22 172/236/22 173/237/22
f 84/145/23 83/144/23 169/147/23 170/146/23
f 90/179/3 98/178/3 176/181/3 172/180/3
f 98/235/23 92/234/23 174/237/23 176/236/23
f 92/238/2 91/239/2 173/240/2 174/241/2
f 85/239/3 84/238/3 170/241/3 171/240/3
f 177/242/23 178/243/23 180/244/23 179/245/23
f 179/245/3 180/244/3 184/246/3 183/247/3
f 183/247/22 184/246/22 182/248/22 181/249/22
f 181/249/2 182/248/2 178/243/2 177/242/2
f 179/245/4 183/247/4 181/249/4 177/242/4
f 184/246/25 180/244/25 178/243/25 182/248/25
f 185/250/23 186/251/23 188/252/23 187/253/23
f 187/253/3 188/252/3 192/254/3 191/255/3
f 191/255/22 192/254/22 190/256/22 189/257/22
f 189/257/2 190/256/2 186/251/2 185/250/2
f 187/253/4 191/255/4 189/257/4 185/250/4
f 192/254/25 188/252/25 186/251/25 190/256/25
f 193/258/23 194/259/23 196/260/23 195/261/23
f 195/261/3 196/260/3 200/262/3 199/263/3
f 199/263/22 200/262/22 198/264/22 197/265/22
f 197/265/2 198/264/2 194/259/2 193/258/2
f 195/261/4 199/263/4 197/265/4 193/258/4
f 200/262/25 196/260/25 194/259/25 198/264/25
f 201/266/23 202/267/23 204/268/23 203/269/23
f 203/269/3 204/268/3 208/270/3 207/271/3
f 207/271/22 208/270/22 206/272/22 205/273/22
f 205/273/2 206/272/2 202/267/2 201/266/2
f 203/269/4 207/271/4 205/273/4 201/266/4
f 208/270/25 204/268/25 202/267/25 206/272/25
f 209/274/23 210/275/23 212/276/23 211/277/23
f 211/277/3 212/276/3 216/278/3 215/279/3
f 215/279/22 216/278/22 214/280/22 213/281/22
f 213/281/2 214/280/2 210/275/2 209/274/2
f 211/277/4 215/279/4 213/281/4 209/274/4
f 216/278/25 212/276/25 210/275/25 214/280/25
f 217/282/23 218/283/23 220/284/23 219/285/23
f 219/285/3 220/284/3 224/286/3 223/287/3
f 223/287/22 224/286/22 222/288/22 221/289/22
f 221/289/2 222/288/2 218/283/2 217/282/2
f 219/285/4 223/287/4 221/289/4 217/282/4
f 224/286/25 220/284/25 218/283/25 222/288/25
f 225/290/23 226/291/23 228/292/23 227/293/23
f 227/293/3 228/292/3 232/294/3 231/295/3
f 231/295/22 232/294/22 230/296/22 229/297/22
f 229/297/2 230/296/2 226/291/2 225/290/2
f 227/293/4 231/295/4 229/297/4 225/290/4
f 232/294/25 228/292/25 226/291/25 230/296/25
f 233/298/23 234/299/23 236/300/23 235/301/23
f 235/301/3 236/300/3 240/302/3 239/303/3
f 239/303/22 240/302/22 238/304/22 237/305/22
f 237/305/2 238/304/2 234/299/2 233/298/2
f 235/301/4 239/303/4 237/305/4 233/298/4
f 240/302/25 236/300/25 234/299/25 238/304/25
